<svg width="350" height="350" viewBox="0 0 350 350" fill="none" xmlns="http://www.w3.org/2000/svg">
<path fill-rule="evenodd" clip-rule="evenodd" d="M33.5113 155.422C42.0796 101.597 201.532 33.8494 285.399 76.4024C369.266 118.955 260.504 157.467 268.506 246.026C274.056 307.463 180.076 311.584 105.429 278.862C60.1947 259.033 27.2549 194.724 33.5113 155.422Z" fill="#B1CBFD"/>
<g clip-path="url(#clip0_1271_4335)">
<path fill-rule="evenodd" clip-rule="evenodd" d="M257.835 41.5324C259.476 41.5177 260.556 42.2585 260.943 43.8076C261.135 44.5794 261.034 45.4283 261.04 46.2424C261.055 48.3352 261.079 50.4284 261.052 52.5208C261.036 53.8242 260.932 55.1264 260.871 56.4293C260.859 56.6772 260.856 56.9257 260.856 57.1739C260.855 59.9054 260.877 62.6372 260.851 65.3685C260.805 70.1589 260.734 74.949 260.666 79.7392C260.61 83.7164 260.542 87.6934 260.48 91.6705C260.417 95.7102 260.355 99.7499 260.292 103.79C260.23 107.767 260.176 111.744 260.101 115.721C260.057 118.072 259.964 120.422 259.923 122.774C259.894 124.41 259.935 126.048 259.914 127.684C259.862 131.724 259.801 135.764 259.726 139.803C259.683 142.123 259.588 144.442 259.547 146.762C259.519 148.43 259.565 150.099 259.536 151.767C259.496 154.056 259.399 156.343 259.36 158.632C259.331 160.394 259.378 162.156 259.348 163.918C259.312 166.019 259.21 168.119 259.173 170.22C259.143 171.919 259.184 173.619 259.163 175.319C259.111 179.452 259.045 183.586 258.978 187.719C258.92 191.258 258.86 194.798 258.789 198.337C258.738 200.907 258.648 203.476 258.61 206.046C258.58 208.027 258.628 210.009 258.597 211.989C258.565 214.028 258.455 216.065 258.423 218.104C258.392 220.053 258.44 222.003 258.409 223.953C258.379 225.804 258.265 227.653 258.235 229.504C258.204 231.485 258.248 233.466 258.224 235.447C258.175 239.549 258.106 243.652 258.04 247.754C257.981 251.356 257.983 254.96 257.834 258.559C257.69 262.019 258.488 265.228 260.208 268.182C261.961 271.192 263.84 274.129 265.702 277.073C267.544 279.983 269.16 283.013 270.016 286.353C270.627 288.738 270.717 291.213 270.031 293.628C269.796 294.453 268.367 300.147 269.583 301.627C271.144 303.526 273.118 304.378 275.549 304.434C277.919 304.488 280.169 303.911 282.439 303.386C285.201 302.746 287.973 302.285 290.753 303.293C292.136 303.795 293.384 304.504 294.202 305.785C294.326 305.98 294.629 306.308 293.968 306.311C292.368 306.32 290.767 306.419 289.167 306.481C285.966 306.606 282.766 306.735 279.565 306.855C277.715 306.925 275.864 306.984 274.014 307.043C271.944 307.109 269.875 307.173 267.805 307.231C265.392 307.298 262.979 307.363 260.565 307.418C257.558 307.487 254.55 307.55 251.542 307.606C247.847 307.674 244.151 307.74 240.455 307.793C235.54 307.863 230.625 307.913 225.709 307.985C222.358 308.034 219.006 308.109 215.654 308.169C215.081 308.179 214.507 308.166 213.933 308.171C207.017 308.232 200.1 308.296 193.183 308.357C192.578 308.362 191.973 308.353 191.368 308.358C184.295 308.42 177.222 308.483 170.149 308.545C169.512 308.55 168.876 308.541 168.24 308.546C161.229 308.607 154.219 308.671 147.208 308.732C146.603 308.738 145.998 308.728 145.393 308.734C138.32 308.795 131.247 308.858 124.174 308.92C123.6 308.923 67.9596 308.916 67.386 308.923C66.4785 308.93 62.6044 301.957 67.8898 286.353C69.0635 282.888 73.1887 276.549 80.2653 267.337C79.3017 119.581 79.3017 45.6863 80.2653 45.6523C81.8346 45.5969 83.4033 45.5249 84.9725 45.4669C88.4232 45.3393 124.541 45.2199 127.992 45.0888C129.311 45.0387 130.629 44.9508 131.948 44.9065C134.174 44.8318 136.4 44.7843 138.625 44.7135C140.257 44.6615 141.889 44.5858 143.52 44.5291C145.465 44.4615 147.409 44.4081 149.353 44.3385C150.86 44.2846 152.366 44.2018 153.873 44.1556C156.286 44.0817 158.7 44.0327 161.113 43.9633C162.995 43.9091 164.877 43.837 166.758 43.7781C168.859 43.7122 170.96 43.6522 173.061 43.5897C175.161 43.5271 177.262 43.4631 179.363 43.4024C181.588 43.3381 183.814 43.2778 186.04 43.2141C188.183 43.1528 190.325 43.0862 192.468 43.0275C194.881 42.9615 197.295 42.9019 199.708 42.839C202.091 42.7769 204.473 42.7127 206.855 42.6518C209.362 42.5877 211.869 42.5269 214.377 42.4636C216.821 42.4019 219.267 42.3606 221.71 42.269C223.576 42.1991 225.438 42.0575 227.303 41.9669C227.579 41.9535 227.861 42.0862 228.139 42.0823C231.991 42.0289 235.843 41.9693 239.695 41.8989C242.578 41.8462 245.46 41.7734 248.343 41.7138C251.506 41.6485 254.67 41.5666 257.835 41.5324ZM94.357 208.431C92.3277 215.669 95.7537 236.547 93.2448 245.684C93.2448 246.512 106.597 246.249 133.302 244.895C136.086 238.418 137.068 232.827 136.248 228.12C135.941 226.36 130.703 227.525 130.447 226.137C129.675 221.957 133.925 216.402 132.131 212.671C129.962 212.671 127.163 208.219 121.219 207.551C115.275 206.884 99.3445 208.431 94.357 208.431ZM206.751 205.406C204.744 207.604 197.811 211.738 195.642 211.738C193.848 215.469 198.097 221.024 197.325 225.204C197.069 226.591 191.832 225.426 191.525 227.186C190.704 231.893 191.648 237.748 194.355 244.751C221.137 245.578 234.528 245.578 234.528 244.751C232.494 236.125 235.095 212.23 233.066 204.991L232.71 204.991C227.384 204.98 212.56 204.754 206.751 205.406Z" fill="white"/>
</g>
<path fill-rule="evenodd" clip-rule="evenodd" d="M96.4632 69.4536C98.3806 78.6376 98.3887 88.0986 98.3891 97.4806C98.3909 145.979 98.3927 194.477 98.3945 242.975C98.3945 243.755 98.3763 244.593 97.9156 245.223C97.4549 245.852 96.3727 246.066 95.9237 245.429C95.7064 245.12 95.6976 244.716 95.6968 244.339C95.594 193.708 95.4912 143.078 95.3884 92.447C95.3728 84.7669 95.3594 77.054 96.4632 69.4536H96.4632Z" fill="#0C1D3E"/>
<path fill-rule="evenodd" clip-rule="evenodd" d="M97.4668 65.2445C102.612 66.4316 106.917 71.5076 112.105 70.5278C116.404 69.7159 118.969 65.0278 123.111 63.6187C130.958 60.9493 140.005 71.0277 146.94 66.4887C148.198 65.6653 149.167 64.4327 150.494 63.7247C156.164 60.6982 163.499 68.8398 168.976 65.4752C170.246 64.695 171.127 63.4003 172.37 62.5777C177.71 59.0438 184.295 66.0276 190.682 65.5732C196.517 65.1581 201.415 58.5293 206.98 60.3299C209.287 61.0762 210.964 63.168 213.266 63.9275C218.278 65.5807 223.701 60.3567 228.679 62.1081C230.327 62.688 231.679 63.9855 233.378 64.3935C235.488 64.9001 237.651 63.9393 239.568 62.9212C241.484 61.9031 243.497 60.7677 245.663 60.9033C247.829 61.0389 250.007 63.1236 249.33 65.1853C247.76 69.9639 247.573 75.0698 247.4 80.0965C245.551 133.737 243.702 187.378 241.853 241.019C240.591 240.947 240.254 239.255 240.283 237.991C241.598 180.67 242.912 123.349 244.227 66.0284C241.718 64.6134 239.04 67.7553 236.193 68.1944C233.216 68.6537 230.673 66.0892 227.757 65.3328C222.235 63.9004 216.006 69.0492 211.038 66.2447C209.353 65.2938 208.165 63.5429 206.352 62.8673C201.29 60.9801 197.512 68.345 192.225 69.4609C186.492 70.671 181.397 64.1581 175.589 64.9277C170.212 65.6403 166.179 72.4068 160.954 70.9524C157.444 69.9756 154.888 65.4041 151.393 66.4312C149.373 67.025 148.368 69.2749 146.662 70.51C143.985 72.4487 140.21 71.5185 137.262 70.0237C134.313 68.5289 131.44 66.4972 128.136 66.3917C123.267 66.2362 119.354 70.2399 114.765 71.8742C108.432 74.1295 100.671 71.155 97.4668 65.2445Z" fill="#0C1D3E"/>
<path fill-rule="evenodd" clip-rule="evenodd" d="M166.883 73.9379C166.931 75.1198 166.018 76.0947 165.169 76.9185C161.848 80.1417 158.522 83.3739 155.556 86.9259C151.954 91.2386 148.857 96.0476 144.536 99.6395C144.08 99.103 144.513 98.2965 144.946 97.7411C151.228 89.6745 157.994 81.9845 165.195 74.726C165.655 74.2622 166.255 73.7605 166.883 73.9379V73.9379Z" fill="#E7EAEE"/>
<path fill-rule="evenodd" clip-rule="evenodd" d="M213.075 178.978C212.579 179.329 211.957 179.658 211.389 179.441C211.602 178.793 212.029 178.239 212.457 177.708C217.703 171.213 224.39 166.062 231.011 160.976C231.607 160.518 232.391 160.039 233.056 160.39C232.996 160.95 232.565 161.39 232.15 161.771C228.259 165.348 223.606 168.06 219.949 171.877C217.665 174.261 215.772 177.072 213.075 178.978Z" fill="#E7EAEE"/>
<path fill-rule="evenodd" clip-rule="evenodd" d="M105.08 126.935C105.394 126.281 106.272 126.189 106.998 126.188C114.687 126.173 122.375 126.159 130.064 126.144C130.117 109.717 129.878 93.2894 129.349 76.871C129.331 76.2968 129.323 75.6808 129.64 75.2018C129.957 74.7227 130.733 74.5137 131.105 74.9515C131.378 92.0923 131.651 109.233 131.925 126.374C131.932 126.855 131.93 127.372 131.657 127.768C131.221 128.401 130.32 128.448 129.551 128.431C122.437 128.275 115.322 128.12 108.208 127.964C107.071 127.939 105.773 127.837 105.08 126.935Z" fill="#0C1D3E"/>
<path fill-rule="evenodd" clip-rule="evenodd" d="M82.0592 50.4743C91.2387 115.222 80.9994 181.327 87.4258 246.406C142.544 246.085 197.662 245.764 252.78 245.443C254.091 245.435 255.57 245.354 256.433 244.368C257.15 243.549 257.204 242.361 257.222 241.273C258.298 175.46 259.374 109.646 260.45 43.8319C218.375 44.9654 176.299 46.0989 134.223 47.2324C118.455 47.6571 102.63 48.0797 86.9504 46.3633C143.904 43.6099 200.906 41.8452 257.921 41.0704C259.559 41.0481 261.386 41.0986 262.553 42.2493C263.745 43.4253 263.794 45.3007 263.766 46.975C262.667 111.984 261.568 176.994 260.469 242.003C260.298 252.168 260.225 262.793 264.791 271.876C268.374 279.003 274.875 286.109 272.576 293.749C272.015 295.613 270.925 297.402 271.069 299.343C271.444 304.383 278.607 305.033 283.526 303.878C288.446 302.724 295.328 302.316 296.807 307.148C215.464 308.97 134.095 309.64 52.7324 309.157C58.529 307.269 64.581 306.167 70.6711 305.89C67.2878 298.319 68.1722 289.004 72.9196 282.205C75.5923 278.378 79.4045 275.267 81.1299 270.93C82.3891 267.764 82.4012 264.26 82.3957 260.853C82.2835 190.727 82.1713 120.601 82.0592 50.4743ZM196.284 287.7C182.617 288.172 169.033 290.764 155.365 290.316C149.215 290.115 143.103 289.299 136.964 288.872C121.907 287.826 106.797 289.128 91.7602 290.428C85.778 290.946 79.7958 291.463 73.8136 291.98C73.2511 292.029 72.6393 292.099 72.2386 292.497C71.7231 293.009 71.7638 293.839 71.8403 294.562C72.1725 297.696 72.5047 300.83 72.8368 303.965C72.9132 304.685 73.0275 305.481 73.582 305.948C74.0957 306.381 74.8303 306.396 75.5019 306.39C139.246 305.814 202.99 305.237 266.734 304.661C267.44 304.654 268.218 304.621 268.735 304.14C269.25 303.661 269.341 302.892 269.4 302.191C269.744 298.1 270.089 294.008 270.434 289.917C245.854 292.939 221.034 286.844 196.284 287.7ZM151.041 286.517C168.519 287.322 185.954 284.072 203.45 284.204C224.966 284.368 246.561 289.635 267.819 286.312C268.319 286.234 268.873 286.118 269.163 285.704C269.581 285.105 269.209 284.292 268.835 283.665C266.508 279.764 264.182 275.862 261.855 271.961C261.282 270.999 260.67 269.998 259.708 269.426C258.668 268.806 257.39 268.787 256.179 268.787C200.125 268.753 144.069 269.493 88.0346 271.005C83.158 276.799 77.9802 282.339 72.5291 287.596C90.4138 289.731 108.377 284.474 126.387 284.739C134.627 284.86 142.808 286.138 151.041 286.517ZM85.5306 258.889C85.9606 262.157 87.7892 265.444 90.843 266.686C92.5926 267.398 94.5412 267.378 96.4297 267.347C149.81 266.478 203.191 265.61 256.572 264.741C256.777 261.196 256.981 257.65 257.186 254.105C257.219 253.537 257.24 252.923 256.924 252.449C256.505 251.818 255.658 251.668 254.906 251.576C199.144 244.774 142.482 254.288 86.5463 249.106C85.8255 252.322 85.1005 255.62 85.5306 258.889Z" fill="#0C1D3E"/>
<path fill-rule="evenodd" clip-rule="evenodd" d="M165.948 86.9262C166.274 86.6288 166.613 86.3258 167.03 86.181C167.446 86.0362 167.964 86.0885 168.251 86.4227C168.08 87.1598 167.435 87.6734 166.845 88.1479C161.229 92.6677 157.199 98.889 151.72 103.574C151.318 103.918 150.605 104.206 150.358 103.739C150.187 103.418 150.446 103.044 150.689 102.773C155.588 97.3122 160.531 91.8735 165.948 86.9262Z" fill="#E7EAEE"/>
<path fill-rule="evenodd" clip-rule="evenodd" d="M103.373 183.732C103.365 182.776 104.217 182.065 104.982 181.49C109.687 177.954 114.049 173.964 117.988 169.592C118.338 169.203 119.044 169.665 119.047 170.188C119.049 170.711 118.649 171.137 118.275 171.502C114.305 175.382 110.322 179.274 105.883 182.606C105.136 183.166 104.307 183.734 103.373 183.732Z" fill="#E7EAEE"/>
<path fill-rule="evenodd" clip-rule="evenodd" d="M133.748 74.7854C134.256 74.5261 134.843 74.4259 135.408 74.5024C135.918 91.5543 136.336 108.609 136.662 125.666C155.547 125.083 174.458 125.316 193.323 126.366C194.998 108.824 194.959 91.1688 194.799 73.5486C194.795 73.0895 194.798 72.6041 195.033 72.2095C195.267 71.815 195.824 71.574 196.201 71.835C196.528 72.0606 196.568 72.5192 196.576 72.9162C196.949 90.9184 196.466 108.938 195.128 126.895C195.101 127.257 195.066 127.642 194.844 127.93C194.472 128.411 193.762 128.419 193.156 128.384C173.748 127.253 154.283 127.095 134.859 127.91C134.822 110.197 134.452 92.4845 133.748 74.7854Z" fill="#0C1D3E"/>
<path fill-rule="evenodd" clip-rule="evenodd" d="M197.738 245.225C194.819 239.048 193.697 232.035 194.541 225.256C194.57 225.026 194.607 224.782 194.759 224.606C194.83 231.075 196.001 237.53 198.206 243.612C198.32 243.927 198.439 244.257 198.392 244.588C198.346 244.92 198.072 245.246 197.738 245.225H197.738Z" fill="#0C1D3E"/>
<path fill-rule="evenodd" clip-rule="evenodd" d="M210.551 164.56C213.825 161.401 217.099 158.241 220.374 155.082C220.715 154.753 221.328 155.194 221.321 155.667C221.314 156.141 220.951 156.524 220.611 156.854C217.869 159.523 215.126 162.191 212.383 164.86C212.03 165.204 211.621 165.571 211.128 165.564C210.635 165.557 210.196 164.902 210.551 164.56H210.551Z" fill="#E7EAEE"/>
<path fill-rule="evenodd" clip-rule="evenodd" d="M140.983 225.252C149.32 225.283 157.65 224.802 165.974 224.322C175.617 223.765 185.259 223.209 194.902 222.652C197.054 222.528 199.291 222.379 201.167 221.319C198.987 218.771 197.53 215.611 197.006 212.299C196.955 211.981 196.917 211.637 197.066 211.351C197.214 211.065 197.625 210.897 197.87 211.107C198.306 214.7 199.724 218.17 201.929 221.04C202.376 221.622 201.604 222.365 200.922 222.636C198.569 223.571 195.989 223.722 193.46 223.862C186.024 224.274 178.588 224.685 171.152 225.096C161.717 225.619 152.282 226.141 142.84 226.501C140.994 226.571 138.822 226.482 137.768 224.964C136.892 223.702 137.198 221.996 137.56 220.503C138.14 218.111 138.771 215.731 139.454 213.366C139.649 212.69 140.041 211.87 140.743 211.908C139.315 215.203 138.559 218.789 138.535 222.381C138.528 223.357 138.672 224.504 139.519 224.99C139.954 225.24 140.481 225.251 140.983 225.252Z" fill="#0C1D3E"/>
<path fill-rule="evenodd" clip-rule="evenodd" d="M140.554 90.6948C140.027 90.4588 140.327 89.6623 140.692 89.216C144.873 84.1091 149.054 79.0022 153.235 73.8953C153.41 73.6814 153.596 73.4593 153.852 73.3553C154.108 73.2514 154.454 73.3135 154.576 73.5613C154.717 73.8463 154.503 74.1717 154.301 74.4169C150.115 79.4896 145.929 84.5624 141.743 89.6351C141.402 90.0485 141.043 90.4758 140.554 90.6948H140.554Z" fill="#E7EAEE"/>
<path fill-rule="evenodd" clip-rule="evenodd" d="M82.4734 50.2176C82.3985 49.641 82.3782 49.0573 82.4129 48.4769C82.4185 48.3835 82.4384 48.2714 82.5254 48.2368C82.669 48.1796 82.7654 48.3867 82.7817 48.5403C82.8437 49.125 82.8794 49.7924 82.4734 50.2176H82.4734Z" fill="#0C1D3E"/>
<path fill-rule="evenodd" clip-rule="evenodd" d="M230.926 128.141C220.231 128.245 209.535 128.348 198.84 128.452C198.541 128.455 198.214 128.448 197.988 128.253C197.726 128.028 197.698 127.639 197.69 127.294C197.265 109.418 197.905 91.5358 198.546 73.6661C198.566 73.1114 198.6 72.5156 198.943 72.0791C199.286 71.6425 200.059 71.5139 200.366 71.9762C199.578 89.7236 199.182 107.488 199.18 125.253C199.18 125.79 199.36 126.514 199.896 126.494C212.052 126.03 224.226 126.026 236.382 126.484C236.63 126.493 236.921 126.528 237.043 126.744C237.253 127.114 236.756 127.48 236.347 127.598C234.596 128.102 232.748 128.123 230.926 128.141Z" fill="#0C1D3E"/>
<path fill-rule="evenodd" clip-rule="evenodd" d="M61.0597 227.504C60.8685 227.314 60.6773 227.124 60.4861 226.933C60.3837 226.832 60.2759 226.672 60.3654 226.559C60.4692 226.427 60.6762 226.545 60.7943 226.663C60.9704 226.84 61.1466 227.017 61.3228 227.194C61.4407 227.313 61.5558 227.522 61.422 227.622C61.3106 227.706 61.1584 227.602 61.0597 227.504L61.0597 227.504Z" fill="#0C1D3E"/>
<path fill-rule="evenodd" clip-rule="evenodd" d="M114.121 148.745C114.234 148.96 114.152 149.226 114.041 149.442C113.784 149.942 113.388 150.355 112.992 150.754C112.216 151.537 111.422 152.302 110.608 153.046C110.333 153.298 110.032 153.559 109.663 153.614C109.293 153.668 108.855 153.411 108.867 153.038C108.875 152.823 109.021 152.641 109.162 152.478C110.275 151.192 111.489 149.994 112.789 148.897C112.986 148.731 113.195 148.562 113.445 148.5C113.696 148.439 114.001 148.516 114.121 148.745Z" fill="#E7EAEE"/>
<path fill-rule="evenodd" clip-rule="evenodd" d="M107.617 119.762C107.536 119.759 107.533 119.606 107.615 119.6C107.697 119.606 107.694 119.76 107.612 119.763L107.617 119.762Z" fill="#0C1D3E"/>
<path fill-rule="evenodd" clip-rule="evenodd" d="M106.888 162.412C106.796 162.089 107.06 161.781 107.313 161.559C107.875 161.069 108.494 160.648 109.1 160.212C111.375 158.576 113.486 156.711 115.392 154.656C115.612 154.418 115.838 154.172 116.134 154.039C116.43 153.906 116.817 153.917 117.037 154.155C117.246 154.382 117.241 154.746 117.107 155.024C116.973 155.303 116.736 155.515 116.505 155.719C114.884 157.154 113.264 158.588 111.643 160.023C110.582 160.962 109.508 161.911 108.257 162.576C108.023 162.701 107.773 162.818 107.508 162.817C107.243 162.817 106.96 162.667 106.888 162.412H106.888Z" fill="#E7EAEE"/>
<path fill-rule="evenodd" clip-rule="evenodd" d="M209.038 154.994C208.809 155.239 208.576 155.498 208.268 155.63C207.959 155.762 207.55 155.727 207.351 155.457C207.031 155.022 207.452 154.438 207.848 154.071C210.211 151.883 212.686 149.816 215.26 147.88C215.744 147.516 216.355 147.137 216.917 147.366C216.978 147.391 217.042 147.428 217.063 147.491C217.08 147.541 217.065 147.596 217.049 147.646C216.8 148.411 216.143 148.961 215.512 149.46C213.282 151.223 210.974 152.913 209.038 154.994Z" fill="#E7EAEE"/>
<path fill-rule="evenodd" clip-rule="evenodd" d="M143.275 228.116C143.682 229.968 144.317 233.062 144.095 234.946C143.694 238.342 142.767 240.78 142.013 244.116C141.892 244.649 141.185 245.009 140.68 245.217C140.367 244.784 140.5 244.187 140.64 243.672C142.023 238.589 142.907 233.371 143.275 228.116Z" fill="#0C1D3E"/>
<path fill-rule="evenodd" clip-rule="evenodd" d="M173.113 244.635C172.846 244.929 172.368 244.656 172.083 244.379C170.443 242.782 168.959 241.023 167.662 239.137C167.599 239.046 167.465 239.154 167.414 239.252C166.467 241.091 165.52 242.93 164.573 244.769C164.533 244.848 164.478 244.937 164.389 244.944C164.211 244.958 164.209 244.679 164.281 244.515C165.21 242.381 166.139 240.248 167.069 238.115C167.111 238.018 167.156 237.918 167.235 237.848C167.54 237.579 167.983 237.943 168.222 238.271C169.61 240.177 171.146 241.974 172.813 243.64C173.086 243.912 173.372 244.351 173.113 244.635Z" fill="#0C1D3E"/>
<path fill-rule="evenodd" clip-rule="evenodd" d="M102.991 196.247C102.629 196.765 102.652 197.45 102.69 198.081L103.09 204.825C103.136 205.607 103.227 206.481 103.829 206.983C104.39 207.451 105.199 207.427 105.929 207.378L120.285 206.423C124.432 206.147 128.954 205.972 132.33 208.396C138.59 212.89 148.306 211.487 153.039 205.405C153.593 204.692 154.625 204.616 155.528 204.602L182.788 204.154L182.861 204.153C184.09 204.132 185.697 204.106 186.29 205.036C191.337 212.962 204.514 211.472 211.06 205.085C212.32 203.856 214.232 203.661 215.987 203.535L233.292 202.284C235.305 202.138 236.824 200.215 237.194 198.231C237.564 196.247 237.055 194.216 236.548 192.262C236.392 191.659 236.192 190.995 235.658 190.675C235.264 190.439 234.776 190.447 234.317 190.462L198.138 191.645C197.437 171.793 197.788 151.904 199.191 132.089C212.473 131.448 225.775 131.228 239.072 131.429C239.47 130.344 237.821 129.75 236.665 129.779L199.587 130.72C198.946 130.736 198.24 130.779 197.781 131.226C197.322 131.672 197.26 132.376 197.226 133.015C196.2 152.614 195.89 172.25 196.296 191.871C195.546 191.994 194.76 191.897 194.063 191.592L194.345 132.42C194.348 131.888 194.318 131.283 193.912 130.941C193.586 130.667 193.122 130.654 192.697 130.655C173.358 130.675 154.02 130.936 134.687 131.436L135.759 193.898L133.25 194.198C132.287 173.58 131.953 152.932 132.249 132.294C132.265 131.157 130.77 130.745 129.634 130.696C121.067 130.32 112.484 130.311 103.916 130.67C105.215 132.059 107.334 132.195 109.235 132.239L130.526 132.73C130.183 153.106 130.486 173.493 131.434 193.85L105.304 195.383C104.452 195.433 103.479 195.547 102.991 196.247ZM136.514 132.437C155.103 132.34 173.692 132.164 192.28 131.909C192.664 131.904 192.785 132.422 192.781 132.805L192.226 191.894L137.514 194.002C137.008 173.483 136.675 152.961 136.514 132.437ZM144.186 199.086C143.119 199.128 142.253 199.945 141.588 200.781C141.482 200.914 141.378 201.05 141.273 201.186C140.719 201.904 140.158 202.633 139.357 203.038C138.608 203.415 137.742 203.46 136.904 203.498L104.848 204.939L104.263 197.326C147.509 194.9 190.791 193.11 234.089 191.957C234.387 191.949 234.713 191.951 234.941 192.141C235.214 192.368 235.242 192.769 235.249 193.124L235.386 200.376C225.256 201.862 214.997 202.189 204.764 202.514C203.329 202.56 201.796 202.58 200.585 201.811C199.759 201.286 199.195 200.465 198.636 199.65C198.505 199.459 198.374 199.268 198.24 199.082C197.535 198.101 196.589 197.142 195.386 197.043C194.182 196.944 192.907 198.225 193.444 199.307C192.339 197.85 189.502 198.728 189.414 200.554C189.067 199.167 187.297 198.35 186.017 198.988C184.737 199.626 184.322 201.531 185.22 202.643L154.037 203.189C154.077 202.061 153.191 200.973 152.079 200.784C150.966 200.596 149.771 201.331 149.438 202.409C149.466 200.704 146.792 199.796 145.776 201.166C146.324 200.25 145.253 199.044 144.186 199.086ZM193.63 208.662C192.048 208.316 190.409 207.822 189.284 206.657C188.711 206.065 188.307 205.334 187.91 204.613L186.394 201.857C186.213 201.529 186.027 201.172 186.074 200.8C186.122 200.429 187.305 199.297 188.359 200.554C189.414 201.811 189.801 202.31 190.613 203.885C190.68 204.015 190.747 204.149 190.815 204.286C191.358 205.375 191.964 206.589 193.129 206.654C193.354 205.804 192.966 204.925 192.588 204.132L191.531 201.917C191.196 201.213 190.873 200.332 191.337 199.706C193.758 200.522 195.108 203.042 196.15 205.375C196.281 205.669 196.42 205.974 196.672 206.173C196.924 206.373 197.325 206.423 197.551 206.194C197.849 205.894 197.659 205.391 197.459 205.018C196.467 203.163 195.592 201.246 194.841 199.282C194.753 199.052 194.674 198.769 194.832 198.58C195.022 198.351 195.39 198.447 195.657 198.578C197.314 199.388 198.648 200.838 199.319 202.556C199.371 202.688 199.419 202.822 199.467 202.956C199.624 203.394 199.782 203.833 200.06 204.203C200.916 205.339 202.557 205.435 203.98 205.428C204.367 205.426 204.767 205.421 205.117 205.258C205.468 205.096 205.754 204.727 205.694 204.346C205.637 203.987 206.139 203.843 206.503 203.846L210.995 203.886C208.743 206.573 205.125 207.6 201.734 208.488C200.773 208.74 199.809 208.992 198.823 209.101C197.088 209.293 195.335 209.036 193.63 208.662ZM130.063 206.031C131.523 205.725 133.002 205.516 134.49 205.407C134.37 205.918 134.714 206.443 135.16 206.719C136.202 207.362 137.616 206.911 138.524 206.09C139.137 205.537 139.596 204.847 140.055 204.157C140.277 203.823 140.5 203.489 140.74 203.17C141.691 201.906 144.241 199.03 144.746 200.376C145.043 201.166 144.308 202.63 143.49 204.26C142.916 205.405 142.3 206.631 141.972 207.764C142.999 206.983 143.429 206.268 143.885 205.375C144.411 204.346 145.501 202.9 146.35 201.857C146.732 201.387 147.302 201.106 147.841 201.347C148.381 201.589 148.542 202.242 148.399 202.556C148.065 203.292 147.853 203.833 147.641 204.375C147.43 204.917 147.218 205.459 146.884 206.194C146.862 206.241 146.829 206.308 146.789 206.388C146.589 206.795 146.217 207.545 146.35 207.767C146.486 207.996 146.858 207.6 147.236 207.197C147.326 207.101 147.416 207.006 147.503 206.918C147.636 206.783 147.862 206.385 148.158 205.865C148.877 204.6 150.007 202.611 151.217 201.917C152.209 201.347 152.647 202.805 152.439 203.246C152.055 204.056 151.648 204.855 151.217 205.642C150.645 206.685 149.546 207.728 148.624 208.479C147.452 209.432 145.922 209.824 144.424 210.02C139.216 210.7 134.227 209.232 130.063 206.031ZM136.514 206.423C135.749 206.497 135.16 205.407 135.16 205.407L138.309 205.178C138.309 205.178 137.279 206.349 136.514 206.423Z" fill="#0C1D3E"/>
<defs>
<clipPath id="clip0_1271_4335">
<rect width="229.6" height="267.4" fill="white" transform="translate(64.8652 41.5337)"/>
</clipPath>
</defs>
</svg>
