<svg width="284" height="60" viewBox="0 0 284 60" fill="none" xmlns="http://www.w3.org/2000/svg">
<g filter="url(#filter0_d_577_2569)">
<rect x="2" y="1" width="280" height="56" rx="10" fill="#32454B" shape-rendering="crispEdges"/>
<path d="M28 27.9961C28.0049 28.5226 28.2168 29.0259 28.59 29.3971L32.88 33.7002C33.0674 33.8866 33.3208 33.9912 33.585 33.9912C33.8492 33.9912 34.1026 33.8866 34.29 33.7002C34.3837 33.6072 34.4581 33.4965 34.5089 33.3746C34.5597 33.2526 34.5858 33.1218 34.5858 32.9897C34.5858 32.8576 34.5597 32.7268 34.5089 32.6048C34.4581 32.4829 34.3837 32.3722 34.29 32.2792L31 28.9968H47C47.2652 28.9968 47.5196 28.8914 47.7071 28.7037C47.8946 28.516 48 28.2615 48 27.9961C48 27.7307 47.8946 27.4762 47.7071 27.2885C47.5196 27.1008 47.2652 26.9954 47 26.9954H31L34.29 23.703C34.4783 23.5159 34.5846 23.2616 34.5856 22.996C34.5865 22.7305 34.482 22.4754 34.295 22.287C34.108 22.0985 33.8539 21.9922 33.5885 21.9912C33.3232 21.9903 33.0683 22.0949 32.88 22.282L28.59 26.5851C28.2144 26.9587 28.0022 27.4661 28 27.9961Z" fill="white"/>
<path d="M77.6719 22.9091V36H75.7031V24.5966H69.5412V36H67.5724V22.9091H77.6719ZM80.5387 39.6818V26.1818H82.4052V27.7734H82.565C82.6758 27.5689 82.8356 27.3324 83.0444 27.0639C83.2532 26.7955 83.543 26.5611 83.9137 26.3608C84.2844 26.1562 84.7745 26.054 85.3839 26.054C86.1765 26.054 86.8839 26.2543 87.506 26.6548C88.1282 27.0554 88.6161 27.6328 88.9698 28.3871C89.3278 29.1413 89.5067 30.049 89.5067 31.1101C89.5067 32.1712 89.3299 33.081 88.9762 33.8395C88.6225 34.5937 88.1367 35.1754 87.5188 35.5845C86.9009 35.9893 86.1957 36.1918 85.4031 36.1918C84.8065 36.1918 84.3185 36.0916 83.9393 35.8913C83.5643 35.6911 83.2702 35.4567 83.0572 35.1882C82.8441 34.9197 82.68 34.6811 82.565 34.4723H82.4499V39.6818H80.5387ZM82.4116 31.0909C82.4116 31.7812 82.5117 32.3864 82.712 32.9062C82.9123 33.4261 83.2021 33.8331 83.5813 34.1271C83.9606 34.4169 84.4251 34.5618 84.9748 34.5618C85.5458 34.5618 86.0231 34.4105 86.4066 34.108C86.7901 33.8011 87.0799 33.3857 87.2759 32.8615C87.4762 32.3374 87.5763 31.7472 87.5763 31.0909C87.5763 30.4432 87.4783 29.8615 87.2823 29.3459C87.0906 28.8303 86.8008 28.4233 86.413 28.125C86.0295 27.8267 85.5501 27.6776 84.9748 27.6776C84.4208 27.6776 83.9521 27.8203 83.5685 28.1058C83.1893 28.3913 82.9016 28.7898 82.7056 29.3011C82.5096 29.8125 82.4116 30.4091 82.4116 31.0909ZM95.7837 36.1982C94.8633 36.1982 94.06 35.9872 93.3739 35.5653C92.6879 35.1435 92.1552 34.5533 91.7759 33.7947C91.3967 33.0362 91.207 32.1499 91.207 31.1357C91.207 30.1172 91.3967 29.2266 91.7759 28.4638C92.1552 27.701 92.6879 27.1087 93.3739 26.6868C94.06 26.2649 94.8633 26.054 95.7837 26.054C96.7042 26.054 97.5075 26.2649 98.1935 26.6868C98.8796 27.1087 99.4123 27.701 99.7915 28.4638C100.171 29.2266 100.36 30.1172 100.36 31.1357C100.36 32.1499 100.171 33.0362 99.7915 33.7947C99.4123 34.5533 98.8796 35.1435 98.1935 35.5653C97.5075 35.9872 96.7042 36.1982 95.7837 36.1982ZM95.7901 34.5938C96.3867 34.5938 96.881 34.4361 97.2731 34.1207C97.6651 33.8054 97.9549 33.3857 98.1424 32.8615C98.3342 32.3374 98.43 31.7599 98.43 31.1293C98.43 30.5028 98.3342 29.9276 98.1424 29.4034C97.9549 28.875 97.6651 28.451 97.2731 28.1314C96.881 27.8118 96.3867 27.652 95.7901 27.652C95.1893 27.652 94.6907 27.8118 94.2944 28.1314C93.9023 28.451 93.6104 28.875 93.4187 29.4034C93.2312 29.9276 93.1374 30.5028 93.1374 31.1293C93.1374 31.7599 93.2312 32.3374 93.4187 32.8615C93.6104 33.3857 93.9023 33.8054 94.2944 34.1207C94.6907 34.4361 95.1893 34.5938 95.7901 34.5938ZM101.535 38.8317V34.3445H102.334C102.539 34.157 102.711 33.9332 102.852 33.6733C102.997 33.4134 103.118 33.1044 103.216 32.7464C103.318 32.3885 103.404 31.9709 103.472 31.4936C103.54 31.0121 103.6 30.4624 103.651 29.8445L103.958 26.1818H110.631V34.3445H112.139V38.8317H110.273V36H103.427V38.8317H101.535ZM104.379 34.3445H108.764V27.8182H105.671L105.466 29.8445C105.368 30.8757 105.244 31.7706 105.095 32.5291C104.946 33.2834 104.708 33.8885 104.379 34.3445ZM118.143 36.1982C117.223 36.1982 116.419 35.9872 115.733 35.5653C115.047 35.1435 114.515 34.5533 114.135 33.7947C113.756 33.0362 113.566 32.1499 113.566 31.1357C113.566 30.1172 113.756 29.2266 114.135 28.4638C114.515 27.701 115.047 27.1087 115.733 26.6868C116.419 26.2649 117.223 26.054 118.143 26.054C119.064 26.054 119.867 26.2649 120.553 26.6868C121.239 27.1087 121.772 27.701 122.151 28.4638C122.53 29.2266 122.72 30.1172 122.72 31.1357C122.72 32.1499 122.53 33.0362 122.151 33.7947C121.772 34.5533 121.239 35.1435 120.553 35.5653C119.867 35.9872 119.064 36.1982 118.143 36.1982ZM118.15 34.5938C118.746 34.5938 119.24 34.4361 119.632 34.1207C120.025 33.8054 120.314 33.3857 120.502 32.8615C120.694 32.3374 120.789 31.7599 120.789 31.1293C120.789 30.5028 120.694 29.9276 120.502 29.4034C120.314 28.875 120.025 28.451 119.632 28.1314C119.24 27.8118 118.746 27.652 118.15 27.652C117.549 27.652 117.05 27.8118 116.654 28.1314C116.262 28.451 115.97 28.875 115.778 29.4034C115.591 29.9276 115.497 30.5028 115.497 31.1293C115.497 31.7599 115.591 32.3374 115.778 32.8615C115.97 33.3857 116.262 33.8054 116.654 34.1207C117.05 34.4361 117.549 34.5938 118.15 34.5938ZM124.08 36L124.073 34.3445H124.425C124.698 34.3445 124.926 34.2869 125.109 34.1719C125.296 34.0526 125.45 33.8523 125.569 33.571C125.688 33.2898 125.78 32.902 125.844 32.4077C125.908 31.9091 125.955 31.2827 125.985 30.5284L126.157 26.1818H133.009V36H131.137V27.831H127.928L127.774 31.1676C127.736 31.9773 127.653 32.6847 127.525 33.2898C127.401 33.8949 127.22 34.3999 126.982 34.8047C126.743 35.2053 126.436 35.5057 126.061 35.706C125.686 35.902 125.23 36 124.693 36H124.08ZM134.932 36L138.735 30.9759L134.977 26.1818H137.201L140.237 30.2599H140.921V26.1818H142.832V30.2599H143.497L146.533 26.1818H148.758L145.018 30.9759L148.803 36H146.533L143.472 31.9091H142.832V36H140.921V31.9091H140.282L137.201 36H134.932ZM152.619 33.3217L156.946 26.1818H159.004V36H157.131V28.8537L152.823 36H150.746V26.1818H152.619V33.3217ZM160.356 27.831V26.1818H168.64V27.831H165.438V36H163.571V27.831H160.356ZM172.1 29.5568H174.951C176.153 29.5568 177.077 29.8551 177.725 30.4517C178.373 31.0483 178.697 31.8175 178.697 32.7592C178.697 33.3729 178.552 33.9247 178.262 34.4148C177.972 34.9048 177.548 35.2926 176.99 35.5781C176.432 35.8594 175.752 36 174.951 36H170.662V26.1818H172.535V34.3509H174.951C175.501 34.3509 175.952 34.2081 176.306 33.9226C176.66 33.6328 176.836 33.2642 176.836 32.8168C176.836 32.3437 176.66 31.9581 176.306 31.6598C175.952 31.3572 175.501 31.206 174.951 31.206H172.1V29.5568ZM185.603 36V26.1818H193.612V36H191.74V27.831H187.463V36H185.603ZM200.303 36.1982C199.383 36.1982 198.58 35.9872 197.893 35.5653C197.207 35.1435 196.675 34.5533 196.295 33.7947C195.916 33.0362 195.727 32.1499 195.727 31.1357C195.727 30.1172 195.916 29.2266 196.295 28.4638C196.675 27.701 197.207 27.1087 197.893 26.6868C198.58 26.2649 199.383 26.054 200.303 26.054C201.224 26.054 202.027 26.2649 202.713 26.6868C203.399 27.1087 203.932 27.701 204.311 28.4638C204.69 29.2266 204.88 30.1172 204.88 31.1357C204.88 32.1499 204.69 33.0362 204.311 33.7947C203.932 34.5533 203.399 35.1435 202.713 35.5653C202.027 35.9872 201.224 36.1982 200.303 36.1982ZM200.31 34.5938C200.906 34.5938 201.401 34.4361 201.793 34.1207C202.185 33.8054 202.474 33.3857 202.662 32.8615C202.854 32.3374 202.95 31.7599 202.95 31.1293C202.95 30.5028 202.854 29.9276 202.662 29.4034C202.474 28.875 202.185 28.451 201.793 28.1314C201.401 27.8118 200.906 27.652 200.31 27.652C199.709 27.652 199.21 27.8118 198.814 28.1314C198.422 28.451 198.13 28.875 197.938 29.4034C197.751 29.9276 197.657 30.5028 197.657 31.1293C197.657 31.7599 197.751 32.3374 197.938 32.8615C198.13 33.3857 198.422 33.8054 198.814 34.1207C199.21 34.4361 199.709 34.5938 200.31 34.5938ZM207.013 36V26.1818H208.925V30.2983H209.845L213.086 26.1818H215.451L211.648 30.9567L215.496 36H213.124L210.165 32.0753H208.925V36H207.013ZM218.241 39.6818C217.955 39.6818 217.695 39.6584 217.461 39.6115C217.227 39.5689 217.052 39.522 216.937 39.4709L217.397 37.9048C217.747 37.9986 218.058 38.0391 218.33 38.0263C218.603 38.0135 218.844 37.9112 219.053 37.7195C219.266 37.5277 219.453 37.2145 219.615 36.7798L219.852 36.1278L216.259 26.1818H218.305L220.791 33.8011H220.894L223.38 26.1818H225.432L221.386 37.3104C221.198 37.8217 220.96 38.2543 220.67 38.608C220.38 38.9659 220.035 39.2344 219.634 39.4134C219.234 39.5923 218.769 39.6818 218.241 39.6818ZM227.228 36V26.1818H235.237V36H233.365V27.831H229.088V36H227.228ZM237.793 36V26.1818H239.704V30.2983H240.624L243.865 26.1818H246.23L242.427 30.9567L246.275 36H243.903L240.944 32.0753H239.704V36H237.793ZM249.632 33.3217L253.96 26.1818H256.018V36H254.145V28.8537L249.837 36H247.759V26.1818H249.632V33.3217Z" fill="white"/>
</g>
<defs>
<filter id="filter0_d_577_2569" x="0" y="0" width="284" height="60" filterUnits="userSpaceOnUse" color-interpolation-filters="sRGB">
<feFlood flood-opacity="0" result="BackgroundImageFix"/>
<feColorMatrix in="SourceAlpha" type="matrix" values="0 0 0 0 0 0 0 0 0 0 0 0 0 0 0 0 0 0 127 0" result="hardAlpha"/>
<feOffset dy="1"/>
<feGaussianBlur stdDeviation="1"/>
<feComposite in2="hardAlpha" operator="out"/>
<feColorMatrix type="matrix" values="0 0 0 0 0.054902 0 0 0 0 0.0901961 0 0 0 0 0.101961 0 0 0 0.2 0"/>
<feBlend mode="normal" in2="BackgroundImageFix" result="effect1_dropShadow_577_2569"/>
<feBlend mode="normal" in="SourceGraphic" in2="effect1_dropShadow_577_2569" result="shape"/>
</filter>
</defs>
</svg>
