<svg width="94" height="45" viewBox="0 0 94 45" fill="none" xmlns="http://www.w3.org/2000/svg">
<path d="M37.7587 11.0257C37.2097 10.3916 36.9511 9.61323 37.0076 8.80823C37.065 8.00239 37.431 7.26906 38.0389 6.74156C38.6477 6.21323 39.4196 5.95656 40.228 6.01239C41.0306 6.06989 41.7633 6.43656 42.2897 7.04573L45.486 10.8574L44.3058 12.0399L41.0247 8.12656C40.7977 7.86406 40.47 7.69989 40.1099 7.67489C39.7456 7.65156 39.4004 7.76406 39.1293 7.99989C38.8565 8.23656 38.6926 8.56573 38.6669 8.92573C38.6411 9.28739 38.7567 9.63573 38.9921 9.90739L42.6 13.7482L41.4239 14.9266L37.7587 11.0257ZM57 25.9999H51.717C49.9139 25.9999 47.818 24.3616 47.818 22.2499C47.818 20.2874 49.602 18.4999 51.5607 18.4999C55.117 18.4999 56.254 23.0291 56.7397 24.9632L57 25.9999ZM54.8484 24.3332C54.2113 22.1357 53.284 20.1666 51.5607 20.1666C50.6192 20.1666 49.4814 21.0957 49.4814 22.2499C49.4814 23.3524 50.7315 24.3332 51.717 24.3332H54.8484ZM56.0851 11.1532L41.2668 25.9999H37.006V21.7299L51.8235 6.88323C52.9604 5.74406 54.949 5.74489 56.0843 6.88323H56.0851C56.6532 7.45406 56.9659 8.21156 56.9659 9.01823C56.9659 9.82489 56.6532 10.5841 56.0835 11.1532H56.0851ZM51.5923 13.2974L49.6827 11.3841L38.6694 22.4207V24.3332H40.5781L51.5915 13.2982L51.5923 13.2974ZM55.3033 9.01823C55.3033 8.65656 55.1636 8.31656 54.9091 8.06156C54.4001 7.55239 53.5085 7.55239 53.0004 8.06156L50.8596 10.2066L52.7691 12.1199L54.9099 9.97489C55.1644 9.71989 55.3042 9.38073 55.3042 9.01906L55.3033 9.01823Z" fill="white"/>
<path d="M33.2057 34.146V41.12H34.2067V44.068H33.2607V42H27.8597V44.068H26.9137V41.12H27.5187C27.7827 40.6653 28.032 40.1557 28.2667 39.591C28.5087 39.0263 28.7213 38.436 28.9047 37.82C29.088 37.1967 29.2383 36.5733 29.3557 35.95C29.473 35.3267 29.5463 34.7253 29.5757 34.146H33.2057ZM30.4447 35.037C30.4153 35.4623 30.342 35.9427 30.2247 36.478C30.1147 37.0133 29.9717 37.5633 29.7957 38.128C29.627 38.6853 29.4363 39.2243 29.2237 39.745C29.0183 40.2657 28.7983 40.724 28.5637 41.12H32.2267V35.037H30.4447ZM36.3011 39.701C36.3011 39.767 36.2975 39.8623 36.2901 39.987C36.2901 40.1043 36.2865 40.2327 36.2791 40.372C36.2718 40.504 36.2645 40.6323 36.2571 40.757C36.2498 40.8743 36.2425 40.9697 36.2351 41.043L39.3921 36.104H40.5801V42H39.6781V38.524C39.6781 38.4067 39.6781 38.2527 39.6781 38.062C39.6855 37.8713 39.6928 37.6843 39.7001 37.501C39.7075 37.3103 39.7148 37.1673 39.7221 37.072L36.5871 42H35.3881V36.104H36.3011V39.701ZM44.0075 35.994C44.4548 35.994 44.8435 36.0563 45.1735 36.181C45.5035 36.2983 45.7602 36.4743 45.9435 36.709C46.1268 36.9363 46.2185 37.215 46.2185 37.545C46.2185 37.9043 46.1195 38.1903 45.9215 38.403C45.7235 38.6083 45.4522 38.7587 45.1075 38.854V38.898C45.3422 38.964 45.5585 39.0557 45.7565 39.173C45.9545 39.2903 46.1122 39.4443 46.2295 39.635C46.3542 39.8257 46.4165 40.0713 46.4165 40.372C46.4165 40.6947 46.3248 40.988 46.1415 41.252C45.9655 41.516 45.6905 41.725 45.3165 41.879C44.9498 42.033 44.4768 42.11 43.8975 42.11C43.6188 42.11 43.3512 42.0953 43.0945 42.066C42.8452 42.0367 42.6178 41.9927 42.4125 41.934C42.2145 41.8753 42.0385 41.8057 41.8845 41.725V40.856C42.1338 40.9733 42.4272 41.0797 42.7645 41.175C43.1092 41.2703 43.4832 41.318 43.8865 41.318C44.1798 41.318 44.4438 41.285 44.6785 41.219C44.9205 41.153 45.1112 41.0503 45.2505 40.911C45.3898 40.7643 45.4595 40.5663 45.4595 40.317C45.4595 40.0897 45.3972 39.9063 45.2725 39.767C45.1478 39.6203 44.9608 39.5103 44.7115 39.437C44.4695 39.3637 44.1578 39.327 43.7765 39.327H42.9845V38.535H43.6225C44.1285 38.535 44.5318 38.469 44.8325 38.337C45.1405 38.1977 45.2945 37.963 45.2945 37.633C45.2945 37.3543 45.1772 37.1453 44.9425 37.006C44.7152 36.8667 44.3852 36.797 43.9525 36.797C43.6298 36.797 43.3438 36.83 43.0945 36.896C42.8525 36.9547 42.5848 37.0463 42.2915 37.171L41.9505 36.401C42.2658 36.2617 42.5958 36.159 42.9405 36.093C43.2852 36.027 43.6408 35.994 44.0075 35.994ZM50.0821 36.005C50.8007 36.005 51.3324 36.1627 51.6771 36.478C52.0217 36.7933 52.1941 37.2957 52.1941 37.985V42H51.4901L51.3031 41.164H51.2591C51.0904 41.3767 50.9144 41.5563 50.7311 41.703C50.5551 41.8423 50.3497 41.945 50.1151 42.011C49.8877 42.077 49.6091 42.11 49.2791 42.11C48.9271 42.11 48.6081 42.0477 48.3221 41.923C48.0434 41.7983 47.8234 41.6077 47.6621 41.351C47.5007 41.087 47.4201 40.757 47.4201 40.361C47.4201 39.7743 47.6511 39.3233 48.1131 39.008C48.5751 38.6853 49.2864 38.5093 50.2471 38.48L51.2481 38.447V38.095C51.2481 37.6037 51.1417 37.2627 50.9291 37.072C50.7164 36.8813 50.4157 36.786 50.0271 36.786C49.7191 36.786 49.4257 36.8337 49.1471 36.929C48.8684 37.017 48.6081 37.1197 48.3661 37.237L48.0691 36.511C48.3257 36.3717 48.6301 36.2543 48.9821 36.159C49.3341 36.0563 49.7007 36.005 50.0821 36.005ZM50.3681 39.151C49.6347 39.1803 49.1251 39.2977 48.8391 39.503C48.5604 39.7083 48.4211 39.998 48.4211 40.372C48.4211 40.702 48.5201 40.944 48.7181 41.098C48.9234 41.252 49.1837 41.329 49.4991 41.329C49.9977 41.329 50.4121 41.1933 50.7421 40.922C51.0721 40.6433 51.2371 40.218 51.2371 39.646V39.118L50.3681 39.151ZM58.7891 33.662C58.7597 34.0287 58.6681 34.3367 58.5141 34.586C58.3674 34.8353 58.1474 35.0223 57.8541 35.147C57.5607 35.2717 57.1794 35.334 56.7101 35.334C56.2334 35.334 55.8484 35.2717 55.5551 35.147C55.2691 35.0223 55.0601 34.839 54.9281 34.597C54.7961 34.3477 54.7154 34.036 54.6861 33.662H55.5881C55.6247 34.058 55.7274 34.3257 55.8961 34.465C56.0721 34.597 56.3507 34.663 56.7321 34.663C57.0694 34.663 57.3334 34.5933 57.5241 34.454C57.7221 34.3073 57.8394 34.0433 57.8761 33.662H58.7891ZM54.9281 39.701C54.9281 39.767 54.9244 39.8623 54.9171 39.987C54.9171 40.1043 54.9134 40.2327 54.9061 40.372C54.8987 40.504 54.8914 40.6323 54.8841 40.757C54.8767 40.8743 54.8694 40.9697 54.8621 41.043L58.0191 36.104H59.2071V42H58.3051V38.524C58.3051 38.4067 58.3051 38.2527 58.3051 38.062C58.3124 37.8713 58.3197 37.6843 58.3271 37.501C58.3344 37.3103 58.3417 37.1673 58.3491 37.072L55.2141 42H54.0151V36.104H54.9281V39.701ZM62.0514 36.104V38.557H65.2524V36.104H66.2204V42H65.2524V39.371H62.0514V42H61.0834V36.104H62.0514Z" fill="white"/>
</svg>
