<?xml version="1.0" standalone="no"?>
<!DOCTYPE svg PUBLIC "-//W3C//DTD SVG 20010904//EN"
 "http://www.w3.org/TR/2001/REC-SVG-20010904/DTD/svg10.dtd">
<svg version="1.0" xmlns="http://www.w3.org/2000/svg"
 width="640.000000pt" height="640.000000pt" viewBox="0 0 640.000000 640.000000"
 preserveAspectRatio="xMidYMid meet">

<g transform="translate(0.000000,640.000000) scale(0.100000,-0.100000)"
fill="#000000" stroke="none">
<path d="M3014 5540 c-7 -7 -27 -13 -45 -14 -19 -2 -43 -6 -54 -11 l-20 -8 20
17 c19 17 19 17 -20 11 -22 -3 -67 -8 -100 -11 -33 -3 -69 -9 -80 -13 -11 -5
-36 -13 -55 -18 -19 -6 -60 -18 -90 -27 -150 -44 -194 -56 -211 -56 -38 0
-128 -41 -134 -61 -4 -11 -12 -18 -18 -16 -20 6 -46 -35 -36 -56 7 -13 6 -19
-6 -23 -8 -3 -15 -14 -15 -24 0 -21 -62 -63 -99 -68 -52 -7 -92 -31 -106 -65
-14 -34 -75 -129 -114 -177 -11 -14 -21 -29 -21 -34 0 -6 -10 -20 -21 -33 -12
-12 -34 -60 -49 -106 -27 -82 -28 -88 -24 -273 8 -398 14 -486 35 -453 6 11 9
10 15 -4 10 -27 -11 -65 -38 -69 -35 -5 -34 -34 1 -49 17 -8 31 -19 31 -26 0
-7 9 -17 21 -23 20 -11 20 -12 2 -25 -17 -13 -17 -14 -1 -27 15 -11 24 -34 27
-70 1 -5 8 -8 16 -8 9 0 18 -6 21 -13 2 -7 21 -14 41 -15 21 -2 42 -7 48 -12
11 -9 12 -81 1 -99 -14 -22 16 -20 39 3 l24 24 30 -33 c16 -19 32 -43 36 -54
10 -32 28 -26 21 7 -4 15 -11 99 -16 187 -5 88 -14 180 -19 205 -5 25 -12 104
-16 175 -3 72 -11 179 -16 238 -13 133 -16 236 -7 231 7 -5 24 102 19 124 -5
26 32 127 56 153 12 14 23 30 23 37 0 6 10 11 23 9 13 -1 21 3 20 11 -2 6 3
12 10 12 7 0 18 9 24 19 19 31 63 34 127 10 66 -24 83 -17 60 25 -10 21 -11
31 -4 36 6 4 8 18 5 32 -12 47 67 94 115 68 25 -13 42 -55 35 -84 -2 -11 2 -6
10 12 18 38 30 35 39 -10 4 -21 9 -29 14 -21 6 9 29 -8 77 -53 79 -74 157
-134 198 -152 27 -12 28 -12 14 9 -9 11 -25 27 -36 35 -23 17 -28 34 -9 34 20
0 84 -49 98 -74 7 -13 21 -28 32 -33 24 -11 33 -74 16 -107 -11 -21 -11 -21
11 -2 29 26 33 18 22 -40 -5 -27 -7 -52 -5 -56 8 -13 32 -9 38 7 6 17 56 21
56 4 0 -5 3 -8 8 -5 4 2 6 -13 4 -35 -3 -25 0 -39 8 -39 6 0 18 -7 26 -15 10
-9 34 -15 63 -15 26 0 52 -5 59 -12 13 -13 141 -12 175 2 49 19 62 23 71 21 5
-1 13 4 17 11 7 10 9 10 9 1 0 -19 18 -16 23 5 3 9 5 2 6 -15 0 -18 6 -33 11
-33 6 0 8 -13 5 -30 -3 -16 -1 -30 4 -30 7 0 20 -38 25 -73 1 -4 8 -12 16 -17
8 -5 11 -12 8 -16 -4 -3 -14 1 -23 10 -18 18 -65 22 -65 6 0 -6 -11 -8 -25 -4
-14 3 -32 1 -40 -6 -8 -6 -20 -10 -27 -7 -7 2 -22 0 -32 -6 -11 -5 -44 -11
-75 -14 -30 -2 -60 -8 -66 -13 -6 -5 -35 -14 -64 -21 -29 -6 -55 -17 -58 -25
-3 -8 -16 -14 -29 -14 -13 0 -24 -5 -24 -10 0 -6 -12 -29 -27 -52 -30 -48 -34
-108 -10 -154 22 -43 47 -137 49 -183 1 -23 5 -41 10 -41 4 0 8 -15 8 -32 0
-72 12 -108 34 -108 49 -1 96 -69 96 -139 0 -31 -4 -51 -11 -51 -7 0 -9 12 -5
33 3 18 4 36 2 38 -3 3 -37 2 -77 -2 -65 -6 -74 -9 -96 -38 -13 -17 -30 -31
-36 -31 -7 0 -23 -9 -37 -19 -24 -19 -24 -20 -6 -40 11 -12 23 -21 29 -21 5 0
35 -16 67 -35 32 -19 63 -35 71 -35 7 0 21 -8 32 -17 13 -13 37 -18 79 -19 55
0 62 -3 74 -27 9 -17 20 -24 29 -21 8 4 15 1 15 -5 0 -6 -7 -11 -15 -11 -9 0
-23 -16 -32 -35 -16 -34 -45 -46 -58 -25 -4 6 -10 8 -15 5 -5 -3 -38 2 -72 11
-135 35 -178 28 -178 -33 0 -26 -6 -37 -30 -52 l-31 -18 28 -6 c15 -3 47 -3
71 -1 37 3 44 1 52 -20 8 -21 13 -23 54 -19 37 5 47 2 52 -11 8 -21 -14 -66
-33 -66 -7 0 -13 -4 -13 -8 0 -5 -22 -21 -50 -36 -43 -23 -153 -46 -230 -46
-13 0 -13 -2 0 -14 30 -27 100 -45 201 -51 57 -4 120 -12 139 -18 19 -6 39
-10 45 -8 5 1 15 -5 22 -15 10 -14 17 -15 37 -6 21 9 28 8 47 -12 13 -13 29
-22 36 -19 17 7 16 3 -3 -38 -23 -46 -44 -70 -57 -62 -6 4 -8 0 -4 -10 4 -12
1 -17 -9 -17 -10 0 -14 -6 -10 -15 3 -8 1 -15 -4 -15 -9 0 -14 17 -13 47 0 7
-2 12 -6 11 -26 -3 -33 3 -21 17 21 25 -5 17 -30 -10 -13 -14 -18 -25 -12 -25
7 0 12 6 12 13 0 6 5 4 11 -6 12 -21 -11 -50 -35 -41 -11 4 -15 -3 -18 -28 -2
-23 -9 -34 -22 -36 -25 -5 -46 -26 -46 -46 0 -15 -12 -21 -33 -17 -4 1 -17 -3
-27 -9 -23 -12 -28 8 -8 28 9 9 9 12 0 12 -6 0 -15 -7 -20 -16 -8 -14 -10 -14
-15 -1 -5 13 -12 12 -59 -4 -29 -10 -67 -18 -85 -19 -17 0 -39 -7 -48 -16 -9
-9 -19 -14 -22 -10 -3 3 -12 1 -19 -5 -10 -8 -22 -8 -45 0 -43 15 -50 14 -42
-6 5 -14 0 -12 -26 6 -21 15 -38 20 -49 15 -16 -7 -16 -7 1 -11 9 -3 17 -9 17
-14 0 -5 4 -9 9 -9 6 0 29 -13 53 -28 24 -16 59 -34 78 -41 19 -7 51 -21 70
-31 25 -13 50 -17 88 -14 40 4 52 1 52 -9 0 -22 41 -69 54 -64 16 6 103 -10
138 -26 16 -6 31 -20 34 -29 6 -20 24 -24 24 -6 0 24 23 -11 42 -64 16 -48 17
-54 3 -64 -9 -7 -15 -16 -14 -20 4 -25 -3 -43 -18 -47 -10 -3 -4 -5 14 -6 21
-1 38 -10 52 -28 20 -24 20 -27 5 -44 -37 -41 -2 -34 111 21 145 71 274 166
356 263 93 109 106 154 69 228 l-21 40 52 -36 c28 -19 61 -36 73 -36 11 -1 26
-2 31 -4 6 -1 17 -3 26 -3 9 -1 34 -14 55 -28 40 -28 211 -88 280 -98 21 -4
53 -11 69 -16 124 -39 188 -54 314 -75 80 -14 158 -29 175 -34 17 -6 94 -22
170 -36 146 -28 238 -63 288 -110 15 -14 32 -25 38 -25 6 0 13 -7 16 -15 4 -9
18 -22 32 -29 34 -18 75 -2 66 26 -6 20 29 39 74 38 15 -1 135 1 267 4 245 5
288 0 248 -29 -10 -8 -14 -17 -10 -21 12 -12 130 -22 142 -13 6 4 34 6 63 4
l52 -4 0 207 c0 231 -3 256 -31 249 -18 -5 -19 6 -20 221 -1 731 -5 928 -15
946 -6 10 -13 15 -15 10 -3 -5 -2 -97 1 -204 7 -226 4 -862 -4 -935 -3 -27
-10 -51 -16 -53 -5 -2 -10 -10 -10 -18 0 -8 -4 -14 -10 -14 -5 0 -1 -9 11 -21
11 -11 18 -23 15 -27 -4 -3 -13 1 -21 9 -18 17 -135 208 -135 219 0 15 -90 90
-115 96 -40 10 -76 -22 -99 -87 -26 -72 -27 -236 -3 -293 10 -21 17 -44 17
-50 0 -8 -114 -11 -415 -12 -228 0 -415 2 -415 5 0 10 -85 6 -92 -4 -4 -5 -11
-6 -15 -1 -4 4 1 14 11 22 11 8 15 14 8 14 -6 0 -14 11 -18 25 -9 34 -22 23
-16 -15 7 -52 -29 -35 -47 23 -7 20 -22 42 -34 49 -12 6 -25 16 -29 22 -5 7
-8 7 -8 -2 0 -7 -4 -10 -10 -7 -14 9 -12 42 3 48 7 4 6 6 -4 6 -9 1 -20 -7
-24 -16 -5 -14 -11 -6 -26 32 -15 39 -18 58 -10 88 5 22 5 39 0 43 -5 3 -9 -3
-9 -13 -1 -14 -6 -12 -26 12 -29 35 -47 72 -46 98 1 22 -15 22 -21 -1 -4 -13
-5 -11 -6 6 0 12 3 22 9 22 13 0 -32 45 -54 53 -12 5 -17 14 -13 27 3 11 0 23
-5 27 -7 3 -8 1 -4 -5 4 -7 1 -12 -7 -12 -14 0 -37 40 -37 65 0 8 -4 15 -10
15 -5 0 -10 13 -10 28 0 16 -7 37 -15 48 -14 19 -14 19 -15 -1 -1 -15 -3 -16
-7 -5 -4 8 -13 20 -21 26 -8 6 -15 29 -16 57 -1 33 -5 46 -13 42 -7 -2 -13 2
-13 11 0 8 -7 17 -15 20 -8 4 -15 10 -15 16 0 15 -42 102 -52 109 -5 3 -10 16
-11 29 -1 13 -9 25 -17 27 -11 3 -16 16 -17 39 -1 26 -10 42 -37 66 -20 17
-36 39 -36 48 0 8 -7 26 -16 38 -9 13 -13 30 -10 38 8 22 6 29 -9 26 -10 -2
-12 6 -8 31 3 23 0 37 -11 46 -9 7 -16 19 -16 25 0 12 -37 30 -82 40 -23 5
-30 2 -41 -21 -8 -16 -17 -41 -21 -57 -10 -41 -41 -82 -67 -89 -19 -5 -20 -3
-15 21 12 50 11 56 -14 69 l-25 13 28 0 c24 0 27 4 27 32 0 25 3 29 12 20 7
-7 12 -30 11 -53 -2 -52 18 -48 29 6 5 22 13 42 19 46 6 3 15 62 19 130 5 68
13 140 19 159 6 19 11 49 11 67 0 17 5 35 10 38 15 9 12 74 -6 124 -9 26 -12
56 -9 70 11 40 14 447 5 531 -5 46 -20 100 -38 140 -19 44 -31 89 -35 139 -6
74 -6 75 -59 126 -29 28 -63 71 -76 97 -23 47 -47 69 -92 83 -25 8 -170 103
-170 111 0 3 5 2 10 -1 17 -10 11 22 -7 40 -27 28 -105 56 -143 54 -43 -4
-102 9 -113 25 -6 8 -10 8 -14 -1 -7 -18 -32 -15 -78 11 -24 13 -39 28 -39 39
1 10 -5 17 -17 17 -10 0 -19 4 -19 10 0 5 6 7 14 4 8 -3 17 -1 20 4 3 5 -20
12 -50 15 -31 3 -64 13 -75 23 -23 21 -100 30 -115 14z m-217 -106 c-3 -3 -12
-4 -19 -1 -8 3 -5 6 6 6 11 1 17 -2 13 -5z m332 -40 c2 -2 -15 -4 -38 -4 -25
0 -40 4 -36 10 5 8 63 3 74 -6z m161 -24 c0 -5 -2 -10 -4 -10 -3 0 -8 5 -11
10 -3 6 -1 10 4 10 6 0 11 -4 11 -10z m-176 -20 c-6 -6 -21 -6 -39 -1 -30 9
-30 9 10 10 25 1 36 -2 29 -9z m166 -11 c0 -11 -41 -12 -67 -2 -14 6 -10 9 17
13 38 7 50 4 50 -11z m55 -9 c3 -5 -1 -10 -9 -10 -8 0 -18 5 -21 10 -3 6 1 10
9 10 8 0 18 -4 21 -10z m39 -7 c4 -5 26 -16 49 -25 23 -9 35 -17 27 -17 -18
-1 -100 35 -100 44 0 8 15 6 24 -2z m-391 -10 c9 -8 -63 -34 -75 -27 -4 3 -8
12 -8 20 0 10 12 14 38 14 21 0 42 -3 45 -7z m-94 -49 c17 -4 31 -10 31 -15 0
-14 -50 -10 -95 6 l-40 14 36 1 c20 0 51 -3 68 -6z m361 -43 c0 18 28 9 33
-11 4 -17 1 -19 -26 -15 -43 8 -53 -14 -19 -42 l27 -23 -35 12 c-19 6 -45 20
-58 32 -13 11 -35 26 -50 32 l-27 12 24 1 c14 1 35 -9 48 -21 26 -25 43 -17
25 12 -18 30 -15 32 23 16 19 -8 35 -11 35 -5z m-475 -1 c15 -7 9 -9 -25 -9
-33 -1 -41 2 -30 9 18 12 28 12 55 0z m615 -25 c7 -8 8 -15 2 -15 -5 0 -15 7
-22 15 -7 8 -8 15 -2 15 5 0 15 -7 22 -15z m-65 -15 c3 -5 2 -10 -4 -10 -5 0
-13 5 -16 10 -3 6 -2 10 4 10 5 0 13 -4 16 -10z m-168 -14 c4 -3 -1 -6 -10 -6
-9 0 -17 -4 -17 -9 0 -16 -184 1 -194 18 -6 9 212 6 221 -3z m497 -2 c3 -8 2
-12 -4 -9 -6 3 -10 10 -10 16 0 14 7 11 14 -7z m-35 -38 c-3 -3 -11 5 -18 17
-13 21 -12 21 5 5 10 -10 16 -20 13 -22z m-479 -22 l25 -15 -25 7 c-14 3 -29
10 -34 15 -16 14 6 10 34 -7z m-52 -29 c10 -10 -61 5 -72 15 -5 5 8 5 29 0 20
-4 40 -11 43 -15z m423 -77 c67 -62 47 -90 -23 -32 -22 17 -24 23 -12 26 11 2
3 12 -25 33 -22 17 -41 33 -41 38 0 14 55 -21 101 -65z m-338 -18 l22 -24 -25
17 c-14 10 -37 25 -52 35 -16 9 -28 21 -28 25 0 12 58 -25 83 -53z m86 44 c18
-9 30 -18 28 -21 -6 -5 -67 25 -67 32 0 8 4 6 39 -11z m-227 -35 c20 -10 39
-23 43 -29 11 -18 -17 -11 -61 15 -23 14 -49 22 -58 19 -8 -3 -21 -2 -27 2 -9
5 -7 10 7 15 22 9 45 3 96 -22z m124 -90 c4 -8 0 -7 -12 0 -29 17 -54 37 -54
45 0 9 57 -31 66 -45z m424 41 c0 -5 -5 -10 -11 -10 -5 0 -7 5 -4 10 3 6 8 10
11 10 2 0 4 -4 4 -10z m-645 -90 c10 -11 15 -20 11 -20 -4 0 -16 9 -28 20 -12
11 -17 20 -11 20 5 0 18 -9 28 -20z m736 -60 c31 -25 12 -26 -21 0 -14 11 -20
20 -14 20 7 0 22 -9 35 -20z m-357 -729 c-23 -10 -58 -37 -79 -60 -21 -23 -40
-39 -42 -37 -19 18 96 116 137 116 21 0 18 -3 -16 -19z m38 -56 c-11 -21 -25
-4 -16 20 4 10 10 13 16 7 7 -7 7 -16 0 -27z m112 19 c3 -8 2 -12 -4 -9 -6 3
-10 10 -10 16 0 14 7 11 14 -7z m-145 -40 c15 -42 50 -58 101 -48 54 10 110
12 115 4 7 -11 -41 -28 -98 -36 -46 -6 -73 -24 -49 -32 7 -2 12 -11 12 -20 0
-23 36 -44 88 -52 48 -8 100 6 130 34 29 25 62 12 116 -45 44 -47 56 -69 37
-69 -5 0 -11 -22 -15 -49 -3 -27 -13 -55 -22 -62 -8 -7 -12 -19 -9 -27 5 -13
-24 -88 -60 -154 -9 -14 -12 -33 -9 -42 4 -10 0 -18 -10 -22 -9 -3 -16 -15
-16 -26 0 -11 -5 -18 -12 -15 -7 2 -12 14 -10 25 2 16 -1 20 -12 16 -9 -3 -16
-11 -16 -16 0 -6 -6 -8 -14 -5 -7 3 -18 1 -24 -5 -13 -13 -52 20 -52 43 0 9
-9 19 -20 22 -11 3 -20 12 -20 21 0 9 -5 16 -11 16 -18 0 -78 70 -103 120 -32
64 -55 137 -59 191 -3 30 -13 59 -29 80 -37 50 -41 78 -15 104 12 12 30 36 39
53 22 41 31 40 47 -4z m551 -194 c0 -5 -4 -10 -10 -10 -5 0 -10 5 -10 10 0 6
5 10 10 10 6 0 10 -4 10 -10z m175 -85 c5 -50 5 -50 -5 -11 -6 22 -15 45 -20
51 -5 7 -7 15 -3 19 13 12 23 -10 28 -59z m-165 35 c0 -5 -2 -10 -4 -10 -3 0
-8 5 -11 10 -3 6 -1 10 4 10 6 0 11 -4 11 -10z m0 -115 c0 -30 -4 -55 -8 -55
-5 0 -7 19 -6 43 2 23 3 48 3 55 1 6 3 12 6 12 3 0 5 -25 5 -55z m67 -27 c-3
-7 -5 -2 -5 12 0 14 2 19 5 13 2 -7 2 -19 0 -25z m-97 12 c0 -5 -5 -10 -11
-10 -5 0 -7 5 -4 10 3 6 8 10 11 10 2 0 4 -4 4 -10z m5 -130 c3 -5 1 -10 -4
-10 -6 0 -11 5 -11 10 0 6 2 10 4 10 3 0 8 -4 11 -10z m42 -22 c-3 -8 -6 -5
-6 6 -1 11 2 17 5 13 3 -3 4 -12 1 -19z m33 -14 c0 -8 -5 -12 -10 -9 -6 4 -8
11 -5 16 9 14 15 11 15 -7z m-350 -129 c0 -8 -4 -15 -10 -15 -5 0 -10 7 -10
15 0 8 5 15 10 15 6 0 10 -7 10 -15z m280 -40 c0 -5 -5 -3 -10 5 -5 8 -10 20
-10 25 0 6 5 3 10 -5 5 -8 10 -19 10 -25z m-13 -57 c-3 -8 -6 -5 -6 6 -1 11 2
17 5 13 3 -3 4 -12 1 -19z m-701 -134 c-3 -9 -6 -20 -6 -26 0 -7 -4 -7 -13 1
-10 8 -17 7 -25 -1 -9 -9 -12 -7 -12 9 0 22 12 31 44 32 13 1 16 -4 12 -15z
m109 -124 c3 -5 1 -10 -4 -10 -6 0 -11 5 -11 10 0 6 2 10 4 10 3 0 8 -4 11
-10z m205 -10 c0 -5 9 -10 20 -10 17 0 20 -7 20 -39 0 -22 -4 -43 -10 -46 -5
-3 -10 -15 -10 -25 0 -22 -15 -34 -30 -25 -8 5 -7 11 1 21 9 11 8 14 -4 14 -8
0 -17 -5 -19 -12 -4 -12 -38 46 -38 65 0 13 50 67 62 67 4 0 8 -4 8 -10z m277
-357 c-3 -10 -5 -4 -5 12 0 17 2 24 5 18 2 -7 2 -21 0 -30z m-457 -133 c0 -5
-4 -10 -10 -10 -5 0 -10 5 -10 10 0 6 5 10 10 10 6 0 10 -4 10 -10z m2780 -30
c33 -33 180 -274 180 -294 0 -3 -9 -6 -21 -6 -28 0 -59 -18 -59 -34 0 -40
-130 -46 -162 -7 -49 61 -49 287 0 344 20 22 37 22 62 -3z m-2272 -56 c-4 -3
-12 5 -18 18 -12 22 -12 22 6 6 10 -10 15 -20 12 -24z m2021 -387 c11 -9 8
-13 -11 -18 -38 -10 -106 -3 -124 12 -16 13 -14 14 12 19 40 7 106 0 123 -13z
m-171 -15 c2 -7 -6 -11 -22 -10 -28 2 -34 13 -13 21 17 7 30 3 35 -11z m242 8
c12 -8 9 -10 -12 -10 -16 0 -28 5 -28 10 0 13 20 13 40 0z m-137 -55 c3 -14
-53 -19 -66 -6 -7 7 -3 8 10 5 12 -3 24 -1 28 6 8 13 26 9 28 -5z m-223 -85
c12 -8 9 -10 -12 -10 -16 0 -28 5 -28 10 0 13 20 13 40 0z"/>
<path d="M3330 3880 c-13 -8 -12 -10 3 -10 9 0 17 5 17 10 0 12 -1 12 -20 0z"/>
<path d="M2141 5274 c0 -11 3 -14 6 -6 3 7 2 16 -1 19 -3 4 -6 -2 -5 -13z"/>
<path d="M2906 4777 c3 -10 9 -15 12 -12 3 3 0 11 -7 18 -10 9 -11 8 -5 -6z"/>
<path d="M2447 4202 c-15 -10 -24 -22 -20 -25 3 -4 2 -7 -4 -7 -5 0 -22 -11
-37 -25 -28 -26 -46 -32 -46 -16 0 5 10 11 21 14 14 4 20 11 16 20 -3 8 0 20
6 27 20 21 -31 1 -100 -38 -40 -23 -66 -46 -74 -64 -6 -16 -10 -31 -7 -33 10
-11 70 28 78 51 5 13 14 24 20 24 5 0 10 7 10 16 0 8 4 13 9 10 4 -3 6 -18 3
-32 -5 -26 -3 -27 30 -21 19 3 49 2 67 -1 l32 -7 -44 -31 c-45 -32 -104 -100
-95 -110 3 -3 32 17 64 44 69 57 95 72 143 83 38 9 131 -7 131 -22 0 -5 8 -9
17 -9 28 0 6 -12 -29 -15 -57 -6 -128 -24 -161 -42 -70 -38 -157 -96 -152
-101 6 -6 76 -32 88 -32 4 0 7 9 7 20 0 10 14 34 31 51 l31 31 19 -31 c34 -56
110 -54 134 4 l15 34 40 -16 c38 -15 42 -15 57 0 16 16 15 19 -12 46 -35 37
-26 52 45 71 27 7 51 18 52 24 9 59 -1 76 -44 76 -15 0 -29 4 -32 9 -3 5 -64
12 -136 16 -71 4 -130 11 -130 16 0 13 -12 11 -43 -9z m103 -222 c0 -11 -4
-20 -10 -20 -5 0 -10 9 -10 20 0 11 5 20 10 20 6 0 10 -9 10 -20z"/>
<path d="M2679 3901 c-8 -9 -13 -19 -11 -23 1 -5 -2 -8 -8 -8 -5 0 -10 -7 -10
-16 0 -23 34 -13 38 12 2 14 14 25 35 31 l32 9 -31 5 c-20 3 -36 0 -45 -10z"/>
<path d="M1808 3493 c-5 -20 -13 -23 -57 -24 -28 -1 -63 -3 -78 -4 -16 -2
-116 -6 -223 -10 -107 -4 -206 -10 -220 -14 -14 -5 -34 -5 -45 -2 -11 4 -40 4
-65 1 -44 -6 -44 -6 -15 -15 17 -4 40 -19 53 -32 13 -15 29 -22 38 -19 8 3 12
2 9 -4 -3 -6 -2 -10 4 -10 18 0 17 -45 -1 -66 -23 -27 -15 -80 14 -87 26 -7
18 -30 -13 -37 -17 -4 -25 -14 -27 -33 -2 -17 -9 -27 -20 -27 -22 0 -89 -24
-99 -35 -5 -4 5 -5 20 -1 30 7 61 -9 51 -25 -3 -5 2 -9 12 -9 11 0 15 6 11 20
-3 13 0 20 9 20 8 0 14 -6 15 -12 0 -7 2 -24 5 -37 4 -22 2 -23 -31 -17 -31 6
-35 4 -35 -14 0 -25 -17 -26 -43 -3 -18 17 -19 17 -16 -13 4 -33 -18 -64 -46
-64 -8 0 -18 -6 -21 -14 -3 -8 -15 -16 -26 -19 -20 -6 -20 -7 -5 -30 18 -28
14 -37 -21 -37 -18 0 -23 -4 -18 -16 3 -9 2 -12 -5 -9 -5 4 -16 1 -24 -5 -9
-8 -15 -8 -15 -2 0 5 -9 8 -20 5 -11 -3 -18 -9 -15 -13 3 -4 -2 -11 -11 -14
-13 -5 -14 -9 -4 -21 7 -8 10 -21 7 -30 -4 -8 -2 -17 3 -20 4 -3 7 -13 5 -23
-2 -9 -4 -24 -5 -32 -1 -8 -7 5 -13 30 -9 35 -17 46 -34 48 -21 3 -23 9 -23
56 0 28 5 57 11 63 8 8 8 13 -1 18 -19 12 -25 -4 -26 -76 -1 -52 2 -69 12 -69
17 0 19 -30 2 -30 -7 -1 -2 -10 11 -20 13 -11 18 -20 12 -20 -6 0 -16 -12 -21
-26 -11 -29 -33 -28 -38 2 -4 18 -3 18 12 -1 15 -19 15 -19 16 13 0 31 -14 44
-23 20 -2 -7 -4 156 -3 362 1 326 -1 375 -14 378 -13 2 -15 -41 -15 -340 0
-331 -7 -429 -25 -383 -8 19 -9 19 -9 1 -1 -17 -4 -16 -27 8 -32 31 -36 32
-59 6 -10 -11 -13 -20 -7 -20 6 0 15 8 21 17 5 10 13 14 17 10 5 -4 4 -16 -2
-25 -12 -18 -8 -42 6 -42 5 0 11 8 13 18 3 9 5 -7 4 -35 0 -29 -4 -53 -9 -53
-4 0 -8 -10 -8 -23 0 -28 -46 -71 -67 -63 -8 3 -12 10 -8 15 3 6 12 8 20 4 8
-3 15 -2 15 2 0 14 -29 35 -49 35 -14 0 -21 6 -21 20 0 11 -7 20 -15 20 -8 0
-15 5 -15 11 0 8 -4 8 -14 0 -15 -13 -66 -5 -66 10 0 5 6 6 14 3 16 -6 31 12
17 21 -6 3 -19 -3 -31 -15 -11 -11 -25 -20 -31 -20 -6 0 -3 -8 6 -17 16 -15
16 -18 -5 -33 -14 -11 -20 -22 -15 -29 5 -9 0 -12 -16 -9 -19 2 -25 -2 -27
-19 -4 -30 -8 -29 -43 8 -34 36 -35 39 -13 39 13 0 14 3 5 14 -10 11 -9 16 5
24 15 8 15 10 -2 16 -16 6 -16 8 -4 16 13 8 12 10 -2 10 -10 0 -19 -11 -23
-30 -5 -23 -12 -30 -30 -30 -13 0 -30 -3 -39 -6 -11 -4 -16 -1 -16 10 0 9 -4
16 -10 16 -5 0 -10 -4 -10 -10 0 -5 -9 -10 -19 -10 -11 0 -21 -3 -24 -7 -2 -5
-2 -2 0 5 1 8 3 20 3 28 0 8 9 14 20 14 11 0 20 7 20 15 0 17 1 17 -56 20 -38
3 -41 1 -36 -20 3 -17 -2 -25 -17 -30 -21 -6 -21 -7 -21 -515 0 -455 2 -508
16 -514 11 -4 18 1 21 14 6 24 21 27 19 3 -1 -12 8 -18 32 -20 27 -2 35 1 39
17 5 21 33 28 33 9 0 -5 5 -7 10 -4 6 4 9 14 8 23 -2 9 4 17 12 18 8 0 18 2
23 4 4 1 12 4 17 5 6 1 13 4 18 5 4 2 18 3 32 4 14 1 40 6 59 10 23 6 36 4 41
-4 6 -9 14 -9 36 2 20 10 42 12 69 7 22 -4 43 -3 46 2 3 5 14 8 25 7 10 -1 78
2 149 7 118 8 240 8 304 1 31 -3 41 -26 12 -26 -12 0 -21 -4 -21 -10 0 -5 12
-10 26 -10 14 0 32 -7 40 -15 9 -8 11 -15 5 -15 -6 0 -11 -6 -11 -14 0 -15
-74 -31 -122 -27 -16 1 -28 -2 -28 -8 0 -6 7 -11 15 -11 8 0 15 -4 15 -9 0 -5
-12 -8 -27 -7 -16 2 -32 1 -38 -2 -5 -3 -16 -7 -25 -7 -8 -1 -37 -5 -65 -8
-27 -4 -147 -10 -265 -13 -118 -3 -226 -7 -240 -9 -14 -1 -42 -3 -62 -4 -20 0
-43 -8 -52 -16 -8 -8 -19 -15 -25 -15 -6 0 -11 7 -11 15 0 18 -46 21 -53 3 -4
-10 -6 -10 -6 0 -1 13 -29 16 -55 6 -11 -4 -16 -19 -16 -46 0 -34 2 -39 19
-33 11 3 22 1 26 -5 4 -6 -4 -10 -19 -10 l-26 0 0 -670 0 -671 106 3 106 3 49
180 c104 383 240 724 343 861 23 33 75 103 114 156 44 60 88 108 114 124 23
15 51 35 62 46 12 10 50 35 86 55 36 20 89 51 119 70 29 19 88 53 130 75 42
23 117 69 166 103 50 33 135 88 190 120 55 33 123 78 152 101 28 23 68 48 87
55 38 14 44 27 24 47 -9 9 -9 12 3 12 8 0 20 -5 27 -12 28 -28 142 59 142 109
0 10 7 29 16 42 14 19 23 22 58 19 22 -3 63 -11 90 -19 l48 -14 39 44 c46 52
63 106 55 175 -4 28 -11 108 -16 178 -9 116 -12 131 -44 190 -42 77 -60 131
-87 256 -25 119 -70 272 -79 272 -4 0 -15 -9 -25 -20 -26 -29 -90 -27 -135 4
-48 32 -108 147 -118 223 -6 41 -9 52 -14 36z m-558 -73 c11 -7 6 -10 -20 -10
-26 0 -31 3 -20 10 8 5 17 10 20 10 3 0 12 -5 20 -10z m54 -136 c9 -22 8 -24
-9 -24 -8 0 -15 -7 -15 -16 0 -14 -2 -14 -16 -3 -14 12 -14 14 0 25 9 6 16 16
16 23 0 17 17 13 24 -5z m16 -99 c0 -8 -7 -15 -15 -15 -16 0 -20 12 -8 23 11
12 23 8 23 -8z m-100 -120 c-7 -9 -15 -13 -17 -11 -7 7 7 26 19 26 6 0 6 -6
-2 -15z m-210 -195 c0 -5 -2 -10 -4 -10 -3 0 -8 5 -11 10 -3 6 -1 10 4 10 6 0
11 -4 11 -10z m-126 -135 c3 -8 1 -15 -4 -15 -6 0 -10 7 -10 15 0 8 2 15 4 15
2 0 6 -7 10 -15z m76 -17 c0 -18 -2 -20 -9 -8 -6 8 -7 18 -5 22 9 14 14 9 14
-14z m-218 -184 c-6 -35 -12 -29 -12 14 0 23 3 32 9 24 4 -7 6 -24 3 -38z
m-42 13 c0 -8 -7 -14 -15 -14 -25 0 -17 17 13 26 1 1 2 -5 2 -12z m-3 -49 c-3
-8 -6 -5 -6 6 -1 11 2 17 5 13 3 -3 4 -12 1 -19z m-188 -1 c11 -14 5 -27 -12
-27 -6 0 -7 3 -4 7 4 3 2 12 -4 20 -7 8 -8 13 -1 13 5 0 15 -6 21 -13z m-60
-31 c8 -10 9 -16 1 -21 -5 -3 -10 0 -10 9 0 8 -6 17 -12 19 -8 4 -9 6 -2 6 6
1 17 -5 23 -13z m308 -8 c-3 -8 -6 -5 -6 6 -1 11 2 17 5 13 3 -3 4 -12 1 -19z
m-373 -4 c9 -3 16 -18 16 -32 0 -20 -3 -23 -12 -14 -7 7 -20 12 -30 12 -21 0
-23 11 -6 28 14 14 12 14 32 6z m98 -46 c-15 -15 -24 -6 -16 16 5 12 10 14 17
7 8 -8 8 -14 -1 -23z m-52 -4 c0 -8 -4 -12 -10 -9 -5 3 -10 10 -10 16 0 5 5 9
10 9 6 0 10 -7 10 -16z m307 -51 c-3 -10 -5 -4 -5 12 0 17 2 24 5 18 2 -7 2
-21 0 -30z m-180 -39 c-3 -3 -12 -4 -19 -1 -8 3 -5 6 6 6 11 1 17 -2 13 -5z
m180 -91 c-2 -16 -4 -3 -4 27 0 30 2 43 4 28 2 -16 2 -40 0 -55z m-312 -793
c-3 -5 -13 -10 -21 -10 -8 0 -14 5 -14 10 0 6 9 10 21 10 11 0 17 -4 14 -10z
m42 4 c-3 -3 -12 -4 -19 -1 -8 3 -5 6 6 6 11 1 17 -2 13 -5z m-217 -14 c0 -5
-15 -10 -32 -9 -31 1 -32 1 -8 9 35 11 40 11 40 0z m350 6 c0 -2 -11 -6 -25
-8 -14 -3 -25 -1 -25 3 0 5 11 9 25 9 14 0 25 -2 25 -4z m80 -12 c0 -2 -7 -4
-15 -4 -8 0 -15 4 -15 10 0 5 7 7 15 4 8 -4 15 -8 15 -10z m107 -17 c3 -4 -17
-7 -45 -7 -29 0 -52 3 -52 8 0 9 87 8 97 -1z m-607 -22 c10 -27 30 -34 30 -10
0 10 10 15 31 15 18 0 28 -4 24 -10 -4 -6 -11 -8 -16 -5 -5 3 -6 -1 -3 -9 5
-14 -4 -16 -60 -16 -54 0 -66 3 -66 16 0 13 6 15 28 10 18 -4 22 -4 13 3 -7 5
-10 14 -7 20 11 16 15 14 26 -14z m-90 -2 c0 -5 -5 -15 -10 -23 -7 -12 -9 -10
-7 8 1 19 17 33 17 15z m210 -3 c0 -5 -4 -10 -10 -10 -5 0 -10 5 -10 10 0 6 5
10 10 10 6 0 10 -4 10 -10z m87 4 c-3 -3 -12 -4 -19 -1 -8 3 -5 6 6 6 11 1 17
-2 13 -5z m143 -10 c0 -2 -16 -4 -36 -4 -19 0 -33 4 -30 8 5 8 66 4 66 -4z
m123 9 c-7 -2 -19 -2 -25 0 -7 3 -2 5 12 5 14 0 19 -2 13 -5z m-213 -12 c0 -5
-9 -7 -20 -4 -11 3 -20 7 -20 9 0 2 9 4 20 4 11 0 20 -4 20 -9z m-82 -8 c-10
-2 -26 -2 -35 0 -10 3 -2 5 17 5 19 0 27 -2 18 -5z"/>
<path d="M95 3430 c4 -6 11 -8 16 -5 14 9 11 15 -7 15 -8 0 -12 -5 -9 -10z"/>
<path d="M158 3433 c7 -3 16 -2 19 1 4 3 -2 6 -13 5 -11 0 -14 -3 -6 -6z"/>
<path d="M2821 3409 c-23 -25 -28 -55 -8 -62 6 -2 28 4 47 15 19 10 42 18 52
18 48 0 20 38 -35 47 -27 4 -39 1 -56 -18z"/>
<path d="M1134 3144 c3 -9 6 -18 6 -20 0 -3 5 -2 10 1 16 10 12 35 -6 35 -11
0 -14 -5 -10 -16z"/>
<path d="M988 3108 c9 -9 15 -9 24 0 9 9 7 12 -12 12 -19 0 -21 -3 -12 -12z"/>
<path d="M2705 3033 c-66 -19 -97 -35 -103 -50 -3 -10 28 -13 132 -13 114 0
136 2 136 15 0 8 6 16 13 17 6 0 17 2 22 3 6 2 18 3 28 4 9 0 17 7 17 14 0 9
-19 11 -76 9 -47 -3 -80 0 -87 7 -13 13 -19 13 -82 -6z"/>
<path d="M1023 2979 c-7 -9 -9 -20 -3 -29 12 -19 22 -7 18 21 -2 19 -5 20 -15
8z"/>
<path d="M870 2930 c0 -5 7 -10 15 -10 18 0 19 -12 3 -28 -9 -9 -5 -12 20 -12
37 0 39 6 13 38 -20 22 -51 30 -51 12z"/>
<path d="M4521 2834 c0 -11 3 -14 6 -6 3 7 2 16 -1 19 -3 4 -6 -2 -5 -13z"/>
<path d="M865 2830 c-3 -5 -1 -10 4 -10 6 0 11 5 11 10 0 6 -2 10 -4 10 -3 0
-8 -4 -11 -10z"/>
<path d="M505 2790 c-3 -5 -1 -10 4 -10 6 0 11 5 11 10 0 6 -2 10 -4 10 -3 0
-8 -4 -11 -10z"/>
<path d="M647 2734 c-9 -10 4 -34 19 -34 8 0 14 4 14 9 0 12 -26 32 -33 25z"/>
<path d="M210 2674 c0 -14 3 -14 15 -4 8 7 15 14 15 16 0 2 -7 4 -15 4 -8 0
-15 -7 -15 -16z"/>
<path d="M495 2640 c3 -5 16 -10 28 -10 18 0 19 2 7 10 -20 13 -43 13 -35 0z"/>
<path d="M0 2621 c0 -12 5 -21 10 -21 6 0 10 6 10 14 0 8 -4 18 -10 21 -5 3
-10 -3 -10 -14z"/>
<path d="M420 2630 c0 -12 8 -12 35 0 18 8 17 9 -7 9 -16 1 -28 -3 -28 -9z"/>
<path d="M570 2611 c0 -6 5 -13 10 -16 6 -3 10 1 10 9 0 9 -4 16 -10 16 -5 0
-10 -4 -10 -9z"/>
<path d="M553 2564 c-14 -31 -2 -38 33 -19 16 8 24 15 17 15 -6 0 -18 6 -25
14 -12 11 -16 10 -25 -10z"/>
<path d="M310 2519 c0 -5 5 -7 10 -4 6 3 10 8 10 11 0 2 -4 4 -10 4 -5 0 -10
-5 -10 -11z"/>
<path d="M2610 2381 c0 -5 7 -12 16 -15 14 -5 15 -4 4 9 -14 17 -20 19 -20 6z"/>
<path d="M2952 2178 c7 -19 58 -32 71 -18 7 6 8 10 2 9 -5 -1 -23 3 -38 9 -35
15 -40 15 -35 0z"/>
<path d="M2082 2129 c-11 -17 -9 -28 14 -69 15 -27 36 -58 47 -67 19 -18 20
-17 8 4 -16 31 -14 63 6 85 15 17 15 18 0 18 -10 0 -17 5 -17 12 0 6 -3 8 -6
5 -4 -4 -14 2 -24 12 -16 19 -16 19 -28 0z"/>
<path d="M3260 2000 c-12 -8 -10 -10 8 -10 13 0 20 4 17 10 -7 12 -6 12 -25 0z"/>
<path d="M5967 1834 c-13 -13 -7 -24 14 -24 11 0 19 5 17 12 -5 14 -22 21 -31
12z"/>
<path d="M5585 1770 c-3 -5 -1 -10 4 -10 6 0 11 5 11 10 0 6 -2 10 -4 10 -3 0
-8 -4 -11 -10z"/>
<path d="M6170 1754 c0 -4 8 -13 17 -20 10 -7 15 -16 11 -20 -5 -4 -81 -9
-170 -10 -90 -2 -206 -6 -258 -9 -53 -3 -110 -1 -127 4 -31 9 -31 9 86 -223
64 -127 134 -269 155 -316 22 -47 58 -125 81 -175 42 -89 95 -235 95 -260 0
-7 17 -51 38 -97 50 -108 77 -190 102 -311 15 -76 32 -121 77 -207 56 -106 59
-110 90 -110 l33 0 0 849 0 849 -37 5 c-21 2 -43 0 -49 -5 -14 -10 -60 6 -67
24 -4 10 -6 10 -6 1 -1 -7 -9 -13 -18 -13 -13 0 -14 3 -5 12 8 8 5 14 -15 25
-29 15 -33 16 -33 7z m11 -111 c19 -9 28 -18 20 -21 -7 -2 -17 0 -23 6 -6 6
-24 6 -46 1 -49 -11 -72 -11 -72 1 0 6 16 10 35 10 19 0 35 5 35 10 0 14 12
13 51 -7z m-301 -4 c0 -5 -9 -9 -20 -9 -11 0 -20 4 -20 8 0 4 9 8 20 9 11 1
20 -2 20 -8z m141 1 c5 0 9 -4 9 -10 0 -5 -17 -9 -37 -9 -27 1 -31 3 -14 6 19
4 21 7 10 15 -11 8 -10 9 4 4 10 -3 23 -6 28 -6z m264 0 c18 -8 17 -9 -7 -9
-16 -1 -28 4 -28 9 0 12 8 12 35 0z"/>
<path d="M928 1589 c-10 -5 -18 -17 -18 -24 0 -20 26 -19 34 0 3 8 12 12 21 9
8 -3 15 -2 15 4 0 5 -7 13 -16 16 -19 7 -15 8 -36 -5z"/>
<path d="M406 1551 c-9 -14 7 -16 69 -13 30 2 53 8 49 13 -7 12 -111 12 -118
0z"/>
<path d="M258 1543 c6 -2 18 -2 25 0 6 3 1 5 -13 5 -14 0 -19 -2 -12 -5z"/>
<path d="M5560 895 c0 -14 5 -25 10 -25 6 0 10 11 10 25 0 14 -4 25 -10 25 -5
0 -10 -11 -10 -25z"/>
<path d="M3990 837 c0 -25 -2 -26 -48 -20 -41 4 -58 0 -112 -27 -93 -46 -122
-71 -154 -130 -25 -47 -28 -60 -23 -116 6 -79 45 -162 94 -203 19 -16 60 -36
91 -46 97 -29 110 -36 126 -70 21 -44 21 -114 0 -122 -23 -8 -64 17 -94 58
l-26 36 -39 -33 c-22 -19 -48 -36 -58 -40 -18 -6 -18 -20 -1 -102 4 -22 4 -22
220 -22 l215 0 16 37 c19 47 20 116 3 179 -12 42 -29 64 -126 159 -89 87 -123
114 -163 128 -48 17 -51 20 -51 52 0 43 29 75 69 75 35 0 52 -20 60 -68 6 -36
8 -37 52 -40 25 -2 58 2 73 8 27 10 28 12 21 68 -3 31 -7 95 -8 141 -2 96 -9
106 -90 117 -46 7 -47 6 -47 -19z"/>
<path d="M4380 820 c-58 -4 -108 -8 -112 -9 -9 -1 -10 -126 -2 -158 5 -19 13
-23 45 -23 22 0 39 -3 39 -7 0 -5 14 -123 30 -263 16 -140 26 -258 22 -262 -4
-3 -23 -8 -42 -10 -33 -3 -35 -5 -38 -45 l-3 -43 205 0 206 0 0 49 c0 53 -10
61 -72 61 -33 0 -33 -3 -53 200 -8 85 -19 178 -23 205 -5 28 -8 66 -8 84 1 32
4 36 43 45 23 6 44 13 46 16 3 3 1 28 -4 55 -5 28 -11 65 -14 83 l-6 32 -77
-2 c-42 -1 -124 -5 -182 -8z"/>
<path d="M4961 807 c-5 -13 -12 -54 -16 -92 -16 -174 -47 -447 -58 -520 -12
-77 -13 -80 -44 -89 -31 -8 -33 -11 -33 -57 l0 -49 140 0 140 0 0 55 c0 50 -2
55 -25 61 -27 7 -30 19 -15 58 10 27 31 32 78 20 18 -5 22 -13 22 -47 0 -25
-6 -44 -16 -51 -8 -7 -18 -31 -21 -54 l-6 -43 128 3 127 3 13 40 c7 22 20 72
29 110 9 39 19 80 22 93 4 12 2 22 -3 22 -5 0 -20 -43 -33 -95 -19 -76 -28
-95 -42 -95 -15 0 -18 9 -18 49 0 109 -47 282 -149 549 -21 57 -41 104 -42
106 -24 18 -103 46 -132 46 -30 0 -39 -5 -46 -23z m154 -354 c20 -81 19 -83
-16 -83 -30 0 -31 1 -25 33 4 17 9 51 13 75 3 23 8 41 10 38 2 -2 11 -30 18
-63z"/>
<path d="M5540 814 c0 -8 5 -12 10 -9 6 3 10 10 10 16 0 5 -4 9 -10 9 -5 0
-10 -7 -10 -16z"/>
<path d="M3373 697 c-41 -9 -47 -17 -46 -55 1 -9 -6 -12 -20 -8 -60 17 -80 17
-144 -2 -120 -37 -203 -135 -203 -239 0 -162 116 -270 357 -333 23 -6 55 -22
71 -35 28 -24 36 -25 157 -25 l127 0 -7 33 c-28 135 -104 191 -363 267 -88 26
-115 55 -91 99 32 56 112 53 139 -7 14 -31 17 -33 55 -27 50 7 133 34 140 45
4 6 -30 245 -41 288 -4 14 -69 14 -131 -1z"/>
<path d="M2710 486 c-153 -41 -225 -72 -228 -96 -6 -34 29 -162 42 -157 37 14
55 17 60 9 3 -5 15 -53 26 -108 12 -54 24 -107 26 -116 5 -16 20 -18 125 -18
119 0 119 0 114 23 -3 12 -19 78 -35 147 l-29 125 31 26 c34 28 34 25 2 137
-18 61 -15 60 -134 28z"/>
<path d="M2220 335 c-189 -56 -210 -64 -210 -81 0 -8 7 -44 16 -80 l17 -66 43
7 c49 7 57 -1 69 -72 l7 -43 125 0 c114 0 124 1 119 18 -3 9 -13 48 -22 86
-17 66 -16 69 1 82 10 8 25 14 32 14 17 0 15 40 -5 115 -11 37 -23 60 -32 62
-8 1 -80 -18 -160 -42z"/>
<path d="M5822 240 c-6 -11 -12 -30 -12 -42 1 -20 4 -18 20 12 11 19 19 38 20
43 0 14 -15 7 -28 -13z"/>
<path d="M1580 125 c-41 -14 -100 -30 -130 -36 -30 -6 -79 -17 -107 -26 -45
-12 -53 -18 -53 -39 l0 -24 309 0 310 0 -9 30 c-12 43 -47 88 -80 105 -44 23
-152 18 -240 -10z"/>
<path d="M3193 3 c9 -2 23 -2 30 0 6 3 -1 5 -18 5 -16 0 -22 -2 -12 -5z"/>
</g>
</svg>
