<svg width="94" height="45" viewBox="0 0 94 45" fill="none" xmlns="http://www.w3.org/2000/svg">
<path d="M37.2591 14.8334L44.9991 19.4743C45.452 19.7467 45.9705 19.8907 46.4991 19.8907C47.0276 19.8907 47.5462 19.7467 47.9991 19.4743L55.7391 14.8334C55.9688 14.6957 56.1589 14.5008 56.2909 14.2677C56.4229 14.0346 56.4923 13.7713 56.4923 13.5034C56.4923 13.2356 56.4229 12.9723 56.2909 12.7392C56.1589 12.5061 55.9688 12.3112 55.7391 12.1734L47.9991 7.52594C47.5463 7.25323 47.0277 7.10913 46.4991 7.10913C45.9705 7.10913 45.4519 7.25323 44.9991 7.52594L37.2591 12.1668C37.0294 12.3045 36.8392 12.4995 36.7072 12.7325C36.5752 12.9656 36.5059 13.2289 36.5059 13.4968C36.5059 13.7646 36.5752 14.0279 36.7072 14.261C36.8392 14.4941 37.0294 14.689 37.2591 14.8268V14.8334ZM46.2849 9.66677C46.3496 9.628 46.4236 9.60752 46.4991 9.60752C46.5745 9.60752 46.6485 9.628 46.7132 9.66677L53.0974 13.5001L46.7132 17.3334C46.6485 17.3722 46.5745 17.3927 46.4991 17.3927C46.4236 17.3927 46.3496 17.3722 46.2849 17.3334L39.9007 13.5001L46.2849 9.66677Z" fill="#EBF2FF"/>
<path d="M47.5717 21.6926C47.2479 21.8867 46.8775 21.9893 46.5 21.9893C46.1225 21.9893 45.7521 21.8867 45.4283 21.6926L38.3933 17.4717C38.2037 17.3579 37.9872 17.2964 37.766 17.2936C37.5448 17.2907 37.3268 17.3467 37.1343 17.4556C36.9417 17.5646 36.7816 17.7227 36.6702 17.9138C36.5587 18.1049 36.5 18.3222 36.5 18.5434C36.5 18.7592 36.5559 18.9713 36.6622 19.1591C36.7685 19.3469 36.9216 19.504 37.1067 19.6151L44.1417 23.8334C44.8537 24.2619 45.669 24.4883 46.5 24.4883C47.331 24.4883 48.1463 24.2619 48.8583 23.8334L55.8933 19.6126C56.078 19.5017 56.2309 19.345 56.3372 19.1577C56.4435 18.9704 56.4996 18.7588 56.5 18.5434C56.5 18.3222 56.4413 18.1049 56.3298 17.9138C56.2184 17.7227 56.0583 17.5646 55.8657 17.4556C55.6732 17.3467 55.4552 17.2907 55.234 17.2936C55.0128 17.2964 54.7963 17.3579 54.6067 17.4717L47.5717 21.6926Z" fill="#EBF2FF"/>
<path d="M37.914 34.905C37.496 34.905 37.1183 34.9783 36.781 35.125C36.4436 35.2643 36.1576 35.4733 35.923 35.752C35.6883 36.0233 35.5086 36.357 35.384 36.753C35.2593 37.1417 35.197 37.5817 35.197 38.073C35.197 38.7183 35.296 39.2793 35.494 39.756C35.6993 40.2327 36 40.5993 36.396 40.856C36.7993 41.1127 37.3016 41.241 37.903 41.241C38.2476 41.241 38.574 41.2117 38.882 41.153C39.19 41.0943 39.4906 41.021 39.784 40.933V41.791C39.4906 41.901 39.1863 41.9817 38.871 42.033C38.563 42.0843 38.1926 42.11 37.76 42.11C36.9606 42.11 36.2933 41.945 35.758 41.615C35.2226 41.285 34.8193 40.8157 34.548 40.207C34.284 39.5983 34.152 38.8833 34.152 38.062C34.152 37.468 34.2326 36.9253 34.394 36.434C34.5626 35.9427 34.8046 35.5173 35.12 35.158C35.4426 34.7987 35.8386 34.5237 36.308 34.333C36.7773 34.135 37.3163 34.036 37.925 34.036C38.3283 34.036 38.717 34.0763 39.091 34.157C39.465 34.2377 39.7986 34.3513 40.092 34.498L39.696 35.334C39.454 35.224 39.1826 35.125 38.882 35.037C38.5886 34.949 38.266 34.905 37.914 34.905ZM45.8542 42H44.8752V36.907H43.1372C43.0638 37.8383 42.9722 38.634 42.8622 39.294C42.7522 39.9467 42.6128 40.4783 42.4442 40.889C42.2755 41.2997 42.0738 41.6003 41.8392 41.791C41.6045 41.9817 41.3295 42.077 41.0142 42.077C40.9188 42.077 40.8235 42.0697 40.7282 42.055C40.6402 42.0477 40.5668 42.0293 40.5082 42V41.274C40.5522 41.2887 40.5998 41.2997 40.6512 41.307C40.7025 41.3143 40.7538 41.318 40.8052 41.318C40.9665 41.318 41.1132 41.252 41.2452 41.12C41.3772 40.988 41.4945 40.7863 41.5972 40.515C41.7072 40.2437 41.8062 39.9027 41.8942 39.492C41.9822 39.074 42.0592 38.5827 42.1252 38.018C42.1912 37.4533 42.2498 36.8153 42.3012 36.104H45.8542V42ZM52.8515 39.041C52.8515 39.5323 52.7855 39.9687 52.6535 40.35C52.5289 40.724 52.3455 41.043 52.1035 41.307C51.8689 41.571 51.5792 41.7727 51.2345 41.912C50.8972 42.044 50.5195 42.11 50.1015 42.11C49.7129 42.11 49.3535 42.044 49.0235 41.912C48.6935 41.7727 48.4075 41.571 48.1655 41.307C47.9235 41.043 47.7329 40.724 47.5935 40.35C47.4615 39.9687 47.3955 39.5323 47.3955 39.041C47.3955 38.3883 47.5055 37.8383 47.7255 37.391C47.9455 36.9363 48.2609 36.5917 48.6715 36.357C49.0822 36.115 49.5699 35.994 50.1345 35.994C50.6699 35.994 51.1392 36.115 51.5425 36.357C51.9532 36.5917 52.2722 36.9363 52.4995 37.391C52.7342 37.8383 52.8515 38.3883 52.8515 39.041ZM48.3965 39.041C48.3965 39.503 48.4552 39.9063 48.5725 40.251C48.6972 40.5883 48.8879 40.8487 49.1445 41.032C49.4012 41.2153 49.7275 41.307 50.1235 41.307C50.5195 41.307 50.8459 41.2153 51.1025 41.032C51.3592 40.8487 51.5462 40.5883 51.6635 40.251C51.7882 39.9063 51.8505 39.503 51.8505 39.041C51.8505 38.5717 51.7882 38.172 51.6635 37.842C51.5389 37.512 51.3482 37.259 51.0915 37.083C50.8422 36.8997 50.5159 36.808 50.1125 36.808C49.5112 36.808 49.0749 37.006 48.8035 37.402C48.5322 37.798 48.3965 38.3443 48.3965 39.041ZM55.2987 39.701C55.2987 39.767 55.295 39.8623 55.2877 39.987C55.2877 40.1043 55.284 40.2327 55.2767 40.372C55.2694 40.504 55.262 40.6323 55.2547 40.757C55.2474 40.8743 55.24 40.9697 55.2327 41.043L58.3897 36.104H59.5777V42H58.6757V38.524C58.6757 38.4067 58.6757 38.2527 58.6757 38.062C58.683 37.8713 58.6904 37.6843 58.6977 37.501C58.705 37.3103 58.7124 37.1673 58.7197 37.072L55.5847 42H54.3857V36.104H55.2987V39.701Z" fill="#EBF2FF"/>
</svg>
