<svg width="94" height="45" viewBox="0 0 94 45" fill="none" xmlns="http://www.w3.org/2000/svg">
<path d="M49.9475 23.2091H51.6849L50.3924 28L35 23.7921L37.3752 14.9962V21.4432L37.0646 22.6008L49.2174 25.9214L49.9475 23.2091ZM43.6697 13.9147C44.3663 13.9147 44.9287 13.3485 44.9287 12.6472C44.9287 11.9459 44.3663 11.3798 43.6697 11.3798C42.9731 11.3798 42.4108 11.9459 42.4108 12.6472C42.4108 13.3485 42.9731 13.9147 43.6697 13.9147ZM55 10.5349V21.5192H39.0537V10.5349C39.0537 9.14068 40.1867 8 41.5715 8H52.4822C53.867 8 55 9.14068 55 10.5349ZM40.7323 10.5349V19.5505L47.2283 13.0106L49.9979 15.7989L53.3214 12.4529V10.5349C53.3214 10.0701 52.9438 9.6899 52.4822 9.6899H41.5715C41.1099 9.6899 40.7323 10.0701 40.7323 10.5349ZM53.3214 19.8293V14.8441L49.9979 18.1901L47.2283 15.4018L42.8305 19.8293H53.3214Z" fill="#EBF2FF"/>
<path d="M7.56921 34.146H8.49321V38.458C8.49321 38.6413 8.48954 38.843 8.48221 39.063C8.48221 39.2757 8.47854 39.4883 8.47121 39.701C8.46388 39.9137 8.45288 40.1043 8.43821 40.273C8.43088 40.4343 8.42354 40.559 8.41621 40.647H8.46021L12.7832 34.146H13.8832V42H12.9592V37.732C12.9592 37.534 12.9629 37.3213 12.9702 37.094C12.9775 36.8593 12.9849 36.6357 12.9922 36.423C13.0069 36.203 13.0179 36.0087 13.0252 35.84C13.0325 35.6713 13.0399 35.5467 13.0472 35.466H13.0032L8.66921 42H7.56921V34.146ZM17.4206 35.994C17.8679 35.994 18.2566 36.0563 18.5866 36.181C18.9166 36.2983 19.1732 36.4743 19.3566 36.709C19.5399 36.9363 19.6316 37.215 19.6316 37.545C19.6316 37.9043 19.5326 38.1903 19.3346 38.403C19.1366 38.6083 18.8652 38.7587 18.5206 38.854V38.898C18.7552 38.964 18.9716 39.0557 19.1696 39.173C19.3676 39.2903 19.5252 39.4443 19.6426 39.635C19.7672 39.8257 19.8296 40.0713 19.8296 40.372C19.8296 40.6947 19.7379 40.988 19.5546 41.252C19.3786 41.516 19.1036 41.725 18.7296 41.879C18.3629 42.033 17.8899 42.11 17.3106 42.11C17.0319 42.11 16.7642 42.0953 16.5076 42.066C16.2582 42.0367 16.0309 41.9927 15.8256 41.934C15.6276 41.8753 15.4516 41.8057 15.2976 41.725V40.856C15.5469 40.9733 15.8402 41.0797 16.1776 41.175C16.5222 41.2703 16.8962 41.318 17.2996 41.318C17.5929 41.318 17.8569 41.285 18.0916 41.219C18.3336 41.153 18.5242 41.0503 18.6636 40.911C18.8029 40.7643 18.8726 40.5663 18.8726 40.317C18.8726 40.0897 18.8102 39.9063 18.6856 39.767C18.5609 39.6203 18.3739 39.5103 18.1246 39.437C17.8826 39.3637 17.5709 39.327 17.1896 39.327H16.3976V38.535H17.0356C17.5416 38.535 17.9449 38.469 18.2456 38.337C18.5536 38.1977 18.7076 37.963 18.7076 37.633C18.7076 37.3543 18.5902 37.1453 18.3556 37.006C18.1282 36.8667 17.7982 36.797 17.3656 36.797C17.0429 36.797 16.7569 36.83 16.5076 36.896C16.2656 36.9547 15.9979 37.0463 15.7046 37.171L15.3636 36.401C15.6789 36.2617 16.0089 36.159 16.3536 36.093C16.6982 36.027 17.0539 35.994 17.4206 35.994ZM23.6934 38.458C23.6934 37.6 23.7777 36.8703 23.9464 36.269C24.1224 35.6603 24.3901 35.1763 24.7494 34.817C25.1161 34.4503 25.5854 34.2047 26.1574 34.08C26.6341 33.9773 27.0997 33.8857 27.5544 33.805C28.0091 33.7243 28.4344 33.651 28.8304 33.585L28.9954 34.432C28.8047 34.4613 28.5921 34.498 28.3574 34.542C28.1227 34.5787 27.8844 34.619 27.6424 34.663C27.4004 34.6997 27.1657 34.74 26.9384 34.784C26.7184 34.8207 26.5241 34.8573 26.3554 34.894C26.1134 34.9453 25.8971 35.0333 25.7064 35.158C25.5157 35.2753 25.3507 35.4367 25.2114 35.642C25.0794 35.8473 24.9731 36.1003 24.8924 36.401C24.8117 36.7017 24.7641 37.0573 24.7494 37.468H24.8154C24.9181 37.3287 25.0574 37.1857 25.2334 37.039C25.4167 36.8923 25.6331 36.7677 25.8824 36.665C26.1391 36.5623 26.4287 36.511 26.7514 36.511C27.2647 36.511 27.6901 36.6247 28.0274 36.852C28.3721 37.072 28.6287 37.38 28.7974 37.776C28.9734 38.172 29.0614 38.634 29.0614 39.162C29.0614 39.8147 28.9477 40.361 28.7204 40.801C28.4931 41.241 28.1777 41.571 27.7744 41.791C27.3711 42.0037 26.9017 42.11 26.3664 42.11C25.9631 42.11 25.5964 42.033 25.2664 41.879C24.9364 41.7177 24.6541 41.483 24.4194 41.175C24.1847 40.867 24.0051 40.4857 23.8804 40.031C23.7557 39.5763 23.6934 39.052 23.6934 38.458ZM26.4434 41.307C26.7661 41.307 27.0447 41.241 27.2794 41.109C27.5214 40.977 27.7084 40.7607 27.8404 40.46C27.9724 40.1593 28.0384 39.7597 28.0384 39.261C28.0384 38.6597 27.9247 38.1867 27.6974 37.842C27.4774 37.49 27.1107 37.314 26.5974 37.314C26.2747 37.314 25.9814 37.3873 25.7174 37.534C25.4534 37.6733 25.2334 37.8347 25.0574 38.018C24.8814 38.2013 24.7567 38.3553 24.6834 38.48C24.6834 38.8393 24.7091 39.1877 24.7604 39.525C24.8117 39.8623 24.8997 40.1667 25.0244 40.438C25.1564 40.702 25.3361 40.9147 25.5634 41.076C25.7981 41.23 26.0914 41.307 26.4434 41.307ZM31.4994 39.701C31.4994 39.767 31.4957 39.8623 31.4884 39.987C31.4884 40.1043 31.4847 40.2327 31.4774 40.372C31.47 40.504 31.4627 40.6323 31.4554 40.757C31.448 40.8743 31.4407 40.9697 31.4334 41.043L34.5904 36.104H35.7784V42H34.8764V38.524C34.8764 38.4067 34.8764 38.2527 34.8764 38.062C34.8837 37.8713 34.891 37.6843 34.8984 37.501C34.9057 37.3103 34.913 37.1673 34.9204 37.072L31.7854 42H30.5864V36.104H31.4994V39.701ZM37.3467 38.458C37.3467 37.6 37.4311 36.8703 37.5997 36.269C37.7757 35.6603 38.0434 35.1763 38.4027 34.817C38.7694 34.4503 39.2387 34.2047 39.8107 34.08C40.2874 33.9773 40.7531 33.8857 41.2077 33.805C41.6624 33.7243 42.0877 33.651 42.4837 33.585L42.6487 34.432C42.4581 34.4613 42.2454 34.498 42.0107 34.542C41.7761 34.5787 41.5377 34.619 41.2957 34.663C41.0537 34.6997 40.8191 34.74 40.5917 34.784C40.3717 34.8207 40.1774 34.8573 40.0087 34.894C39.7667 34.9453 39.5504 35.0333 39.3597 35.158C39.1691 35.2753 39.0041 35.4367 38.8647 35.642C38.7327 35.8473 38.6264 36.1003 38.5457 36.401C38.4651 36.7017 38.4174 37.0573 38.4027 37.468H38.4687C38.5714 37.3287 38.7107 37.1857 38.8867 37.039C39.0701 36.8923 39.2864 36.7677 39.5357 36.665C39.7924 36.5623 40.0821 36.511 40.4047 36.511C40.9181 36.511 41.3434 36.6247 41.6807 36.852C42.0254 37.072 42.2821 37.38 42.4507 37.776C42.6267 38.172 42.7147 38.634 42.7147 39.162C42.7147 39.8147 42.6011 40.361 42.3737 40.801C42.1464 41.241 41.8311 41.571 41.4277 41.791C41.0244 42.0037 40.5551 42.11 40.0197 42.11C39.6164 42.11 39.2497 42.033 38.9197 41.879C38.5897 41.7177 38.3074 41.483 38.0727 41.175C37.8381 40.867 37.6584 40.4857 37.5337 40.031C37.4091 39.5763 37.3467 39.052 37.3467 38.458ZM40.0967 41.307C40.4194 41.307 40.6981 41.241 40.9327 41.109C41.1747 40.977 41.3617 40.7607 41.4937 40.46C41.6257 40.1593 41.6917 39.7597 41.6917 39.261C41.6917 38.6597 41.5781 38.1867 41.3507 37.842C41.1307 37.49 40.7641 37.314 40.2507 37.314C39.9281 37.314 39.6347 37.3873 39.3707 37.534C39.1067 37.6733 38.8867 37.8347 38.7107 38.018C38.5347 38.2013 38.4101 38.3553 38.3367 38.48C38.3367 38.8393 38.3624 39.1877 38.4137 39.525C38.4651 39.8623 38.5531 40.1667 38.6777 40.438C38.8097 40.702 38.9894 40.9147 39.2167 41.076C39.4514 41.23 39.7447 41.307 40.0967 41.307ZM48.7277 42H47.7487V36.907H46.0107C45.9374 37.8383 45.8457 38.634 45.7357 39.294C45.6257 39.9467 45.4864 40.4783 45.3177 40.889C45.149 41.2997 44.9474 41.6003 44.7127 41.791C44.478 41.9817 44.203 42.077 43.8877 42.077C43.7924 42.077 43.697 42.0697 43.6017 42.055C43.5137 42.0477 43.4404 42.0293 43.3817 42V41.274C43.4257 41.2887 43.4734 41.2997 43.5247 41.307C43.576 41.3143 43.6274 41.318 43.6787 41.318C43.84 41.318 43.9867 41.252 44.1187 41.12C44.2507 40.988 44.368 40.7863 44.4707 40.515C44.5807 40.2437 44.6797 39.9027 44.7677 39.492C44.8557 39.074 44.9327 38.5827 44.9987 38.018C45.0647 37.4533 45.1234 36.8153 45.1747 36.104H48.7277V42ZM51.5121 39.701C51.5121 39.767 51.5084 39.8623 51.5011 39.987C51.5011 40.1043 51.4974 40.2327 51.4901 40.372C51.4827 40.504 51.4754 40.6323 51.4681 40.757C51.4607 40.8743 51.4534 40.9697 51.4461 41.043L54.6031 36.104H55.7911V42H54.8891V38.524C54.8891 38.4067 54.8891 38.2527 54.8891 38.062C54.8964 37.8713 54.9037 37.6843 54.9111 37.501C54.9184 37.3103 54.9257 37.1673 54.9331 37.072L51.7981 42H50.5991V36.104H51.5121V39.701ZM62.7934 39.041C62.7934 39.5323 62.7274 39.9687 62.5954 40.35C62.4708 40.724 62.2874 41.043 62.0454 41.307C61.8108 41.571 61.5211 41.7727 61.1764 41.912C60.8391 42.044 60.4614 42.11 60.0434 42.11C59.6548 42.11 59.2954 42.044 58.9654 41.912C58.6354 41.7727 58.3494 41.571 58.1074 41.307C57.8654 41.043 57.6748 40.724 57.5354 40.35C57.4034 39.9687 57.3374 39.5323 57.3374 39.041C57.3374 38.3883 57.4474 37.8383 57.6674 37.391C57.8874 36.9363 58.2028 36.5917 58.6134 36.357C59.0241 36.115 59.5118 35.994 60.0764 35.994C60.6118 35.994 61.0811 36.115 61.4844 36.357C61.8951 36.5917 62.2141 36.9363 62.4414 37.391C62.6761 37.8383 62.7934 38.3883 62.7934 39.041ZM58.3384 39.041C58.3384 39.503 58.3971 39.9063 58.5144 40.251C58.6391 40.5883 58.8298 40.8487 59.0864 41.032C59.3431 41.2153 59.6694 41.307 60.0654 41.307C60.4614 41.307 60.7878 41.2153 61.0444 41.032C61.3011 40.8487 61.4881 40.5883 61.6054 40.251C61.7301 39.9063 61.7924 39.503 61.7924 39.041C61.7924 38.5717 61.7301 38.172 61.6054 37.842C61.4808 37.512 61.2901 37.259 61.0334 37.083C60.7841 36.8997 60.4578 36.808 60.0544 36.808C59.4531 36.808 59.0168 37.006 58.7454 37.402C58.4741 37.798 58.3384 38.3443 58.3384 39.041ZM68.2902 36.918H66.3652V42H65.4082V36.918H63.5052V36.104H68.2902V36.918ZM71.6212 35.994C72.1272 35.994 72.5598 36.104 72.9192 36.324C73.2858 36.544 73.5645 36.8557 73.7552 37.259C73.9532 37.655 74.0522 38.1207 74.0522 38.656V39.239H70.0152C70.0298 39.9063 70.1985 40.416 70.5212 40.768C70.8512 41.1127 71.3095 41.285 71.8962 41.285C72.2702 41.285 72.6002 41.252 72.8862 41.186C73.1795 41.1127 73.4802 41.01 73.7882 40.878V41.725C73.4875 41.857 73.1905 41.9523 72.8972 42.011C72.6038 42.077 72.2555 42.11 71.8522 42.11C71.2948 42.11 70.7998 41.9963 70.3672 41.769C69.9418 41.5417 69.6082 41.2043 69.3662 40.757C69.1315 40.3023 69.0142 39.7487 69.0142 39.096C69.0142 38.4507 69.1205 37.897 69.3332 37.435C69.5532 36.973 69.8575 36.6173 70.2462 36.368C70.6422 36.1187 71.1005 35.994 71.6212 35.994ZM71.6102 36.786C71.1482 36.786 70.7815 36.9363 70.5102 37.237C70.2462 37.5303 70.0885 37.941 70.0372 38.469H73.0402C73.0402 38.1317 72.9888 37.8383 72.8862 37.589C72.7835 37.3397 72.6258 37.1453 72.4132 37.006C72.2078 36.8593 71.9402 36.786 71.6102 36.786ZM79.0402 36.104H80.0962L77.5772 38.942L80.3052 42H79.1832L76.5212 39.008V42H75.5532V36.104H76.5212V38.964L79.0402 36.104ZM82.2884 39.701C82.2884 39.767 82.2848 39.8623 82.2774 39.987C82.2774 40.1043 82.2738 40.2327 82.2664 40.372C82.2591 40.504 82.2518 40.6323 82.2444 40.757C82.2371 40.8743 82.2298 40.9697 82.2224 41.043L85.3794 36.104H86.5674V42H85.6654V38.524C85.6654 38.4067 85.6654 38.2527 85.6654 38.062C85.6728 37.8713 85.6801 37.6843 85.6874 37.501C85.6948 37.3103 85.7021 37.1673 85.7094 37.072L82.5744 42H81.3754V36.104H82.2884V39.701Z" fill="#EBF2FF"/>
</svg>
