<svg width="235" height="201" viewBox="0 0 235 201" fill="none" xmlns="http://www.w3.org/2000/svg">
<path d="M81.1348 60.0148V43.312C81.1348 26.6093 94.4572 12.8892 111.359 12.8892C127.863 12.8892 141.583 26.4104 141.583 43.312V60.0148" stroke="#F7C098" stroke-width="1.8941" stroke-miterlimit="10" stroke-linecap="round" stroke-linejoin="round"/>
<path d="M20.4863 200H233.844" stroke="#E6E6E6" stroke-width="2" stroke-miterlimit="10" stroke-linecap="round" stroke-linejoin="round"/>
<path d="M1 200H9.74906" stroke="#E6E6E6" stroke-width="2" stroke-miterlimit="10" stroke-linecap="round" stroke-linejoin="round"/>
<path d="M199.644 28.3994H30.2305V198.211H199.644V28.3994Z" fill="#FEF4EE"/>
<path d="M200.043 28.3994H77.3574V198.211H199.844V28.3994H200.043Z" fill="#FCEADD"/>
<path d="M53.6939 28.3994H30.2305V198.211H53.6939V28.3994Z" fill="#FCEADD"/>
<path d="M77.3561 198.21H30.2305V197.813L54.0915 174.15L77.3561 198.21Z" fill="#FCEADD"/>
<path d="M112.647 60.0147C112.647 63.1189 110.087 65.6788 106.982 65.6788C103.878 65.6788 101.318 63.1189 101.318 60.0147C101.318 56.9105 103.878 54.3506 106.982 54.3506C110.087 54.3506 112.647 56.9105 112.647 60.0147Z" fill="#FEF4EE" stroke="#F7C098"/>
<path d="M173.096 60.0147C173.096 63.1189 170.536 65.6788 167.432 65.6788C164.357 65.6788 161.96 63.1472 161.768 60.0001C161.776 56.9025 164.332 54.3506 167.432 54.3506C170.536 54.3506 173.096 56.9105 173.096 60.0147Z" fill="#FEF4EE" stroke="#F7C098"/>
<path d="M106.982 60.0148V43.312C106.982 26.6093 120.305 12.8892 137.206 12.8892C153.71 12.8892 167.43 26.4104 167.43 43.312V60.0148" stroke="#F7C098" stroke-width="1.8941" stroke-miterlimit="10" stroke-linecap="round" stroke-linejoin="round"/>
<path d="M186.706 6.04743C191 3.29486 196.064 1.75342 201.459 1.75342C216.213 1.75342 228.214 13.6445 228.214 28.3983C228.214 43.1521 216.213 55.0432 201.459 55.0432C186.706 55.0432 174.704 43.1521 174.704 28.3983C174.484 19.0396 179.329 10.892 186.706 6.04743Z" fill="#CCCCCC"/>
<path d="M201.456 40.3288C196.082 40.3288 191.514 35.503 191.514 28.2643C191.514 21.0255 196.082 16.4678 201.456 16.4678C206.83 16.4678 211.398 21.0255 211.398 28.2643C211.398 35.503 206.83 40.3288 201.456 40.3288ZM201.456 34.6987C203.337 34.6987 205.218 32.822 205.218 28.2643C205.486 23.9746 203.337 21.8298 201.456 21.8298C199.575 21.8298 197.694 23.9746 197.694 28.2643C197.694 32.822 199.575 34.6987 201.456 34.6987Z" fill="white"/>
<path d="M118.069 114.497C111.239 114.497 105.501 110.127 103.316 103.845C102.769 102.479 103.589 101.113 104.955 100.567C106.321 100.021 107.687 100.84 108.234 102.206C109.6 106.303 113.698 109.307 118.069 109.307C122.441 109.307 126.539 106.576 127.905 102.206C128.452 100.84 129.818 100.021 131.184 100.567C132.55 101.113 133.37 102.479 132.823 103.845C130.638 110.4 124.9 114.497 118.069 114.497Z" fill="#F7C098"/>
<path d="M159.325 114.497C152.495 114.497 146.757 110.127 144.572 103.845C144.025 102.479 144.845 101.113 146.211 100.567C147.577 100.021 148.943 100.84 149.489 102.206C150.856 106.303 154.954 109.307 159.325 109.307C163.697 109.307 167.795 106.576 169.161 102.206C169.708 100.84 171.074 100.021 172.44 100.567C173.806 101.113 174.626 102.479 174.079 103.845C171.893 110.4 166.156 114.497 159.325 114.497Z" fill="#F7C098"/>
<path d="M138.837 147.939C142.307 147.939 145.121 145.127 145.121 141.657C145.121 138.188 142.307 135.375 138.837 135.375C135.366 135.375 132.553 138.188 132.553 141.657C132.553 145.127 135.366 147.939 138.837 147.939Z" fill="#F7C098"/>
<path d="M24.3861 9.24551V0H60.1183V9.24551L35.7364 38.663H60.5387V47.9086H23.125V38.663L47.507 9.24551H24.3861Z" fill="#999999"/>
<path d="M53.8134 78.5871V72.7036H76.9342V78.5871L61.3802 97.4984H77.3546V103.382H52.9727V97.4984L68.5267 78.5871H53.8134Z" fill="#999999"/>
</svg>
