<svg width="93" height="45" viewBox="0 0 93 45" fill="none" xmlns="http://www.w3.org/2000/svg">
<path d="M53.8458 6.99583C52.615 6.335 51.3192 6 49.9917 6H43.0083C41.6817 6 40.385 6.335 39.1542 6.99583C37.5175 7.875 36.5 9.6125 36.5 11.53V13.52C36.5 14.8983 37.6217 16.02 39 16.02H39.8333V21.8333C39.8333 24.1308 41.7025 26 44 26H49C51.2975 26 53.1667 24.1308 53.1667 21.8333V16H54C55.3783 16 56.5 14.8783 56.5 13.5V11.53C56.5 9.6125 55.4825 7.87417 53.8458 6.99583ZM48.9117 7.66667C48.5325 8.66167 47.5892 9.33333 46.5008 9.33333C45.4125 9.33333 44.4692 8.66167 44.09 7.66667H48.9125H48.9117ZM54.8342 13.5C54.8342 13.9592 54.46 14.3333 54.0008 14.3333H53.1675V11.8333C53.1675 11.3733 52.7942 11 52.3342 11C51.8742 11 51.5008 11.3733 51.5008 11.8333V21.8333C51.5008 23.2117 50.3792 24.3333 49.0008 24.3333H44.0008C42.6225 24.3333 41.5008 23.2117 41.5008 21.8333V11.8333C41.5008 11.3733 41.1275 11 40.6675 11C40.2075 11 39.8342 11.3733 39.8342 11.8333V14.3533H39.0008C38.5417 14.3533 38.1675 13.9792 38.1675 13.52V11.53C38.1675 10.2275 38.8483 9.0525 39.9433 8.46417C40.7242 8.045 41.5333 7.79667 42.3575 7.70833C42.8108 9.64667 44.5142 11 46.5008 11C48.4875 11 50.1908 9.64667 50.6442 7.70833C51.4675 7.79667 52.2775 8.045 53.0583 8.46417C54.1533 9.0525 54.8342 10.2275 54.8342 11.53V13.5Z" fill="#EBF2FF"/>
<path d="M34.9177 42H33.9277V35.015H31.4747V34.146H37.3597V35.015H34.9177V42ZM42.7646 39.041C42.7646 39.5323 42.6986 39.9687 42.5666 40.35C42.4419 40.724 42.2586 41.043 42.0166 41.307C41.7819 41.571 41.4923 41.7727 41.1476 41.912C40.8103 42.044 40.4326 42.11 40.0146 42.11C39.6259 42.11 39.2666 42.044 38.9366 41.912C38.6066 41.7727 38.3206 41.571 38.0786 41.307C37.8366 41.043 37.6459 40.724 37.5066 40.35C37.3746 39.9687 37.3086 39.5323 37.3086 39.041C37.3086 38.3883 37.4186 37.8383 37.6386 37.391C37.8586 36.9363 38.1739 36.5917 38.5846 36.357C38.9953 36.115 39.4829 35.994 40.0476 35.994C40.5829 35.994 41.0523 36.115 41.4556 36.357C41.8663 36.5917 42.1853 36.9363 42.4126 37.391C42.6473 37.8383 42.7646 38.3883 42.7646 39.041ZM38.3096 39.041C38.3096 39.503 38.3683 39.9063 38.4856 40.251C38.6103 40.5883 38.8009 40.8487 39.0576 41.032C39.3143 41.2153 39.6406 41.307 40.0366 41.307C40.4326 41.307 40.7589 41.2153 41.0156 41.032C41.2723 40.8487 41.4593 40.5883 41.5766 40.251C41.7013 39.9063 41.7636 39.503 41.7636 39.041C41.7636 38.5717 41.7013 38.172 41.5766 37.842C41.4519 37.512 41.2613 37.259 41.0046 37.083C40.7553 36.8997 40.4289 36.808 40.0256 36.808C39.4243 36.808 38.9879 37.006 38.7166 37.402C38.4453 37.798 38.3096 38.3443 38.3096 39.041ZM49.0398 37.589C49.0398 37.9557 48.9298 38.2417 48.7098 38.447C48.4898 38.6523 48.2074 38.7917 47.8628 38.865V38.909C48.2294 38.9603 48.5484 39.0923 48.8198 39.305C49.0911 39.5103 49.2268 39.833 49.2268 40.273C49.2268 40.5223 49.1791 40.7533 49.0838 40.966C48.9958 41.1787 48.8564 41.362 48.6658 41.516C48.4751 41.67 48.2294 41.791 47.9288 41.879C47.6281 41.9597 47.2651 42 46.8398 42H44.2988V36.104H46.8288C47.2468 36.104 47.6208 36.1517 47.9508 36.247C48.2881 36.335 48.5521 36.489 48.7428 36.709C48.9408 36.9217 49.0398 37.215 49.0398 37.589ZM48.2258 40.273C48.2258 39.9357 48.0974 39.6937 47.8408 39.547C47.5841 39.4003 47.2064 39.327 46.7078 39.327H45.2668V41.219H46.7298C47.2138 41.219 47.5841 41.1493 47.8408 41.01C48.0974 40.8633 48.2258 40.6177 48.2258 40.273ZM48.0608 37.71C48.0608 37.4313 47.9581 37.2297 47.7528 37.105C47.5548 36.973 47.2284 36.907 46.7738 36.907H45.2668V38.524H46.5978C47.0744 38.524 47.4374 38.458 47.6868 38.326C47.9361 38.194 48.0608 37.9887 48.0608 37.71ZM52.8697 36.005C53.5883 36.005 54.12 36.1627 54.4647 36.478C54.8093 36.7933 54.9817 37.2957 54.9817 37.985V42H54.2777L54.0907 41.164H54.0467C53.878 41.3767 53.702 41.5563 53.5187 41.703C53.3427 41.8423 53.1373 41.945 52.9027 42.011C52.6753 42.077 52.3967 42.11 52.0667 42.11C51.7147 42.11 51.3957 42.0477 51.1097 41.923C50.831 41.7983 50.611 41.6077 50.4497 41.351C50.2883 41.087 50.2077 40.757 50.2077 40.361C50.2077 39.7743 50.4387 39.3233 50.9007 39.008C51.3627 38.6853 52.074 38.5093 53.0347 38.48L54.0357 38.447V38.095C54.0357 37.6037 53.9293 37.2627 53.7167 37.072C53.504 36.8813 53.2033 36.786 52.8147 36.786C52.5067 36.786 52.2133 36.8337 51.9347 36.929C51.656 37.017 51.3957 37.1197 51.1537 37.237L50.8567 36.511C51.1133 36.3717 51.4177 36.2543 51.7697 36.159C52.1217 36.0563 52.4883 36.005 52.8697 36.005ZM53.1557 39.151C52.4223 39.1803 51.9127 39.2977 51.6267 39.503C51.348 39.7083 51.2087 39.998 51.2087 40.372C51.2087 40.702 51.3077 40.944 51.5057 41.098C51.711 41.252 51.9713 41.329 52.2867 41.329C52.7853 41.329 53.1997 41.1933 53.5297 40.922C53.8597 40.6433 54.0247 40.218 54.0247 39.646V39.118L53.1557 39.151ZM59.6077 35.994C60.3337 35.994 60.9167 36.247 61.3567 36.753C61.804 37.259 62.0277 38.0217 62.0277 39.041C62.0277 39.7083 61.925 40.273 61.7197 40.735C61.5217 41.1897 61.2393 41.5343 60.8727 41.769C60.5133 41.9963 60.088 42.11 59.5967 42.11C59.296 42.11 59.0283 42.0697 58.7937 41.989C58.559 41.9083 58.3573 41.8057 58.1887 41.681C58.0273 41.549 57.888 41.406 57.7707 41.252H57.7047C57.7193 41.3767 57.734 41.5343 57.7487 41.725C57.7633 41.9157 57.7707 42.0807 57.7707 42.22V44.64H56.8027V36.104H57.5947L57.7267 36.907H57.7707C57.888 36.7383 58.0273 36.5843 58.1887 36.445C58.3573 36.3057 58.5553 36.1957 58.7827 36.115C59.0173 36.0343 59.2923 35.994 59.6077 35.994ZM59.4317 36.808C59.0357 36.808 58.7167 36.885 58.4747 37.039C58.2327 37.1857 58.0567 37.4093 57.9467 37.71C57.8367 38.0107 57.778 38.392 57.7707 38.854V39.041C57.7707 39.525 57.822 39.9357 57.9247 40.273C58.0273 40.6103 58.1997 40.867 58.4417 41.043C58.691 41.219 59.0283 41.307 59.4537 41.307C59.813 41.307 60.1063 41.208 60.3337 41.01C60.5683 40.812 60.7407 40.5443 60.8507 40.207C60.968 39.8623 61.0267 39.47 61.0267 39.03C61.0267 38.3553 60.8947 37.8163 60.6307 37.413C60.374 37.0097 59.9743 36.808 59.4317 36.808Z" fill="#EBF2FF"/>
</svg>
