<svg width="549" height="493" viewBox="0 0 549 493" fill="none" xmlns="http://www.w3.org/2000/svg">
<path d="M191.94 1C212.202 18.5428 296.71 45.1028 348.646 3L362.706 8.1258L416.543 29.7972C428.543 34.628 438.992 42.654 446.754 53.0037C452.2 60.2668 456.2 68.5095 458.534 77.2828L544 398.5C549.356 416.653 548.277 423.754 542.5 433.5C540.728 447.671 540.999 456.17 543.361 469.688C543.711 471.691 542.531 473.658 540.587 474.257L489.329 490.054C487.281 490.686 485.101 489.585 484.365 487.573C478.652 471.97 474.333 463.739 465.5 453L428 385.12V459.5C426.173 467.695 425.262 473.672 426.527 484.436C426.746 486.295 425.278 487.941 423.408 487.877L368.5 486L336.09 488.216C318.719 489.404 301.285 489.354 283.921 488.068L280.757 487.834C264.276 486.613 247.727 486.649 231.251 487.941C213.779 489.311 196.225 489.269 178.759 487.813L157 486L120.782 487.811C118.85 487.908 117.337 486.177 117.629 484.265C119.391 472.699 118.391 466.831 116 459.5V372.12L74.5565 459.5C68.1488 468.103 65.1891 476.235 60.316 489.025C59.7262 490.573 58.234 491.599 56.5776 491.578C36.0059 491.32 24.9843 488.068 4.33309 479.927C2.05295 479.028 1.12901 476.292 1.96382 473.987C6.26922 462.103 3.36849 445.984 1.5 442L1.31984 432.992C1.1074 422.37 2.18791 411.762 4.53755 401.401L42.5 234L87.7013 77.179C90.2118 68.4692 94.3225 60.3031 99.823 53.0984L100.838 51.7696C107.862 42.5691 116.973 35.171 127.42 30.1856L177.838 6.1258L191.94 1Z" fill="white"/>
<path d="M191.94 1C212.202 18.5428 296.71 45.1028 348.646 3M191.94 1C192.767 24.162 224.496 70.884 272.793 72.3642C293.193 72.7753 348.646 54 348.646 3M191.94 1L177.838 6.1258M348.646 3L362.706 8.1258M428 385.12L465.5 453M428 385.12C422.574 326.262 414.84 226.291 418.121 147.5M428 385.12V459.5M116 372.12C120.377 314.211 125.531 223.316 122.784 147.5M116 372.12L74.5565 459.5M116 372.12V459.5M362.706 8.1258L416.543 29.7972C428.543 34.628 438.992 42.654 446.754 53.0037V53.0037C452.2 60.2668 456.2 68.5095 458.534 77.2828L544 398.5C549.356 416.653 548.277 423.754 542.5 433.5M362.706 8.1258C362.706 41 335.52 86.9324 272.793 86.9324C244.52 86.9324 191.94 69.5 177.838 6.1258M177.838 6.1258L127.42 30.1856C116.973 35.171 107.862 42.5691 100.838 51.7696L99.823 53.0984C94.3225 60.3031 90.2118 68.4692 87.7013 77.179L42.5 234L4.53755 401.401C2.18791 411.762 1.1074 422.37 1.31984 432.992L1.5 442M542.5 433.5C540.728 447.671 540.999 456.17 543.361 469.688C543.711 471.692 542.531 473.658 540.587 474.257L489.33 490.054C487.281 490.686 485.101 489.585 484.365 487.573C478.652 471.97 474.333 463.739 465.5 453M542.5 433.5L529.988 435.63C522.685 436.873 515.543 438.923 508.693 441.744L503.427 443.912C496.828 446.63 489.957 448.633 482.931 449.887L465.5 453M1.5 442C3.36849 445.984 6.26922 462.103 1.96382 473.987C1.12901 476.292 2.05295 479.028 4.33309 479.927C24.9843 488.068 36.0059 491.32 56.5776 491.578C58.234 491.599 59.7262 490.573 60.316 489.025C65.1891 476.235 68.1488 468.103 74.5565 459.5M1.5 442L15.7228 444.963C22.2301 446.319 28.6157 448.204 34.816 450.599V450.599C43.2459 453.856 52.0115 456.167 60.9516 457.489L74.5565 459.5M116 459.5C118.391 466.831 119.391 472.699 117.629 484.265C117.337 486.177 118.85 487.907 120.782 487.811L157 486L178.759 487.813C196.225 489.269 213.779 489.311 231.251 487.941V487.941C247.727 486.649 264.276 486.613 280.757 487.834L283.92 488.068C301.285 489.354 318.719 489.404 336.09 488.216L368.5 486L423.408 487.877C425.278 487.941 426.746 486.295 426.527 484.436C425.262 473.672 426.173 467.695 428 459.5M116 459.5L157 457.5L178.759 459.313C196.225 460.769 213.779 460.811 231.251 459.441V459.441C247.727 458.149 264.276 458.113 280.757 459.334L283.92 459.568C301.285 460.854 318.719 460.904 336.09 459.716L368.5 457.5L428 459.5" stroke="#666666" stroke-width="1.5"/>
<g filter="url(#filter0_ii_916_2774)">
<path d="M346.992 4.30891C296.348 43.4511 216.47 19.7311 193.71 2.43212C193.015 1.9035 192.014 2.41997 192.112 3.28808C194.804 27.185 226.012 72.3642 272.793 72.3642C302.597 72.3642 347.373 54.5101 348.619 5.12062C348.64 4.27937 347.658 3.7943 346.992 4.30891Z" fill="#E6E6E6"/>
</g>
<path d="M346.992 4.30891C296.348 43.4511 216.47 19.7311 193.71 2.43212C193.015 1.9035 192.014 2.41997 192.112 3.28808C194.804 27.185 226.012 72.3642 272.793 72.3642C302.597 72.3642 347.373 54.5101 348.619 5.12062C348.64 4.27937 347.658 3.7943 346.992 4.30891Z" stroke="#666666" stroke-width="1.5"/>
<defs>
<filter id="filter0_ii_916_2774" x="188.354" y="-2.52539" width="165.016" height="79.6396" filterUnits="userSpaceOnUse" color-interpolation-filters="sRGB">
<feFlood flood-opacity="0" result="BackgroundImageFix"/>
<feBlend mode="normal" in="SourceGraphic" in2="BackgroundImageFix" result="shape"/>
<feColorMatrix in="SourceAlpha" type="matrix" values="0 0 0 0 0 0 0 0 0 0 0 0 0 0 0 0 0 0 127 0" result="hardAlpha"/>
<feOffset dx="4" dy="4"/>
<feGaussianBlur stdDeviation="5"/>
<feComposite in2="hardAlpha" operator="arithmetic" k2="-1" k3="1"/>
<feColorMatrix type="matrix" values="0 0 0 0 0 0 0 0 0 0 0 0 0 0 0 0 0 0 0.2 0"/>
<feBlend mode="normal" in2="shape" result="effect1_innerShadow_916_2774"/>
<feColorMatrix in="SourceAlpha" type="matrix" values="0 0 0 0 0 0 0 0 0 0 0 0 0 0 0 0 0 0 127 0" result="hardAlpha"/>
<feOffset dx="-3" dy="-4"/>
<feGaussianBlur stdDeviation="5"/>
<feComposite in2="hardAlpha" operator="arithmetic" k2="-1" k3="1"/>
<feColorMatrix type="matrix" values="0 0 0 0 0 0 0 0 0 0 0 0 0 0 0 0 0 0 0.2 0"/>
<feBlend mode="normal" in2="effect1_innerShadow_916_2774" result="effect2_innerShadow_916_2774"/>
</filter>
</defs>
</svg>
