<svg width="100" height="100" viewBox="0 0 100 100" fill="none" xmlns="http://www.w3.org/2000/svg">
<path fill-rule="evenodd" clip-rule="evenodd" d="M50.0006 8.33301C27.0007 8.33301 8.33398 26.9997 8.33398 49.9997C8.33398 72.9997 27.0007 91.6663 50.0006 91.6663C73.0006 91.6663 91.6673 72.9997 91.6673 49.9997C91.6673 26.9997 73.0006 8.33301 50.0006 8.33301ZM50.0007 20.833C56.9173 20.833 62.5007 26.4163 62.5007 33.333C62.5007 40.2497 56.9173 45.833 50.0007 45.833C43.084 45.833 37.5007 40.2497 37.5007 33.333C37.5007 26.4163 43.084 20.833 50.0007 20.833ZM50.0006 79.9997C39.584 79.9997 30.3757 74.6663 25.0007 66.583C25.1257 58.2913 41.6673 53.7497 50.0006 53.7497C58.2923 53.7497 74.8756 58.2913 75.0006 66.583C69.6256 74.6663 60.4173 79.9997 50.0006 79.9997Z" fill="#CCCCCC"/>
</svg>
