<svg width="176" height="227" viewBox="0 0 176 227" fill="none" xmlns="http://www.w3.org/2000/svg">
<path d="M34.5901 136.285C33.2221 136.285 32.0504 135.987 31.0751 135.392C30.0998 134.79 29.3493 133.954 28.8236 132.884C28.3043 131.814 28.0446 130.572 28.0446 129.16C28.0446 127.748 28.3043 126.506 28.8236 125.436C29.3493 124.366 30.0998 123.533 31.0751 122.937C32.0504 122.336 33.2221 122.035 34.5901 122.035C35.9581 122.035 37.1298 122.336 38.1051 122.937C39.0868 123.533 39.8373 124.366 40.3566 125.436C40.8823 126.506 41.1451 127.748 41.1451 129.16C41.1451 130.572 40.8823 131.814 40.3566 132.884C39.8373 133.954 39.0868 134.79 38.1051 135.392C37.1298 135.987 35.9581 136.285 34.5901 136.285ZM34.5901 134.128C35.5084 134.135 36.2716 133.932 36.8796 133.52C37.4939 133.109 37.9531 132.529 38.2571 131.782C38.5674 131.035 38.7226 130.161 38.7226 129.16C38.7226 128.159 38.5674 127.292 38.2571 126.557C37.9531 125.816 37.4939 125.24 36.8796 124.828C36.2716 124.416 35.5084 124.204 34.5901 124.191C33.6718 124.185 32.9086 124.388 32.3006 124.799C31.6926 125.211 31.2334 125.791 30.9231 126.538C30.6191 127.285 30.4671 128.159 30.4671 129.16C30.4671 130.161 30.6191 131.031 30.9231 131.772C31.2271 132.507 31.6831 133.08 32.2911 133.492C32.9054 133.904 33.6718 134.116 34.5901 134.128ZM45.6106 136V127.773H42.1811V125.74H51.3296V127.773H47.9001V136H45.6106ZM53.1108 136V125.74H62.0218V136H59.7323V127.887H55.4003V136H53.1108ZM69.6199 136.285C68.6192 136.285 67.78 136.048 67.1024 135.572C66.4247 135.097 65.9149 134.451 65.5729 133.634C65.2309 132.811 65.0599 131.89 65.0599 130.87C65.0599 129.838 65.2309 128.913 65.5729 128.096C65.9149 127.279 66.4152 126.636 67.0739 126.167C67.7389 125.692 68.559 125.455 69.5344 125.455C70.5034 125.455 71.3425 125.692 72.0519 126.167C72.7675 126.636 73.3217 127.279 73.7144 128.096C74.107 128.907 74.3034 129.831 74.3034 130.87C74.3034 131.896 74.1102 132.817 73.7239 133.634C73.3375 134.451 72.7929 135.097 72.0899 135.572C71.3869 136.048 70.5635 136.285 69.6199 136.285ZM64.6704 140.56V125.74H66.6939V132.941H66.9789V140.56H64.6704ZM69.2684 134.233C69.8637 134.233 70.3545 134.084 70.7409 133.786C71.1272 133.489 71.4122 133.087 71.5959 132.58C71.7859 132.067 71.8809 131.497 71.8809 130.87C71.8809 130.249 71.7859 129.686 71.5959 129.179C71.4059 128.666 71.1114 128.261 70.7124 127.963C70.3134 127.659 69.8067 127.507 69.1924 127.507C68.6097 127.507 68.1347 127.649 67.7674 127.934C67.4 128.213 67.1277 128.606 66.9504 129.112C66.7794 129.613 66.6939 130.199 66.6939 130.87C66.6939 131.535 66.7794 132.121 66.9504 132.627C67.1277 133.134 67.4032 133.53 67.7769 133.815C68.1569 134.094 68.654 134.233 69.2684 134.233ZM79.2664 136.285C78.5254 136.285 77.8984 136.146 77.3854 135.867C76.8724 135.582 76.4829 135.205 76.2169 134.736C75.9572 134.268 75.8274 133.752 75.8274 133.188C75.8274 132.694 75.9097 132.251 76.0744 131.858C76.239 131.459 76.4924 131.117 76.8344 130.832C77.1764 130.541 77.6197 130.303 78.1644 130.119C78.576 129.986 79.0574 129.866 79.6084 129.758C80.1657 129.651 80.7674 129.553 81.4134 129.464C82.0657 129.369 82.7465 129.268 83.4559 129.16L82.6389 129.625C82.6452 128.916 82.4869 128.394 82.1639 128.058C81.8409 127.722 81.2962 127.554 80.5299 127.554C80.0675 127.554 79.621 127.662 79.1904 127.877C78.7597 128.093 78.4589 128.463 78.2879 128.989L76.1979 128.333C76.4512 127.466 76.9325 126.769 77.6419 126.243C78.3575 125.718 79.3202 125.455 80.5299 125.455C81.4419 125.455 82.243 125.604 82.9334 125.901C83.63 126.199 84.1462 126.687 84.4819 127.364C84.6656 127.725 84.7764 128.096 84.8144 128.476C84.8524 128.85 84.8714 129.258 84.8714 129.701V136H82.8669V133.777L83.1994 134.138C82.7371 134.879 82.1956 135.424 81.5749 135.772C80.9605 136.114 80.191 136.285 79.2664 136.285ZM79.7224 134.461C80.2417 134.461 80.685 134.369 81.0524 134.185C81.4197 134.002 81.711 133.777 81.9264 133.511C82.148 133.245 82.2969 132.995 82.3729 132.76C82.4932 132.469 82.5597 132.137 82.5724 131.763C82.5914 131.383 82.6009 131.076 82.6009 130.841L83.3039 131.05C82.6135 131.158 82.0214 131.253 81.5274 131.335C81.0334 131.418 80.609 131.497 80.2544 131.573C79.8997 131.643 79.5862 131.722 79.3139 131.81C79.0479 131.905 78.823 132.016 78.6394 132.143C78.4557 132.27 78.3132 132.415 78.2119 132.58C78.1169 132.745 78.0694 132.938 78.0694 133.159C78.0694 133.413 78.1327 133.638 78.2594 133.834C78.386 134.024 78.5697 134.176 78.8104 134.29C79.0574 134.404 79.3614 134.461 79.7224 134.461ZM87.3256 136V125.74H91.9901C92.3258 125.74 92.6393 125.759 92.9306 125.797C93.222 125.835 93.4721 125.882 93.6811 125.939C94.1751 126.085 94.6121 126.37 94.9921 126.794C95.3721 127.212 95.5621 127.792 95.5621 128.533C95.5621 128.97 95.4925 129.331 95.3531 129.616C95.2138 129.895 95.0301 130.129 94.8021 130.319C94.6945 130.408 94.5836 130.484 94.4696 130.547C94.3556 130.61 94.2416 130.661 94.1276 130.699C94.3746 130.737 94.609 130.81 94.8306 130.917C95.179 131.088 95.4703 131.342 95.7046 131.677C95.9453 132.013 96.0656 132.485 96.0656 133.093C96.0656 133.783 95.8978 134.366 95.5621 134.841C95.2328 135.31 94.7483 135.636 94.1086 135.819C93.8743 135.883 93.6051 135.93 93.3011 135.962C92.9971 135.987 92.6868 136 92.3701 136H87.3256ZM89.6436 134.233H92.2086C92.3416 134.233 92.4873 134.22 92.6456 134.195C92.804 134.17 92.9465 134.135 93.0731 134.09C93.3011 134.008 93.4658 133.862 93.5671 133.653C93.6748 133.444 93.7286 133.226 93.7286 132.998C93.7286 132.688 93.6495 132.441 93.4911 132.257C93.3391 132.067 93.1555 131.94 92.9401 131.877C92.8135 131.826 92.6741 131.798 92.5221 131.791C92.3765 131.779 92.2561 131.772 92.1611 131.772H89.6436V134.233ZM89.6436 129.977H91.5436C91.74 129.977 91.93 129.967 92.1136 129.948C92.3036 129.923 92.462 129.882 92.5886 129.825C92.7976 129.743 92.9496 129.603 93.0446 129.407C93.146 129.211 93.1966 128.992 93.1966 128.751C93.1966 128.498 93.1396 128.27 93.0256 128.067C92.918 127.858 92.7438 127.719 92.5031 127.649C92.3448 127.586 92.1516 127.551 91.9236 127.545C91.702 127.539 91.5595 127.535 91.4961 127.535H89.6436V129.977ZM97.0079 136V134.081C97.3816 134.151 97.6698 134.144 97.8724 134.062C98.0751 133.973 98.2271 133.809 98.3284 133.568C98.4298 133.327 98.5184 133.007 98.5944 132.608C98.6958 132.045 98.7844 131.396 98.8604 130.661C98.9428 129.926 99.0124 129.141 99.0694 128.305C99.1328 127.469 99.1898 126.614 99.2404 125.74H106.793V136H104.513V127.887H101.254C101.223 128.299 101.185 128.761 101.14 129.274C101.096 129.781 101.049 130.294 100.998 130.813C100.947 131.332 100.89 131.826 100.827 132.295C100.77 132.757 100.71 133.153 100.646 133.482C100.501 134.223 100.292 134.809 100.019 135.24C99.7534 135.671 99.3798 135.946 98.8984 136.067C98.4171 136.193 97.7869 136.171 97.0079 136ZM114.126 136.285C113.088 136.285 112.176 136.06 111.39 135.61C110.605 135.161 109.991 134.537 109.547 133.739C109.11 132.941 108.892 132.023 108.892 130.984C108.892 129.863 109.107 128.891 109.538 128.067C109.969 127.238 110.567 126.595 111.333 126.139C112.1 125.683 112.986 125.455 113.993 125.455C115.057 125.455 115.96 125.705 116.701 126.205C117.448 126.699 118.002 127.399 118.363 128.305C118.724 129.211 118.861 130.278 118.772 131.506H116.501V130.67C116.495 129.556 116.299 128.742 115.912 128.229C115.526 127.716 114.918 127.459 114.088 127.459C113.151 127.459 112.454 127.751 111.998 128.333C111.542 128.91 111.314 129.755 111.314 130.87C111.314 131.909 111.542 132.713 111.998 133.283C112.454 133.853 113.119 134.138 113.993 134.138C114.557 134.138 115.042 134.014 115.447 133.767C115.859 133.514 116.175 133.15 116.397 132.675L118.658 133.359C118.265 134.284 117.657 135.002 116.834 135.515C116.017 136.028 115.114 136.285 114.126 136.285ZM110.592 131.506V129.777H117.651V131.506H110.592ZM120.873 136V125.74H123.162V129.787H127.77V125.74H130.059V136H127.77V131.934H123.162V136H120.873ZM137.242 136.285C136.216 136.285 135.32 136.054 134.554 135.591C133.788 135.129 133.192 134.493 132.768 133.682C132.35 132.865 132.141 131.928 132.141 130.87C132.141 129.793 132.356 128.85 132.787 128.039C133.218 127.228 133.816 126.595 134.582 126.139C135.349 125.683 136.235 125.455 137.242 125.455C138.275 125.455 139.174 125.686 139.94 126.148C140.707 126.611 141.302 127.25 141.726 128.067C142.151 128.878 142.363 129.812 142.363 130.87C142.363 131.934 142.148 132.874 141.717 133.691C141.293 134.502 140.697 135.139 139.931 135.601C139.165 136.057 138.268 136.285 137.242 136.285ZM137.242 134.138C138.154 134.138 138.832 133.834 139.275 133.226C139.719 132.618 139.94 131.833 139.94 130.87C139.94 129.876 139.716 129.084 139.266 128.495C138.816 127.9 138.142 127.602 137.242 127.602C136.628 127.602 136.121 127.741 135.722 128.02C135.33 128.292 135.038 128.675 134.848 129.169C134.658 129.657 134.563 130.224 134.563 130.87C134.563 131.864 134.788 132.659 135.238 133.254C135.694 133.843 136.362 134.138 137.242 134.138ZM144.465 136V133.653H146.811V136H144.465ZM3.56096 164V150.32H8.98546C9.91012 150.32 10.667 150.507 11.256 150.88C11.8513 151.248 12.2915 151.72 12.5765 152.296C12.8678 152.872 13.0135 153.468 13.0135 154.082C13.0135 154.836 12.833 155.475 12.472 156.001C12.1173 156.527 11.6328 156.881 11.0185 157.065V156.59C11.8798 156.786 12.5321 157.195 12.9755 157.815C13.4251 158.436 13.65 159.142 13.65 159.934C13.65 160.745 13.4948 161.454 13.1845 162.062C12.8741 162.67 12.4118 163.145 11.7975 163.487C11.1895 163.829 10.4358 164 9.53646 164H3.56096ZM5.87896 161.843H9.25146C9.65046 161.843 10.0083 161.764 10.325 161.606C10.6416 161.441 10.8886 161.213 11.066 160.922C11.2496 160.624 11.3415 160.273 11.3415 159.867C11.3415 159.5 11.2623 159.171 11.104 158.879C10.9456 158.588 10.7145 158.357 10.4105 158.186C10.1065 158.009 9.74229 157.92 9.31796 157.92H5.87896V161.843ZM5.87896 155.782H8.95696C9.28629 155.782 9.58079 155.719 9.84046 155.592C10.1001 155.466 10.306 155.279 10.458 155.032C10.61 154.785 10.686 154.481 10.686 154.12C10.686 153.645 10.534 153.249 10.23 152.932C9.92596 152.616 9.50162 152.457 8.95696 152.457H5.87896V155.782ZM23.8065 164.285C22.7488 164.285 21.8463 164.051 21.099 163.582C20.3517 163.107 19.7785 162.461 19.3795 161.644C18.9868 160.827 18.7873 159.902 18.781 158.87C18.7873 157.819 18.9932 156.888 19.3985 156.077C19.8102 155.26 20.3928 154.62 21.1465 154.158C21.9002 153.689 22.7963 153.455 23.835 153.455C25.0003 153.455 25.9852 153.749 26.7895 154.338C27.6002 154.921 28.129 155.719 28.376 156.732L26.096 157.35C25.9187 156.799 25.6242 156.371 25.2125 156.067C24.8008 155.757 24.3322 155.602 23.8065 155.602C23.2112 155.602 22.7203 155.744 22.334 156.029C21.9477 156.308 21.6627 156.694 21.479 157.188C21.2953 157.682 21.2035 158.243 21.2035 158.87C21.2035 159.845 21.422 160.634 21.859 161.235C22.296 161.837 22.9452 162.138 23.8065 162.138C24.4145 162.138 24.8927 161.999 25.241 161.72C25.5957 161.441 25.8617 161.039 26.039 160.513L28.376 161.036C28.0593 162.081 27.5052 162.885 26.7135 163.449C25.9218 164.006 24.9528 164.285 23.8065 164.285ZM30.2607 164L30.2797 153.74H32.5977V158.68L36.3502 153.74H39.2097L35.2292 158.87L39.5517 164H36.5212L32.5977 159.06V164H30.2607ZM44.8493 164.285C43.8233 164.285 42.9271 164.054 42.1608 163.591C41.3945 163.129 40.7991 162.493 40.3748 161.682C39.9568 160.865 39.7478 159.928 39.7478 158.87C39.7478 157.793 39.9631 156.85 40.3938 156.039C40.8245 155.228 41.423 154.595 42.1893 154.139C42.9556 153.683 43.8423 153.455 44.8493 153.455C45.8816 153.455 46.781 153.686 47.5473 154.148C48.3136 154.611 48.909 155.25 49.3333 156.067C49.7576 156.878 49.9698 157.812 49.9698 158.87C49.9698 159.934 49.7545 160.874 49.3238 161.691C48.8995 162.502 48.3041 163.139 47.5378 163.601C46.7715 164.057 45.8753 164.285 44.8493 164.285ZM44.8493 162.138C45.7613 162.138 46.439 161.834 46.8823 161.226C47.3256 160.618 47.5473 159.833 47.5473 158.87C47.5473 157.876 47.3225 157.084 46.8728 156.495C46.4231 155.9 45.7486 155.602 44.8493 155.602C44.235 155.602 43.7283 155.741 43.3293 156.02C42.9366 156.292 42.6453 156.675 42.4553 157.169C42.2653 157.657 42.1703 158.224 42.1703 158.87C42.1703 159.864 42.3951 160.659 42.8448 161.254C43.3008 161.843 43.969 162.138 44.8493 162.138ZM56.9934 164.285C55.9927 164.285 55.1536 164.048 54.4759 163.572C53.7982 163.097 53.2884 162.451 52.9464 161.634C52.6044 160.811 52.4334 159.89 52.4334 158.87C52.4334 157.838 52.6044 156.913 52.9464 156.096C53.2884 155.279 53.7887 154.636 54.4474 154.167C55.1124 153.692 55.9326 153.455 56.9079 153.455C57.8769 153.455 58.7161 153.692 59.4254 154.167C60.1411 154.636 60.6952 155.279 61.0879 156.096C61.4806 156.907 61.6769 157.831 61.6769 158.87C61.6769 159.896 61.4837 160.817 61.0974 161.634C60.7111 162.451 60.1664 163.097 59.4634 163.572C58.7604 164.048 57.9371 164.285 56.9934 164.285ZM52.0439 168.56V153.74H54.0674V160.941H54.3524V168.56H52.0439ZM56.6419 162.233C57.2372 162.233 57.7281 162.084 58.1144 161.786C58.5007 161.489 58.7857 161.087 58.9694 160.58C59.1594 160.067 59.2544 159.497 59.2544 158.87C59.2544 158.249 59.1594 157.686 58.9694 157.179C58.7794 156.666 58.4849 156.261 58.0859 155.963C57.6869 155.659 57.1802 155.507 56.5659 155.507C55.9832 155.507 55.5082 155.649 55.1409 155.934C54.7736 156.213 54.5012 156.606 54.3239 157.112C54.1529 157.613 54.0674 158.199 54.0674 158.87C54.0674 159.535 54.1529 160.121 54.3239 160.627C54.5012 161.134 54.7767 161.53 55.1504 161.815C55.5304 162.094 56.0276 162.233 56.6419 162.233ZM68.3024 164.285C67.2764 164.285 66.3803 164.054 65.6139 163.591C64.8476 163.129 64.2523 162.493 63.8279 161.682C63.4099 160.865 63.2009 159.928 63.2009 158.87C63.2009 157.793 63.4163 156.85 63.8469 156.039C64.2776 155.228 64.8761 154.595 65.6424 154.139C66.4088 153.683 67.2954 153.455 68.3024 153.455C69.3348 153.455 70.2341 153.686 71.0004 154.148C71.7668 154.611 72.3621 155.25 72.7864 156.067C73.2108 156.878 73.4229 157.812 73.4229 158.87C73.4229 159.934 73.2076 160.874 72.7769 161.691C72.3526 162.502 71.7573 163.139 70.9909 163.601C70.2246 164.057 69.3284 164.285 68.3024 164.285ZM68.3024 162.138C69.2144 162.138 69.8921 161.834 70.3354 161.226C70.7788 160.618 71.0004 159.833 71.0004 158.87C71.0004 157.876 70.7756 157.084 70.3259 156.495C69.8763 155.9 69.2018 155.602 68.3024 155.602C67.6881 155.602 67.1814 155.741 66.7824 156.02C66.3898 156.292 66.0984 156.675 65.9084 157.169C65.7184 157.657 65.6234 158.224 65.6234 158.87C65.6234 159.864 65.8483 160.659 66.2979 161.254C66.7539 161.843 67.4221 162.138 68.3024 162.138ZM75.497 164V153.74H77.378L81.0545 160.827L84.7405 153.74H86.612V164H84.427V158.347L81.5105 164H80.608L77.6915 158.347V164H75.497ZM93.0498 164V153.74H97.7143C98.0499 153.74 98.3634 153.759 98.6548 153.797C98.9461 153.835 99.1963 153.882 99.4053 153.939C99.8993 154.085 100.336 154.37 100.716 154.794C101.096 155.212 101.286 155.792 101.286 156.533C101.286 156.97 101.217 157.331 101.077 157.616C100.938 157.895 100.754 158.129 100.526 158.319C100.419 158.408 100.308 158.484 100.194 158.547C100.08 158.61 99.9658 158.661 99.8518 158.699C100.099 158.737 100.333 158.81 100.555 158.917C100.903 159.088 101.194 159.342 101.429 159.677C101.669 160.013 101.79 160.485 101.79 161.093C101.79 161.783 101.622 162.366 101.286 162.841C100.957 163.31 100.472 163.636 99.8328 163.819C99.5984 163.883 99.3293 163.93 99.0253 163.962C98.7213 163.987 98.4109 164 98.0943 164H93.0498ZM95.3678 162.233H97.9328C98.0658 162.233 98.2114 162.22 98.3698 162.195C98.5281 162.17 98.6706 162.135 98.7973 162.09C99.0253 162.008 99.1899 161.862 99.2913 161.653C99.3989 161.444 99.4528 161.226 99.4528 160.998C99.4528 160.688 99.3736 160.441 99.2153 160.257C99.0633 160.067 98.8796 159.94 98.6643 159.877C98.5376 159.826 98.3983 159.798 98.2463 159.791C98.1006 159.779 97.9803 159.772 97.8853 159.772H95.3678V162.233ZM95.3678 157.977H97.2678C97.4641 157.977 97.6541 157.967 97.8378 157.948C98.0278 157.923 98.1861 157.882 98.3128 157.825C98.5218 157.743 98.6738 157.603 98.7688 157.407C98.8701 157.211 98.9208 156.992 98.9208 156.751C98.9208 156.498 98.8638 156.27 98.7498 156.067C98.6421 155.858 98.4679 155.719 98.2273 155.649C98.0689 155.586 97.8758 155.551 97.6478 155.545C97.4261 155.539 97.2836 155.535 97.2203 155.535H95.3678V157.977ZM108.613 164.285C107.612 164.285 106.773 164.048 106.095 163.572C105.417 163.097 104.908 162.451 104.566 161.634C104.224 160.811 104.053 159.89 104.053 158.87C104.053 157.838 104.224 156.913 104.566 156.096C104.908 155.279 105.408 154.636 106.067 154.167C106.732 153.692 107.552 153.455 108.527 153.455C109.496 153.455 110.335 153.692 111.045 154.167C111.76 154.636 112.314 155.279 112.707 156.096C113.1 156.907 113.296 157.831 113.296 158.87C113.296 159.896 113.103 160.817 112.717 161.634C112.33 162.451 111.786 163.097 111.083 163.572C110.38 164.048 109.556 164.285 108.613 164.285ZM103.663 168.56V153.74H105.687V160.941H105.972V168.56H103.663ZM108.261 162.233C108.856 162.233 109.347 162.084 109.734 161.786C110.12 161.489 110.405 161.087 110.589 160.58C110.779 160.067 110.874 159.497 110.874 158.87C110.874 158.249 110.779 157.686 110.589 157.179C110.399 156.666 110.104 156.261 109.705 155.963C109.306 155.659 108.799 155.507 108.185 155.507C107.602 155.507 107.127 155.649 106.76 155.934C106.393 156.213 106.12 156.606 105.943 157.112C105.772 157.613 105.687 158.199 105.687 158.87C105.687 159.535 105.772 160.121 105.943 160.627C106.12 161.134 106.396 161.53 106.77 161.815C107.15 162.094 107.647 162.233 108.261 162.233ZM120.055 164.285C119.016 164.285 118.104 164.06 117.319 163.61C116.533 163.161 115.919 162.537 115.476 161.739C115.039 160.941 114.82 160.023 114.82 158.984C114.82 157.863 115.035 156.891 115.466 156.067C115.897 155.238 116.495 154.595 117.262 154.139C118.028 153.683 118.915 153.455 119.922 153.455C120.986 153.455 121.888 153.705 122.629 154.205C123.376 154.699 123.931 155.399 124.292 156.305C124.653 157.211 124.789 158.278 124.7 159.506H122.43V158.67C122.423 157.556 122.227 156.742 121.841 156.229C121.454 155.716 120.846 155.459 120.017 155.459C119.079 155.459 118.383 155.751 117.927 156.333C117.471 156.91 117.243 157.755 117.243 158.87C117.243 159.909 117.471 160.713 117.927 161.283C118.383 161.853 119.048 162.138 119.922 162.138C120.485 162.138 120.97 162.014 121.375 161.767C121.787 161.514 122.103 161.15 122.325 160.675L124.586 161.359C124.193 162.284 123.585 163.002 122.762 163.515C121.945 164.028 121.043 164.285 120.055 164.285ZM116.521 159.506V157.777H123.579V159.506H116.521ZM126.522 164V153.74H128.403L132.08 160.827L135.766 153.74H137.637V164H135.452V158.347L132.536 164H131.633L128.717 158.347V164H126.522ZM144.955 164.285C143.916 164.285 143.004 164.06 142.219 163.61C141.434 163.161 140.819 162.537 140.376 161.739C139.939 160.941 139.72 160.023 139.72 158.984C139.72 157.863 139.936 156.891 140.366 156.067C140.797 155.238 141.396 154.595 142.162 154.139C142.928 153.683 143.815 153.455 144.822 153.455C145.886 153.455 146.788 153.705 147.529 154.205C148.277 154.699 148.831 155.399 149.192 156.305C149.553 157.211 149.689 158.278 149.6 159.506H147.33V158.67C147.324 157.556 147.127 156.742 146.741 156.229C146.355 155.716 145.747 155.459 144.917 155.459C143.98 155.459 143.283 155.751 142.827 156.333C142.371 156.91 142.143 157.755 142.143 158.87C142.143 159.909 142.371 160.713 142.827 161.283C143.283 161.853 143.948 162.138 144.822 162.138C145.386 162.138 145.87 162.014 146.275 161.767C146.687 161.514 147.004 161.15 147.225 160.675L149.486 161.359C149.094 162.284 148.486 163.002 147.662 163.515C146.845 164.028 145.943 164.285 144.955 164.285ZM141.421 159.506V157.777H148.479V159.506H141.421ZM151.701 164V153.74H153.991V157.787H158.598V153.74H160.888V164H158.598V159.934H153.991V164H151.701ZM172.431 153.74V164H170.237V157.302L165.354 164H163.52V153.74H165.715V160.266L170.617 153.74H172.431ZM6.82614 192V181.74H9.11564V185.787H13.7231V181.74H16.0126V192H13.7231V187.934H9.11564V192H6.82614ZM21.5335 192.285C20.7925 192.285 20.1655 192.146 19.6525 191.867C19.1395 191.582 18.75 191.205 18.484 190.736C18.2243 190.268 18.0945 189.752 18.0945 189.188C18.0945 188.694 18.1768 188.251 18.3415 187.858C18.5061 187.459 18.7595 187.117 19.1015 186.832C19.4435 186.541 19.8868 186.303 20.4315 186.119C20.8431 185.986 21.3245 185.866 21.8755 185.758C22.4328 185.651 23.0345 185.553 23.6805 185.464C24.3328 185.369 25.0136 185.268 25.723 185.16L24.906 185.625C24.9123 184.916 24.754 184.394 24.431 184.058C24.108 183.722 23.5633 183.554 22.797 183.554C22.3346 183.554 21.8881 183.662 21.4575 183.877C21.0268 184.093 20.726 184.463 20.555 184.989L18.465 184.333C18.7183 183.466 19.1996 182.769 19.909 182.243C20.6246 181.718 21.5873 181.455 22.797 181.455C23.709 181.455 24.5101 181.604 25.2005 181.901C25.8971 182.199 26.4133 182.687 26.749 183.364C26.9326 183.725 27.0435 184.096 27.0815 184.476C27.1195 184.85 27.1385 185.258 27.1385 185.701V192H25.134V189.777L25.4665 190.138C25.0041 190.879 24.4626 191.424 23.842 191.772C23.2276 192.114 22.4581 192.285 21.5335 192.285ZM21.9895 190.461C22.5088 190.461 22.9521 190.369 23.3195 190.185C23.6868 190.002 23.9781 189.777 24.1935 189.511C24.4151 189.245 24.564 188.995 24.64 188.76C24.7603 188.469 24.8268 188.137 24.8395 187.763C24.8585 187.383 24.868 187.076 24.868 186.841L25.571 187.05C24.8806 187.158 24.2885 187.253 23.7945 187.335C23.3005 187.418 22.8761 187.497 22.5215 187.573C22.1668 187.643 21.8533 187.722 21.581 187.81C21.315 187.905 21.0901 188.016 20.9065 188.143C20.7228 188.27 20.5803 188.415 20.479 188.58C20.384 188.745 20.3365 188.938 20.3365 189.159C20.3365 189.413 20.3998 189.638 20.5265 189.834C20.6531 190.024 20.8368 190.176 21.0775 190.29C21.3245 190.404 21.6285 190.461 21.9895 190.461ZM29.5927 192V181.74H31.7872V189.967H34.6847V181.74H36.8792V189.967H39.7767V181.74H41.9712V192H29.5927ZM53.5145 181.74V192H51.32V185.302L46.437 192H44.6035V181.74H46.798V188.266L51.7 181.74H53.5145ZM59.9668 192V181.74H61.8478L65.5243 188.827L69.2103 181.74H71.0818V192H68.8968V186.347L65.9803 192H65.0778L62.1613 186.347V192H59.9668ZM78.3993 192.285C77.3606 192.285 76.4486 192.06 75.6633 191.61C74.878 191.161 74.2636 190.537 73.8203 189.739C73.3833 188.941 73.1648 188.023 73.1648 186.984C73.1648 185.863 73.3801 184.891 73.8108 184.067C74.2415 183.238 74.84 182.595 75.6063 182.139C76.3726 181.683 77.2593 181.455 78.2663 181.455C79.3303 181.455 80.2328 181.705 80.9738 182.205C81.7211 182.699 82.2753 183.399 82.6363 184.305C82.9973 185.211 83.1335 186.278 83.0448 187.506H80.7743V186.67C80.768 185.556 80.5716 184.742 80.1853 184.229C79.799 183.716 79.191 183.459 78.3613 183.459C77.424 183.459 76.7273 183.751 76.2713 184.333C75.8153 184.91 75.5873 185.755 75.5873 186.87C75.5873 187.909 75.8153 188.713 76.2713 189.283C76.7273 189.853 77.3923 190.138 78.2663 190.138C78.83 190.138 79.3145 190.014 79.7198 189.767C80.1315 189.514 80.4481 189.15 80.6698 188.675L82.9308 189.359C82.5381 190.284 81.9301 191.002 81.1068 191.515C80.2898 192.028 79.3873 192.285 78.3993 192.285ZM74.8653 187.506V185.777H81.9238V187.506H74.8653ZM85.1455 192V181.74H87.435V185.787H92.0425V181.74H94.332V192H92.0425V187.934H87.435V192H85.1455ZM101.648 192.285C100.61 192.285 99.6976 192.06 98.9123 191.61C98.127 191.161 97.5126 190.537 97.0693 189.739C96.6323 188.941 96.4138 188.023 96.4138 186.984C96.4138 185.863 96.6291 184.891 97.0598 184.067C97.4905 183.238 98.089 182.595 98.8553 182.139C99.6216 181.683 100.508 181.455 101.515 181.455C102.579 181.455 103.482 181.705 104.223 182.205C104.97 182.699 105.524 183.399 105.885 184.305C106.246 185.211 106.382 186.278 106.294 187.506H104.023V186.67C104.017 185.556 103.821 184.742 103.434 184.229C103.048 183.716 102.44 183.459 101.61 183.459C100.673 183.459 99.9763 183.751 99.5203 184.333C99.0643 184.91 98.8363 185.755 98.8363 186.87C98.8363 187.909 99.0643 188.713 99.5203 189.283C99.9763 189.853 100.641 190.138 101.515 190.138C102.079 190.138 102.563 190.014 102.969 189.767C103.38 189.514 103.697 189.15 103.919 188.675L106.18 189.359C105.787 190.284 105.179 191.002 104.356 191.515C103.539 192.028 102.636 192.285 101.648 192.285ZM98.1143 187.506V185.777H105.173V187.506H98.1143ZM107.653 194.28V190.204C108.211 190.204 108.607 190.014 108.841 189.634C109.075 189.254 109.262 188.596 109.401 187.658C109.49 187.101 109.563 186.512 109.62 185.891C109.677 185.271 109.724 184.615 109.762 183.925C109.807 183.235 109.845 182.506 109.876 181.74H117.514V190.204H118.55V194.28H116.384V192H109.81V194.28H107.653ZM110.722 190.204H115.234V183.535H111.881C111.862 183.915 111.84 184.305 111.814 184.704C111.789 185.097 111.761 185.489 111.729 185.882C111.697 186.275 111.662 186.651 111.624 187.012C111.593 187.367 111.555 187.696 111.51 188C111.441 188.532 111.355 188.969 111.254 189.311C111.153 189.653 110.975 189.951 110.722 190.204ZM119.315 192L123.077 186.87L119.543 181.74H122.051L125.386 186.708V181.74H127.419V186.708L130.753 181.74H133.252L129.718 186.87L133.48 192H130.839L127.419 187.031V192H125.386V187.031L121.956 192H119.315ZM139.296 192.285C138.257 192.285 137.345 192.06 136.56 191.61C135.774 191.161 135.16 190.537 134.717 189.739C134.28 188.941 134.061 188.023 134.061 186.984C134.061 185.863 134.277 184.891 134.707 184.067C135.138 183.238 135.736 182.595 136.503 182.139C137.269 181.683 138.156 181.455 139.163 181.455C140.227 181.455 141.129 181.705 141.87 182.205C142.618 182.699 143.172 183.399 143.533 184.305C143.894 185.211 144.03 186.278 143.941 187.506H141.671V186.67C141.664 185.556 141.468 184.742 141.082 184.229C140.695 183.716 140.087 183.459 139.258 183.459C138.32 183.459 137.624 183.751 137.168 184.333C136.712 184.91 136.484 185.755 136.484 186.87C136.484 187.909 136.712 188.713 137.168 189.283C137.624 189.853 138.289 190.138 139.163 190.138C139.726 190.138 140.211 190.014 140.616 189.767C141.028 189.514 141.345 189.15 141.566 188.675L143.827 189.359C143.435 190.284 142.827 191.002 142.003 191.515C141.186 192.028 140.284 192.285 139.296 192.285ZM135.762 187.506V185.777H142.82V187.506H135.762ZM150.991 192.285C149.991 192.285 149.152 192.048 148.474 191.572C147.796 191.097 147.286 190.451 146.944 189.634C146.602 188.811 146.431 187.89 146.431 186.87C146.431 185.838 146.602 184.913 146.944 184.096C147.286 183.279 147.787 182.636 148.445 182.167C149.11 181.692 149.931 181.455 150.906 181.455C151.875 181.455 152.714 181.692 153.423 182.167C154.139 182.636 154.693 183.279 155.086 184.096C155.479 184.907 155.675 185.831 155.675 186.87C155.675 187.896 155.482 188.817 155.095 189.634C154.709 190.451 154.164 191.097 153.461 191.572C152.758 192.048 151.935 192.285 150.991 192.285ZM146.042 196.56V181.74H148.065V188.941H148.35V196.56H146.042ZM150.64 190.233C151.235 190.233 151.726 190.084 152.112 189.786C152.499 189.489 152.784 189.087 152.967 188.58C153.157 188.067 153.252 187.497 153.252 186.87C153.252 186.249 153.157 185.686 152.967 185.179C152.777 184.666 152.483 184.261 152.084 183.963C151.685 183.659 151.178 183.507 150.564 183.507C149.981 183.507 149.506 183.649 149.139 183.934C148.772 184.213 148.499 184.606 148.322 185.112C148.151 185.613 148.065 186.199 148.065 186.87C148.065 187.535 148.151 188.121 148.322 188.627C148.499 189.134 148.775 189.53 149.148 189.815C149.528 190.094 150.026 190.233 150.64 190.233ZM157.759 192L157.75 181.74H160.039V185.16H161.189C161.474 185.16 161.794 185.166 162.148 185.179C162.509 185.192 162.81 185.22 163.051 185.264C163.627 185.391 164.118 185.594 164.523 185.872C164.935 186.151 165.249 186.515 165.464 186.965C165.679 187.415 165.787 187.956 165.787 188.589C165.787 189.495 165.553 190.22 165.084 190.765C164.615 191.303 163.96 191.671 163.117 191.867C162.87 191.924 162.563 191.962 162.196 191.981C161.829 191.994 161.502 192 161.217 192H157.759ZM160.039 190.204H161.417C161.556 190.204 161.711 190.198 161.882 190.185C162.053 190.173 162.215 190.144 162.367 190.1C162.652 190.024 162.905 189.853 163.127 189.587C163.349 189.315 163.459 188.982 163.459 188.589C163.459 188.178 163.349 187.839 163.127 187.573C162.905 187.307 162.633 187.133 162.31 187.05C162.158 187.012 162.003 186.987 161.844 186.974C161.692 186.962 161.55 186.955 161.417 186.955H160.039V190.204ZM166.86 192V181.74H169.15V192H166.86ZM12.2005 220.285C11.1429 220.285 10.2404 220.051 9.49304 219.582C8.74571 219.107 8.17254 218.461 7.77354 217.644C7.38087 216.827 7.18137 215.902 7.17504 214.87C7.18137 213.819 7.38721 212.888 7.79254 212.077C8.20421 211.26 8.78687 210.62 9.54054 210.158C10.2942 209.689 11.1904 209.455 12.229 209.455C13.3944 209.455 14.3792 209.749 15.1835 210.338C15.9942 210.921 16.523 211.719 16.77 212.732L14.49 213.35C14.3127 212.799 14.0182 212.371 13.6065 212.067C13.1949 211.757 12.7262 211.602 12.2005 211.602C11.6052 211.602 11.1144 211.744 10.728 212.029C10.3417 212.308 10.0567 212.694 9.87304 213.188C9.68937 213.682 9.59754 214.243 9.59754 214.87C9.59754 215.845 9.81604 216.634 10.253 217.235C10.69 217.837 11.3392 218.138 12.2005 218.138C12.8085 218.138 13.2867 217.999 13.635 217.72C13.9897 217.441 14.2557 217.039 14.433 216.513L16.77 217.036C16.4534 218.081 15.8992 218.885 15.1075 219.449C14.3159 220.006 13.3469 220.285 12.2005 220.285ZM18.6548 220V209.74H23.3193C23.6549 209.74 23.9684 209.759 24.2598 209.797C24.5511 209.835 24.8013 209.882 25.0103 209.939C25.5043 210.085 25.9413 210.37 26.3213 210.794C26.7013 211.212 26.8912 211.792 26.8912 212.533C26.8912 212.97 26.8216 213.331 26.6823 213.616C26.5429 213.895 26.3593 214.129 26.1313 214.319C26.0236 214.408 25.9128 214.484 25.7988 214.547C25.6848 214.61 25.5708 214.661 25.4568 214.699C25.7038 214.737 25.9381 214.81 26.1598 214.917C26.5081 215.088 26.7994 215.342 27.0338 215.677C27.2744 216.013 27.3948 216.485 27.3948 217.093C27.3948 217.783 27.2269 218.366 26.8912 218.841C26.5619 219.31 26.0774 219.636 25.4378 219.819C25.2034 219.883 24.9343 219.93 24.6303 219.962C24.3263 219.987 24.0159 220 23.6993 220H18.6548ZM20.9728 218.233H23.5378C23.6708 218.233 23.8164 218.22 23.9748 218.195C24.1331 218.17 24.2756 218.135 24.4023 218.09C24.6303 218.008 24.7949 217.862 24.8963 217.653C25.0039 217.444 25.0578 217.226 25.0578 216.998C25.0578 216.688 24.9786 216.441 24.8203 216.257C24.6683 216.067 24.4846 215.94 24.2693 215.877C24.1426 215.826 24.0033 215.798 23.8513 215.791C23.7056 215.779 23.5853 215.772 23.4903 215.772H20.9728V218.233ZM20.9728 213.977H22.8728C23.0691 213.977 23.2591 213.967 23.4428 213.948C23.6328 213.923 23.7911 213.882 23.9178 213.825C24.1268 213.743 24.2788 213.603 24.3738 213.407C24.4751 213.211 24.5258 212.992 24.5258 212.751C24.5258 212.498 24.4688 212.27 24.3548 212.067C24.2471 211.858 24.0729 211.719 23.8323 211.649C23.6739 211.586 23.4808 211.551 23.2528 211.545C23.0311 211.539 22.8886 211.535 22.8253 211.535H20.9728V213.977ZM35.424 220V216.58H33.5905C33.3562 216.58 33.0617 216.574 32.707 216.561C32.3587 216.548 32.0325 216.517 31.7285 216.466C30.9369 216.32 30.2814 215.975 29.762 215.43C29.2427 214.879 28.983 214.132 28.983 213.188C28.983 212.264 29.23 211.52 29.724 210.956C30.218 210.392 30.8609 210.031 31.6525 209.873C31.9819 209.803 32.3207 209.765 32.669 209.759C33.0237 209.746 33.3182 209.74 33.5525 209.74H37.7135V220H35.424ZM28.717 220L31.168 216.076H33.5525L31.1205 220H28.717ZM33.353 214.784H35.424V211.535H33.353C33.2327 211.535 33.087 211.542 32.916 211.554C32.745 211.567 32.574 211.596 32.403 211.64C32.2194 211.697 32.0452 211.795 31.8805 211.934C31.7159 212.074 31.5797 212.248 31.472 212.457C31.3644 212.666 31.3105 212.903 31.3105 213.169C31.3105 213.568 31.4245 213.901 31.6525 214.167C31.8869 214.427 32.1592 214.601 32.4695 214.689C32.6215 214.727 32.7767 214.753 32.935 214.766C33.0997 214.778 33.239 214.784 33.353 214.784ZM39.2242 220L42.9862 214.87L39.4522 209.74H41.9602L45.2947 214.708V209.74H47.3277V214.708L50.6622 209.74H53.1607L49.6267 214.87L53.3887 220H50.7477L47.3277 215.031V220H45.2947V215.031L41.8652 220H39.2242ZM56.2601 224.56L58.2361 219.135L58.2741 220.732L53.7996 209.74H56.1841L59.3571 217.872H58.7491L61.8366 209.74H64.1261L58.4071 224.56H56.2601ZM68.1174 220V211.773H64.6879V209.74H73.8364V211.773H70.4069V220H68.1174ZM79.9066 220.285C78.8489 220.285 77.9464 220.051 77.1991 219.582C76.4518 219.107 75.8786 218.461 75.4796 217.644C75.0869 216.827 74.8874 215.902 74.8811 214.87C74.8874 213.819 75.0933 212.888 75.4986 212.077C75.9103 211.26 76.4929 210.62 77.2466 210.158C78.0003 209.689 78.8964 209.455 79.9351 209.455C81.1004 209.455 82.0853 209.749 82.8896 210.338C83.7003 210.921 84.2291 211.719 84.4761 212.732L82.1961 213.35C82.0188 212.799 81.7243 212.371 81.3126 212.067C80.9009 211.757 80.4323 211.602 79.9066 211.602C79.3113 211.602 78.8204 211.744 78.4341 212.029C78.0478 212.308 77.7628 212.694 77.5791 213.188C77.3954 213.682 77.3036 214.243 77.3036 214.87C77.3036 215.845 77.5221 216.634 77.9591 217.235C78.3961 217.837 79.0453 218.138 79.9066 218.138C80.5146 218.138 80.9928 217.999 81.3411 217.72C81.6958 217.441 81.9618 217.039 82.1391 216.513L84.4761 217.036C84.1594 218.081 83.6053 218.885 82.8136 219.449C82.0219 220.006 81.0529 220.285 79.9066 220.285ZM92.3498 220V216.58H90.5163C90.282 216.58 89.9875 216.574 89.6328 216.561C89.2845 216.548 88.9583 216.517 88.6543 216.466C87.8626 216.32 87.2071 215.975 86.6878 215.43C86.1685 214.879 85.9088 214.132 85.9088 213.188C85.9088 212.264 86.1558 211.52 86.6498 210.956C87.1438 210.392 87.7866 210.031 88.5783 209.873C88.9076 209.803 89.2465 209.765 89.5948 209.759C89.9495 209.746 90.244 209.74 90.4783 209.74H94.6393V220H92.3498ZM85.6428 220L88.0938 216.076H90.4783L88.0463 220H85.6428ZM90.2788 214.784H92.3498V211.535H90.2788C90.1585 211.535 90.0128 211.542 89.8418 211.554C89.6708 211.567 89.4998 211.596 89.3288 211.64C89.1451 211.697 88.971 211.795 88.8063 211.934C88.6416 212.074 88.5055 212.248 88.3978 212.457C88.2901 212.666 88.2363 212.903 88.2363 213.169C88.2363 213.568 88.3503 213.901 88.5783 214.167C88.8126 214.427 89.085 214.601 89.3953 214.689C89.5473 214.727 89.7025 214.753 89.8608 214.766C90.0255 214.778 90.1648 214.784 90.2788 214.784ZM105.549 220.285C104.492 220.285 103.589 220.051 102.842 219.582C102.094 219.107 101.521 218.461 101.122 217.644C100.73 216.827 100.53 215.902 100.524 214.87C100.53 213.819 100.736 212.888 101.141 212.077C101.553 211.26 102.136 210.62 102.889 210.158C103.643 209.689 104.539 209.455 105.578 209.455C106.743 209.455 107.728 209.749 108.532 210.338C109.343 210.921 109.872 211.719 110.119 212.732L107.839 213.35C107.661 212.799 107.367 212.371 106.955 212.067C106.544 211.757 106.075 211.602 105.549 211.602C104.954 211.602 104.463 211.744 104.077 212.029C103.69 212.308 103.405 212.694 103.222 213.188C103.038 213.682 102.946 214.243 102.946 214.87C102.946 215.845 103.165 216.634 103.602 217.235C104.039 217.837 104.688 218.138 105.549 218.138C106.157 218.138 106.635 217.999 106.984 217.72C107.338 217.441 107.604 217.039 107.782 216.513L110.119 217.036C109.802 218.081 109.248 218.885 108.456 219.449C107.665 220.006 106.696 220.285 105.549 220.285ZM115.826 220V206.32H121.251C122.175 206.32 122.932 206.507 123.521 206.88C124.116 207.248 124.557 207.72 124.842 208.296C125.133 208.872 125.279 209.468 125.279 210.082C125.279 210.836 125.098 211.475 124.737 212.001C124.382 212.527 123.898 212.881 123.284 213.065V212.59C124.145 212.786 124.797 213.195 125.241 213.815C125.69 214.436 125.915 215.142 125.915 215.934C125.915 216.745 125.76 217.454 125.45 218.062C125.139 218.67 124.677 219.145 124.063 219.487C123.455 219.829 122.701 220 121.802 220H115.826ZM118.144 217.843H121.517C121.916 217.843 122.273 217.764 122.59 217.606C122.907 217.441 123.154 217.213 123.331 216.922C123.515 216.624 123.607 216.273 123.607 215.867C123.607 215.5 123.527 215.171 123.369 214.879C123.211 214.588 122.98 214.357 122.676 214.186C122.372 214.009 122.007 213.92 121.583 213.92H118.144V217.843ZM118.144 211.782H121.222C121.551 211.782 121.846 211.719 122.106 211.592C122.365 211.466 122.571 211.279 122.723 211.032C122.875 210.785 122.951 210.481 122.951 210.12C122.951 209.645 122.799 209.249 122.495 208.932C122.191 208.616 121.767 208.457 121.222 208.457H118.144V211.782ZM130.681 220.285C129.94 220.285 129.313 220.146 128.8 219.867C128.287 219.582 127.898 219.205 127.632 218.736C127.372 218.268 127.242 217.752 127.242 217.188C127.242 216.694 127.325 216.251 127.489 215.858C127.654 215.459 127.907 215.117 128.249 214.832C128.591 214.541 129.035 214.303 129.579 214.119C129.991 213.986 130.472 213.866 131.023 213.758C131.581 213.651 132.182 213.553 132.828 213.464C133.481 213.369 134.162 213.268 134.871 213.16L134.054 213.625C134.06 212.916 133.902 212.394 133.579 212.058C133.256 211.722 132.711 211.554 131.945 211.554C131.483 211.554 131.036 211.662 130.605 211.877C130.175 212.093 129.874 212.463 129.703 212.989L127.613 212.333C127.866 211.466 128.348 210.769 129.057 210.243C129.773 209.718 130.735 209.455 131.945 209.455C132.857 209.455 133.658 209.604 134.348 209.901C135.045 210.199 135.561 210.687 135.897 211.364C136.081 211.725 136.191 212.096 136.229 212.476C136.267 212.85 136.286 213.258 136.286 213.701V220H134.282V217.777L134.614 218.138C134.152 218.879 133.611 219.424 132.99 219.772C132.376 220.114 131.606 220.285 130.681 220.285ZM131.137 218.461C131.657 218.461 132.1 218.369 132.467 218.185C132.835 218.002 133.126 217.777 133.341 217.511C133.563 217.245 133.712 216.995 133.788 216.76C133.908 216.469 133.975 216.137 133.987 215.763C134.006 215.383 134.016 215.076 134.016 214.841L134.719 215.05C134.029 215.158 133.436 215.253 132.942 215.335C132.448 215.418 132.024 215.497 131.669 215.573C131.315 215.643 131.001 215.722 130.729 215.81C130.463 215.905 130.238 216.016 130.054 216.143C129.871 216.27 129.728 216.415 129.627 216.58C129.532 216.745 129.484 216.938 129.484 217.159C129.484 217.413 129.548 217.638 129.674 217.834C129.801 218.024 129.985 218.176 130.225 218.29C130.472 218.404 130.776 218.461 131.137 218.461ZM138.741 220V209.74H140.622L144.298 216.827L147.984 209.74H149.856V220H147.671V214.347L144.754 220H143.852L140.935 214.347V220H138.741ZM161.401 209.74V220H159.206V213.302L154.323 220H152.49V209.74H154.684V216.266L159.586 209.74H161.401ZM165.018 220V217.9H167.308V220H165.018ZM165.018 216.58V206.32H167.308V216.58H165.018Z" fill="#1C471F"/>
<circle cx="88" cy="50" r="50" fill="#DECEFF"/>
<path d="M101.333 42L82.9998 60.3333L74.6665 52" stroke="#52225E" stroke-width="5" stroke-linecap="round" stroke-linejoin="round"/>
</svg>
