<svg width="176" height="228" viewBox="0 0 176 228" fill="none" xmlns="http://www.w3.org/2000/svg">
<path d="M34.5901 137.285C33.2221 137.285 32.0504 136.987 31.0751 136.392C30.0998 135.79 29.3493 134.954 28.8236 133.884C28.3043 132.814 28.0446 131.572 28.0446 130.16C28.0446 128.748 28.3043 127.506 28.8236 126.436C29.3493 125.366 30.0998 124.533 31.0751 123.937C32.0504 123.336 33.2221 123.035 34.5901 123.035C35.9581 123.035 37.1298 123.336 38.1051 123.937C39.0868 124.533 39.8373 125.366 40.3566 126.436C40.8823 127.506 41.1451 128.748 41.1451 130.16C41.1451 131.572 40.8823 132.814 40.3566 133.884C39.8373 134.954 39.0868 135.79 38.1051 136.392C37.1298 136.987 35.9581 137.285 34.5901 137.285ZM34.5901 135.128C35.5084 135.135 36.2716 134.932 36.8796 134.52C37.4939 134.109 37.9531 133.529 38.2571 132.782C38.5674 132.035 38.7226 131.161 38.7226 130.16C38.7226 129.159 38.5674 128.292 38.2571 127.557C37.9531 126.816 37.4939 126.24 36.8796 125.828C36.2716 125.416 35.5084 125.204 34.5901 125.191C33.6718 125.185 32.9086 125.388 32.3006 125.799C31.6926 126.211 31.2334 126.791 30.9231 127.538C30.6191 128.285 30.4671 129.159 30.4671 130.16C30.4671 131.161 30.6191 132.031 30.9231 132.772C31.2271 133.507 31.6831 134.08 32.2911 134.492C32.9054 134.904 33.6718 135.116 34.5901 135.128ZM45.6106 137V128.773H42.1811V126.74H51.3296V128.773H47.9001V137H45.6106ZM53.1108 137V126.74H62.0218V137H59.7323V128.887H55.4003V137H53.1108ZM69.6199 137.285C68.6192 137.285 67.78 137.048 67.1024 136.572C66.4247 136.097 65.9149 135.451 65.5729 134.634C65.2309 133.811 65.0599 132.89 65.0599 131.87C65.0599 130.838 65.2309 129.913 65.5729 129.096C65.9149 128.279 66.4152 127.636 67.0739 127.167C67.7389 126.692 68.559 126.455 69.5344 126.455C70.5034 126.455 71.3425 126.692 72.0519 127.167C72.7675 127.636 73.3217 128.279 73.7144 129.096C74.107 129.907 74.3034 130.831 74.3034 131.87C74.3034 132.896 74.1102 133.817 73.7239 134.634C73.3375 135.451 72.7929 136.097 72.0899 136.572C71.3869 137.048 70.5635 137.285 69.6199 137.285ZM64.6704 141.56V126.74H66.6939V133.941H66.9789V141.56H64.6704ZM69.2684 135.233C69.8637 135.233 70.3545 135.084 70.7409 134.786C71.1272 134.489 71.4122 134.087 71.5959 133.58C71.7859 133.067 71.8809 132.497 71.8809 131.87C71.8809 131.249 71.7859 130.686 71.5959 130.179C71.4059 129.666 71.1114 129.261 70.7124 128.963C70.3134 128.659 69.8067 128.507 69.1924 128.507C68.6097 128.507 68.1347 128.649 67.7674 128.934C67.4 129.213 67.1277 129.606 66.9504 130.112C66.7794 130.613 66.6939 131.199 66.6939 131.87C66.6939 132.535 66.7794 133.121 66.9504 133.627C67.1277 134.134 67.4032 134.53 67.7769 134.815C68.1569 135.094 68.654 135.233 69.2684 135.233ZM79.2664 137.285C78.5254 137.285 77.8984 137.146 77.3854 136.867C76.8724 136.582 76.4829 136.205 76.2169 135.736C75.9572 135.268 75.8274 134.752 75.8274 134.188C75.8274 133.694 75.9097 133.251 76.0744 132.858C76.239 132.459 76.4924 132.117 76.8344 131.832C77.1764 131.541 77.6197 131.303 78.1644 131.119C78.576 130.986 79.0574 130.866 79.6084 130.758C80.1657 130.651 80.7674 130.553 81.4134 130.464C82.0657 130.369 82.7465 130.268 83.4559 130.16L82.6389 130.625C82.6452 129.916 82.4869 129.394 82.1639 129.058C81.8409 128.722 81.2962 128.554 80.5299 128.554C80.0675 128.554 79.621 128.662 79.1904 128.877C78.7597 129.093 78.4589 129.463 78.2879 129.989L76.1979 129.333C76.4512 128.466 76.9325 127.769 77.6419 127.243C78.3575 126.718 79.3202 126.455 80.5299 126.455C81.4419 126.455 82.243 126.604 82.9334 126.901C83.63 127.199 84.1462 127.687 84.4819 128.364C84.6656 128.725 84.7764 129.096 84.8144 129.476C84.8524 129.85 84.8714 130.258 84.8714 130.701V137H82.8669V134.777L83.1994 135.138C82.7371 135.879 82.1956 136.424 81.5749 136.772C80.9605 137.114 80.191 137.285 79.2664 137.285ZM79.7224 135.461C80.2417 135.461 80.685 135.369 81.0524 135.185C81.4197 135.002 81.711 134.777 81.9264 134.511C82.148 134.245 82.2969 133.995 82.3729 133.76C82.4932 133.469 82.5597 133.137 82.5724 132.763C82.5914 132.383 82.6009 132.076 82.6009 131.841L83.3039 132.05C82.6135 132.158 82.0214 132.253 81.5274 132.335C81.0334 132.418 80.609 132.497 80.2544 132.573C79.8997 132.643 79.5862 132.722 79.3139 132.81C79.0479 132.905 78.823 133.016 78.6394 133.143C78.4557 133.27 78.3132 133.415 78.2119 133.58C78.1169 133.745 78.0694 133.938 78.0694 134.159C78.0694 134.413 78.1327 134.638 78.2594 134.834C78.386 135.024 78.5697 135.176 78.8104 135.29C79.0574 135.404 79.3614 135.461 79.7224 135.461ZM87.3256 137V126.74H91.9901C92.3258 126.74 92.6393 126.759 92.9306 126.797C93.222 126.835 93.4721 126.882 93.6811 126.939C94.1751 127.085 94.6121 127.37 94.9921 127.794C95.3721 128.212 95.5621 128.792 95.5621 129.533C95.5621 129.97 95.4925 130.331 95.3531 130.616C95.2138 130.895 95.0301 131.129 94.8021 131.319C94.6945 131.408 94.5836 131.484 94.4696 131.547C94.3556 131.61 94.2416 131.661 94.1276 131.699C94.3746 131.737 94.609 131.81 94.8306 131.917C95.179 132.088 95.4703 132.342 95.7046 132.677C95.9453 133.013 96.0656 133.485 96.0656 134.093C96.0656 134.783 95.8978 135.366 95.5621 135.841C95.2328 136.31 94.7483 136.636 94.1086 136.819C93.8743 136.883 93.6051 136.93 93.3011 136.962C92.9971 136.987 92.6868 137 92.3701 137H87.3256ZM89.6436 135.233H92.2086C92.3416 135.233 92.4873 135.22 92.6456 135.195C92.804 135.17 92.9465 135.135 93.0731 135.09C93.3011 135.008 93.4658 134.862 93.5671 134.653C93.6748 134.444 93.7286 134.226 93.7286 133.998C93.7286 133.688 93.6495 133.441 93.4911 133.257C93.3391 133.067 93.1555 132.94 92.9401 132.877C92.8135 132.826 92.6741 132.798 92.5221 132.791C92.3765 132.779 92.2561 132.772 92.1611 132.772H89.6436V135.233ZM89.6436 130.977H91.5436C91.74 130.977 91.93 130.967 92.1136 130.948C92.3036 130.923 92.462 130.882 92.5886 130.825C92.7976 130.743 92.9496 130.603 93.0446 130.407C93.146 130.211 93.1966 129.992 93.1966 129.751C93.1966 129.498 93.1396 129.27 93.0256 129.067C92.918 128.858 92.7438 128.719 92.5031 128.649C92.3448 128.586 92.1516 128.551 91.9236 128.545C91.702 128.539 91.5595 128.535 91.4961 128.535H89.6436V130.977ZM97.0079 137V135.081C97.3816 135.151 97.6698 135.144 97.8724 135.062C98.0751 134.973 98.2271 134.809 98.3284 134.568C98.4298 134.327 98.5184 134.007 98.5944 133.608C98.6958 133.045 98.7844 132.396 98.8604 131.661C98.9428 130.926 99.0124 130.141 99.0694 129.305C99.1328 128.469 99.1898 127.614 99.2404 126.74H106.793V137H104.513V128.887H101.254C101.223 129.299 101.185 129.761 101.14 130.274C101.096 130.781 101.049 131.294 100.998 131.813C100.947 132.332 100.89 132.826 100.827 133.295C100.77 133.757 100.71 134.153 100.646 134.482C100.501 135.223 100.292 135.809 100.019 136.24C99.7534 136.671 99.3798 136.946 98.8984 137.067C98.4171 137.193 97.7869 137.171 97.0079 137ZM114.126 137.285C113.088 137.285 112.176 137.06 111.39 136.61C110.605 136.161 109.991 135.537 109.547 134.739C109.11 133.941 108.892 133.023 108.892 131.984C108.892 130.863 109.107 129.891 109.538 129.067C109.969 128.238 110.567 127.595 111.333 127.139C112.1 126.683 112.986 126.455 113.993 126.455C115.057 126.455 115.96 126.705 116.701 127.205C117.448 127.699 118.002 128.399 118.363 129.305C118.724 130.211 118.861 131.278 118.772 132.506H116.501V131.67C116.495 130.556 116.299 129.742 115.912 129.229C115.526 128.716 114.918 128.459 114.088 128.459C113.151 128.459 112.454 128.751 111.998 129.333C111.542 129.91 111.314 130.755 111.314 131.87C111.314 132.909 111.542 133.713 111.998 134.283C112.454 134.853 113.119 135.138 113.993 135.138C114.557 135.138 115.042 135.014 115.447 134.767C115.859 134.514 116.175 134.15 116.397 133.675L118.658 134.359C118.265 135.284 117.657 136.002 116.834 136.515C116.017 137.028 115.114 137.285 114.126 137.285ZM110.592 132.506V130.777H117.651V132.506H110.592ZM120.873 137V126.74H123.162V130.787H127.77V126.74H130.059V137H127.77V132.934H123.162V137H120.873ZM137.242 137.285C136.216 137.285 135.32 137.054 134.554 136.591C133.788 136.129 133.192 135.493 132.768 134.682C132.35 133.865 132.141 132.928 132.141 131.87C132.141 130.793 132.356 129.85 132.787 129.039C133.218 128.228 133.816 127.595 134.582 127.139C135.349 126.683 136.235 126.455 137.242 126.455C138.275 126.455 139.174 126.686 139.94 127.148C140.707 127.611 141.302 128.25 141.726 129.067C142.151 129.878 142.363 130.812 142.363 131.87C142.363 132.934 142.148 133.874 141.717 134.691C141.293 135.502 140.697 136.139 139.931 136.601C139.165 137.057 138.268 137.285 137.242 137.285ZM137.242 135.138C138.154 135.138 138.832 134.834 139.275 134.226C139.719 133.618 139.94 132.833 139.94 131.87C139.94 130.876 139.716 130.084 139.266 129.495C138.816 128.9 138.142 128.602 137.242 128.602C136.628 128.602 136.121 128.741 135.722 129.02C135.33 129.292 135.038 129.675 134.848 130.169C134.658 130.657 134.563 131.224 134.563 131.87C134.563 132.864 134.788 133.659 135.238 134.254C135.694 134.843 136.362 135.138 137.242 135.138ZM144.465 137V134.653H146.811V137H144.465ZM3.56096 165V151.32H8.98546C9.91012 151.32 10.667 151.507 11.256 151.88C11.8513 152.248 12.2915 152.72 12.5765 153.296C12.8678 153.872 13.0135 154.468 13.0135 155.082C13.0135 155.836 12.833 156.475 12.472 157.001C12.1173 157.527 11.6328 157.881 11.0185 158.065V157.59C11.8798 157.786 12.5321 158.195 12.9755 158.815C13.4251 159.436 13.65 160.142 13.65 160.934C13.65 161.745 13.4948 162.454 13.1845 163.062C12.8741 163.67 12.4118 164.145 11.7975 164.487C11.1895 164.829 10.4358 165 9.53646 165H3.56096ZM5.87896 162.843H9.25146C9.65046 162.843 10.0083 162.764 10.325 162.606C10.6416 162.441 10.8886 162.213 11.066 161.922C11.2496 161.624 11.3415 161.273 11.3415 160.867C11.3415 160.5 11.2623 160.171 11.104 159.879C10.9456 159.588 10.7145 159.357 10.4105 159.186C10.1065 159.009 9.74229 158.92 9.31796 158.92H5.87896V162.843ZM5.87896 156.782H8.95696C9.28629 156.782 9.58079 156.719 9.84046 156.592C10.1001 156.466 10.306 156.279 10.458 156.032C10.61 155.785 10.686 155.481 10.686 155.12C10.686 154.645 10.534 154.249 10.23 153.932C9.92596 153.616 9.50162 153.457 8.95696 153.457H5.87896V156.782ZM23.8065 165.285C22.7488 165.285 21.8463 165.051 21.099 164.582C20.3517 164.107 19.7785 163.461 19.3795 162.644C18.9868 161.827 18.7873 160.902 18.781 159.87C18.7873 158.819 18.9932 157.888 19.3985 157.077C19.8102 156.26 20.3928 155.62 21.1465 155.158C21.9002 154.689 22.7963 154.455 23.835 154.455C25.0003 154.455 25.9852 154.749 26.7895 155.338C27.6002 155.921 28.129 156.719 28.376 157.732L26.096 158.35C25.9187 157.799 25.6242 157.371 25.2125 157.067C24.8008 156.757 24.3322 156.602 23.8065 156.602C23.2112 156.602 22.7203 156.744 22.334 157.029C21.9477 157.308 21.6627 157.694 21.479 158.188C21.2953 158.682 21.2035 159.243 21.2035 159.87C21.2035 160.845 21.422 161.634 21.859 162.235C22.296 162.837 22.9452 163.138 23.8065 163.138C24.4145 163.138 24.8927 162.999 25.241 162.72C25.5957 162.441 25.8617 162.039 26.039 161.513L28.376 162.036C28.0593 163.081 27.5052 163.885 26.7135 164.449C25.9218 165.006 24.9528 165.285 23.8065 165.285ZM30.2607 165L30.2797 154.74H32.5977V159.68L36.3502 154.74H39.2097L35.2292 159.87L39.5517 165H36.5212L32.5977 160.06V165H30.2607ZM44.8493 165.285C43.8233 165.285 42.9271 165.054 42.1608 164.591C41.3945 164.129 40.7991 163.493 40.3748 162.682C39.9568 161.865 39.7478 160.928 39.7478 159.87C39.7478 158.793 39.9631 157.85 40.3938 157.039C40.8245 156.228 41.423 155.595 42.1893 155.139C42.9556 154.683 43.8423 154.455 44.8493 154.455C45.8816 154.455 46.781 154.686 47.5473 155.148C48.3136 155.611 48.909 156.25 49.3333 157.067C49.7576 157.878 49.9698 158.812 49.9698 159.87C49.9698 160.934 49.7545 161.874 49.3238 162.691C48.8995 163.502 48.3041 164.139 47.5378 164.601C46.7715 165.057 45.8753 165.285 44.8493 165.285ZM44.8493 163.138C45.7613 163.138 46.439 162.834 46.8823 162.226C47.3256 161.618 47.5473 160.833 47.5473 159.87C47.5473 158.876 47.3225 158.084 46.8728 157.495C46.4231 156.9 45.7486 156.602 44.8493 156.602C44.235 156.602 43.7283 156.741 43.3293 157.02C42.9366 157.292 42.6453 157.675 42.4553 158.169C42.2653 158.657 42.1703 159.224 42.1703 159.87C42.1703 160.864 42.3951 161.659 42.8448 162.254C43.3008 162.843 43.969 163.138 44.8493 163.138ZM56.9934 165.285C55.9927 165.285 55.1536 165.048 54.4759 164.572C53.7982 164.097 53.2884 163.451 52.9464 162.634C52.6044 161.811 52.4334 160.89 52.4334 159.87C52.4334 158.838 52.6044 157.913 52.9464 157.096C53.2884 156.279 53.7887 155.636 54.4474 155.167C55.1124 154.692 55.9326 154.455 56.9079 154.455C57.8769 154.455 58.7161 154.692 59.4254 155.167C60.1411 155.636 60.6952 156.279 61.0879 157.096C61.4806 157.907 61.6769 158.831 61.6769 159.87C61.6769 160.896 61.4837 161.817 61.0974 162.634C60.7111 163.451 60.1664 164.097 59.4634 164.572C58.7604 165.048 57.9371 165.285 56.9934 165.285ZM52.0439 169.56V154.74H54.0674V161.941H54.3524V169.56H52.0439ZM56.6419 163.233C57.2372 163.233 57.7281 163.084 58.1144 162.786C58.5007 162.489 58.7857 162.087 58.9694 161.58C59.1594 161.067 59.2544 160.497 59.2544 159.87C59.2544 159.249 59.1594 158.686 58.9694 158.179C58.7794 157.666 58.4849 157.261 58.0859 156.963C57.6869 156.659 57.1802 156.507 56.5659 156.507C55.9832 156.507 55.5082 156.649 55.1409 156.934C54.7736 157.213 54.5012 157.606 54.3239 158.112C54.1529 158.613 54.0674 159.199 54.0674 159.87C54.0674 160.535 54.1529 161.121 54.3239 161.627C54.5012 162.134 54.7767 162.53 55.1504 162.815C55.5304 163.094 56.0276 163.233 56.6419 163.233ZM68.3024 165.285C67.2764 165.285 66.3803 165.054 65.6139 164.591C64.8476 164.129 64.2523 163.493 63.8279 162.682C63.4099 161.865 63.2009 160.928 63.2009 159.87C63.2009 158.793 63.4163 157.85 63.8469 157.039C64.2776 156.228 64.8761 155.595 65.6424 155.139C66.4088 154.683 67.2954 154.455 68.3024 154.455C69.3348 154.455 70.2341 154.686 71.0004 155.148C71.7668 155.611 72.3621 156.25 72.7864 157.067C73.2108 157.878 73.4229 158.812 73.4229 159.87C73.4229 160.934 73.2076 161.874 72.7769 162.691C72.3526 163.502 71.7573 164.139 70.9909 164.601C70.2246 165.057 69.3284 165.285 68.3024 165.285ZM68.3024 163.138C69.2144 163.138 69.8921 162.834 70.3354 162.226C70.7788 161.618 71.0004 160.833 71.0004 159.87C71.0004 158.876 70.7756 158.084 70.3259 157.495C69.8763 156.9 69.2018 156.602 68.3024 156.602C67.6881 156.602 67.1814 156.741 66.7824 157.02C66.3898 157.292 66.0984 157.675 65.9084 158.169C65.7184 158.657 65.6234 159.224 65.6234 159.87C65.6234 160.864 65.8483 161.659 66.2979 162.254C66.7539 162.843 67.4221 163.138 68.3024 163.138ZM75.497 165V154.74H77.378L81.0545 161.827L84.7405 154.74H86.612V165H84.427V159.347L81.5105 165H80.608L77.6915 159.347V165H75.497ZM93.0498 165V154.74H97.7143C98.0499 154.74 98.3634 154.759 98.6548 154.797C98.9461 154.835 99.1963 154.882 99.4053 154.939C99.8993 155.085 100.336 155.37 100.716 155.794C101.096 156.212 101.286 156.792 101.286 157.533C101.286 157.97 101.217 158.331 101.077 158.616C100.938 158.895 100.754 159.129 100.526 159.319C100.419 159.408 100.308 159.484 100.194 159.547C100.08 159.61 99.9658 159.661 99.8518 159.699C100.099 159.737 100.333 159.81 100.555 159.917C100.903 160.088 101.194 160.342 101.429 160.677C101.669 161.013 101.79 161.485 101.79 162.093C101.79 162.783 101.622 163.366 101.286 163.841C100.957 164.31 100.472 164.636 99.8328 164.819C99.5984 164.883 99.3293 164.93 99.0253 164.962C98.7213 164.987 98.4109 165 98.0943 165H93.0498ZM95.3678 163.233H97.9328C98.0658 163.233 98.2114 163.22 98.3698 163.195C98.5281 163.17 98.6706 163.135 98.7973 163.09C99.0253 163.008 99.1899 162.862 99.2913 162.653C99.3989 162.444 99.4528 162.226 99.4528 161.998C99.4528 161.688 99.3736 161.441 99.2153 161.257C99.0633 161.067 98.8796 160.94 98.6643 160.877C98.5376 160.826 98.3983 160.798 98.2463 160.791C98.1006 160.779 97.9803 160.772 97.8853 160.772H95.3678V163.233ZM95.3678 158.977H97.2678C97.4641 158.977 97.6541 158.967 97.8378 158.948C98.0278 158.923 98.1861 158.882 98.3128 158.825C98.5218 158.743 98.6738 158.603 98.7688 158.407C98.8701 158.211 98.9208 157.992 98.9208 157.751C98.9208 157.498 98.8638 157.27 98.7498 157.067C98.6421 156.858 98.4679 156.719 98.2273 156.649C98.0689 156.586 97.8758 156.551 97.6478 156.545C97.4261 156.539 97.2836 156.535 97.2203 156.535H95.3678V158.977ZM108.613 165.285C107.612 165.285 106.773 165.048 106.095 164.572C105.417 164.097 104.908 163.451 104.566 162.634C104.224 161.811 104.053 160.89 104.053 159.87C104.053 158.838 104.224 157.913 104.566 157.096C104.908 156.279 105.408 155.636 106.067 155.167C106.732 154.692 107.552 154.455 108.527 154.455C109.496 154.455 110.335 154.692 111.045 155.167C111.76 155.636 112.314 156.279 112.707 157.096C113.1 157.907 113.296 158.831 113.296 159.87C113.296 160.896 113.103 161.817 112.717 162.634C112.33 163.451 111.786 164.097 111.083 164.572C110.38 165.048 109.556 165.285 108.613 165.285ZM103.663 169.56V154.74H105.687V161.941H105.972V169.56H103.663ZM108.261 163.233C108.856 163.233 109.347 163.084 109.734 162.786C110.12 162.489 110.405 162.087 110.589 161.58C110.779 161.067 110.874 160.497 110.874 159.87C110.874 159.249 110.779 158.686 110.589 158.179C110.399 157.666 110.104 157.261 109.705 156.963C109.306 156.659 108.799 156.507 108.185 156.507C107.602 156.507 107.127 156.649 106.76 156.934C106.393 157.213 106.12 157.606 105.943 158.112C105.772 158.613 105.687 159.199 105.687 159.87C105.687 160.535 105.772 161.121 105.943 161.627C106.12 162.134 106.396 162.53 106.77 162.815C107.15 163.094 107.647 163.233 108.261 163.233ZM120.055 165.285C119.016 165.285 118.104 165.06 117.319 164.61C116.533 164.161 115.919 163.537 115.476 162.739C115.039 161.941 114.82 161.023 114.82 159.984C114.82 158.863 115.035 157.891 115.466 157.067C115.897 156.238 116.495 155.595 117.262 155.139C118.028 154.683 118.915 154.455 119.922 154.455C120.986 154.455 121.888 154.705 122.629 155.205C123.376 155.699 123.931 156.399 124.292 157.305C124.653 158.211 124.789 159.278 124.7 160.506H122.43V159.67C122.423 158.556 122.227 157.742 121.841 157.229C121.454 156.716 120.846 156.459 120.017 156.459C119.079 156.459 118.383 156.751 117.927 157.333C117.471 157.91 117.243 158.755 117.243 159.87C117.243 160.909 117.471 161.713 117.927 162.283C118.383 162.853 119.048 163.138 119.922 163.138C120.485 163.138 120.97 163.014 121.375 162.767C121.787 162.514 122.103 162.15 122.325 161.675L124.586 162.359C124.193 163.284 123.585 164.002 122.762 164.515C121.945 165.028 121.043 165.285 120.055 165.285ZM116.521 160.506V158.777H123.579V160.506H116.521ZM126.522 165V154.74H128.403L132.08 161.827L135.766 154.74H137.637V165H135.452V159.347L132.536 165H131.633L128.717 159.347V165H126.522ZM144.955 165.285C143.916 165.285 143.004 165.06 142.219 164.61C141.434 164.161 140.819 163.537 140.376 162.739C139.939 161.941 139.72 161.023 139.72 159.984C139.72 158.863 139.936 157.891 140.366 157.067C140.797 156.238 141.396 155.595 142.162 155.139C142.928 154.683 143.815 154.455 144.822 154.455C145.886 154.455 146.788 154.705 147.529 155.205C148.277 155.699 148.831 156.399 149.192 157.305C149.553 158.211 149.689 159.278 149.6 160.506H147.33V159.67C147.324 158.556 147.127 157.742 146.741 157.229C146.355 156.716 145.747 156.459 144.917 156.459C143.98 156.459 143.283 156.751 142.827 157.333C142.371 157.91 142.143 158.755 142.143 159.87C142.143 160.909 142.371 161.713 142.827 162.283C143.283 162.853 143.948 163.138 144.822 163.138C145.386 163.138 145.87 163.014 146.275 162.767C146.687 162.514 147.004 162.15 147.225 161.675L149.486 162.359C149.094 163.284 148.486 164.002 147.662 164.515C146.845 165.028 145.943 165.285 144.955 165.285ZM141.421 160.506V158.777H148.479V160.506H141.421ZM151.701 165V154.74H153.991V158.787H158.598V154.74H160.888V165H158.598V160.934H153.991V165H151.701ZM172.431 154.74V165H170.237V158.302L165.354 165H163.52V154.74H165.715V161.266L170.617 154.74H172.431ZM6.82614 193V182.74H9.11564V186.787H13.7231V182.74H16.0126V193H13.7231V188.934H9.11564V193H6.82614ZM21.5335 193.285C20.7925 193.285 20.1655 193.146 19.6525 192.867C19.1395 192.582 18.75 192.205 18.484 191.736C18.2243 191.268 18.0945 190.752 18.0945 190.188C18.0945 189.694 18.1768 189.251 18.3415 188.858C18.5061 188.459 18.7595 188.117 19.1015 187.832C19.4435 187.541 19.8868 187.303 20.4315 187.119C20.8431 186.986 21.3245 186.866 21.8755 186.758C22.4328 186.651 23.0345 186.553 23.6805 186.464C24.3328 186.369 25.0136 186.268 25.723 186.16L24.906 186.625C24.9123 185.916 24.754 185.394 24.431 185.058C24.108 184.722 23.5633 184.554 22.797 184.554C22.3346 184.554 21.8881 184.662 21.4575 184.877C21.0268 185.093 20.726 185.463 20.555 185.989L18.465 185.333C18.7183 184.466 19.1996 183.769 19.909 183.243C20.6246 182.718 21.5873 182.455 22.797 182.455C23.709 182.455 24.5101 182.604 25.2005 182.901C25.8971 183.199 26.4133 183.687 26.749 184.364C26.9326 184.725 27.0435 185.096 27.0815 185.476C27.1195 185.85 27.1385 186.258 27.1385 186.701V193H25.134V190.777L25.4665 191.138C25.0041 191.879 24.4626 192.424 23.842 192.772C23.2276 193.114 22.4581 193.285 21.5335 193.285ZM21.9895 191.461C22.5088 191.461 22.9521 191.369 23.3195 191.185C23.6868 191.002 23.9781 190.777 24.1935 190.511C24.4151 190.245 24.564 189.995 24.64 189.76C24.7603 189.469 24.8268 189.137 24.8395 188.763C24.8585 188.383 24.868 188.076 24.868 187.841L25.571 188.05C24.8806 188.158 24.2885 188.253 23.7945 188.335C23.3005 188.418 22.8761 188.497 22.5215 188.573C22.1668 188.643 21.8533 188.722 21.581 188.81C21.315 188.905 21.0901 189.016 20.9065 189.143C20.7228 189.27 20.5803 189.415 20.479 189.58C20.384 189.745 20.3365 189.938 20.3365 190.159C20.3365 190.413 20.3998 190.638 20.5265 190.834C20.6531 191.024 20.8368 191.176 21.0775 191.29C21.3245 191.404 21.6285 191.461 21.9895 191.461ZM29.5927 193V182.74H31.7872V190.967H34.6847V182.74H36.8792V190.967H39.7767V182.74H41.9712V193H29.5927ZM53.5145 182.74V193H51.32V186.302L46.437 193H44.6035V182.74H46.798V189.266L51.7 182.74H53.5145ZM59.9668 193V182.74H61.8478L65.5243 189.827L69.2103 182.74H71.0818V193H68.8968V187.347L65.9803 193H65.0778L62.1613 187.347V193H59.9668ZM78.3993 193.285C77.3606 193.285 76.4486 193.06 75.6633 192.61C74.878 192.161 74.2636 191.537 73.8203 190.739C73.3833 189.941 73.1648 189.023 73.1648 187.984C73.1648 186.863 73.3801 185.891 73.8108 185.067C74.2415 184.238 74.84 183.595 75.6063 183.139C76.3726 182.683 77.2593 182.455 78.2663 182.455C79.3303 182.455 80.2328 182.705 80.9738 183.205C81.7211 183.699 82.2753 184.399 82.6363 185.305C82.9973 186.211 83.1335 187.278 83.0448 188.506H80.7743V187.67C80.768 186.556 80.5716 185.742 80.1853 185.229C79.799 184.716 79.191 184.459 78.3613 184.459C77.424 184.459 76.7273 184.751 76.2713 185.333C75.8153 185.91 75.5873 186.755 75.5873 187.87C75.5873 188.909 75.8153 189.713 76.2713 190.283C76.7273 190.853 77.3923 191.138 78.2663 191.138C78.83 191.138 79.3145 191.014 79.7198 190.767C80.1315 190.514 80.4481 190.15 80.6698 189.675L82.9308 190.359C82.5381 191.284 81.9301 192.002 81.1068 192.515C80.2898 193.028 79.3873 193.285 78.3993 193.285ZM74.8653 188.506V186.777H81.9238V188.506H74.8653ZM85.1455 193V182.74H87.435V186.787H92.0425V182.74H94.332V193H92.0425V188.934H87.435V193H85.1455ZM101.648 193.285C100.61 193.285 99.6976 193.06 98.9123 192.61C98.127 192.161 97.5126 191.537 97.0693 190.739C96.6323 189.941 96.4138 189.023 96.4138 187.984C96.4138 186.863 96.6291 185.891 97.0598 185.067C97.4905 184.238 98.089 183.595 98.8553 183.139C99.6216 182.683 100.508 182.455 101.515 182.455C102.579 182.455 103.482 182.705 104.223 183.205C104.97 183.699 105.524 184.399 105.885 185.305C106.246 186.211 106.382 187.278 106.294 188.506H104.023V187.67C104.017 186.556 103.821 185.742 103.434 185.229C103.048 184.716 102.44 184.459 101.61 184.459C100.673 184.459 99.9763 184.751 99.5203 185.333C99.0643 185.91 98.8363 186.755 98.8363 187.87C98.8363 188.909 99.0643 189.713 99.5203 190.283C99.9763 190.853 100.641 191.138 101.515 191.138C102.079 191.138 102.563 191.014 102.969 190.767C103.38 190.514 103.697 190.15 103.919 189.675L106.18 190.359C105.787 191.284 105.179 192.002 104.356 192.515C103.539 193.028 102.636 193.285 101.648 193.285ZM98.1143 188.506V186.777H105.173V188.506H98.1143ZM107.653 195.28V191.204C108.211 191.204 108.607 191.014 108.841 190.634C109.075 190.254 109.262 189.596 109.401 188.658C109.49 188.101 109.563 187.512 109.62 186.891C109.677 186.271 109.724 185.615 109.762 184.925C109.807 184.235 109.845 183.506 109.876 182.74H117.514V191.204H118.55V195.28H116.384V193H109.81V195.28H107.653ZM110.722 191.204H115.234V184.535H111.881C111.862 184.915 111.84 185.305 111.814 185.704C111.789 186.097 111.761 186.489 111.729 186.882C111.697 187.275 111.662 187.651 111.624 188.012C111.593 188.367 111.555 188.696 111.51 189C111.441 189.532 111.355 189.969 111.254 190.311C111.153 190.653 110.975 190.951 110.722 191.204ZM119.315 193L123.077 187.87L119.543 182.74H122.051L125.386 187.708V182.74H127.419V187.708L130.753 182.74H133.252L129.718 187.87L133.48 193H130.839L127.419 188.031V193H125.386V188.031L121.956 193H119.315ZM139.296 193.285C138.257 193.285 137.345 193.06 136.56 192.61C135.774 192.161 135.16 191.537 134.717 190.739C134.28 189.941 134.061 189.023 134.061 187.984C134.061 186.863 134.277 185.891 134.707 185.067C135.138 184.238 135.736 183.595 136.503 183.139C137.269 182.683 138.156 182.455 139.163 182.455C140.227 182.455 141.129 182.705 141.87 183.205C142.618 183.699 143.172 184.399 143.533 185.305C143.894 186.211 144.03 187.278 143.941 188.506H141.671V187.67C141.664 186.556 141.468 185.742 141.082 185.229C140.695 184.716 140.087 184.459 139.258 184.459C138.32 184.459 137.624 184.751 137.168 185.333C136.712 185.91 136.484 186.755 136.484 187.87C136.484 188.909 136.712 189.713 137.168 190.283C137.624 190.853 138.289 191.138 139.163 191.138C139.726 191.138 140.211 191.014 140.616 190.767C141.028 190.514 141.345 190.15 141.566 189.675L143.827 190.359C143.435 191.284 142.827 192.002 142.003 192.515C141.186 193.028 140.284 193.285 139.296 193.285ZM135.762 188.506V186.777H142.82V188.506H135.762ZM150.991 193.285C149.991 193.285 149.152 193.048 148.474 192.572C147.796 192.097 147.286 191.451 146.944 190.634C146.602 189.811 146.431 188.89 146.431 187.87C146.431 186.838 146.602 185.913 146.944 185.096C147.286 184.279 147.787 183.636 148.445 183.167C149.11 182.692 149.931 182.455 150.906 182.455C151.875 182.455 152.714 182.692 153.423 183.167C154.139 183.636 154.693 184.279 155.086 185.096C155.479 185.907 155.675 186.831 155.675 187.87C155.675 188.896 155.482 189.817 155.095 190.634C154.709 191.451 154.164 192.097 153.461 192.572C152.758 193.048 151.935 193.285 150.991 193.285ZM146.042 197.56V182.74H148.065V189.941H148.35V197.56H146.042ZM150.64 191.233C151.235 191.233 151.726 191.084 152.112 190.786C152.499 190.489 152.784 190.087 152.967 189.58C153.157 189.067 153.252 188.497 153.252 187.87C153.252 187.249 153.157 186.686 152.967 186.179C152.777 185.666 152.483 185.261 152.084 184.963C151.685 184.659 151.178 184.507 150.564 184.507C149.981 184.507 149.506 184.649 149.139 184.934C148.772 185.213 148.499 185.606 148.322 186.112C148.151 186.613 148.065 187.199 148.065 187.87C148.065 188.535 148.151 189.121 148.322 189.627C148.499 190.134 148.775 190.53 149.148 190.815C149.528 191.094 150.026 191.233 150.64 191.233ZM157.759 193L157.75 182.74H160.039V186.16H161.189C161.474 186.16 161.794 186.166 162.148 186.179C162.509 186.192 162.81 186.22 163.051 186.264C163.627 186.391 164.118 186.594 164.523 186.872C164.935 187.151 165.249 187.515 165.464 187.965C165.679 188.415 165.787 188.956 165.787 189.589C165.787 190.495 165.553 191.22 165.084 191.765C164.615 192.303 163.96 192.671 163.117 192.867C162.87 192.924 162.563 192.962 162.196 192.981C161.829 192.994 161.502 193 161.217 193H157.759ZM160.039 191.204H161.417C161.556 191.204 161.711 191.198 161.882 191.185C162.053 191.173 162.215 191.144 162.367 191.1C162.652 191.024 162.905 190.853 163.127 190.587C163.349 190.315 163.459 189.982 163.459 189.589C163.459 189.178 163.349 188.839 163.127 188.573C162.905 188.307 162.633 188.133 162.31 188.05C162.158 188.012 162.003 187.987 161.844 187.974C161.692 187.962 161.55 187.955 161.417 187.955H160.039V191.204ZM166.86 193V182.74H169.15V193H166.86ZM12.2005 221.285C11.1429 221.285 10.2404 221.051 9.49304 220.582C8.74571 220.107 8.17254 219.461 7.77354 218.644C7.38087 217.827 7.18137 216.902 7.17504 215.87C7.18137 214.819 7.38721 213.888 7.79254 213.077C8.20421 212.26 8.78687 211.62 9.54054 211.158C10.2942 210.689 11.1904 210.455 12.229 210.455C13.3944 210.455 14.3792 210.749 15.1835 211.338C15.9942 211.921 16.523 212.719 16.77 213.732L14.49 214.35C14.3127 213.799 14.0182 213.371 13.6065 213.067C13.1949 212.757 12.7262 212.602 12.2005 212.602C11.6052 212.602 11.1144 212.744 10.728 213.029C10.3417 213.308 10.0567 213.694 9.87304 214.188C9.68937 214.682 9.59754 215.243 9.59754 215.87C9.59754 216.845 9.81604 217.634 10.253 218.235C10.69 218.837 11.3392 219.138 12.2005 219.138C12.8085 219.138 13.2867 218.999 13.635 218.72C13.9897 218.441 14.2557 218.039 14.433 217.513L16.77 218.036C16.4534 219.081 15.8992 219.885 15.1075 220.449C14.3159 221.006 13.3469 221.285 12.2005 221.285ZM18.6548 221V210.74H23.3193C23.6549 210.74 23.9684 210.759 24.2598 210.797C24.5511 210.835 24.8013 210.882 25.0103 210.939C25.5043 211.085 25.9413 211.37 26.3213 211.794C26.7013 212.212 26.8912 212.792 26.8912 213.533C26.8912 213.97 26.8216 214.331 26.6823 214.616C26.5429 214.895 26.3593 215.129 26.1313 215.319C26.0236 215.408 25.9128 215.484 25.7988 215.547C25.6848 215.61 25.5708 215.661 25.4568 215.699C25.7038 215.737 25.9381 215.81 26.1598 215.917C26.5081 216.088 26.7994 216.342 27.0338 216.677C27.2744 217.013 27.3948 217.485 27.3948 218.093C27.3948 218.783 27.2269 219.366 26.8912 219.841C26.5619 220.31 26.0774 220.636 25.4378 220.819C25.2034 220.883 24.9343 220.93 24.6303 220.962C24.3263 220.987 24.0159 221 23.6993 221H18.6548ZM20.9728 219.233H23.5378C23.6708 219.233 23.8164 219.22 23.9748 219.195C24.1331 219.17 24.2756 219.135 24.4023 219.09C24.6303 219.008 24.7949 218.862 24.8963 218.653C25.0039 218.444 25.0578 218.226 25.0578 217.998C25.0578 217.688 24.9786 217.441 24.8203 217.257C24.6683 217.067 24.4846 216.94 24.2693 216.877C24.1426 216.826 24.0033 216.798 23.8513 216.791C23.7056 216.779 23.5853 216.772 23.4903 216.772H20.9728V219.233ZM20.9728 214.977H22.8728C23.0691 214.977 23.2591 214.967 23.4428 214.948C23.6328 214.923 23.7911 214.882 23.9178 214.825C24.1268 214.743 24.2788 214.603 24.3738 214.407C24.4751 214.211 24.5258 213.992 24.5258 213.751C24.5258 213.498 24.4688 213.27 24.3548 213.067C24.2471 212.858 24.0729 212.719 23.8323 212.649C23.6739 212.586 23.4808 212.551 23.2528 212.545C23.0311 212.539 22.8886 212.535 22.8253 212.535H20.9728V214.977ZM35.424 221V217.58H33.5905C33.3562 217.58 33.0617 217.574 32.707 217.561C32.3587 217.548 32.0325 217.517 31.7285 217.466C30.9369 217.32 30.2814 216.975 29.762 216.43C29.2427 215.879 28.983 215.132 28.983 214.188C28.983 213.264 29.23 212.52 29.724 211.956C30.218 211.392 30.8609 211.031 31.6525 210.873C31.9819 210.803 32.3207 210.765 32.669 210.759C33.0237 210.746 33.3182 210.74 33.5525 210.74H37.7135V221H35.424ZM28.717 221L31.168 217.076H33.5525L31.1205 221H28.717ZM33.353 215.784H35.424V212.535H33.353C33.2327 212.535 33.087 212.542 32.916 212.554C32.745 212.567 32.574 212.596 32.403 212.64C32.2194 212.697 32.0452 212.795 31.8805 212.934C31.7159 213.074 31.5797 213.248 31.472 213.457C31.3644 213.666 31.3105 213.903 31.3105 214.169C31.3105 214.568 31.4245 214.901 31.6525 215.167C31.8869 215.427 32.1592 215.601 32.4695 215.689C32.6215 215.727 32.7767 215.753 32.935 215.766C33.0997 215.778 33.239 215.784 33.353 215.784ZM39.2242 221L42.9862 215.87L39.4522 210.74H41.9602L45.2947 215.708V210.74H47.3277V215.708L50.6622 210.74H53.1607L49.6267 215.87L53.3887 221H50.7477L47.3277 216.031V221H45.2947V216.031L41.8652 221H39.2242ZM56.2601 225.56L58.2361 220.135L58.2741 221.732L53.7996 210.74H56.1841L59.3571 218.872H58.7491L61.8366 210.74H64.1261L58.4071 225.56H56.2601ZM68.1174 221V212.773H64.6879V210.74H73.8364V212.773H70.4069V221H68.1174ZM79.9066 221.285C78.8489 221.285 77.9464 221.051 77.1991 220.582C76.4518 220.107 75.8786 219.461 75.4796 218.644C75.0869 217.827 74.8874 216.902 74.8811 215.87C74.8874 214.819 75.0933 213.888 75.4986 213.077C75.9103 212.26 76.4929 211.62 77.2466 211.158C78.0003 210.689 78.8964 210.455 79.9351 210.455C81.1004 210.455 82.0853 210.749 82.8896 211.338C83.7003 211.921 84.2291 212.719 84.4761 213.732L82.1961 214.35C82.0188 213.799 81.7243 213.371 81.3126 213.067C80.9009 212.757 80.4323 212.602 79.9066 212.602C79.3113 212.602 78.8204 212.744 78.4341 213.029C78.0478 213.308 77.7628 213.694 77.5791 214.188C77.3954 214.682 77.3036 215.243 77.3036 215.87C77.3036 216.845 77.5221 217.634 77.9591 218.235C78.3961 218.837 79.0453 219.138 79.9066 219.138C80.5146 219.138 80.9928 218.999 81.3411 218.72C81.6958 218.441 81.9618 218.039 82.1391 217.513L84.4761 218.036C84.1594 219.081 83.6053 219.885 82.8136 220.449C82.0219 221.006 81.0529 221.285 79.9066 221.285ZM92.3498 221V217.58H90.5163C90.282 217.58 89.9875 217.574 89.6328 217.561C89.2845 217.548 88.9583 217.517 88.6543 217.466C87.8626 217.32 87.2071 216.975 86.6878 216.43C86.1685 215.879 85.9088 215.132 85.9088 214.188C85.9088 213.264 86.1558 212.52 86.6498 211.956C87.1438 211.392 87.7866 211.031 88.5783 210.873C88.9076 210.803 89.2465 210.765 89.5948 210.759C89.9495 210.746 90.244 210.74 90.4783 210.74H94.6393V221H92.3498ZM85.6428 221L88.0938 217.076H90.4783L88.0463 221H85.6428ZM90.2788 215.784H92.3498V212.535H90.2788C90.1585 212.535 90.0128 212.542 89.8418 212.554C89.6708 212.567 89.4998 212.596 89.3288 212.64C89.1451 212.697 88.971 212.795 88.8063 212.934C88.6416 213.074 88.5055 213.248 88.3978 213.457C88.2901 213.666 88.2363 213.903 88.2363 214.169C88.2363 214.568 88.3503 214.901 88.5783 215.167C88.8126 215.427 89.085 215.601 89.3953 215.689C89.5473 215.727 89.7025 215.753 89.8608 215.766C90.0255 215.778 90.1648 215.784 90.2788 215.784ZM105.549 221.285C104.492 221.285 103.589 221.051 102.842 220.582C102.094 220.107 101.521 219.461 101.122 218.644C100.73 217.827 100.53 216.902 100.524 215.87C100.53 214.819 100.736 213.888 101.141 213.077C101.553 212.26 102.136 211.62 102.889 211.158C103.643 210.689 104.539 210.455 105.578 210.455C106.743 210.455 107.728 210.749 108.532 211.338C109.343 211.921 109.872 212.719 110.119 213.732L107.839 214.35C107.661 213.799 107.367 213.371 106.955 213.067C106.544 212.757 106.075 212.602 105.549 212.602C104.954 212.602 104.463 212.744 104.077 213.029C103.69 213.308 103.405 213.694 103.222 214.188C103.038 214.682 102.946 215.243 102.946 215.87C102.946 216.845 103.165 217.634 103.602 218.235C104.039 218.837 104.688 219.138 105.549 219.138C106.157 219.138 106.635 218.999 106.984 218.72C107.338 218.441 107.604 218.039 107.782 217.513L110.119 218.036C109.802 219.081 109.248 219.885 108.456 220.449C107.665 221.006 106.696 221.285 105.549 221.285ZM115.826 221V207.32H121.251C122.175 207.32 122.932 207.507 123.521 207.88C124.116 208.248 124.557 208.72 124.842 209.296C125.133 209.872 125.279 210.468 125.279 211.082C125.279 211.836 125.098 212.475 124.737 213.001C124.382 213.527 123.898 213.881 123.284 214.065V213.59C124.145 213.786 124.797 214.195 125.241 214.815C125.69 215.436 125.915 216.142 125.915 216.934C125.915 217.745 125.76 218.454 125.45 219.062C125.139 219.67 124.677 220.145 124.063 220.487C123.455 220.829 122.701 221 121.802 221H115.826ZM118.144 218.843H121.517C121.916 218.843 122.273 218.764 122.59 218.606C122.907 218.441 123.154 218.213 123.331 217.922C123.515 217.624 123.607 217.273 123.607 216.867C123.607 216.5 123.527 216.171 123.369 215.879C123.211 215.588 122.98 215.357 122.676 215.186C122.372 215.009 122.007 214.92 121.583 214.92H118.144V218.843ZM118.144 212.782H121.222C121.551 212.782 121.846 212.719 122.106 212.592C122.365 212.466 122.571 212.279 122.723 212.032C122.875 211.785 122.951 211.481 122.951 211.12C122.951 210.645 122.799 210.249 122.495 209.932C122.191 209.616 121.767 209.457 121.222 209.457H118.144V212.782ZM130.681 221.285C129.94 221.285 129.313 221.146 128.8 220.867C128.287 220.582 127.898 220.205 127.632 219.736C127.372 219.268 127.242 218.752 127.242 218.188C127.242 217.694 127.325 217.251 127.489 216.858C127.654 216.459 127.907 216.117 128.249 215.832C128.591 215.541 129.035 215.303 129.579 215.119C129.991 214.986 130.472 214.866 131.023 214.758C131.581 214.651 132.182 214.553 132.828 214.464C133.481 214.369 134.162 214.268 134.871 214.16L134.054 214.625C134.06 213.916 133.902 213.394 133.579 213.058C133.256 212.722 132.711 212.554 131.945 212.554C131.483 212.554 131.036 212.662 130.605 212.877C130.175 213.093 129.874 213.463 129.703 213.989L127.613 213.333C127.866 212.466 128.348 211.769 129.057 211.243C129.773 210.718 130.735 210.455 131.945 210.455C132.857 210.455 133.658 210.604 134.348 210.901C135.045 211.199 135.561 211.687 135.897 212.364C136.081 212.725 136.191 213.096 136.229 213.476C136.267 213.85 136.286 214.258 136.286 214.701V221H134.282V218.777L134.614 219.138C134.152 219.879 133.611 220.424 132.99 220.772C132.376 221.114 131.606 221.285 130.681 221.285ZM131.137 219.461C131.657 219.461 132.1 219.369 132.467 219.185C132.835 219.002 133.126 218.777 133.341 218.511C133.563 218.245 133.712 217.995 133.788 217.76C133.908 217.469 133.975 217.137 133.987 216.763C134.006 216.383 134.016 216.076 134.016 215.841L134.719 216.05C134.029 216.158 133.436 216.253 132.942 216.335C132.448 216.418 132.024 216.497 131.669 216.573C131.315 216.643 131.001 216.722 130.729 216.81C130.463 216.905 130.238 217.016 130.054 217.143C129.871 217.27 129.728 217.415 129.627 217.58C129.532 217.745 129.484 217.938 129.484 218.159C129.484 218.413 129.548 218.638 129.674 218.834C129.801 219.024 129.985 219.176 130.225 219.29C130.472 219.404 130.776 219.461 131.137 219.461ZM138.741 221V210.74H140.622L144.298 217.827L147.984 210.74H149.856V221H147.671V215.347L144.754 221H143.852L140.935 215.347V221H138.741ZM161.401 210.74V221H159.206V214.302L154.323 221H152.49V210.74H154.684V217.266L159.586 210.74H161.401ZM165.018 221V218.9H167.308V221H165.018ZM165.018 217.58V207.32H167.308V217.58H165.018Z" fill="#1C471F"/>
<circle cx="88" cy="50" r="50" fill="#F0FDC4"/>
<path d="M101.333 42L82.9998 60.3333L74.6665 52" stroke="#1C471F" stroke-width="5" stroke-linecap="round" stroke-linejoin="round"/>
</svg>
