<svg width="68" height="36" viewBox="0 0 68 36" fill="none" xmlns="http://www.w3.org/2000/svg">
<rect x="0.5" y="0.5" width="67" height="35" fill="#F8F8F8"/>
<path d="M26.9475 23.2091H28.6849L27.3924 28L12 23.7921L14.3752 14.9962V21.4432L14.0646 22.6008L26.2174 25.9214L26.9475 23.2091ZM20.6697 13.9147C21.3663 13.9147 21.9287 13.3485 21.9287 12.6472C21.9287 11.9459 21.3663 11.3798 20.6697 11.3798C19.9731 11.3798 19.4108 11.9459 19.4108 12.6472C19.4108 13.3485 19.9731 13.9147 20.6697 13.9147ZM32 10.5349V21.5192H16.0537V10.5349C16.0537 9.14068 17.1867 8 18.5715 8H29.4822C30.867 8 32 9.14068 32 10.5349ZM17.7323 10.5349V19.5505L24.2283 13.0106L26.9979 15.7989L30.3214 12.4529V10.5349C30.3214 10.0701 29.9438 9.6899 29.4822 9.6899H18.5715C18.1099 9.6899 17.7323 10.0701 17.7323 10.5349ZM30.3214 19.8293V14.8441L26.9979 18.1901L24.2283 15.4018L19.8305 19.8293H30.3214Z" fill="#32454B"/>
<path d="M54.2223 17.2223H48.7778V11.7778C48.7778 11.3482 48.4296 11 48 11C47.5705 11 47.2223 11.3482 47.2223 11.7778V17.2222H41.7778C41.3482 17.2223 41 17.5705 41 18C41 18.4296 41.3482 18.7778 41.7778 18.7778H47.2222V24.2222C47.2222 24.6518 47.5704 25 48 25C48.4295 25 48.7777 24.6518 48.7777 24.2222V18.7778H54.2222C54.6517 18.7778 55 18.4296 55 18C55 17.5705 54.6518 17.2223 54.2223 17.2223Z" fill="#32454B"/>
<rect x="0.5" y="0.5" width="67" height="35" stroke="#E6E6E6"/>
</svg>
