<svg width="68" height="36" viewBox="0 0 68 36" fill="none" xmlns="http://www.w3.org/2000/svg">
<rect x="0.5" y="0.5" width="67" height="35" fill="#F8F8F8"/>
<path d="M29.5 8H14.5C13.837 8 13.2011 8.26339 12.7322 8.73223C12.2634 9.20107 12 9.83696 12 10.5V28H32V10.5C32 9.83696 31.7366 9.20107 31.2678 8.73223C30.7989 8.26339 30.163 8 29.5 8ZM30.3333 26.3333H13.6667V10.5C13.6667 10.279 13.7545 10.067 13.9107 9.91074C14.067 9.75446 14.279 9.66667 14.5 9.66667H29.5C29.721 9.66667 29.933 9.75446 30.0893 9.91074C30.2455 10.067 30.3333 10.279 30.3333 10.5V26.3333ZM17 13H27V16.3333H25.3333V14.6667H22.8333V21.3333H24.5V23H19.5V21.3333H21.1667V14.6667H18.6667V16.3333H17V13Z" fill="#32454B"/>
<path d="M54.2223 17.2223H48.7778V11.7778C48.7778 11.3482 48.4296 11 48 11C47.5705 11 47.2223 11.3482 47.2223 11.7778V17.2222H41.7778C41.3482 17.2223 41 17.5705 41 18C41 18.4296 41.3482 18.7778 41.7778 18.7778H47.2222V24.2222C47.2222 24.6518 47.5704 25 48 25C48.4295 25 48.7777 24.6518 48.7777 24.2222V18.7778H54.2222C54.6517 18.7778 55 18.4296 55 18C55 17.5705 54.6518 17.2223 54.2223 17.2223Z" fill="#32454B"/>
<rect x="0.5" y="0.5" width="67" height="35" stroke="#E6E6E6"/>
</svg>
