<svg width="229" height="48" viewBox="0 0 229 48" fill="none" xmlns="http://www.w3.org/2000/svg">
<g filter="url(#filter0_d_531_1851)">
<rect x="2" y="1" width="225" height="44" rx="10" fill="#F19654" shape-rendering="crispEdges"/>
<g clip-path="url(#clip0_531_1851)">
<path d="M39.5 18H37C37 16.6739 36.4732 15.4021 35.5355 14.4645C34.5979 13.5268 33.3261 13 32 13C30.6739 13 29.4021 13.5268 28.4645 14.4645C27.5268 15.4021 27 16.6739 27 18H24.5C23.837 18 23.2011 18.2634 22.7322 18.7322C22.2634 19.2011 22 19.837 22 20.5V28.8333C22.0013 29.938 22.4407 30.997 23.2218 31.7782C24.003 32.5593 25.062 32.9987 26.1667 33H37.8333C38.938 32.9987 39.997 32.5593 40.7782 31.7782C41.5593 30.997 41.9987 29.938 42 28.8333V20.5C42 19.837 41.7366 19.2011 41.2678 18.7322C40.7989 18.2634 40.163 18 39.5 18ZM32 14.6667C32.8841 14.6667 33.7319 15.0179 34.357 15.643C34.9821 16.2681 35.3333 17.1159 35.3333 18H28.6667C28.6667 17.1159 29.0179 16.2681 29.643 15.643C30.2681 15.0179 31.1159 14.6667 32 14.6667ZM40.3333 28.8333C40.3333 29.4964 40.0699 30.1323 39.6011 30.6011C39.1323 31.0699 38.4964 31.3333 37.8333 31.3333H26.1667C25.5036 31.3333 24.8677 31.0699 24.3989 30.6011C23.9301 30.1323 23.6667 29.4964 23.6667 28.8333V20.5C23.6667 20.279 23.7545 20.067 23.9107 19.9107C24.067 19.7545 24.279 19.6667 24.5 19.6667H27V21.3333C27 21.5543 27.0878 21.7663 27.2441 21.9226C27.4004 22.0789 27.6123 22.1667 27.8333 22.1667C28.0543 22.1667 28.2663 22.0789 28.4226 21.9226C28.5789 21.7663 28.6667 21.5543 28.6667 21.3333V19.6667H35.3333V21.3333C35.3333 21.5543 35.4211 21.7663 35.5774 21.9226C35.7337 22.0789 35.9457 22.1667 36.1667 22.1667C36.3877 22.1667 36.5996 22.0789 36.7559 21.9226C36.9122 21.7663 37 21.5543 37 21.3333V19.6667H39.5C39.721 19.6667 39.933 19.7545 40.0893 19.9107C40.2455 20.067 40.3333 20.279 40.3333 20.5V28.8333Z" fill="white"/>
</g>
<path d="M50.3977 31.8125V27.5114H51.1648C51.4261 27.2917 51.6705 26.9792 51.8977 26.5739C52.125 26.1686 52.3182 25.6212 52.4773 24.9318C52.6364 24.2424 52.7462 23.358 52.8068 22.2784L53.0795 17.3636H60.2557V27.5114H61.5739V31.7955H59.892V29H52.0795V31.8125H50.3977ZM53.233 27.5114H58.5739V18.875H54.6705L54.4886 22.2784C54.4394 23.1004 54.358 23.839 54.2443 24.4943C54.1345 25.1496 53.9924 25.7292 53.8182 26.233C53.6477 26.733 53.4527 27.1591 53.233 27.5114ZM66.9569 29.1761C66.1388 29.1761 65.4247 28.9886 64.8149 28.6136C64.205 28.2386 63.7316 27.714 63.3944 27.0398C63.0573 26.3655 62.8888 25.5777 62.8888 24.6761C62.8888 23.7708 63.0573 22.9792 63.3944 22.3011C63.7316 21.6231 64.205 21.0966 64.8149 20.7216C65.4247 20.3466 66.1388 20.1591 66.9569 20.1591C67.7751 20.1591 68.4891 20.3466 69.099 20.7216C69.7088 21.0966 70.1823 21.6231 70.5194 22.3011C70.8566 22.9792 71.0251 23.7708 71.0251 24.6761C71.0251 25.5777 70.8566 26.3655 70.5194 27.0398C70.1823 27.714 69.7088 28.2386 69.099 28.6136C68.4891 28.9886 67.7751 29.1761 66.9569 29.1761ZM66.9626 27.75C67.4929 27.75 67.9323 27.6098 68.2808 27.3295C68.6293 27.0492 68.8869 26.6761 69.0535 26.2102C69.224 25.7443 69.3092 25.2311 69.3092 24.6705C69.3092 24.1136 69.224 23.6023 69.0535 23.1364C68.8869 22.6667 68.6293 22.2898 68.2808 22.0057C67.9323 21.7216 67.4929 21.5795 66.9626 21.5795C66.4285 21.5795 65.9853 21.7216 65.6331 22.0057C65.2846 22.2898 65.0251 22.6667 64.8547 23.1364C64.688 23.6023 64.6047 24.1136 64.6047 24.6705C64.6047 25.2311 64.688 25.7443 64.8547 26.2102C65.0251 26.6761 65.2846 27.0492 65.6331 27.3295C65.9853 27.6098 66.4285 27.75 66.9626 27.75ZM79.5744 17.0227L80.2789 18.0966C80.0176 18.3352 79.7202 18.5057 79.3869 18.608C79.0573 18.7064 78.6766 18.7689 78.2448 18.7955C77.813 18.8182 77.3187 18.839 76.7619 18.858C76.1331 18.8769 75.616 19.0133 75.2107 19.267C74.8054 19.517 74.4929 19.8883 74.2732 20.3807C74.0573 20.8693 73.9172 21.483 73.8528 22.2216H73.9607C74.2448 21.6799 74.6388 21.2746 75.1426 21.0057C75.6501 20.7367 76.2202 20.6023 76.8528 20.6023C77.5573 20.6023 78.1842 20.7633 78.7335 21.0852C79.2827 21.4072 79.7145 21.8788 80.0289 22.5C80.3471 23.1174 80.5062 23.8731 80.5062 24.767C80.5062 25.6723 80.3395 26.4545 80.0062 27.1136C79.6766 27.7727 79.2107 28.2822 78.6085 28.642C78.01 28.9981 77.3035 29.1761 76.4891 29.1761C75.6748 29.1761 74.9645 28.9924 74.3585 28.625C73.7562 28.2538 73.2884 27.7045 72.9551 26.9773C72.6255 26.25 72.4607 25.3523 72.4607 24.2841V23.4205C72.4607 21.4242 72.8168 19.9223 73.5289 18.9148C74.241 17.9072 75.3054 17.3902 76.7221 17.3636C77.1804 17.3523 77.5895 17.3504 77.9494 17.358C78.3092 17.3617 78.6236 17.3447 78.8926 17.3068C79.1653 17.2652 79.3926 17.1705 79.5744 17.0227ZM76.4948 27.75C76.9683 27.75 77.3755 27.6307 77.7164 27.392C78.0611 27.1496 78.3263 26.8068 78.5119 26.3636C78.6975 25.9205 78.7903 25.3977 78.7903 24.7955C78.7903 24.2045 78.6975 23.7027 78.5119 23.2898C78.3263 22.8769 78.0611 22.5625 77.7164 22.3466C77.3717 22.1269 76.9588 22.017 76.4778 22.017C76.1217 22.017 75.8035 22.0795 75.5232 22.2045C75.2429 22.3258 75.0024 22.5057 74.8016 22.7443C74.6047 22.983 74.4513 23.2746 74.3414 23.6193C74.2354 23.9602 74.1785 24.3523 74.171 24.7955C74.171 25.697 74.3774 26.4148 74.7903 26.9489C75.207 27.483 75.7751 27.75 76.4948 27.75ZM84.8637 29.1932C84.3107 29.1932 83.8107 29.0909 83.3637 28.8864C82.9167 28.678 82.5626 28.3769 82.3012 27.983C82.0436 27.589 81.9148 27.1061 81.9148 26.5341C81.9148 26.0417 82.0095 25.6364 82.1989 25.3182C82.3883 25 82.644 24.7481 82.966 24.5625C83.2879 24.3769 83.6478 24.2367 84.0455 24.142C84.4432 24.0473 84.8485 23.9754 85.2614 23.9261C85.7841 23.8655 86.2084 23.8163 86.5341 23.7784C86.8599 23.7367 87.0966 23.6705 87.2444 23.5795C87.3921 23.4886 87.466 23.3409 87.466 23.1364V23.0966C87.466 22.6004 87.3258 22.2159 87.0455 21.9432C86.769 21.6705 86.3561 21.5341 85.8069 21.5341C85.2349 21.5341 84.7841 21.661 84.4546 21.9148C84.1288 22.1648 83.9035 22.4432 83.7785 22.75L82.1819 22.3864C82.3713 21.8561 82.6478 21.428 83.0114 21.1023C83.3788 20.7727 83.8012 20.5341 84.2785 20.3864C84.7557 20.2348 85.2576 20.1591 85.7841 20.1591C86.1326 20.1591 86.502 20.2008 86.8921 20.2841C87.286 20.3636 87.6535 20.5114 87.9944 20.7273C88.3391 20.9432 88.6213 21.2519 88.841 21.6534C89.0607 22.0511 89.1705 22.5682 89.1705 23.2045V29H87.5114V27.8068H87.4432C87.3334 28.0265 87.1686 28.2424 86.9489 28.4545C86.7292 28.6667 86.447 28.8428 86.1023 28.983C85.7576 29.1231 85.3448 29.1932 84.8637 29.1932ZM85.233 27.8295C85.7027 27.8295 86.1042 27.7367 86.4376 27.5511C86.7747 27.3655 87.0304 27.1231 87.2046 26.8239C87.3826 26.5208 87.4716 26.197 87.4716 25.8523V24.7273C87.411 24.7879 87.2936 24.8447 87.1194 24.8977C86.9489 24.947 86.7538 24.9905 86.5341 25.0284C86.3145 25.0625 86.1004 25.0947 85.8921 25.125C85.6838 25.1515 85.5095 25.1742 85.3694 25.1932C85.0398 25.2348 84.7387 25.3049 84.466 25.4034C84.197 25.5019 83.9811 25.6439 83.8182 25.8295C83.6591 26.0114 83.5796 26.2538 83.5796 26.5568C83.5796 26.9773 83.7349 27.2955 84.0455 27.5114C84.3561 27.7235 84.752 27.8295 85.233 27.8295ZM91.3533 29V20.2727H94.9726C95.9575 20.2727 96.7378 20.483 97.3135 20.9034C97.8893 21.3201 98.1772 21.8864 98.1772 22.6023C98.1772 23.1136 98.0143 23.5189 97.6885 23.8182C97.3628 24.1174 96.9309 24.3182 96.3931 24.4205C96.7832 24.4659 97.1412 24.5833 97.4669 24.7727C97.7927 24.9583 98.0541 25.2083 98.251 25.5227C98.4518 25.8371 98.5522 26.2121 98.5522 26.6477C98.5522 27.1098 98.4328 27.5189 98.1942 27.875C97.9556 28.2273 97.609 28.5038 97.1544 28.7045C96.7037 28.9015 96.1601 29 95.5238 29H91.3533ZM92.9499 27.5795H95.5238C95.9442 27.5795 96.2738 27.4792 96.5124 27.2784C96.751 27.0777 96.8703 26.8049 96.8703 26.4602C96.8703 26.0549 96.751 25.7367 96.5124 25.5057C96.2738 25.2708 95.9442 25.1534 95.5238 25.1534H92.9499V27.5795ZM92.9499 23.9091H94.9897C95.3078 23.9091 95.5806 23.8636 95.8078 23.7727C96.0389 23.6818 96.215 23.553 96.3363 23.3864C96.4613 23.2159 96.5238 23.0152 96.5238 22.7841C96.5238 22.447 96.3855 22.1837 96.109 21.9943C95.8325 21.8049 95.4537 21.7102 94.9726 21.7102H92.9499V23.9091ZM102.001 26.6193L105.847 20.2727H107.677V29H106.012V22.6477L102.182 29H100.336V20.2727H102.001V26.6193ZM108.798 21.7386V20.2727H116.162V21.7386H113.315V29H111.656V21.7386H108.798ZM119.157 23.2727H121.691C122.76 23.2727 123.582 23.5379 124.157 24.0682C124.733 24.5985 125.021 25.2822 125.021 26.1193C125.021 26.6648 124.892 27.1553 124.635 27.5909C124.377 28.0265 124 28.3712 123.504 28.625C123.008 28.875 122.404 29 121.691 29H117.879V20.2727H119.544V27.5341H121.691C122.18 27.5341 122.582 27.4072 122.896 27.1534C123.21 26.8958 123.368 26.5682 123.368 26.1705C123.368 25.75 123.21 25.4072 122.896 25.142C122.582 24.8731 122.18 24.7386 121.691 24.7386H119.157V23.2727ZM131 29V20.2727H134.619C135.604 20.2727 136.385 20.483 136.96 20.9034C137.536 21.3201 137.824 21.8864 137.824 22.6023C137.824 23.1136 137.661 23.5189 137.335 23.8182C137.01 24.1174 136.578 24.3182 136.04 24.4205C136.43 24.4659 136.788 24.5833 137.114 24.7727C137.44 24.9583 137.701 25.2083 137.898 25.5227C138.099 25.8371 138.199 26.2121 138.199 26.6477C138.199 27.1098 138.08 27.5189 137.841 27.875C137.602 28.2273 137.256 28.5038 136.801 28.7045C136.351 28.9015 135.807 29 135.171 29H131ZM132.597 27.5795H135.171C135.591 27.5795 135.921 27.4792 136.159 27.2784C136.398 27.0777 136.517 26.8049 136.517 26.4602C136.517 26.0549 136.398 25.7367 136.159 25.5057C135.921 25.2708 135.591 25.1534 135.171 25.1534H132.597V27.5795ZM132.597 23.9091H134.637C134.955 23.9091 135.227 23.8636 135.455 23.7727C135.686 23.6818 135.862 23.553 135.983 23.3864C136.108 23.2159 136.171 23.0152 136.171 22.7841C136.171 22.447 136.032 22.1837 135.756 21.9943C135.479 21.8049 135.101 21.7102 134.619 21.7102H132.597V23.9091ZM144.137 29V20.2727H145.836V23.9318H146.654L149.535 20.2727H151.637L148.256 24.517L151.677 29H149.569L146.938 25.5114H145.836V29H144.137ZM156.233 29.1761C155.415 29.1761 154.701 28.9886 154.091 28.6136C153.481 28.2386 153.008 27.714 152.671 27.0398C152.334 26.3655 152.165 25.5777 152.165 24.6761C152.165 23.7708 152.334 22.9792 152.671 22.3011C153.008 21.6231 153.481 21.0966 154.091 20.7216C154.701 20.3466 155.415 20.1591 156.233 20.1591C157.051 20.1591 157.765 20.3466 158.375 20.7216C158.985 21.0966 159.459 21.6231 159.796 22.3011C160.133 22.9792 160.301 23.7708 160.301 24.6761C160.301 25.5777 160.133 26.3655 159.796 27.0398C159.459 27.714 158.985 28.2386 158.375 28.6136C157.765 28.9886 157.051 29.1761 156.233 29.1761ZM156.239 27.75C156.769 27.75 157.209 27.6098 157.557 27.3295C157.906 27.0492 158.163 26.6761 158.33 26.2102C158.5 25.7443 158.585 25.2311 158.585 24.6705C158.585 24.1136 158.5 23.6023 158.33 23.1364C158.163 22.6667 157.906 22.2898 157.557 22.0057C157.209 21.7216 156.769 21.5795 156.239 21.5795C155.705 21.5795 155.262 21.7216 154.909 22.0057C154.561 22.2898 154.301 22.6667 154.131 23.1364C153.964 23.6023 153.881 24.1136 153.881 24.6705C153.881 25.2311 153.964 25.7443 154.131 26.2102C154.301 26.6761 154.561 27.0492 154.909 27.3295C155.262 27.6098 155.705 27.75 156.239 27.75ZM162.118 32.2727V20.2727H163.777V21.6875H163.919C164.017 21.5057 164.159 21.2955 164.345 21.0568C164.531 20.8182 164.788 20.6098 165.118 20.4318C165.447 20.25 165.883 20.1591 166.424 20.1591C167.129 20.1591 167.758 20.3371 168.311 20.6932C168.864 21.0492 169.298 21.5625 169.612 22.233C169.93 22.9034 170.089 23.7102 170.089 24.6534C170.089 25.5966 169.932 26.4053 169.618 27.0795C169.303 27.75 168.871 28.267 168.322 28.6307C167.773 28.9905 167.146 29.1705 166.442 29.1705C165.911 29.1705 165.478 29.0814 165.14 28.9034C164.807 28.7254 164.546 28.517 164.356 28.2784C164.167 28.0398 164.021 27.8277 163.919 27.642H163.817V32.2727H162.118ZM163.782 24.6364C163.782 25.25 163.871 25.7879 164.049 26.25C164.228 26.7121 164.485 27.0739 164.822 27.3352C165.159 27.5928 165.572 27.7216 166.061 27.7216C166.568 27.7216 166.993 27.5871 167.334 27.3182C167.674 27.0455 167.932 26.6761 168.106 26.2102C168.284 25.7443 168.373 25.2197 168.373 24.6364C168.373 24.0606 168.286 23.5436 168.112 23.0852C167.942 22.6269 167.684 22.2652 167.339 22C166.998 21.7348 166.572 21.6023 166.061 21.6023C165.568 21.6023 165.152 21.7292 164.811 21.983C164.474 22.2367 164.218 22.5909 164.044 23.0455C163.87 23.5 163.782 24.0303 163.782 24.6364ZM171.396 26.6932H173.134C173.157 27.0492 173.318 27.3239 173.617 27.517C173.92 27.7102 174.312 27.8068 174.793 27.8068C175.282 27.8068 175.699 27.7027 176.043 27.4943C176.388 27.2822 176.56 26.9545 176.56 26.5114C176.56 26.2462 176.494 26.0152 176.362 25.8182C176.233 25.6174 176.049 25.4621 175.81 25.3523C175.576 25.2424 175.297 25.1875 174.975 25.1875H173.555V23.8523H174.975C175.456 23.8523 175.816 23.7424 176.055 23.5227C176.293 23.303 176.413 23.0284 176.413 22.6989C176.413 22.3428 176.284 22.0568 176.026 21.8409C175.773 21.6212 175.418 21.5114 174.964 21.5114C174.502 21.5114 174.117 21.6155 173.81 21.8239C173.504 22.0284 173.343 22.2936 173.327 22.6193H171.612C171.623 22.1307 171.771 21.7027 172.055 21.3352C172.343 20.964 172.729 20.6761 173.214 20.4716C173.702 20.2633 174.257 20.1591 174.879 20.1591C175.526 20.1591 176.087 20.2633 176.56 20.4716C177.034 20.6799 177.399 20.9678 177.657 21.3352C177.918 21.7027 178.049 22.125 178.049 22.6023C178.049 23.0833 177.905 23.4773 177.617 23.7841C177.333 24.0871 176.962 24.3049 176.504 24.4375V24.5284C176.841 24.5511 177.14 24.6534 177.401 24.8352C177.663 25.017 177.867 25.2576 178.015 25.5568C178.163 25.8561 178.237 26.1951 178.237 26.5739C178.237 27.108 178.089 27.5701 177.793 27.9602C177.502 28.3504 177.096 28.6515 176.577 28.8636C176.062 29.072 175.473 29.1761 174.81 29.1761C174.166 29.1761 173.589 29.0758 173.077 28.875C172.57 28.6705 172.166 28.3826 171.867 28.0114C171.572 27.6402 171.415 27.2008 171.396 26.6932ZM181.576 26.6193L185.422 20.2727H187.252V29H185.587V22.6477L181.757 29H179.911V20.2727H181.576V26.6193ZM195.371 23.9034V25.375H190.643V23.9034H195.371ZM191.121 20.2727V29H189.456V20.2727H191.121ZM196.558 20.2727V29H194.899V20.2727H196.558ZM199.512 32.2727C199.258 32.2727 199.027 32.2519 198.819 32.2102C198.611 32.1723 198.455 32.1307 198.353 32.0852L198.762 30.6932C199.073 30.7765 199.349 30.8125 199.592 30.8011C199.834 30.7898 200.048 30.6989 200.234 30.5284C200.423 30.358 200.59 30.0795 200.734 29.6932L200.944 29.1136L197.751 20.2727H199.569L201.779 27.0455H201.87L204.08 20.2727H205.904L202.308 30.1648C202.141 30.6193 201.929 31.0038 201.671 31.3182C201.414 31.6364 201.107 31.875 200.751 32.0341C200.395 32.1932 199.982 32.2727 199.512 32.2727Z" fill="white"/>
</g>
<defs>
<filter id="filter0_d_531_1851" x="0" y="0" width="229" height="48" filterUnits="userSpaceOnUse" color-interpolation-filters="sRGB">
<feFlood flood-opacity="0" result="BackgroundImageFix"/>
<feColorMatrix in="SourceAlpha" type="matrix" values="0 0 0 0 0 0 0 0 0 0 0 0 0 0 0 0 0 0 127 0" result="hardAlpha"/>
<feOffset dy="1"/>
<feGaussianBlur stdDeviation="1"/>
<feComposite in2="hardAlpha" operator="out"/>
<feColorMatrix type="matrix" values="0 0 0 0 0 0 0 0 0 0 0 0 0 0 0 0 0 0 0.15 0"/>
<feBlend mode="normal" in2="BackgroundImageFix" result="effect1_dropShadow_531_1851"/>
<feBlend mode="normal" in="SourceGraphic" in2="effect1_dropShadow_531_1851" result="shape"/>
</filter>
<clipPath id="clip0_531_1851">
<rect width="20" height="20" fill="white" transform="translate(22 13)"/>
</clipPath>
</defs>
</svg>
