<svg width="80" height="80" viewBox="0 0 80 80" fill="none" xmlns="http://www.w3.org/2000/svg">
<g clip-path="url(#clip0_488_550)">
<path d="M39.8265 80.0298L38.6465 79.5064C37.3332 78.9298 6.6665 65.0798 6.6665 39.9998V18.2531C6.66767 16.1604 7.32912 14.1213 8.55664 12.4264C9.78416 10.7314 11.5152 9.46698 13.5032 8.81312L39.9998 0.0297852L66.4965 8.81312C68.4845 9.46698 70.2155 10.7314 71.443 12.4264C72.6705 14.1213 73.332 16.1604 73.3332 18.2531V39.9998C73.3332 68.5898 42.3732 79.1831 41.0532 79.6231L39.8265 80.0298ZM39.9998 7.01978L15.6132 15.1065C14.9497 15.3232 14.3717 15.7443 13.9622 16.3095C13.5526 16.8748 13.3324 17.5551 13.3332 18.2531V39.9998C13.3332 58.3131 34.7998 70.1931 40.1565 72.8698C45.5032 70.7198 66.6665 60.8764 66.6665 39.9998V18.2531C66.6672 17.5551 66.447 16.8748 66.0375 16.3095C65.6279 15.7443 65.05 15.3232 64.3865 15.1065L39.9998 7.01978Z" fill="#3C7CFB"/>
<path d="M37.0363 48.4732H36.9263C36.0827 48.4602 35.2503 48.2763 34.4797 47.9326C33.7091 47.5888 33.0163 47.0923 32.443 46.4732L24.7563 38.4732L29.5597 33.8665L37.0397 41.6665L54.3097 24.3965L59.023 29.1098L41.4863 46.6465C40.9022 47.2301 40.2082 47.6921 39.4443 48.0056C38.6805 48.3192 37.862 48.4781 37.0363 48.4732Z" fill="#3C7CFB"/>
</g>
<defs>
<clipPath id="clip0_488_550">
<rect width="80" height="80" fill="white"/>
</clipPath>
</defs>
</svg>
