<svg width="18" height="18" viewBox="0 0 18 18" fill="none" xmlns="http://www.w3.org/2000/svg">
<rect x="0.5" y="0.5" width="17" height="17" fill="white"/>
<g clip-path="url(#clip0_2_5)">
<path d="M14.4796 9C14.2267 8.9967 14.0126 9.18607 13.9851 9.43751C13.7517 12.1974 11.3252 14.2454 8.5653 14.012C5.80544 13.7786 3.75738 11.352 3.99082 8.59219C4.22426 5.83233 6.65076 3.78427 9.41062 4.01768C10.6055 4.11874 11.7247 4.64463 12.5651 5.49998H11.0041C10.728 5.49998 10.5041 5.72384 10.5041 5.99998C10.5041 6.27612 10.728 6.49997 11.0041 6.49997H13.0756C13.5883 6.49969 14.0038 6.08414 14.0041 5.57147V3.49999C14.0041 3.22385 13.7803 3 13.5041 3C13.228 3 13.0041 3.22385 13.0041 3.49999V4.539C10.5363 2.33379 6.74801 2.5467 4.54279 5.01455C2.33758 7.4824 2.55049 11.2706 5.01834 13.4759C7.48619 15.6811 11.2744 15.4682 13.4797 13.0003C14.3369 12.041 14.8626 10.8312 14.9791 9.54998C15.0048 9.27309 14.8012 9.02782 14.5243 9.00213C14.5094 9.00077 14.4945 9.00005 14.4796 9Z" fill="#17262B"/>
</g>
<rect x="0.5" y="0.5" width="17" height="17" stroke="#83A1AB"/>
<defs>
<clipPath id="clip0_2_5">
<rect width="12" height="12" fill="white" transform="translate(3 3)"/>
</clipPath>
</defs>
</svg>
