<svg width="166" height="20" viewBox="0 0 166 20" fill="none" xmlns="http://www.w3.org/2000/svg">
<g clip-path="url(#clip0_3306_5177)">
<path d="M14.6663 4.66667H11.333V3.33333C11.333 2.97971 11.1925 2.64057 10.9425 2.39052C10.6924 2.14048 10.3533 2 9.99967 2H5.99967C5.64605 2 5.30691 2.14048 5.05687 2.39052C4.80682 2.64057 4.66634 2.97971 4.66634 3.33333V4.66667H1.33301V6H2.66634V16C2.66634 16.5304 2.87705 17.0391 3.25213 17.4142C3.6272 17.7893 4.13591 18 4.66634 18H11.333C11.8634 18 12.3721 17.7893 12.7472 17.4142C13.1223 17.0391 13.333 16.5304 13.333 16V6H14.6663V4.66667ZM5.99967 3.33333H9.99967V4.66667H5.99967V3.33333ZM11.9997 16C11.9997 16.1768 11.9294 16.3464 11.8044 16.4714C11.6794 16.5964 11.5098 16.6667 11.333 16.6667H4.66634C4.48953 16.6667 4.31996 16.5964 4.19494 16.4714C4.06991 16.3464 3.99967 16.1768 3.99967 16V6H11.9997V16Z" fill="#666666"/>
<path d="M7.33333 8.6665H6V13.9998H7.33333V8.6665Z" fill="#666666"/>
<path d="M9.99935 8.6665H8.66602V13.9998H9.99935V8.6665Z" fill="#666666"/>
</g>
<path d="M23.7578 3.625L26.9922 12.2969L30.2266 3.625H32.0234L27.7031 15H26.2812L21.9688 3.625H23.7578ZM22.8516 3.625L23.1484 11.3516V15H21.1406V3.625H22.8516ZM32.8516 3.625V15H30.8359V11.3516L31.1406 3.625H32.8516ZM39.6231 9.28906C39.6231 8.85156 39.5007 8.5026 39.2559 8.24219C39.0164 7.98177 38.6518 7.85156 38.1622 7.85156C37.8705 7.85156 37.6153 7.90365 37.3966 8.00781C37.1778 8.10677 37.0085 8.24219 36.8888 8.41406C36.769 8.58594 36.7091 8.78125 36.7091 9H34.7716C34.7716 8.54688 34.9148 8.1224 35.2013 7.72656C35.4877 7.32552 35.8914 7.0026 36.4122 6.75781C36.9382 6.51302 37.558 6.39062 38.2716 6.39062C38.907 6.39062 39.4721 6.4974 39.9669 6.71094C40.4617 6.92448 40.8497 7.2474 41.1309 7.67969C41.4174 8.11198 41.5606 8.65365 41.5606 9.30469V13.0312C41.5606 13.4271 41.5893 13.776 41.6466 14.0781C41.7039 14.3802 41.7846 14.6432 41.8888 14.8672V15H39.9044C39.8158 14.7969 39.7455 14.5339 39.6934 14.2109C39.6466 13.888 39.6231 13.5729 39.6231 13.2656V9.28906ZM39.92 11.0469H38.5919C37.9044 11.0469 37.3861 11.1745 37.0372 11.4297C36.6934 11.6797 36.5216 12.0208 36.5216 12.4531C36.5216 12.7865 36.6361 13.0651 36.8653 13.2891C37.0945 13.5078 37.4174 13.6172 37.8341 13.6172C38.2143 13.6172 38.545 13.5417 38.8263 13.3906C39.1127 13.2344 39.3367 13.0443 39.4981 12.8203C39.6596 12.5911 39.7429 12.3776 39.7481 12.1797L40.3653 13.0469C40.3028 13.2604 40.196 13.4896 40.045 13.7344C39.8992 13.974 39.7039 14.2031 39.4591 14.4219C39.2195 14.6354 38.933 14.8125 38.5997 14.9531C38.2716 15.0885 37.8888 15.1562 37.4513 15.1562C36.8992 15.1562 36.407 15.0469 35.9747 14.8281C35.5424 14.6094 35.2013 14.3099 34.9513 13.9297C34.7065 13.5443 34.5841 13.112 34.5841 12.6328C34.5841 11.737 34.92 11.0495 35.5919 10.5703C36.2638 10.0911 37.2169 9.85156 38.4513 9.85156H39.9044L39.92 11.0469ZM45.3478 15H43.4103V3H45.3478V15ZM44.3869 10.4766C44.3921 9.6901 44.5301 8.98958 44.8009 8.375C45.077 7.76042 45.4624 7.27604 45.9572 6.92188C46.452 6.56771 47.0301 6.39062 47.6916 6.39062C48.2489 6.39062 48.7332 6.4974 49.1447 6.71094C49.5614 6.91927 49.8843 7.25781 50.1134 7.72656C50.3426 8.1901 50.4572 8.8099 50.4572 9.58594V15H48.5119V9.57031C48.5119 9.17448 48.4546 8.85938 48.34 8.625C48.2254 8.39062 48.0561 8.22396 47.8322 8.125C47.6134 8.02604 47.3452 7.97656 47.0275 7.97656C46.6942 7.97656 46.4025 8.04167 46.1525 8.17188C45.9025 8.29688 45.6916 8.47396 45.5197 8.70312C45.3478 8.93229 45.2202 9.19792 45.1369 9.5C45.0535 9.80208 45.0119 10.125 45.0119 10.4688L44.3869 10.4766ZM56.9866 12.6953C56.9866 12.5182 56.9397 12.3568 56.8459 12.2109C56.7574 12.0651 56.5829 11.9297 56.3225 11.8047C56.0621 11.6797 55.6793 11.5651 55.1741 11.4609C54.5751 11.3359 54.0465 11.1693 53.5881 10.9609C53.135 10.7526 52.7808 10.4844 52.5256 10.1562C52.2756 9.82812 52.1506 9.42708 52.1506 8.95312C52.1506 8.49479 52.2808 8.07292 52.5413 7.6875C52.8069 7.29688 53.1845 6.98438 53.6741 6.75C54.1689 6.51042 54.7522 6.39062 55.4241 6.39062C56.1324 6.39062 56.7418 6.51042 57.2522 6.75C57.7626 6.98438 58.1532 7.30469 58.4241 7.71094C58.7001 8.11198 58.8381 8.56771 58.8381 9.07812H56.9006C56.9006 8.74479 56.7756 8.45312 56.5256 8.20312C56.2808 7.94792 55.911 7.82031 55.4163 7.82031C55.109 7.82031 54.8511 7.86979 54.6428 7.96875C54.4397 8.06771 54.286 8.19531 54.1819 8.35156C54.0829 8.50781 54.0334 8.67969 54.0334 8.86719C54.0334 9.04948 54.0829 9.20833 54.1819 9.34375C54.286 9.47917 54.4605 9.59896 54.7053 9.70312C54.9553 9.80729 55.3043 9.90625 55.7522 10C56.398 10.1354 56.9553 10.3073 57.4241 10.5156C57.8928 10.7188 58.2522 10.9896 58.5022 11.3281C58.7574 11.6615 58.885 12.0859 58.885 12.6016C58.885 13.0964 58.7418 13.5365 58.4553 13.9219C58.1741 14.3073 57.7756 14.6094 57.26 14.8281C56.7496 15.0469 56.1454 15.1562 55.4475 15.1562C54.6715 15.1562 54.0178 15.0182 53.4866 14.7422C52.9553 14.4661 52.5517 14.1146 52.2756 13.6875C52.0048 13.2552 51.8694 12.8073 51.8694 12.3438H53.7366C53.7574 12.6771 53.8511 12.9453 54.0178 13.1484C54.1897 13.3516 54.4032 13.5 54.6584 13.5938C54.9189 13.6823 55.1897 13.7266 55.4709 13.7266C55.8043 13.7266 56.0803 13.6823 56.2991 13.5938C56.523 13.5052 56.6923 13.3854 56.8069 13.2344C56.9267 13.0781 56.9866 12.8984 56.9866 12.6953ZM65.5003 6.54688H67.4378V15H65.6097L65.5003 13V6.54688ZM66.4144 11.2188C66.4144 11.9792 66.3024 12.6562 66.0784 13.25C65.8545 13.8385 65.5055 14.3047 65.0316 14.6484C64.5576 14.987 63.943 15.1562 63.1878 15.1562C62.3545 15.1562 61.68 14.9115 61.1644 14.4219C60.6488 13.9323 60.3909 13.1276 60.3909 12.0078V6.54688H62.3284V12.0234C62.3284 12.4141 62.3883 12.724 62.5081 12.9531C62.6331 13.1771 62.7972 13.3359 63.0003 13.4297C63.2034 13.5234 63.4274 13.5703 63.6722 13.5703C64.1982 13.5703 64.6123 13.4688 64.9144 13.2656C65.2217 13.0573 65.4404 12.776 65.5706 12.4219C65.7008 12.0677 65.7659 11.6719 65.7659 11.2344L66.4144 11.2188ZM71.3266 15H69.3891V3H71.3266V15ZM72.9341 10.6953C72.9341 9.8724 73.0903 9.13802 73.4028 8.49219C73.7153 7.84635 74.1632 7.33594 74.7466 6.96094C75.3351 6.58073 76.0408 6.39062 76.8638 6.39062C77.6971 6.39062 78.408 6.58073 78.9966 6.96094C79.5851 7.33594 80.033 7.84635 80.3403 8.49219C80.6528 9.13802 80.8091 9.8724 80.8091 10.6953V10.8594C80.8091 11.6771 80.6528 12.4115 80.3403 13.0625C80.033 13.7083 79.5851 14.2188 78.9966 14.5938C78.4132 14.9688 77.7075 15.1562 76.8794 15.1562C76.0513 15.1562 75.3429 14.9688 74.7544 14.5938C74.1658 14.2188 73.7153 13.7083 73.4028 13.0625C73.0903 12.4115 72.9341 11.6771 72.9341 10.8594V10.6953ZM74.8716 10.8594C74.8716 11.3594 74.9419 11.8177 75.0825 12.2344C75.2231 12.6458 75.4393 12.9766 75.7309 13.2266C76.0278 13.4766 76.4106 13.6016 76.8794 13.6016C77.3429 13.6016 77.7205 13.4766 78.0122 13.2266C78.3091 12.9766 78.5252 12.6458 78.6606 12.2344C78.8013 11.8177 78.8716 11.3594 78.8716 10.8594V10.6953C78.8716 10.2005 78.8013 9.74479 78.6606 9.32812C78.5252 8.91146 78.3091 8.57812 78.0122 8.32812C77.7153 8.07292 77.3325 7.94531 76.8638 7.94531C76.4002 7.94531 76.02 8.07292 75.7231 8.32812C75.4315 8.57812 75.2153 8.91146 75.0747 9.32812C74.9393 9.74479 74.8716 10.2005 74.8716 10.6953V10.8594ZM86.19 7.97656H81.3931V6.54688H86.19V7.97656ZM84.69 4.47656V12.6172C84.69 12.8776 84.7265 13.0755 84.7994 13.2109C84.8723 13.3411 84.9765 13.4297 85.1119 13.4766C85.2473 13.5234 85.4035 13.5469 85.5806 13.5469C85.7108 13.5469 85.8358 13.5391 85.9556 13.5234C86.0754 13.5078 86.1718 13.4922 86.2447 13.4766V14.9688C86.0884 15.0208 85.9061 15.0651 85.6978 15.1016C85.4947 15.138 85.2551 15.1562 84.9791 15.1562C84.5468 15.1562 84.1614 15.0781 83.8228 14.9219C83.4895 14.7656 83.2265 14.513 83.0337 14.1641C82.8462 13.8099 82.7525 13.3411 82.7525 12.7578V4.47656H84.69ZM89.4538 15H87.5163V6.54688H89.3366L89.4538 8.35156V15ZM88.485 10.4766C88.4902 9.65885 88.6334 8.94531 88.9147 8.33594C89.1959 7.72135 89.5892 7.24479 90.0944 6.90625C90.5996 6.5625 91.1881 6.39062 91.86 6.39062C92.4069 6.39062 92.8808 6.49479 93.2819 6.70312C93.6829 6.90625 93.9954 7.23958 94.2194 7.70312C94.4433 8.16146 94.5553 8.77865 94.5553 9.55469V15H92.61V9.53906C92.61 9.14844 92.5527 8.83854 92.4381 8.60938C92.3288 8.38021 92.1621 8.21875 91.9381 8.125C91.7194 8.02604 91.4511 7.97656 91.1334 7.97656C90.8105 7.97656 90.5241 8.04167 90.2741 8.17188C90.0293 8.29688 89.8183 8.47396 89.6413 8.70312C89.4694 8.93229 89.3366 9.19792 89.2428 9.5C89.1543 9.80208 89.11 10.125 89.11 10.4688L88.485 10.4766ZM98.4441 15H96.5066V6.54688H98.4441V15ZM96.3816 4.33594C96.3816 4.03906 96.4779 3.79427 96.6706 3.60156C96.8633 3.40365 97.1316 3.30469 97.4753 3.30469C97.8191 3.30469 98.0899 3.40365 98.2878 3.60156C98.4857 3.79427 98.5847 4.03906 98.5847 4.33594C98.5847 4.6276 98.4857 4.8724 98.2878 5.07031C98.0899 5.26302 97.8191 5.35938 97.4753 5.35938C97.1316 5.35938 96.8633 5.26302 96.6706 5.07031C96.4779 4.8724 96.3816 4.6276 96.3816 4.33594ZM103.956 10.6953C103.956 9.8724 104.112 9.13802 104.425 8.49219C104.737 7.84635 105.185 7.33594 105.768 6.96094C106.357 6.58073 107.063 6.39062 107.886 6.39062C108.719 6.39062 109.43 6.58073 110.018 6.96094C110.607 7.33594 111.055 7.84635 111.362 8.49219C111.675 9.13802 111.831 9.8724 111.831 10.6953V10.8594C111.831 11.6771 111.675 12.4115 111.362 13.0625C111.055 13.7083 110.607 14.2188 110.018 14.5938C109.435 14.9688 108.729 15.1562 107.901 15.1562C107.073 15.1562 106.365 14.9688 105.776 14.5938C105.188 14.2188 104.737 13.7083 104.425 13.0625C104.112 12.4115 103.956 11.6771 103.956 10.8594V10.6953ZM105.893 10.8594C105.893 11.3594 105.964 11.8177 106.104 12.2344C106.245 12.6458 106.461 12.9766 106.753 13.2266C107.05 13.4766 107.433 13.6016 107.901 13.6016C108.365 13.6016 108.742 13.4766 109.034 13.2266C109.331 12.9766 109.547 12.6458 109.683 12.2344C109.823 11.8177 109.893 11.3594 109.893 10.8594V10.6953C109.893 10.2005 109.823 9.74479 109.683 9.32812C109.547 8.91146 109.331 8.57812 109.034 8.32812C108.737 8.07292 108.354 7.94531 107.886 7.94531C107.422 7.94531 107.042 8.07292 106.745 8.32812C106.453 8.57812 106.237 8.91146 106.097 9.32812C105.961 9.74479 105.893 10.2005 105.893 10.6953V10.8594ZM116.501 5.36719H114.892L112.782 3H114.962L116.501 5.36719ZM121.874 13.6016C122.176 13.6016 122.45 13.5417 122.694 13.4219C122.939 13.2969 123.134 13.1276 123.28 12.9141C123.426 12.7005 123.507 12.4557 123.522 12.1797H125.351C125.335 12.737 125.171 13.2396 124.858 13.6875C124.546 14.1354 124.132 14.4922 123.616 14.7578C123.101 15.0234 122.525 15.1562 121.89 15.1562C121.03 15.1562 120.314 14.9661 119.741 14.5859C119.174 14.2005 118.749 13.6875 118.468 13.0469C118.187 12.401 118.046 11.6875 118.046 10.9062V10.6406C118.046 9.85938 118.187 9.14844 118.468 8.50781C118.749 7.86198 119.174 7.34896 119.741 6.96875C120.314 6.58333 121.03 6.39062 121.89 6.39062C122.572 6.39062 123.168 6.52604 123.679 6.79688C124.194 7.0625 124.598 7.4349 124.89 7.91406C125.181 8.39323 125.335 8.95312 125.351 9.59375H123.522C123.507 9.29167 123.431 9.01562 123.296 8.76562C123.166 8.51562 122.978 8.31771 122.733 8.17188C122.494 8.02083 122.205 7.94531 121.866 7.94531C121.366 7.94531 120.978 8.07552 120.702 8.33594C120.431 8.59635 120.244 8.93229 120.14 9.34375C120.036 9.75521 119.983 10.1875 119.983 10.6406V10.9062C119.983 11.3646 120.033 11.7995 120.132 12.2109C120.236 12.6224 120.426 12.9583 120.702 13.2188C120.978 13.474 121.369 13.6016 121.874 13.6016ZM128.607 15H126.669V3H128.607V15ZM127.646 10.4766C127.651 9.6901 127.789 8.98958 128.06 8.375C128.336 7.76042 128.721 7.27604 129.216 6.92188C129.711 6.56771 130.289 6.39062 130.95 6.39062C131.508 6.39062 131.992 6.4974 132.403 6.71094C132.82 6.91927 133.143 7.25781 133.372 7.72656C133.601 8.1901 133.716 8.8099 133.716 9.58594V15H131.771V9.57031C131.771 9.17448 131.713 8.85938 131.599 8.625C131.484 8.39062 131.315 8.22396 131.091 8.125C130.872 8.02604 130.604 7.97656 130.286 7.97656C129.953 7.97656 129.661 8.04167 129.411 8.17188C129.161 8.29688 128.95 8.47396 128.778 8.70312C128.607 8.93229 128.479 9.19792 128.396 9.5C128.312 9.80208 128.271 10.125 128.271 10.4688L127.646 10.4766ZM137.589 15H135.652V6.54688H137.589V15ZM135.527 4.33594C135.527 4.03906 135.623 3.79427 135.816 3.60156C136.008 3.40365 136.277 3.30469 136.62 3.30469C136.964 3.30469 137.235 3.40365 137.433 3.60156C137.631 3.79427 137.73 4.03906 137.73 4.33594C137.73 4.6276 137.631 4.8724 137.433 5.07031C137.235 5.26302 136.964 5.35938 136.62 5.35938C136.277 5.35938 136.008 5.26302 135.816 5.07031C135.623 4.8724 135.527 4.6276 135.527 4.33594ZM141.493 15H139.556V6.54688H141.4L141.493 8.20312V15ZM144.04 8.32812C143.921 8.30729 143.793 8.29167 143.658 8.28125C143.527 8.27083 143.397 8.26562 143.267 8.26562C142.84 8.26562 142.483 8.34375 142.197 8.5C141.915 8.65104 141.702 8.86979 141.556 9.15625C141.41 9.4375 141.324 9.77083 141.298 10.1562L140.853 10.1641C140.853 9.45052 140.947 8.8099 141.134 8.24219C141.322 7.67448 141.603 7.22396 141.978 6.89062C142.353 6.55729 142.822 6.39062 143.384 6.39062C143.493 6.39062 143.616 6.40104 143.751 6.42188C143.887 6.44271 143.988 6.46615 144.056 6.49219L144.04 8.32812ZM147.21 15H145.273V6.54688H147.21V15ZM145.148 4.33594C145.148 4.03906 145.244 3.79427 145.437 3.60156C145.63 3.40365 145.898 3.30469 146.242 3.30469C146.585 3.30469 146.856 3.40365 147.054 3.60156C147.252 3.79427 147.351 4.03906 147.351 4.33594C147.351 4.6276 147.252 4.8724 147.054 5.07031C146.856 5.26302 146.585 5.35938 146.242 5.35938C145.898 5.35938 145.63 5.26302 145.437 5.07031C145.244 4.8724 145.148 4.6276 145.148 4.33594ZM153.896 12.6953C153.896 12.5182 153.849 12.3568 153.755 12.2109C153.667 12.0651 153.492 11.9297 153.232 11.8047C152.971 11.6797 152.589 11.5651 152.083 11.4609C151.484 11.3359 150.956 11.1693 150.497 10.9609C150.044 10.7526 149.69 10.4844 149.435 10.1562C149.185 9.82812 149.06 9.42708 149.06 8.95312C149.06 8.49479 149.19 8.07292 149.451 7.6875C149.716 7.29688 150.094 6.98438 150.583 6.75C151.078 6.51042 151.662 6.39062 152.333 6.39062C153.042 6.39062 153.651 6.51042 154.162 6.75C154.672 6.98438 155.063 7.30469 155.333 7.71094C155.609 8.11198 155.747 8.56771 155.747 9.07812H153.81C153.81 8.74479 153.685 8.45312 153.435 8.20312C153.19 7.94792 152.82 7.82031 152.326 7.82031C152.018 7.82031 151.761 7.86979 151.552 7.96875C151.349 8.06771 151.195 8.19531 151.091 8.35156C150.992 8.50781 150.943 8.67969 150.943 8.86719C150.943 9.04948 150.992 9.20833 151.091 9.34375C151.195 9.47917 151.37 9.59896 151.615 9.70312C151.865 9.80729 152.214 9.90625 152.662 10C153.307 10.1354 153.865 10.3073 154.333 10.5156C154.802 10.7188 155.162 10.9896 155.412 11.3281C155.667 11.6615 155.794 12.0859 155.794 12.6016C155.794 13.0964 155.651 13.5365 155.365 13.9219C155.083 14.3073 154.685 14.6094 154.169 14.8281C153.659 15.0469 153.055 15.1562 152.357 15.1562C151.581 15.1562 150.927 15.0182 150.396 14.7422C149.865 14.4661 149.461 14.1146 149.185 13.6875C148.914 13.2552 148.779 12.8073 148.779 12.3438H150.646C150.667 12.6771 150.761 12.9453 150.927 13.1484C151.099 13.3516 151.313 13.5 151.568 13.5938C151.828 13.6823 152.099 13.7266 152.38 13.7266C152.714 13.7266 152.99 13.6823 153.208 13.5938C153.432 13.5052 153.602 13.3854 153.716 13.2344C153.836 13.0781 153.896 12.8984 153.896 12.6953ZM159.253 15H157.316V3H159.253V15ZM158.292 10.4766C158.298 9.6901 158.436 8.98958 158.707 8.375C158.983 7.76042 159.368 7.27604 159.863 6.92188C160.358 6.56771 160.936 6.39062 161.597 6.39062C162.154 6.39062 162.639 6.4974 163.05 6.71094C163.467 6.91927 163.79 7.25781 164.019 7.72656C164.248 8.1901 164.363 8.8099 164.363 9.58594V15H162.417V9.57031C162.417 9.17448 162.36 8.85938 162.246 8.625C162.131 8.39062 161.962 8.22396 161.738 8.125C161.519 8.02604 161.251 7.97656 160.933 7.97656C160.6 7.97656 160.308 8.04167 160.058 8.17188C159.808 8.29688 159.597 8.47396 159.425 8.70312C159.253 8.93229 159.126 9.19792 159.042 9.5C158.959 9.80208 158.917 10.125 158.917 10.4688L158.292 10.4766Z" fill="#666666"/>
<defs>
<clipPath id="clip0_3306_5177">
<rect width="16" height="16" fill="white" transform="translate(0 2)"/>
</clipPath>
</defs>
</svg>
