<svg width="446" height="44" viewBox="0 0 446 44" fill="none" xmlns="http://www.w3.org/2000/svg">
<rect width="192" height="44" transform="translate(0.345703)" fill="white"/>
<path d="M34.7207 16.3636V28H32.9707V17.8636H27.4934V28H25.7434V16.3636H34.7207ZM37.269 31.2727V19.2727H38.9281V20.6875H39.0701C39.1686 20.5057 39.3107 20.2955 39.4963 20.0568C39.6819 19.8182 39.9395 19.6098 40.269 19.4318C40.5985 19.25 41.0342 19.1591 41.5758 19.1591C42.2804 19.1591 42.9092 19.3371 43.4622 19.6932C44.0152 20.0492 44.4489 20.5625 44.7633 21.233C45.0815 21.9034 45.2406 22.7102 45.2406 23.6534C45.2406 24.5966 45.0834 25.4053 44.769 26.0795C44.4546 26.75 44.0228 27.267 43.4735 27.6307C42.9243 27.9905 42.2974 28.1705 41.5929 28.1705C41.0626 28.1705 40.6288 28.0814 40.2917 27.9034C39.9584 27.7254 39.697 27.517 39.5076 27.2784C39.3182 27.0398 39.1724 26.8277 39.0701 26.642H38.9679V31.2727H37.269ZM38.9338 23.6364C38.9338 24.25 39.0228 24.7879 39.2008 25.25C39.3788 25.7121 39.6364 26.0739 39.9735 26.3352C40.3107 26.5928 40.7235 26.7216 41.2122 26.7216C41.7198 26.7216 42.144 26.5871 42.4849 26.3182C42.8258 26.0455 43.0834 25.6761 43.2576 25.2102C43.4357 24.7443 43.5247 24.2197 43.5247 23.6364C43.5247 23.0606 43.4376 22.5436 43.2633 22.0852C43.0929 21.6269 42.8353 21.2652 42.4906 21C42.1497 20.7348 41.7235 20.6023 41.2122 20.6023C40.7198 20.6023 40.3031 20.7292 39.9622 20.983C39.6251 21.2367 39.3694 21.5909 39.1951 22.0455C39.0209 22.5 38.9338 23.0303 38.9338 23.6364ZM49.6838 28.1932C49.1307 28.1932 48.6307 28.0909 48.1838 27.8864C47.7368 27.678 47.3826 27.3769 47.1213 26.983C46.8637 26.589 46.7349 26.1061 46.7349 25.5341C46.7349 25.0417 46.8296 24.6364 47.019 24.3182C47.2084 24 47.4641 23.7481 47.786 23.5625C48.108 23.3769 48.4679 23.2367 48.8656 23.142C49.2633 23.0473 49.6686 22.9754 50.0815 22.9261C50.6042 22.8655 51.0285 22.8163 51.3542 22.7784C51.68 22.7367 51.9167 22.6705 52.0645 22.5795C52.2122 22.4886 52.286 22.3409 52.286 22.1364V22.0966C52.286 21.6004 52.1459 21.2159 51.8656 20.9432C51.5891 20.6705 51.1762 20.5341 50.627 20.5341C50.055 20.5341 49.6042 20.661 49.2747 20.9148C48.9489 21.1648 48.7235 21.4432 48.5985 21.75L47.002 21.3864C47.1913 20.8561 47.4679 20.428 47.8315 20.1023C48.1989 19.7727 48.6213 19.5341 49.0985 19.3864C49.5758 19.2348 50.0777 19.1591 50.6042 19.1591C50.9527 19.1591 51.322 19.2008 51.7122 19.2841C52.1061 19.3636 52.4735 19.5114 52.8145 19.7273C53.1592 19.9432 53.4413 20.2519 53.661 20.6534C53.8807 21.0511 53.9906 21.5682 53.9906 22.2045V28H52.3315V26.8068H52.2633C52.1535 27.0265 51.9887 27.2424 51.769 27.4545C51.5493 27.6667 51.2671 27.8428 50.9224 27.983C50.5777 28.1231 50.1648 28.1932 49.6838 28.1932ZM50.0531 26.8295C50.5228 26.8295 50.9243 26.7367 51.2576 26.5511C51.5948 26.3655 51.8504 26.1231 52.0247 25.8239C52.2027 25.5208 52.2917 25.197 52.2917 24.8523V23.7273C52.2311 23.7879 52.1137 23.8447 51.9395 23.8977C51.769 23.947 51.5739 23.9905 51.3542 24.0284C51.1345 24.0625 50.9205 24.0947 50.7122 24.125C50.5038 24.1515 50.3296 24.1742 50.1895 24.1932C49.8599 24.2348 49.5588 24.3049 49.286 24.4034C49.0171 24.5019 48.8012 24.6439 48.6383 24.8295C48.4792 25.0114 48.3997 25.2538 48.3997 25.5568C48.3997 25.9773 48.555 26.2955 48.8656 26.5114C49.1762 26.7235 49.572 26.8295 50.0531 26.8295ZM56.2534 28V19.2727H59.8727C60.8575 19.2727 61.6378 19.483 62.2136 19.9034C62.7894 20.3201 63.0772 20.8864 63.0772 21.6023C63.0772 22.1136 62.9144 22.5189 62.5886 22.8182C62.2628 23.1174 61.831 23.3182 61.2931 23.4205C61.6833 23.4659 62.0413 23.5833 62.367 23.7727C62.6928 23.9583 62.9541 24.2083 63.1511 24.5227C63.3519 24.8371 63.4522 25.2121 63.4522 25.6477C63.4522 26.1098 63.3329 26.5189 63.0943 26.875C62.8556 27.2273 62.5091 27.5038 62.0545 27.7045C61.6038 27.9015 61.0602 28 60.4238 28H56.2534ZM57.85 26.5795H60.4238C60.8443 26.5795 61.1738 26.4792 61.4125 26.2784C61.6511 26.0777 61.7704 25.8049 61.7704 25.4602C61.7704 25.0549 61.6511 24.7367 61.4125 24.5057C61.1738 24.2708 60.8443 24.1534 60.4238 24.1534H57.85V26.5795ZM57.85 22.9091H59.8897C60.2079 22.9091 60.4806 22.8636 60.7079 22.7727C60.939 22.6818 61.1151 22.553 61.2363 22.3864C61.3613 22.2159 61.4238 22.0152 61.4238 21.7841C61.4238 21.447 61.2856 21.1837 61.0091 20.9943C60.7325 20.8049 60.3538 20.7102 59.8727 20.7102H57.85V22.9091ZM66.9806 25.6193L70.8272 19.2727H72.6568V28H70.992V21.6477L67.1625 28H65.3159V19.2727H66.9806V25.6193ZM74.2534 28L74.2477 26.5284H74.5602C74.8026 26.5284 75.0053 26.4773 75.1681 26.375C75.3348 26.2689 75.4712 26.0909 75.5772 25.8409C75.6833 25.5909 75.7647 25.2462 75.8216 24.8068C75.8784 24.3636 75.92 23.8068 75.9466 23.1364L76.1 19.2727H82.1909V28H80.5261V20.7386H77.6738L77.5375 23.7045C77.5034 24.4242 77.4295 25.053 77.3159 25.5909C77.206 26.1288 77.045 26.5777 76.8329 26.9375C76.6208 27.2936 76.3481 27.5606 76.0147 27.7386C75.6814 27.9129 75.2761 28 74.7988 28H74.2534ZM86.9963 28.1932C86.4432 28.1932 85.9432 28.0909 85.4963 27.8864C85.0493 27.678 84.6951 27.3769 84.4338 26.983C84.1762 26.589 84.0474 26.1061 84.0474 25.5341C84.0474 25.0417 84.1421 24.6364 84.3315 24.3182C84.5209 24 84.7766 23.7481 85.0985 23.5625C85.4205 23.3769 85.7804 23.2367 86.1781 23.142C86.5758 23.0473 86.9811 22.9754 87.394 22.9261C87.9167 22.8655 88.341 22.8163 88.6667 22.7784C88.9925 22.7367 89.2292 22.6705 89.377 22.5795C89.5247 22.4886 89.5985 22.3409 89.5985 22.1364V22.0966C89.5985 21.6004 89.4584 21.2159 89.1781 20.9432C88.9016 20.6705 88.4887 20.5341 87.9395 20.5341C87.3675 20.5341 86.9167 20.661 86.5872 20.9148C86.2614 21.1648 86.036 21.4432 85.911 21.75L84.3145 21.3864C84.5038 20.8561 84.7804 20.428 85.144 20.1023C85.5114 19.7727 85.9338 19.5341 86.411 19.3864C86.8883 19.2348 87.3902 19.1591 87.9167 19.1591C88.2652 19.1591 88.6345 19.2008 89.0247 19.2841C89.4186 19.3636 89.786 19.5114 90.127 19.7273C90.4717 19.9432 90.7538 20.2519 90.9735 20.6534C91.1932 21.0511 91.3031 21.5682 91.3031 22.2045V28H89.644V26.8068H89.5758C89.466 27.0265 89.3012 27.2424 89.0815 27.4545C88.8618 27.6667 88.5796 27.8428 88.2349 27.983C87.8902 28.1231 87.4773 28.1932 86.9963 28.1932ZM87.3656 26.8295C87.8353 26.8295 88.2368 26.7367 88.5701 26.5511C88.9073 26.3655 89.1629 26.1231 89.3372 25.8239C89.5152 25.5208 89.6042 25.197 89.6042 24.8523V23.7273C89.5436 23.7879 89.4262 23.8447 89.252 23.8977C89.0815 23.947 88.8864 23.9905 88.6667 24.0284C88.447 24.0625 88.233 24.0947 88.0247 24.125C87.8163 24.1515 87.6421 24.1742 87.502 24.1932C87.1724 24.2348 86.8713 24.3049 86.5985 24.4034C86.3296 24.5019 86.1137 24.6439 85.9508 24.8295C85.7917 25.0114 85.7122 25.2538 85.7122 25.5568C85.7122 25.9773 85.8675 26.2955 86.1781 26.5114C86.4887 26.7235 86.8845 26.8295 87.3656 26.8295ZM97.8002 28V19.2727H101.42C102.404 19.2727 103.185 19.483 103.76 19.9034C104.336 20.3201 104.624 20.8864 104.624 21.6023C104.624 22.1136 104.461 22.5189 104.135 22.8182C103.81 23.1174 103.378 23.3182 102.84 23.4205C103.23 23.4659 103.588 23.5833 103.914 23.7727C104.24 23.9583 104.501 24.2083 104.698 24.5227C104.899 24.8371 104.999 25.2121 104.999 25.6477C104.999 26.1098 104.88 26.5189 104.641 26.875C104.403 27.2273 104.056 27.5038 103.601 27.7045C103.151 27.9015 102.607 28 101.971 28H97.8002ZM99.3968 26.5795H101.971C102.391 26.5795 102.721 26.4792 102.959 26.2784C103.198 26.0777 103.317 25.8049 103.317 25.4602C103.317 25.0549 103.198 24.7367 102.959 24.5057C102.721 24.2708 102.391 24.1534 101.971 24.1534H99.3968V26.5795ZM99.3968 22.9091H101.437C101.755 22.9091 102.028 22.8636 102.255 22.7727C102.486 22.6818 102.662 22.553 102.783 22.3864C102.908 22.2159 102.971 22.0152 102.971 21.7841C102.971 21.447 102.832 21.1837 102.556 20.9943C102.279 20.8049 101.901 20.7102 101.42 20.7102H99.3968V22.9091ZM110.539 28.1761C109.721 28.1761 109.007 27.9886 108.397 27.6136C107.787 27.2386 107.314 26.714 106.976 26.0398C106.639 25.3655 106.471 24.5777 106.471 23.6761C106.471 22.7708 106.639 21.9792 106.976 21.3011C107.314 20.6231 107.787 20.0966 108.397 19.7216C109.007 19.3466 109.721 19.1591 110.539 19.1591C111.357 19.1591 112.071 19.3466 112.681 19.7216C113.291 20.0966 113.764 20.6231 114.101 21.3011C114.439 21.9792 114.607 22.7708 114.607 23.6761C114.607 24.5777 114.439 25.3655 114.101 26.0398C113.764 26.714 113.291 27.2386 112.681 27.6136C112.071 27.9886 111.357 28.1761 110.539 28.1761ZM110.545 26.75C111.075 26.75 111.514 26.6098 111.863 26.3295C112.211 26.0492 112.469 25.6761 112.635 25.2102C112.806 24.7443 112.891 24.2311 112.891 23.6705C112.891 23.1136 112.806 22.6023 112.635 22.1364C112.469 21.6667 112.211 21.2898 111.863 21.0057C111.514 20.7216 111.075 20.5795 110.545 20.5795C110.01 20.5795 109.567 20.7216 109.215 21.0057C108.867 21.2898 108.607 21.6667 108.437 22.1364C108.27 22.6023 108.187 23.1136 108.187 23.6705C108.187 24.2311 108.27 24.7443 108.437 25.2102C108.607 25.6761 108.867 26.0492 109.215 26.3295C109.567 26.6098 110.01 26.75 110.545 26.75ZM115.986 25.6932H117.725C117.748 26.0492 117.909 26.3239 118.208 26.517C118.511 26.7102 118.903 26.8068 119.384 26.8068C119.873 26.8068 120.289 26.7027 120.634 26.4943C120.979 26.2822 121.151 25.9545 121.151 25.5114C121.151 25.2462 121.085 25.0152 120.952 24.8182C120.823 24.6174 120.64 24.4621 120.401 24.3523C120.166 24.2424 119.888 24.1875 119.566 24.1875H118.145V22.8523H119.566C120.047 22.8523 120.407 22.7424 120.645 22.5227C120.884 22.303 121.003 22.0284 121.003 21.6989C121.003 21.3428 120.875 21.0568 120.617 20.8409C120.363 20.6212 120.009 20.5114 119.555 20.5114C119.092 20.5114 118.708 20.6155 118.401 20.8239C118.094 21.0284 117.933 21.2936 117.918 21.6193H116.202C116.214 21.1307 116.361 20.7027 116.645 20.3352C116.933 19.964 117.32 19.6761 117.805 19.4716C118.293 19.2633 118.848 19.1591 119.469 19.1591C120.117 19.1591 120.678 19.2633 121.151 19.4716C121.625 19.6799 121.99 19.9678 122.248 20.3352C122.509 20.7027 122.64 21.125 122.64 21.6023C122.64 22.0833 122.496 22.4773 122.208 22.7841C121.924 23.0871 121.553 23.3049 121.094 23.4375V23.5284C121.431 23.5511 121.731 23.6534 121.992 23.8352C122.253 24.017 122.458 24.2576 122.606 24.5568C122.753 24.8561 122.827 25.1951 122.827 25.5739C122.827 26.108 122.68 26.5701 122.384 26.9602C122.092 27.3504 121.687 27.6515 121.168 27.8636C120.653 28.072 120.064 28.1761 119.401 28.1761C118.757 28.1761 118.18 28.0758 117.668 27.875C117.161 27.6705 116.757 27.3826 116.458 27.0114C116.162 26.6402 116.005 26.2008 115.986 25.6932ZM124.581 28V19.2727H128.201C129.186 19.2727 129.966 19.483 130.542 19.9034C131.117 20.3201 131.405 20.8864 131.405 21.6023C131.405 22.1136 131.242 22.5189 130.917 22.8182C130.591 23.1174 130.159 23.3182 129.621 23.4205C130.011 23.4659 130.369 23.5833 130.695 23.7727C131.021 23.9583 131.282 24.2083 131.479 24.5227C131.68 24.8371 131.78 25.2121 131.78 25.6477C131.78 26.1098 131.661 26.5189 131.422 26.875C131.184 27.2273 130.837 27.5038 130.383 27.7045C129.932 27.9015 129.388 28 128.752 28H124.581ZM126.178 26.5795H128.752C129.172 26.5795 129.502 26.4792 129.741 26.2784C129.979 26.0777 130.099 25.8049 130.099 25.4602C130.099 25.0549 129.979 24.7367 129.741 24.5057C129.502 24.2708 129.172 24.1534 128.752 24.1534H126.178V26.5795ZM126.178 22.9091H128.218C128.536 22.9091 128.809 22.8636 129.036 22.7727C129.267 22.6818 129.443 22.553 129.564 22.3864C129.689 22.2159 129.752 22.0152 129.752 21.7841C129.752 21.447 129.614 21.1837 129.337 20.9943C129.061 20.8049 128.682 20.7102 128.201 20.7102H126.178V22.9091ZM133.644 31.2727V19.2727H135.303V20.6875H135.445C135.544 20.5057 135.686 20.2955 135.871 20.0568C136.057 19.8182 136.314 19.6098 136.644 19.4318C136.974 19.25 137.409 19.1591 137.951 19.1591C138.655 19.1591 139.284 19.3371 139.837 19.6932C140.39 20.0492 140.824 20.5625 141.138 21.233C141.456 21.9034 141.616 22.7102 141.616 23.6534C141.616 24.5966 141.458 25.4053 141.144 26.0795C140.83 26.75 140.398 27.267 139.849 27.6307C139.299 27.9905 138.672 28.1705 137.968 28.1705C137.438 28.1705 137.004 28.0814 136.667 27.9034C136.333 27.7254 136.072 27.517 135.883 27.2784C135.693 27.0398 135.547 26.8277 135.445 26.642H135.343V31.2727H133.644ZM135.309 23.6364C135.309 24.25 135.398 24.7879 135.576 25.25C135.754 25.7121 136.011 26.0739 136.349 26.3352C136.686 26.5928 137.099 26.7216 137.587 26.7216C138.095 26.7216 138.519 26.5871 138.86 26.3182C139.201 26.0455 139.458 25.6761 139.633 25.2102C139.811 24.7443 139.9 24.2197 139.9 23.6364C139.9 23.0606 139.813 22.5436 139.638 22.0852C139.468 21.6269 139.21 21.2652 138.866 21C138.525 20.7348 138.099 20.6023 137.587 20.6023C137.095 20.6023 136.678 20.7292 136.337 20.983C136 21.2367 135.744 21.5909 135.57 22.0455C135.396 22.5 135.309 23.0303 135.309 23.6364ZM146.059 28.1932C145.506 28.1932 145.006 28.0909 144.559 27.8864C144.112 27.678 143.758 27.3769 143.496 26.983C143.239 26.589 143.11 26.1061 143.11 25.5341C143.11 25.0417 143.205 24.6364 143.394 24.3182C143.583 24 143.839 23.7481 144.161 23.5625C144.483 23.3769 144.843 23.2367 145.241 23.142C145.638 23.0473 146.044 22.9754 146.456 22.9261C146.979 22.8655 147.403 22.8163 147.729 22.7784C148.055 22.7367 148.292 22.6705 148.439 22.5795C148.587 22.4886 148.661 22.3409 148.661 22.1364V22.0966C148.661 21.6004 148.521 21.2159 148.241 20.9432C147.964 20.6705 147.551 20.5341 147.002 20.5341C146.43 20.5341 145.979 20.661 145.65 20.9148C145.324 21.1648 145.099 21.4432 144.974 21.75L143.377 21.3864C143.566 20.8561 143.843 20.428 144.206 20.1023C144.574 19.7727 144.996 19.5341 145.474 19.3864C145.951 19.2348 146.453 19.1591 146.979 19.1591C147.328 19.1591 147.697 19.2008 148.087 19.2841C148.481 19.3636 148.849 19.5114 149.189 19.7273C149.534 19.9432 149.816 20.2519 150.036 20.6534C150.256 21.0511 150.366 21.5682 150.366 22.2045V28H148.706V26.8068H148.638C148.528 27.0265 148.364 27.2424 148.144 27.4545C147.924 27.6667 147.642 27.8428 147.297 27.983C146.953 28.1231 146.54 28.1932 146.059 28.1932ZM146.428 26.8295C146.898 26.8295 147.299 26.7367 147.633 26.5511C147.97 26.3655 148.225 26.1231 148.4 25.8239C148.578 25.5208 148.667 25.197 148.667 24.8523V23.7273C148.606 23.7879 148.489 23.8447 148.314 23.8977C148.144 23.947 147.949 23.9905 147.729 24.0284C147.51 24.0625 147.296 24.0947 147.087 24.125C146.879 24.1515 146.705 24.1742 146.564 24.1932C146.235 24.2348 145.934 24.3049 145.661 24.4034C145.392 24.5019 145.176 24.6439 145.013 24.8295C144.854 25.0114 144.775 25.2538 144.775 25.5568C144.775 25.9773 144.93 26.2955 145.241 26.5114C145.551 26.7235 145.947 26.8295 146.428 26.8295ZM151.546 20.7386V19.2727H158.91V20.7386H156.063V28H154.404V20.7386H151.546ZM162.84 28.1932C162.287 28.1932 161.787 28.0909 161.34 27.8864C160.893 27.678 160.539 27.3769 160.278 26.983C160.02 26.589 159.891 26.1061 159.891 25.5341C159.891 25.0417 159.986 24.6364 160.175 24.3182C160.365 24 160.62 23.7481 160.942 23.5625C161.264 23.3769 161.624 23.2367 162.022 23.142C162.42 23.0473 162.825 22.9754 163.238 22.9261C163.76 22.8655 164.185 22.8163 164.51 22.7784C164.836 22.7367 165.073 22.6705 165.221 22.5795C165.368 22.4886 165.442 22.3409 165.442 22.1364V22.0966C165.442 21.6004 165.302 21.2159 165.022 20.9432C164.745 20.6705 164.332 20.5341 163.783 20.5341C163.211 20.5341 162.76 20.661 162.431 20.9148C162.105 21.1648 161.88 21.4432 161.755 21.75L160.158 21.3864C160.348 20.8561 160.624 20.428 160.988 20.1023C161.355 19.7727 161.778 19.5341 162.255 19.3864C162.732 19.2348 163.234 19.1591 163.76 19.1591C164.109 19.1591 164.478 19.2008 164.868 19.2841C165.262 19.3636 165.63 19.5114 165.971 19.7273C166.315 19.9432 166.598 20.2519 166.817 20.6534C167.037 21.0511 167.147 21.5682 167.147 22.2045V28H165.488V26.8068H165.42C165.31 27.0265 165.145 27.2424 164.925 27.4545C164.706 27.6667 164.423 27.8428 164.079 27.983C163.734 28.1231 163.321 28.1932 162.84 28.1932ZM163.209 26.8295C163.679 26.8295 164.081 26.7367 164.414 26.5511C164.751 26.3655 165.007 26.1231 165.181 25.8239C165.359 25.5208 165.448 25.197 165.448 24.8523V23.7273C165.387 23.7879 165.27 23.8447 165.096 23.8977C164.925 23.947 164.73 23.9905 164.51 24.0284C164.291 24.0625 164.077 24.0947 163.868 24.125C163.66 24.1515 163.486 24.1742 163.346 24.1932C163.016 24.2348 162.715 24.3049 162.442 24.4034C162.173 24.5019 161.957 24.6439 161.795 24.8295C161.635 25.0114 161.556 25.2538 161.556 25.5568C161.556 25.9773 161.711 26.2955 162.022 26.5114C162.332 26.7235 162.728 26.8295 163.209 26.8295Z" fill="#061127" fill-opacity="0.7"/>
<rect width="205" height="44" transform="translate(240.346)" fill="white"/>
<path d="M275.289 20.1477H273.516C273.448 19.7689 273.321 19.4356 273.135 19.1477C272.95 18.8598 272.723 18.6155 272.454 18.4148C272.185 18.214 271.884 18.0625 271.55 17.9602C271.221 17.858 270.87 17.8068 270.499 17.8068C269.829 17.8068 269.228 17.9754 268.698 18.3125C268.171 18.6496 267.755 19.1439 267.448 19.7955C267.145 20.447 266.993 21.2424 266.993 22.1818C266.993 23.1288 267.145 23.928 267.448 24.5795C267.755 25.2311 268.173 25.7235 268.704 26.0568C269.234 26.3902 269.831 26.5568 270.493 26.5568C270.861 26.5568 271.209 26.5076 271.539 26.4091C271.872 26.3068 272.173 26.1572 272.442 25.9602C272.711 25.7633 272.939 25.5227 273.124 25.2386C273.314 24.9508 273.444 24.6212 273.516 24.25L275.289 24.2557C275.194 24.8277 275.01 25.3542 274.738 25.8352C274.469 26.3125 274.122 26.7254 273.698 27.0739C273.278 27.4186 272.796 27.6856 272.255 27.875C271.713 28.0644 271.122 28.1591 270.482 28.1591C269.474 28.1591 268.577 27.9205 267.789 27.4432C267.001 26.9621 266.38 26.2746 265.925 25.3807C265.474 24.4867 265.249 23.4205 265.249 22.1818C265.249 20.9394 265.476 19.8731 265.931 18.983C266.385 18.089 267.007 17.4034 267.795 16.9261C268.582 16.4451 269.478 16.2045 270.482 16.2045C271.099 16.2045 271.675 16.2936 272.209 16.4716C272.747 16.6458 273.23 16.9034 273.658 17.2443C274.086 17.5814 274.44 17.9943 274.721 18.483C275.001 18.9678 275.19 19.5227 275.289 20.1477ZM276.566 28L276.56 26.5284H276.873C277.115 26.5284 277.318 26.4773 277.481 26.375C277.647 26.2689 277.784 26.0909 277.89 25.8409C277.996 25.5909 278.077 25.2462 278.134 24.8068C278.191 24.3636 278.233 23.8068 278.259 23.1364L278.412 19.2727H284.503V28H282.839V20.7386H279.986L279.85 23.7045C279.816 24.4242 279.742 25.053 279.628 25.5909C279.519 26.1288 279.358 26.5777 279.145 26.9375C278.933 27.2936 278.661 27.5606 278.327 27.7386C277.994 27.9129 277.589 28 277.111 28H276.566ZM287.53 31.2727C287.277 31.2727 287.046 31.2519 286.837 31.2102C286.629 31.1723 286.474 31.1307 286.371 31.0852L286.78 29.6932C287.091 29.7765 287.367 29.8125 287.61 29.8011C287.852 29.7898 288.066 29.6989 288.252 29.5284C288.441 29.358 288.608 29.0795 288.752 28.6932L288.962 28.1136L285.769 19.2727H287.587L289.797 26.0455H289.888L292.099 19.2727H293.922L290.326 29.1648C290.159 29.6193 289.947 30.0038 289.689 30.3182C289.432 30.6364 289.125 30.875 288.769 31.0341C288.413 31.1932 288 31.2727 287.53 31.2727ZM294.962 28L298.343 23.5341L295.002 19.2727H296.979L299.678 22.8977H300.286V19.2727H301.985V22.8977H302.576L305.275 19.2727H307.252L303.928 23.5341L307.292 28H305.275L302.553 24.3636H301.985V28H300.286V24.3636H299.718L296.979 28H294.962ZM315.752 16.0227L316.456 17.0966C316.195 17.3352 315.898 17.5057 315.564 17.608C315.235 17.7064 314.854 17.7689 314.422 17.7955C313.991 17.8182 313.496 17.839 312.939 17.858C312.311 17.8769 311.794 18.0133 311.388 18.267C310.983 18.517 310.671 18.8883 310.451 19.3807C310.235 19.8693 310.095 20.483 310.03 21.2216H310.138C310.422 20.6799 310.816 20.2746 311.32 20.0057C311.828 19.7367 312.398 19.6023 313.03 19.6023C313.735 19.6023 314.362 19.7633 314.911 20.0852C315.46 20.4072 315.892 20.8788 316.206 21.5C316.525 22.1174 316.684 22.8731 316.684 23.767C316.684 24.6723 316.517 25.4545 316.184 26.1136C315.854 26.7727 315.388 27.2822 314.786 27.642C314.188 27.9981 313.481 28.1761 312.667 28.1761C311.852 28.1761 311.142 27.9924 310.536 27.625C309.934 27.2538 309.466 26.7045 309.133 25.9773C308.803 25.25 308.638 24.3523 308.638 23.2841V22.4205C308.638 20.4242 308.994 18.9223 309.706 17.9148C310.419 16.9072 311.483 16.3902 312.9 16.3636C313.358 16.3523 313.767 16.3504 314.127 16.358C314.487 16.3617 314.801 16.3447 315.07 16.3068C315.343 16.2652 315.57 16.1705 315.752 16.0227ZM312.672 26.75C313.146 26.75 313.553 26.6307 313.894 26.392C314.239 26.1496 314.504 25.8068 314.689 25.3636C314.875 24.9205 314.968 24.3977 314.968 23.7955C314.968 23.2045 314.875 22.7027 314.689 22.2898C314.504 21.8769 314.239 21.5625 313.894 21.3466C313.549 21.1269 313.136 21.017 312.655 21.017C312.299 21.017 311.981 21.0795 311.701 21.2045C311.421 21.3258 311.18 21.5057 310.979 21.7443C310.782 21.983 310.629 22.2746 310.519 22.6193C310.413 22.9602 310.356 23.3523 310.349 23.7955C310.349 24.697 310.555 25.4148 310.968 25.9489C311.385 26.483 311.953 26.75 312.672 26.75ZM321.121 28.1932C320.568 28.1932 320.068 28.0909 319.621 27.8864C319.174 27.678 318.82 27.3769 318.559 26.983C318.301 26.589 318.172 26.1061 318.172 25.5341C318.172 25.0417 318.267 24.6364 318.456 24.3182C318.646 24 318.902 23.7481 319.224 23.5625C319.546 23.3769 319.905 23.2367 320.303 23.142C320.701 23.0473 321.106 22.9754 321.519 22.9261C322.042 22.8655 322.466 22.8163 322.792 22.7784C323.117 22.7367 323.354 22.6705 323.502 22.5795C323.65 22.4886 323.724 22.3409 323.724 22.1364V22.0966C323.724 21.6004 323.583 21.2159 323.303 20.9432C323.027 20.6705 322.614 20.5341 322.064 20.5341C321.492 20.5341 321.042 20.661 320.712 20.9148C320.386 21.1648 320.161 21.4432 320.036 21.75L318.439 21.3864C318.629 20.8561 318.905 20.428 319.269 20.1023C319.636 19.7727 320.059 19.5341 320.536 19.3864C321.013 19.2348 321.515 19.1591 322.042 19.1591C322.39 19.1591 322.76 19.2008 323.15 19.2841C323.544 19.3636 323.911 19.5114 324.252 19.7273C324.597 19.9432 324.879 20.2519 325.099 20.6534C325.318 21.0511 325.428 21.5682 325.428 22.2045V28H323.769V26.8068H323.701C323.591 27.0265 323.426 27.2424 323.206 27.4545C322.987 27.6667 322.705 27.8428 322.36 27.983C322.015 28.1231 321.602 28.1932 321.121 28.1932ZM321.491 26.8295C321.96 26.8295 322.362 26.7367 322.695 26.5511C323.032 26.3655 323.288 26.1231 323.462 25.8239C323.64 25.5208 323.729 25.197 323.729 24.8523V23.7273C323.669 23.7879 323.551 23.8447 323.377 23.8977C323.206 23.947 323.011 23.9905 322.792 24.0284C322.572 24.0625 322.358 24.0947 322.15 24.125C321.941 24.1515 321.767 24.1742 321.627 24.1932C321.297 24.2348 320.996 24.3049 320.724 24.4034C320.455 24.5019 320.239 24.6439 320.076 24.8295C319.917 25.0114 319.837 25.2538 319.837 25.5568C319.837 25.9773 319.992 26.2955 320.303 26.5114C320.614 26.7235 321.01 26.8295 321.491 26.8295ZM331.925 28V19.2727H339.045V28H337.38V20.7386H333.579V28H331.925ZM344.992 28.1761C344.174 28.1761 343.46 27.9886 342.85 27.6136C342.24 27.2386 341.767 26.714 341.43 26.0398C341.092 25.3655 340.924 24.5777 340.924 23.6761C340.924 22.7708 341.092 21.9792 341.43 21.3011C341.767 20.6231 342.24 20.0966 342.85 19.7216C343.46 19.3466 344.174 19.1591 344.992 19.1591C345.81 19.1591 346.524 19.3466 347.134 19.7216C347.744 20.0966 348.217 20.6231 348.555 21.3011C348.892 21.9792 349.06 22.7708 349.06 23.6761C349.06 24.5777 348.892 25.3655 348.555 26.0398C348.217 26.714 347.744 27.2386 347.134 27.6136C346.524 27.9886 345.81 28.1761 344.992 28.1761ZM344.998 26.75C345.528 26.75 345.967 26.6098 346.316 26.3295C346.664 26.0492 346.922 25.6761 347.089 25.2102C347.259 24.7443 347.344 24.2311 347.344 23.6705C347.344 23.1136 347.259 22.6023 347.089 22.1364C346.922 21.6667 346.664 21.2898 346.316 21.0057C345.967 20.7216 345.528 20.5795 344.998 20.5795C344.464 20.5795 344.02 20.7216 343.668 21.0057C343.32 21.2898 343.06 21.6667 342.89 22.1364C342.723 22.6023 342.64 23.1136 342.64 23.6705C342.64 24.2311 342.723 24.7443 342.89 25.2102C343.06 25.6761 343.32 26.0492 343.668 26.3295C344.02 26.6098 344.464 26.75 344.998 26.75ZM350.104 30.517V26.5284H350.814C350.996 26.3617 351.15 26.1629 351.275 25.9318C351.403 25.7008 351.511 25.4261 351.599 25.108C351.689 24.7898 351.765 24.4186 351.826 23.9943C351.886 23.5663 351.939 23.0777 351.985 22.5284L352.258 19.2727H358.189V26.5284H359.53V30.517H357.871V28H351.786V30.517H350.104ZM352.633 26.5284H356.53V20.7273H353.78L353.599 22.5284C353.511 23.4451 353.402 24.2405 353.269 24.9148C353.136 25.5852 352.924 26.1231 352.633 26.5284ZM360.339 30.517V26.5284H361.049C361.231 26.3617 361.384 26.1629 361.509 25.9318C361.638 25.7008 361.746 25.4261 361.833 25.108C361.924 24.7898 362 24.4186 362.06 23.9943C362.121 23.5663 362.174 23.0777 362.219 22.5284L362.492 19.2727H368.424V26.5284H369.765V30.517H368.106V28H362.02V30.517H360.339ZM362.867 26.5284H366.765V20.7273H364.015L363.833 22.5284C363.746 23.4451 363.636 24.2405 363.503 24.9148C363.371 25.5852 363.159 26.1231 362.867 26.5284ZM375.187 28.1761C374.327 28.1761 373.586 27.9924 372.965 27.625C372.348 27.2538 371.87 26.733 371.533 26.0625C371.2 25.3883 371.033 24.5985 371.033 23.6932C371.033 22.7992 371.2 22.0114 371.533 21.3295C371.87 20.6477 372.34 20.1155 372.942 19.733C373.548 19.3504 374.257 19.1591 375.067 19.1591C375.56 19.1591 376.037 19.2405 376.499 19.4034C376.961 19.5663 377.376 19.822 377.743 20.1705C378.111 20.5189 378.401 20.9716 378.613 21.5284C378.825 22.0814 378.931 22.7538 378.931 23.5455V24.1477H371.993V22.875H377.266C377.266 22.428 377.175 22.0322 376.993 21.6875C376.812 21.339 376.556 21.0644 376.226 20.8636C375.901 20.6629 375.518 20.5625 375.079 20.5625C374.601 20.5625 374.185 20.6799 373.829 20.9148C373.476 21.1458 373.204 21.4489 373.01 21.8239C372.821 22.1951 372.726 22.5985 372.726 23.0341V24.0284C372.726 24.6117 372.829 25.108 373.033 25.517C373.242 25.9261 373.531 26.2386 373.903 26.4545C374.274 26.6667 374.707 26.7727 375.204 26.7727C375.526 26.7727 375.819 26.7273 376.084 26.6364C376.349 26.5417 376.579 26.4015 376.772 26.2159C376.965 26.0303 377.113 25.8011 377.215 25.5284L378.823 25.8182C378.694 26.2917 378.463 26.7064 378.13 27.0625C377.8 27.4148 377.385 27.6894 376.885 27.8864C376.389 28.0795 375.823 28.1761 375.187 28.1761ZM380.816 31.2727V19.2727H382.475V20.6875H382.617C382.715 20.5057 382.858 20.2955 383.043 20.0568C383.229 19.8182 383.486 19.6098 383.816 19.4318C384.145 19.25 384.581 19.1591 385.123 19.1591C385.827 19.1591 386.456 19.3371 387.009 19.6932C387.562 20.0492 387.996 20.5625 388.31 21.233C388.628 21.9034 388.787 22.7102 388.787 23.6534C388.787 24.5966 388.63 25.4053 388.316 26.0795C388.001 26.75 387.57 27.267 387.02 27.6307C386.471 27.9905 385.844 28.1705 385.14 28.1705C384.609 28.1705 384.176 28.0814 383.839 27.9034C383.505 27.7254 383.244 27.517 383.055 27.2784C382.865 27.0398 382.719 26.8277 382.617 26.642H382.515V31.2727H380.816ZM382.481 23.6364C382.481 24.25 382.57 24.7879 382.748 25.25C382.926 25.7121 383.183 26.0739 383.52 26.3352C383.858 26.5928 384.27 26.7216 384.759 26.7216C385.267 26.7216 385.691 26.5871 386.032 26.3182C386.373 26.0455 386.63 25.6761 386.805 25.2102C386.983 24.7443 387.072 24.2197 387.072 23.6364C387.072 23.0606 386.984 22.5436 386.81 22.0852C386.64 21.6269 386.382 21.2652 386.037 21C385.697 20.7348 385.27 20.6023 384.759 20.6023C384.267 20.6023 383.85 20.7292 383.509 20.983C383.172 21.2367 382.916 21.5909 382.742 22.0455C382.568 22.5 382.481 23.0303 382.481 23.6364ZM389.79 28L393.171 23.5341L389.83 19.2727H391.807L394.506 22.8977H395.114V19.2727H396.813V22.8977H397.404L400.103 19.2727H402.08L398.756 23.5341L402.12 28H400.103L397.381 24.3636H396.813V28H395.114V24.3636H394.546L391.807 28H389.79ZM403.847 28V19.2727H405.546V22.9318H406.364L409.245 19.2727H411.347L407.966 23.517L411.387 28H409.279L406.648 24.5114H405.546V28H403.847ZM414.371 25.6193L418.218 19.2727H420.047V28H418.383V21.6477L414.553 28H412.706V19.2727H414.371V25.6193Z" fill="#061127" fill-opacity="0.7"/>
</svg>
