<svg width="106" height="20" viewBox="0 0 106 20" fill="none" xmlns="http://www.w3.org/2000/svg">
<g clip-path="url(#clip0_3306_5199)">
<path d="M15.2933 2.70671C14.8401 2.25417 14.2258 2 13.5853 2C12.9449 2 12.3306 2.25417 11.8773 2.70671L0 14.584V18H3.416L15.2933 6.12271C15.7457 5.66939 15.9998 5.05513 15.9998 4.41471C15.9998 3.77429 15.7457 3.16003 15.2933 2.70671ZM2.86667 16.6667H1.33333V15.1334L10.2067 6.26671L11.74 7.80004L2.86667 16.6667ZM14.3507 5.18004L12.6793 6.85138L11.1493 5.31804L12.82 3.64938C13.0233 3.44604 13.2991 3.33181 13.5867 3.33181C13.8742 3.33181 14.15 3.44604 14.3533 3.64938C14.5567 3.85271 14.6709 4.12849 14.6709 4.41604C14.6709 4.7036 14.5567 4.97938 14.3533 5.18271L14.3507 5.18004Z" fill="#18356D"/>
</g>
<path d="M31.2273 10.1818C31.2273 11.4091 31.0057 12.4697 30.5625 13.3636C30.1193 14.2576 29.5114 14.947 28.7386 15.4318C27.9659 15.9167 27.0833 16.1591 26.0909 16.1591C25.0985 16.1591 24.2159 15.9167 23.4432 15.4318C22.6705 14.947 22.0625 14.2576 21.6193 13.3636C21.1761 12.4697 20.9545 11.4091 20.9545 10.1818C20.9545 8.95455 21.1761 7.89394 21.6193 7C22.0625 6.10606 22.6705 5.41667 23.4432 4.93182C24.2159 4.44697 25.0985 4.20455 26.0909 4.20455C27.0833 4.20455 27.9659 4.44697 28.7386 4.93182C29.5114 5.41667 30.1193 6.10606 30.5625 7C31.0057 7.89394 31.2273 8.95455 31.2273 10.1818ZM29.8636 10.1818C29.8636 9.17424 29.6951 8.32386 29.358 7.63068C29.0246 6.9375 28.572 6.41288 28 6.05682C27.4318 5.70076 26.7955 5.52273 26.0909 5.52273C25.3864 5.52273 24.7481 5.70076 24.1761 6.05682C23.608 6.41288 23.1553 6.9375 22.8182 7.63068C22.4848 8.32386 22.3182 9.17424 22.3182 10.1818C22.3182 11.1894 22.4848 12.0398 22.8182 12.733C23.1553 13.4261 23.608 13.9508 24.1761 14.3068C24.7481 14.6629 25.3864 14.8409 26.0909 14.8409C26.7955 14.8409 27.4318 14.6629 28 14.3068C28.572 13.9508 29.0246 13.4261 29.358 12.733C29.6951 12.0398 29.8636 11.1894 29.8636 10.1818ZM34.4939 4.36364V8.36364H33.2439V4.36364H34.4939ZM36.5516 16V14.9773L41.5062 8.61364V8.52273H36.7107V7.27273H43.2335V8.34091L38.4153 14.6591V14.75H43.3926V16H36.5516ZM48.6506 19.4545C48.0029 19.4545 47.4461 19.3712 46.9802 19.2045C46.5143 19.0417 46.126 18.8258 45.8154 18.5568C45.5086 18.2917 45.2643 18.0076 45.0824 17.7045L46.1506 16.9545C46.2718 17.1136 46.4252 17.2955 46.6109 17.5C46.7965 17.7083 47.0502 17.8883 47.3722 18.0398C47.698 18.1951 48.1241 18.2727 48.6506 18.2727C49.3552 18.2727 49.9366 18.1023 50.3949 17.7614C50.8533 17.4205 51.0824 16.8864 51.0824 16.1591V14.3864H50.9688C50.8703 14.5455 50.7302 14.7424 50.5484 14.9773C50.3703 15.2083 50.1127 15.4148 49.7756 15.5966C49.4423 15.7746 48.9915 15.8636 48.4234 15.8636C47.7188 15.8636 47.0862 15.697 46.5256 15.3636C45.9688 15.0303 45.5275 14.5455 45.2018 13.9091C44.8798 13.2727 44.7188 12.5 44.7188 11.5909C44.7188 10.697 44.876 9.91856 45.1904 9.25568C45.5048 8.58901 45.9423 8.07386 46.5029 7.71023C47.0635 7.3428 47.7112 7.15909 48.4461 7.15909C49.0143 7.15909 49.465 7.25379 49.7984 7.44318C50.1355 7.62879 50.393 7.84091 50.5711 8.07955C50.7529 8.31439 50.893 8.50758 50.9915 8.65909H51.1279V7.27273H52.4234V16.25C52.4234 17 52.2529 17.6098 51.912 18.0795C51.5749 18.553 51.1203 18.8996 50.5484 19.1193C49.9802 19.3428 49.3476 19.4545 48.6506 19.4545ZM48.6052 14.6591C49.143 14.6591 49.5976 14.536 49.9688 14.2898C50.34 14.0436 50.6222 13.6894 50.8154 13.2273C51.0086 12.7652 51.1052 12.2121 51.1052 11.5682C51.1052 10.9394 51.0105 10.3845 50.8211 9.90341C50.6317 9.42235 50.3514 9.04545 49.9802 8.77273C49.609 8.5 49.1506 8.36364 48.6052 8.36364C48.037 8.36364 47.5635 8.50758 47.1847 8.79545C46.8097 9.08333 46.5275 9.4697 46.3381 9.95455C46.1525 10.4394 46.0597 10.9773 46.0597 11.5682C46.0597 12.1742 46.1544 12.7102 46.3438 13.1761C46.537 13.6383 46.8211 14.0019 47.1961 14.267C47.5749 14.5284 48.0446 14.6591 48.6052 14.6591ZM57.3661 16.2045C56.813 16.2045 56.3112 16.1004 55.8604 15.892C55.4096 15.6799 55.0517 15.375 54.7865 14.9773C54.5214 14.5758 54.3888 14.0909 54.3888 13.5227C54.3888 13.0227 54.4873 12.6174 54.6843 12.3068C54.8812 11.9924 55.1445 11.7462 55.474 11.5682C55.8036 11.3902 56.1672 11.2576 56.5649 11.1705C56.9665 11.0795 57.3699 11.0076 57.7752 10.9545C58.3055 10.8864 58.7354 10.8352 59.0649 10.8011C59.3983 10.7633 59.6407 10.7008 59.7922 10.6136C59.9475 10.5265 60.0252 10.375 60.0252 10.1591V10.1136C60.0252 9.55303 59.8718 9.11742 59.5649 8.80682C59.2619 8.49621 58.8017 8.34091 58.1843 8.34091C57.5441 8.34091 57.0422 8.48106 56.6786 8.76136C56.3149 9.04167 56.0593 9.34091 55.9115 9.65909L54.6388 9.20455C54.8661 8.67424 55.1691 8.26136 55.5479 7.96591C55.9305 7.66667 56.3471 7.45833 56.7979 7.34091C57.2524 7.2197 57.6994 7.15909 58.1388 7.15909C58.4191 7.15909 58.7411 7.19318 59.1047 7.26136C59.4721 7.32576 59.8263 7.46023 60.1672 7.66477C60.5119 7.86932 60.7979 8.17803 61.0252 8.59091C61.2524 9.00379 61.3661 9.55682 61.3661 10.25V16H60.0252V14.8182H59.957C59.8661 15.0076 59.7146 15.2102 59.5024 15.4261C59.2903 15.642 59.0081 15.8258 58.6559 15.9773C58.3036 16.1288 57.8737 16.2045 57.3661 16.2045ZM57.5706 15C58.1009 15 58.5479 14.8958 58.9115 14.6875C59.279 14.4792 59.5555 14.2102 59.7411 13.8807C59.9305 13.5511 60.0252 13.2045 60.0252 12.8409V11.6136C59.9684 11.6818 59.8434 11.7443 59.6502 11.8011C59.4608 11.8542 59.2411 11.9015 58.9911 11.9432C58.7449 11.9811 58.5043 12.0152 58.2695 12.0455C58.0384 12.072 57.8509 12.0947 57.707 12.1136C57.3585 12.1591 57.0327 12.233 56.7297 12.3352C56.4305 12.4337 56.188 12.5833 56.0024 12.7841C55.8206 12.9811 55.7297 13.25 55.7297 13.5909C55.7297 14.0568 55.9021 14.4091 56.2468 14.6477C56.5952 14.8826 57.0365 15 57.5706 15ZM63.7335 16V7.27273H65.029V8.59091H65.1199C65.279 8.15909 65.5669 7.80871 65.9835 7.53977C66.4002 7.27083 66.8699 7.13636 67.3926 7.13636C67.4911 7.13636 67.6142 7.13826 67.7619 7.14205C67.9097 7.14583 68.0214 7.15152 68.0972 7.15909V8.52273C68.0517 8.51136 67.9475 8.49432 67.7847 8.47159C67.6256 8.44508 67.457 8.43182 67.279 8.43182C66.8547 8.43182 66.4759 8.52083 66.1426 8.69886C65.8131 8.87311 65.5517 9.11553 65.3585 9.42614C65.1691 9.73295 65.0744 10.0833 65.0744 10.4773V16H63.7335ZM73.949 7.27273V8.40909H69.4263V7.27273H73.949ZM70.7444 5.18182H72.0853V13.5C72.0853 13.8788 72.1403 14.1629 72.2501 14.3523C72.3638 14.5379 72.5077 14.6629 72.6819 14.7273C72.86 14.7879 73.0475 14.8182 73.2444 14.8182C73.3922 14.8182 73.5134 14.8106 73.6081 14.7955C73.7028 14.7765 73.7785 14.7614 73.8353 14.75L74.1081 15.9545C74.0172 15.9886 73.8903 16.0227 73.7274 16.0568C73.5645 16.0947 73.3581 16.1136 73.1081 16.1136C72.7293 16.1136 72.3581 16.0322 71.9944 15.8693C71.6346 15.7064 71.3353 15.4583 71.0967 15.125C70.8619 14.7917 70.7444 14.3712 70.7444 13.8636V5.18182ZM75.886 16V7.27273H77.2269V16H75.886ZM76.5678 5.81818C76.3065 5.81818 76.0811 5.72917 75.8917 5.55114C75.7061 5.37311 75.6133 5.15909 75.6133 4.90909C75.6133 4.65909 75.7061 4.44508 75.8917 4.26705C76.0811 4.08902 76.3065 4 76.5678 4C76.8292 4 77.0527 4.08902 77.2383 4.26705C77.4277 4.44508 77.5224 4.65909 77.5224 4.90909C77.5224 5.15909 77.4277 5.37311 77.2383 5.55114C77.0527 5.72917 76.8292 5.81818 76.5678 5.81818ZM79.6029 16V7.27273H80.8984V8.59091H80.9893C81.1484 8.15909 81.4362 7.80871 81.8529 7.53977C82.2696 7.27083 82.7393 7.13636 83.262 7.13636C83.3605 7.13636 83.4836 7.13826 83.6313 7.14205C83.779 7.14583 83.8908 7.15152 83.9665 7.15909V8.52273C83.9211 8.51136 83.8169 8.49432 83.654 8.47159C83.4949 8.44508 83.3264 8.43182 83.1484 8.43182C82.7241 8.43182 82.3453 8.52083 82.012 8.69886C81.6824 8.87311 81.4211 9.11553 81.2279 9.42614C81.0385 9.73295 80.9438 10.0833 80.9438 10.4773V16H79.6029ZM85.476 16V7.27273H86.8169V16H85.476ZM86.1578 5.81818C85.8965 5.81818 85.6711 5.72917 85.4817 5.55114C85.2961 5.37311 85.2033 5.15909 85.2033 4.90909C85.2033 4.65909 85.2961 4.44508 85.4817 4.26705C85.6711 4.08902 85.8965 4 86.1578 4C86.4192 4 86.6427 4.08902 86.8283 4.26705C87.0177 4.44508 87.1124 4.65909 87.1124 4.90909C87.1124 5.15909 87.0177 5.37311 86.8283 5.55114C86.6427 5.72917 86.4192 5.81818 86.1578 5.81818ZM95.3747 9.22727L94.1702 9.56818C94.0944 9.36742 93.9827 9.17235 93.8349 8.98295C93.691 8.78977 93.494 8.63068 93.244 8.50568C92.994 8.38068 92.674 8.31818 92.2838 8.31818C91.7497 8.31818 91.3046 8.44129 90.9486 8.6875C90.5963 8.92992 90.4202 9.23864 90.4202 9.61364C90.4202 9.94697 90.5414 10.2102 90.7838 10.4034C91.0262 10.5966 91.405 10.7576 91.9202 10.8864L93.2156 11.2045C93.9959 11.3939 94.5774 11.6837 94.9599 12.0739C95.3425 12.4602 95.5338 12.9583 95.5338 13.5682C95.5338 14.0682 95.3899 14.5152 95.102 14.9091C94.8179 15.303 94.4202 15.6136 93.9088 15.8409C93.3974 16.0682 92.8027 16.1818 92.1247 16.1818C91.2346 16.1818 90.4978 15.9886 89.9145 15.6023C89.3312 15.2159 88.9618 14.6515 88.8065 13.9091L90.0793 13.5909C90.2005 14.0606 90.4296 14.4129 90.7668 14.6477C91.1077 14.8826 91.5527 15 92.102 15C92.727 15 93.2232 14.8674 93.5906 14.6023C93.9618 14.3333 94.1474 14.0114 94.1474 13.6364C94.1474 13.3333 94.0414 13.0795 93.8293 12.875C93.6171 12.6667 93.2914 12.5114 92.852 12.4091L91.3974 12.0682C90.5982 11.8788 90.0111 11.5852 89.6361 11.1875C89.2649 10.786 89.0793 10.2841 89.0793 9.68182C89.0793 9.18939 89.2175 8.75379 89.494 8.375C89.7743 7.99621 90.155 7.69886 90.6361 7.48295C91.1209 7.26705 91.6702 7.15909 92.2838 7.15909C93.1474 7.15909 93.8255 7.34848 94.3179 7.72727C94.8141 8.10606 95.1664 8.60606 95.3747 9.22727ZM98.8132 10.75V16H97.4723V4.36364H98.8132V8.63636H98.9268C99.1314 8.18561 99.4382 7.82765 99.8473 7.5625C100.26 7.29356 100.809 7.15909 101.495 7.15909C102.09 7.15909 102.611 7.27841 103.058 7.51705C103.504 7.75189 103.851 8.11364 104.097 8.60227C104.347 9.08712 104.472 9.70455 104.472 10.4545V16H103.131V10.5455C103.131 9.85227 102.951 9.31629 102.592 8.9375C102.236 8.55492 101.741 8.36364 101.109 8.36364C100.669 8.36364 100.275 8.45644 99.9268 8.64205C99.5821 8.82765 99.3094 9.09848 99.1086 9.45455C98.9117 9.81061 98.8132 10.2424 98.8132 10.75Z" fill="#18356D"/>
<defs>
<clipPath id="clip0_3306_5199">
<rect width="16" height="16" fill="white" transform="translate(0 2)"/>
</clipPath>
</defs>
</svg>
