<svg width="193" height="44" viewBox="0 0 193 44" fill="none" xmlns="http://www.w3.org/2000/svg">
<rect width="192" height="44" transform="translate(0.345703)" fill="white"/>
<path d="M34.7207 16.3636V28H32.9707V17.8636H27.4934V28H25.7434V16.3636H34.7207ZM37.269 31.2727V19.2727H38.9281V20.6875H39.0701C39.1686 20.5057 39.3107 20.2955 39.4963 20.0568C39.6819 19.8182 39.9395 19.6098 40.269 19.4318C40.5985 19.25 41.0342 19.1591 41.5758 19.1591C42.2804 19.1591 42.9092 19.3371 43.4622 19.6932C44.0152 20.0492 44.4489 20.5625 44.7633 21.233C45.0815 21.9034 45.2406 22.7102 45.2406 23.6534C45.2406 24.5966 45.0834 25.4053 44.769 26.0795C44.4546 26.75 44.0228 27.267 43.4735 27.6307C42.9243 27.9905 42.2974 28.1705 41.5929 28.1705C41.0626 28.1705 40.6288 28.0814 40.2917 27.9034C39.9584 27.7254 39.697 27.517 39.5076 27.2784C39.3182 27.0398 39.1724 26.8277 39.0701 26.642H38.9679V31.2727H37.269ZM38.9338 23.6364C38.9338 24.25 39.0228 24.7879 39.2008 25.25C39.3788 25.7121 39.6364 26.0739 39.9735 26.3352C40.3107 26.5928 40.7235 26.7216 41.2122 26.7216C41.7198 26.7216 42.144 26.5871 42.4849 26.3182C42.8258 26.0455 43.0834 25.6761 43.2576 25.2102C43.4357 24.7443 43.5247 24.2197 43.5247 23.6364C43.5247 23.0606 43.4376 22.5436 43.2633 22.0852C43.0929 21.6269 42.8353 21.2652 42.4906 21C42.1497 20.7348 41.7235 20.6023 41.2122 20.6023C40.7198 20.6023 40.3031 20.7292 39.9622 20.983C39.6251 21.2367 39.3694 21.5909 39.1951 22.0455C39.0209 22.5 38.9338 23.0303 38.9338 23.6364ZM49.6838 28.1932C49.1307 28.1932 48.6307 28.0909 48.1838 27.8864C47.7368 27.678 47.3826 27.3769 47.1213 26.983C46.8637 26.589 46.7349 26.1061 46.7349 25.5341C46.7349 25.0417 46.8296 24.6364 47.019 24.3182C47.2084 24 47.4641 23.7481 47.786 23.5625C48.108 23.3769 48.4679 23.2367 48.8656 23.142C49.2633 23.0473 49.6686 22.9754 50.0815 22.9261C50.6042 22.8655 51.0285 22.8163 51.3542 22.7784C51.68 22.7367 51.9167 22.6705 52.0645 22.5795C52.2122 22.4886 52.286 22.3409 52.286 22.1364V22.0966C52.286 21.6004 52.1459 21.2159 51.8656 20.9432C51.5891 20.6705 51.1762 20.5341 50.627 20.5341C50.055 20.5341 49.6042 20.661 49.2747 20.9148C48.9489 21.1648 48.7235 21.4432 48.5985 21.75L47.002 21.3864C47.1913 20.8561 47.4679 20.428 47.8315 20.1023C48.1989 19.7727 48.6213 19.5341 49.0985 19.3864C49.5758 19.2348 50.0777 19.1591 50.6042 19.1591C50.9527 19.1591 51.322 19.2008 51.7122 19.2841C52.1061 19.3636 52.4735 19.5114 52.8145 19.7273C53.1592 19.9432 53.4413 20.2519 53.661 20.6534C53.8807 21.0511 53.9906 21.5682 53.9906 22.2045V28H52.3315V26.8068H52.2633C52.1535 27.0265 51.9887 27.2424 51.769 27.4545C51.5493 27.6667 51.2671 27.8428 50.9224 27.983C50.5777 28.1231 50.1648 28.1932 49.6838 28.1932ZM50.0531 26.8295C50.5228 26.8295 50.9243 26.7367 51.2576 26.5511C51.5948 26.3655 51.8504 26.1231 52.0247 25.8239C52.2027 25.5208 52.2917 25.197 52.2917 24.8523V23.7273C52.2311 23.7879 52.1137 23.8447 51.9395 23.8977C51.769 23.947 51.5739 23.9905 51.3542 24.0284C51.1345 24.0625 50.9205 24.0947 50.7122 24.125C50.5038 24.1515 50.3296 24.1742 50.1895 24.1932C49.8599 24.2348 49.5588 24.3049 49.286 24.4034C49.0171 24.5019 48.8012 24.6439 48.6383 24.8295C48.4792 25.0114 48.3997 25.2538 48.3997 25.5568C48.3997 25.9773 48.555 26.2955 48.8656 26.5114C49.1762 26.7235 49.572 26.8295 50.0531 26.8295ZM56.2534 28V19.2727H59.8727C60.8575 19.2727 61.6378 19.483 62.2136 19.9034C62.7894 20.3201 63.0772 20.8864 63.0772 21.6023C63.0772 22.1136 62.9144 22.5189 62.5886 22.8182C62.2628 23.1174 61.831 23.3182 61.2931 23.4205C61.6833 23.4659 62.0413 23.5833 62.367 23.7727C62.6928 23.9583 62.9541 24.2083 63.1511 24.5227C63.3519 24.8371 63.4522 25.2121 63.4522 25.6477C63.4522 26.1098 63.3329 26.5189 63.0943 26.875C62.8556 27.2273 62.5091 27.5038 62.0545 27.7045C61.6038 27.9015 61.0602 28 60.4238 28H56.2534ZM57.85 26.5795H60.4238C60.8443 26.5795 61.1738 26.4792 61.4125 26.2784C61.6511 26.0777 61.7704 25.8049 61.7704 25.4602C61.7704 25.0549 61.6511 24.7367 61.4125 24.5057C61.1738 24.2708 60.8443 24.1534 60.4238 24.1534H57.85V26.5795ZM57.85 22.9091H59.8897C60.2079 22.9091 60.4806 22.8636 60.7079 22.7727C60.939 22.6818 61.1151 22.553 61.2363 22.3864C61.3613 22.2159 61.4238 22.0152 61.4238 21.7841C61.4238 21.447 61.2856 21.1837 61.0091 20.9943C60.7325 20.8049 60.3538 20.7102 59.8727 20.7102H57.85V22.9091ZM66.9806 25.6193L70.8272 19.2727H72.6568V28H70.992V21.6477L67.1625 28H65.3159V19.2727H66.9806V25.6193ZM74.2534 28L74.2477 26.5284H74.5602C74.8026 26.5284 75.0053 26.4773 75.1681 26.375C75.3348 26.2689 75.4712 26.0909 75.5772 25.8409C75.6833 25.5909 75.7647 25.2462 75.8216 24.8068C75.8784 24.3636 75.92 23.8068 75.9466 23.1364L76.1 19.2727H82.1909V28H80.5261V20.7386H77.6738L77.5375 23.7045C77.5034 24.4242 77.4295 25.053 77.3159 25.5909C77.206 26.1288 77.045 26.5777 76.8329 26.9375C76.6208 27.2936 76.3481 27.5606 76.0147 27.7386C75.6814 27.9129 75.2761 28 74.7988 28H74.2534ZM86.9963 28.1932C86.4432 28.1932 85.9432 28.0909 85.4963 27.8864C85.0493 27.678 84.6951 27.3769 84.4338 26.983C84.1762 26.589 84.0474 26.1061 84.0474 25.5341C84.0474 25.0417 84.1421 24.6364 84.3315 24.3182C84.5209 24 84.7766 23.7481 85.0985 23.5625C85.4205 23.3769 85.7804 23.2367 86.1781 23.142C86.5758 23.0473 86.9811 22.9754 87.394 22.9261C87.9167 22.8655 88.341 22.8163 88.6667 22.7784C88.9925 22.7367 89.2292 22.6705 89.377 22.5795C89.5247 22.4886 89.5985 22.3409 89.5985 22.1364V22.0966C89.5985 21.6004 89.4584 21.2159 89.1781 20.9432C88.9016 20.6705 88.4887 20.5341 87.9395 20.5341C87.3675 20.5341 86.9167 20.661 86.5872 20.9148C86.2614 21.1648 86.036 21.4432 85.911 21.75L84.3145 21.3864C84.5038 20.8561 84.7804 20.428 85.144 20.1023C85.5114 19.7727 85.9338 19.5341 86.411 19.3864C86.8883 19.2348 87.3902 19.1591 87.9167 19.1591C88.2652 19.1591 88.6345 19.2008 89.0247 19.2841C89.4186 19.3636 89.786 19.5114 90.127 19.7273C90.4717 19.9432 90.7538 20.2519 90.9735 20.6534C91.1932 21.0511 91.3031 21.5682 91.3031 22.2045V28H89.644V26.8068H89.5758C89.466 27.0265 89.3012 27.2424 89.0815 27.4545C88.8618 27.6667 88.5796 27.8428 88.2349 27.983C87.8902 28.1231 87.4773 28.1932 86.9963 28.1932ZM87.3656 26.8295C87.8353 26.8295 88.2368 26.7367 88.5701 26.5511C88.9073 26.3655 89.1629 26.1231 89.3372 25.8239C89.5152 25.5208 89.6042 25.197 89.6042 24.8523V23.7273C89.5436 23.7879 89.4262 23.8447 89.252 23.8977C89.0815 23.947 88.8864 23.9905 88.6667 24.0284C88.447 24.0625 88.233 24.0947 88.0247 24.125C87.8163 24.1515 87.6421 24.1742 87.502 24.1932C87.1724 24.2348 86.8713 24.3049 86.5985 24.4034C86.3296 24.5019 86.1137 24.6439 85.9508 24.8295C85.7917 25.0114 85.7122 25.2538 85.7122 25.5568C85.7122 25.9773 85.8675 26.2955 86.1781 26.5114C86.4887 26.7235 86.8845 26.8295 87.3656 26.8295ZM97.8002 28V19.2727H101.42C102.404 19.2727 103.185 19.483 103.76 19.9034C104.336 20.3201 104.624 20.8864 104.624 21.6023C104.624 22.1136 104.461 22.5189 104.135 22.8182C103.81 23.1174 103.378 23.3182 102.84 23.4205C103.23 23.4659 103.588 23.5833 103.914 23.7727C104.24 23.9583 104.501 24.2083 104.698 24.5227C104.899 24.8371 104.999 25.2121 104.999 25.6477C104.999 26.1098 104.88 26.5189 104.641 26.875C104.403 27.2273 104.056 27.5038 103.601 27.7045C103.151 27.9015 102.607 28 101.971 28H97.8002ZM99.3968 26.5795H101.971C102.391 26.5795 102.721 26.4792 102.959 26.2784C103.198 26.0777 103.317 25.8049 103.317 25.4602C103.317 25.0549 103.198 24.7367 102.959 24.5057C102.721 24.2708 102.391 24.1534 101.971 24.1534H99.3968V26.5795ZM99.3968 22.9091H101.437C101.755 22.9091 102.028 22.8636 102.255 22.7727C102.486 22.6818 102.662 22.553 102.783 22.3864C102.908 22.2159 102.971 22.0152 102.971 21.7841C102.971 21.447 102.832 21.1837 102.556 20.9943C102.279 20.8049 101.901 20.7102 101.42 20.7102H99.3968V22.9091ZM110.539 28.1761C109.721 28.1761 109.007 27.9886 108.397 27.6136C107.787 27.2386 107.314 26.714 106.976 26.0398C106.639 25.3655 106.471 24.5777 106.471 23.6761C106.471 22.7708 106.639 21.9792 106.976 21.3011C107.314 20.6231 107.787 20.0966 108.397 19.7216C109.007 19.3466 109.721 19.1591 110.539 19.1591C111.357 19.1591 112.071 19.3466 112.681 19.7216C113.291 20.0966 113.764 20.6231 114.101 21.3011C114.439 21.9792 114.607 22.7708 114.607 23.6761C114.607 24.5777 114.439 25.3655 114.101 26.0398C113.764 26.714 113.291 27.2386 112.681 27.6136C112.071 27.9886 111.357 28.1761 110.539 28.1761ZM110.545 26.75C111.075 26.75 111.514 26.6098 111.863 26.3295C112.211 26.0492 112.469 25.6761 112.635 25.2102C112.806 24.7443 112.891 24.2311 112.891 23.6705C112.891 23.1136 112.806 22.6023 112.635 22.1364C112.469 21.6667 112.211 21.2898 111.863 21.0057C111.514 20.7216 111.075 20.5795 110.545 20.5795C110.01 20.5795 109.567 20.7216 109.215 21.0057C108.867 21.2898 108.607 21.6667 108.437 22.1364C108.27 22.6023 108.187 23.1136 108.187 23.6705C108.187 24.2311 108.27 24.7443 108.437 25.2102C108.607 25.6761 108.867 26.0492 109.215 26.3295C109.567 26.6098 110.01 26.75 110.545 26.75ZM115.986 25.6932H117.725C117.748 26.0492 117.909 26.3239 118.208 26.517C118.511 26.7102 118.903 26.8068 119.384 26.8068C119.873 26.8068 120.289 26.7027 120.634 26.4943C120.979 26.2822 121.151 25.9545 121.151 25.5114C121.151 25.2462 121.085 25.0152 120.952 24.8182C120.823 24.6174 120.64 24.4621 120.401 24.3523C120.166 24.2424 119.888 24.1875 119.566 24.1875H118.145V22.8523H119.566C120.047 22.8523 120.407 22.7424 120.645 22.5227C120.884 22.303 121.003 22.0284 121.003 21.6989C121.003 21.3428 120.875 21.0568 120.617 20.8409C120.363 20.6212 120.009 20.5114 119.555 20.5114C119.092 20.5114 118.708 20.6155 118.401 20.8239C118.094 21.0284 117.933 21.2936 117.918 21.6193H116.202C116.214 21.1307 116.361 20.7027 116.645 20.3352C116.933 19.964 117.32 19.6761 117.805 19.4716C118.293 19.2633 118.848 19.1591 119.469 19.1591C120.117 19.1591 120.678 19.2633 121.151 19.4716C121.625 19.6799 121.99 19.9678 122.248 20.3352C122.509 20.7027 122.64 21.125 122.64 21.6023C122.64 22.0833 122.496 22.4773 122.208 22.7841C121.924 23.0871 121.553 23.3049 121.094 23.4375V23.5284C121.431 23.5511 121.731 23.6534 121.992 23.8352C122.253 24.017 122.458 24.2576 122.606 24.5568C122.753 24.8561 122.827 25.1951 122.827 25.5739C122.827 26.108 122.68 26.5701 122.384 26.9602C122.092 27.3504 121.687 27.6515 121.168 27.8636C120.653 28.072 120.064 28.1761 119.401 28.1761C118.757 28.1761 118.18 28.0758 117.668 27.875C117.161 27.6705 116.757 27.3826 116.458 27.0114C116.162 26.6402 116.005 26.2008 115.986 25.6932ZM124.581 28V19.2727H128.201C129.186 19.2727 129.966 19.483 130.542 19.9034C131.117 20.3201 131.405 20.8864 131.405 21.6023C131.405 22.1136 131.242 22.5189 130.917 22.8182C130.591 23.1174 130.159 23.3182 129.621 23.4205C130.011 23.4659 130.369 23.5833 130.695 23.7727C131.021 23.9583 131.282 24.2083 131.479 24.5227C131.68 24.8371 131.78 25.2121 131.78 25.6477C131.78 26.1098 131.661 26.5189 131.422 26.875C131.184 27.2273 130.837 27.5038 130.383 27.7045C129.932 27.9015 129.388 28 128.752 28H124.581ZM126.178 26.5795H128.752C129.172 26.5795 129.502 26.4792 129.741 26.2784C129.979 26.0777 130.099 25.8049 130.099 25.4602C130.099 25.0549 129.979 24.7367 129.741 24.5057C129.502 24.2708 129.172 24.1534 128.752 24.1534H126.178V26.5795ZM126.178 22.9091H128.218C128.536 22.9091 128.809 22.8636 129.036 22.7727C129.267 22.6818 129.443 22.553 129.564 22.3864C129.689 22.2159 129.752 22.0152 129.752 21.7841C129.752 21.447 129.614 21.1837 129.337 20.9943C129.061 20.8049 128.682 20.7102 128.201 20.7102H126.178V22.9091ZM133.644 31.2727V19.2727H135.303V20.6875H135.445C135.544 20.5057 135.686 20.2955 135.871 20.0568C136.057 19.8182 136.314 19.6098 136.644 19.4318C136.974 19.25 137.409 19.1591 137.951 19.1591C138.655 19.1591 139.284 19.3371 139.837 19.6932C140.39 20.0492 140.824 20.5625 141.138 21.233C141.456 21.9034 141.616 22.7102 141.616 23.6534C141.616 24.5966 141.458 25.4053 141.144 26.0795C140.83 26.75 140.398 27.267 139.849 27.6307C139.299 27.9905 138.672 28.1705 137.968 28.1705C137.438 28.1705 137.004 28.0814 136.667 27.9034C136.333 27.7254 136.072 27.517 135.883 27.2784C135.693 27.0398 135.547 26.8277 135.445 26.642H135.343V31.2727H133.644ZM135.309 23.6364C135.309 24.25 135.398 24.7879 135.576 25.25C135.754 25.7121 136.011 26.0739 136.349 26.3352C136.686 26.5928 137.099 26.7216 137.587 26.7216C138.095 26.7216 138.519 26.5871 138.86 26.3182C139.201 26.0455 139.458 25.6761 139.633 25.2102C139.811 24.7443 139.9 24.2197 139.9 23.6364C139.9 23.0606 139.813 22.5436 139.638 22.0852C139.468 21.6269 139.21 21.2652 138.866 21C138.525 20.7348 138.099 20.6023 137.587 20.6023C137.095 20.6023 136.678 20.7292 136.337 20.983C136 21.2367 135.744 21.5909 135.57 22.0455C135.396 22.5 135.309 23.0303 135.309 23.6364ZM146.059 28.1932C145.506 28.1932 145.006 28.0909 144.559 27.8864C144.112 27.678 143.758 27.3769 143.496 26.983C143.239 26.589 143.11 26.1061 143.11 25.5341C143.11 25.0417 143.205 24.6364 143.394 24.3182C143.583 24 143.839 23.7481 144.161 23.5625C144.483 23.3769 144.843 23.2367 145.241 23.142C145.638 23.0473 146.044 22.9754 146.456 22.9261C146.979 22.8655 147.403 22.8163 147.729 22.7784C148.055 22.7367 148.292 22.6705 148.439 22.5795C148.587 22.4886 148.661 22.3409 148.661 22.1364V22.0966C148.661 21.6004 148.521 21.2159 148.241 20.9432C147.964 20.6705 147.551 20.5341 147.002 20.5341C146.43 20.5341 145.979 20.661 145.65 20.9148C145.324 21.1648 145.099 21.4432 144.974 21.75L143.377 21.3864C143.566 20.8561 143.843 20.428 144.206 20.1023C144.574 19.7727 144.996 19.5341 145.474 19.3864C145.951 19.2348 146.453 19.1591 146.979 19.1591C147.328 19.1591 147.697 19.2008 148.087 19.2841C148.481 19.3636 148.849 19.5114 149.189 19.7273C149.534 19.9432 149.816 20.2519 150.036 20.6534C150.256 21.0511 150.366 21.5682 150.366 22.2045V28H148.706V26.8068H148.638C148.528 27.0265 148.364 27.2424 148.144 27.4545C147.924 27.6667 147.642 27.8428 147.297 27.983C146.953 28.1231 146.54 28.1932 146.059 28.1932ZM146.428 26.8295C146.898 26.8295 147.299 26.7367 147.633 26.5511C147.97 26.3655 148.225 26.1231 148.4 25.8239C148.578 25.5208 148.667 25.197 148.667 24.8523V23.7273C148.606 23.7879 148.489 23.8447 148.314 23.8977C148.144 23.947 147.949 23.9905 147.729 24.0284C147.51 24.0625 147.296 24.0947 147.087 24.125C146.879 24.1515 146.705 24.1742 146.564 24.1932C146.235 24.2348 145.934 24.3049 145.661 24.4034C145.392 24.5019 145.176 24.6439 145.013 24.8295C144.854 25.0114 144.775 25.2538 144.775 25.5568C144.775 25.9773 144.93 26.2955 145.241 26.5114C145.551 26.7235 145.947 26.8295 146.428 26.8295ZM151.546 20.7386V19.2727H158.91V20.7386H156.063V28H154.404V20.7386H151.546ZM162.84 28.1932C162.287 28.1932 161.787 28.0909 161.34 27.8864C160.893 27.678 160.539 27.3769 160.278 26.983C160.02 26.589 159.891 26.1061 159.891 25.5341C159.891 25.0417 159.986 24.6364 160.175 24.3182C160.365 24 160.62 23.7481 160.942 23.5625C161.264 23.3769 161.624 23.2367 162.022 23.142C162.42 23.0473 162.825 22.9754 163.238 22.9261C163.76 22.8655 164.185 22.8163 164.51 22.7784C164.836 22.7367 165.073 22.6705 165.221 22.5795C165.368 22.4886 165.442 22.3409 165.442 22.1364V22.0966C165.442 21.6004 165.302 21.2159 165.022 20.9432C164.745 20.6705 164.332 20.5341 163.783 20.5341C163.211 20.5341 162.76 20.661 162.431 20.9148C162.105 21.1648 161.88 21.4432 161.755 21.75L160.158 21.3864C160.348 20.8561 160.624 20.428 160.988 20.1023C161.355 19.7727 161.778 19.5341 162.255 19.3864C162.732 19.2348 163.234 19.1591 163.76 19.1591C164.109 19.1591 164.478 19.2008 164.868 19.2841C165.262 19.3636 165.63 19.5114 165.971 19.7273C166.315 19.9432 166.598 20.2519 166.817 20.6534C167.037 21.0511 167.147 21.5682 167.147 22.2045V28H165.488V26.8068H165.42C165.31 27.0265 165.145 27.2424 164.925 27.4545C164.706 27.6667 164.423 27.8428 164.079 27.983C163.734 28.1231 163.321 28.1932 162.84 28.1932ZM163.209 26.8295C163.679 26.8295 164.081 26.7367 164.414 26.5511C164.751 26.3655 165.007 26.1231 165.181 25.8239C165.359 25.5208 165.448 25.197 165.448 24.8523V23.7273C165.387 23.7879 165.27 23.8447 165.096 23.8977C164.925 23.947 164.73 23.9905 164.51 24.0284C164.291 24.0625 164.077 24.0947 163.868 24.125C163.66 24.1515 163.486 24.1742 163.346 24.1932C163.016 24.2348 162.715 24.3049 162.442 24.4034C162.173 24.5019 161.957 24.6439 161.795 24.8295C161.635 25.0114 161.556 25.2538 161.556 25.5568C161.556 25.9773 161.711 26.2955 162.022 26.5114C162.332 26.7235 162.728 26.8295 163.209 26.8295Z" fill="#061127" fill-opacity="0.7"/>
</svg>
