<svg width="263" height="48" viewBox="0 0 263 48" fill="none" xmlns="http://www.w3.org/2000/svg">
<rect width="262" height="48" transform="translate(0.345703)" fill="white"/>
<path fill-rule="evenodd" clip-rule="evenodd" d="M42.3457 20H41.3457V18C41.3457 15.24 39.1057 13 36.3457 13C33.5857 13 31.3457 15.24 31.3457 18V20H30.3457C29.2457 20 28.3457 20.9 28.3457 22V32C28.3457 33.1 29.2457 34 30.3457 34H42.3457C43.4457 34 44.3457 33.1 44.3457 32V22C44.3457 20.9 43.4457 20 42.3457 20ZM36.3457 29C35.2457 29 34.3457 28.1 34.3457 27C34.3457 25.9 35.2457 25 36.3457 25C37.4457 25 38.3457 25.9 38.3457 27C38.3457 28.1 37.4457 29 36.3457 29ZM33.3457 20V18C33.3457 16.34 34.6857 15 36.3457 15C38.0057 15 39.3457 16.34 39.3457 18V20H33.3457Z" fill="#B3B3B3"/>
<path d="M63.2889 22.1477H61.5162C61.448 21.7689 61.3211 21.4356 61.1355 21.1477C60.9499 20.8598 60.7226 20.6155 60.4537 20.4148C60.1847 20.214 59.8836 20.0625 59.5502 19.9602C59.2207 19.858 58.8703 19.8068 58.4991 19.8068C57.8287 19.8068 57.2283 19.9754 56.698 20.3125C56.1715 20.6496 55.7548 21.1439 55.448 21.7955C55.1449 22.447 54.9934 23.2424 54.9934 24.1818C54.9934 25.1288 55.1449 25.928 55.448 26.5795C55.7548 27.2311 56.1734 27.7235 56.7037 28.0568C57.234 28.3902 57.8306 28.5568 58.4934 28.5568C58.8609 28.5568 59.2093 28.5076 59.5389 28.4091C59.8722 28.3068 60.1734 28.1572 60.4423 27.9602C60.7112 27.7633 60.9385 27.5227 61.1241 27.2386C61.3135 26.9508 61.4442 26.6212 61.5162 26.25L63.2889 26.2557C63.1942 26.8277 63.0105 27.3542 62.7377 27.8352C62.4688 28.3125 62.1222 28.7254 61.698 29.0739C61.2775 29.4186 60.7965 29.6856 60.2548 29.875C59.7131 30.0644 59.1222 30.1591 58.4821 30.1591C57.4745 30.1591 56.5768 29.9205 55.7889 29.4432C55.001 28.9621 54.3798 28.2746 53.9252 27.3807C53.4745 26.4867 53.2491 25.4205 53.2491 24.1818C53.2491 22.9394 53.4764 21.8731 53.9309 20.983C54.3855 20.089 55.0067 19.4034 55.7946 18.9261C56.5824 18.4451 57.4783 18.2045 58.4821 18.2045C59.0995 18.2045 59.6752 18.2936 60.2093 18.4716C60.7472 18.6458 61.2302 18.9034 61.6582 19.2443C62.0862 19.5814 62.4404 19.9943 62.7207 20.483C63.001 20.9678 63.1904 21.5227 63.2889 22.1477ZM68.9295 30.1761C68.1113 30.1761 67.3973 29.9886 66.7875 29.6136C66.1776 29.2386 65.7041 28.714 65.367 28.0398C65.0299 27.3655 64.8613 26.5777 64.8613 25.6761C64.8613 24.7708 65.0299 23.9792 65.367 23.3011C65.7041 22.6231 66.1776 22.0966 66.7875 21.7216C67.3973 21.3466 68.1113 21.1591 68.9295 21.1591C69.7477 21.1591 70.4617 21.3466 71.0716 21.7216C71.6814 22.0966 72.1549 22.6231 72.492 23.3011C72.8291 23.9792 72.9977 24.7708 72.9977 25.6761C72.9977 26.5777 72.8291 27.3655 72.492 28.0398C72.1549 28.714 71.6814 29.2386 71.0716 29.6136C70.4617 29.9886 69.7477 30.1761 68.9295 30.1761ZM68.9352 28.75C69.4655 28.75 69.9049 28.6098 70.2534 28.3295C70.6019 28.0492 70.8594 27.6761 71.0261 27.2102C71.1966 26.7443 71.2818 26.2311 71.2818 25.6705C71.2818 25.1136 71.1966 24.6023 71.0261 24.1364C70.8594 23.6667 70.6019 23.2898 70.2534 23.0057C69.9049 22.7216 69.4655 22.5795 68.9352 22.5795C68.4011 22.5795 67.9579 22.7216 67.6056 23.0057C67.2572 23.2898 66.9977 23.6667 66.8272 24.1364C66.6606 24.6023 66.5772 25.1136 66.5772 25.6705C66.5772 26.2311 66.6606 26.7443 66.8272 27.2102C66.9977 27.6761 67.2572 28.0492 67.6056 28.3295C67.9579 28.6098 68.4011 28.75 68.9352 28.75ZM78.6554 30.1761C77.7955 30.1761 77.055 29.9924 76.4338 29.625C75.8163 29.2538 75.3391 28.733 75.002 28.0625C74.6686 27.3883 74.502 26.5985 74.502 25.6932C74.502 24.7992 74.6686 24.0114 75.002 23.3295C75.3391 22.6477 75.8088 22.1155 76.411 21.733C77.0171 21.3504 77.7254 21.1591 78.536 21.1591C79.0285 21.1591 79.5057 21.2405 79.9679 21.4034C80.43 21.5663 80.8448 21.822 81.2122 22.1705C81.5796 22.5189 81.8694 22.9716 82.0815 23.5284C82.2936 24.0814 82.3997 24.7538 82.3997 25.5455V26.1477H75.4622V24.875H80.7349C80.7349 24.428 80.644 24.0322 80.4622 23.6875C80.2804 23.339 80.0247 23.0644 79.6951 22.8636C79.3694 22.6629 78.9868 22.5625 78.5474 22.5625C78.0701 22.5625 77.6535 22.6799 77.2974 22.9148C76.9451 23.1458 76.6724 23.4489 76.4792 23.8239C76.2898 24.1951 76.1951 24.5985 76.1951 25.0341V26.0284C76.1951 26.6117 76.2974 27.108 76.502 27.517C76.7103 27.9261 77.0001 28.2386 77.3713 28.4545C77.7425 28.6667 78.1762 28.7727 78.6724 28.7727C78.9944 28.7727 79.2879 28.7273 79.5531 28.6364C79.8182 28.5417 80.0474 28.4015 80.2406 28.2159C80.4338 28.0303 80.5815 27.8011 80.6838 27.5284L82.2917 27.8182C82.1629 28.2917 81.9319 28.7064 81.5985 29.0625C81.269 29.4148 80.8542 29.6894 80.3542 29.8864C79.858 30.0795 79.2917 30.1761 78.6554 30.1761ZM83.4324 32.517V28.5284H84.1426C84.3244 28.3617 84.4778 28.1629 84.6028 27.9318C84.7316 27.7008 84.8395 27.4261 84.9267 27.108C85.0176 26.7898 85.0933 26.4186 85.1539 25.9943C85.2145 25.5663 85.2676 25.0777 85.313 24.5284L85.5858 21.2727H91.5176V28.5284H92.8585V32.517H91.1994V30H85.1142V32.517H83.4324ZM85.9608 28.5284H89.8585V22.7273H87.1085L86.9267 24.5284C86.8395 25.4451 86.7297 26.2405 86.5971 26.9148C86.4645 27.5852 86.2524 28.1231 85.9608 28.5284ZM96.1838 27.6193L100.03 21.2727H101.86V30H100.195V23.6477L96.3656 30H94.519V21.2727H96.1838V27.6193ZM110.059 24.9034V26.375H105.331V24.9034H110.059ZM105.809 21.2727V30H104.144V21.2727H105.809ZM111.246 21.2727V30H109.587V21.2727H111.246ZM117.28 30.1761C116.421 30.1761 115.68 29.9924 115.059 29.625C114.441 29.2538 113.964 28.733 113.627 28.0625C113.294 27.3883 113.127 26.5985 113.127 25.6932C113.127 24.7992 113.294 24.0114 113.627 23.3295C113.964 22.6477 114.434 22.1155 115.036 21.733C115.642 21.3504 116.35 21.1591 117.161 21.1591C117.653 21.1591 118.131 21.2405 118.593 21.4034C119.055 21.5663 119.47 21.822 119.837 22.1705C120.205 22.5189 120.494 22.9716 120.706 23.5284C120.919 24.0814 121.025 24.7538 121.025 25.5455V26.1477H114.087V24.875H119.36C119.36 24.428 119.269 24.0322 119.087 23.6875C118.905 23.339 118.65 23.0644 118.32 22.8636C117.994 22.6629 117.612 22.5625 117.172 22.5625C116.695 22.5625 116.278 22.6799 115.922 22.9148C115.57 23.1458 115.297 23.4489 115.104 23.8239C114.915 24.1951 114.82 24.5985 114.82 25.0341V26.0284C114.82 26.6117 114.922 27.108 115.127 27.517C115.335 27.9261 115.625 28.2386 115.996 28.4545C116.367 28.6667 116.801 28.7727 117.297 28.7727C117.619 28.7727 117.913 28.7273 118.178 28.6364C118.443 28.5417 118.672 28.4015 118.866 28.2159C119.059 28.0303 119.206 27.8011 119.309 27.5284L120.917 27.8182C120.788 28.2917 120.557 28.7064 120.224 29.0625C119.894 29.4148 119.479 29.6894 118.979 29.8864C118.483 30.0795 117.917 30.1761 117.28 30.1761ZM128.824 24.9034V26.375H124.097V24.9034H128.824ZM124.574 21.2727V30H122.91V21.2727H124.574ZM130.012 21.2727V30H128.353V21.2727H130.012ZM133.949 27.6193L137.796 21.2727H139.626V30H137.961V23.6477L134.131 30H132.285V21.2727H133.949V27.6193ZM145.671 30.1761C144.811 30.1761 144.071 29.9924 143.449 29.625C142.832 29.2538 142.355 28.733 142.018 28.0625C141.684 27.3883 141.518 26.5985 141.518 25.6932C141.518 24.7992 141.684 24.0114 142.018 23.3295C142.355 22.6477 142.824 22.1155 143.427 21.733C144.033 21.3504 144.741 21.1591 145.552 21.1591C146.044 21.1591 146.521 21.2405 146.983 21.4034C147.446 21.5663 147.86 21.822 148.228 22.1705C148.595 22.5189 148.885 22.9716 149.097 23.5284C149.309 24.0814 149.415 24.7538 149.415 25.5455V26.1477H142.478V24.875H147.751C147.751 24.428 147.66 24.0322 147.478 23.6875C147.296 23.339 147.04 23.0644 146.711 22.8636C146.385 22.6629 146.002 22.5625 145.563 22.5625C145.086 22.5625 144.669 22.6799 144.313 22.9148C143.961 23.1458 143.688 23.4489 143.495 23.8239C143.305 24.1951 143.211 24.5985 143.211 25.0341V26.0284C143.211 26.6117 143.313 27.108 143.518 27.517C143.726 27.9261 144.016 28.2386 144.387 28.4545C144.758 28.6667 145.192 28.7727 145.688 28.7727C146.01 28.7727 146.304 28.7273 146.569 28.6364C146.834 28.5417 147.063 28.4015 147.256 28.2159C147.449 28.0303 147.597 27.8011 147.699 27.5284L149.307 27.8182C149.179 28.2917 148.948 28.7064 148.614 29.0625C148.285 29.4148 147.87 29.6894 147.37 29.8864C146.874 30.0795 146.307 30.1761 145.671 30.1761ZM155.018 27.6932H156.756C156.779 28.0492 156.94 28.3239 157.239 28.517C157.542 28.7102 157.934 28.8068 158.415 28.8068C158.904 28.8068 159.321 28.7027 159.665 28.4943C160.01 28.2822 160.182 27.9545 160.182 27.5114C160.182 27.2462 160.116 27.0152 159.983 26.8182C159.855 26.6174 159.671 26.4621 159.432 26.3523C159.198 26.2424 158.919 26.1875 158.597 26.1875H157.177V24.8523H158.597C159.078 24.8523 159.438 24.7424 159.677 24.5227C159.915 24.303 160.035 24.0284 160.035 23.6989C160.035 23.3428 159.906 23.0568 159.648 22.8409C159.394 22.6212 159.04 22.5114 158.586 22.5114C158.124 22.5114 157.739 22.6155 157.432 22.8239C157.126 23.0284 156.965 23.2936 156.949 23.6193H155.233C155.245 23.1307 155.393 22.7027 155.677 22.3352C155.965 21.964 156.351 21.6761 156.836 21.4716C157.324 21.2633 157.879 21.1591 158.501 21.1591C159.148 21.1591 159.709 21.2633 160.182 21.4716C160.656 21.6799 161.021 21.9678 161.279 22.3352C161.54 22.7027 161.671 23.125 161.671 23.6023C161.671 24.0833 161.527 24.4773 161.239 24.7841C160.955 25.0871 160.584 25.3049 160.126 25.4375V25.5284C160.463 25.5511 160.762 25.6534 161.023 25.8352C161.285 26.017 161.489 26.2576 161.637 26.5568C161.785 26.8561 161.858 27.1951 161.858 27.5739C161.858 28.108 161.711 28.5701 161.415 28.9602C161.124 29.3504 160.718 29.6515 160.199 29.8636C159.684 30.072 159.095 30.1761 158.432 30.1761C157.788 30.1761 157.211 30.0758 156.699 29.875C156.192 29.6705 155.788 29.3826 155.489 29.0114C155.194 28.6402 155.037 28.2008 155.018 27.6932ZM166.153 30.1932C165.599 30.1932 165.099 30.0909 164.653 29.8864C164.206 29.678 163.851 29.3769 163.59 28.983C163.332 28.589 163.204 28.1061 163.204 27.5341C163.204 27.0417 163.298 26.6364 163.488 26.3182C163.677 26 163.933 25.7481 164.255 25.5625C164.577 25.3769 164.937 25.2367 165.334 25.142C165.732 25.0473 166.137 24.9754 166.55 24.9261C167.073 24.8655 167.497 24.8163 167.823 24.7784C168.149 24.7367 168.385 24.6705 168.533 24.5795C168.681 24.4886 168.755 24.3409 168.755 24.1364V24.0966C168.755 23.6004 168.615 23.2159 168.334 22.9432C168.058 22.6705 167.645 22.5341 167.096 22.5341C166.524 22.5341 166.073 22.661 165.743 22.9148C165.418 23.1648 165.192 23.4432 165.067 23.75L163.471 23.3864C163.66 22.8561 163.937 22.428 164.3 22.1023C164.668 21.7727 165.09 21.5341 165.567 21.3864C166.045 21.2348 166.546 21.1591 167.073 21.1591C167.421 21.1591 167.791 21.2008 168.181 21.2841C168.575 21.3636 168.942 21.5114 169.283 21.7273C169.628 21.9432 169.91 22.2519 170.13 22.6534C170.349 23.0511 170.459 23.5682 170.459 24.2045V30H168.8V28.8068H168.732C168.622 29.0265 168.457 29.2424 168.238 29.4545C168.018 29.6667 167.736 29.8428 167.391 29.983C167.046 30.1231 166.634 30.1932 166.153 30.1932ZM166.522 28.8295C166.992 28.8295 167.393 28.7367 167.726 28.5511C168.064 28.3655 168.319 28.1231 168.493 27.8239C168.671 27.5208 168.76 27.197 168.76 26.8523V25.7273C168.7 25.7879 168.582 25.8447 168.408 25.8977C168.238 25.947 168.043 25.9905 167.823 26.0284C167.603 26.0625 167.389 26.0947 167.181 26.125C166.973 26.1515 166.798 26.1742 166.658 26.1932C166.329 26.2348 166.028 26.3049 165.755 26.4034C165.486 26.5019 165.27 26.6439 165.107 26.8295C164.948 27.0114 164.868 27.2538 164.868 27.5568C164.868 27.9773 165.024 28.2955 165.334 28.5114C165.645 28.7235 166.041 28.8295 166.522 28.8295ZM185.228 28.5341L185.069 32.5H183.404V30H182.319V28.5341H185.228ZM172.722 21.2727H174.387V28.5284H177.404V21.2727H179.069V28.5284H182.086V21.2727H183.751V30H172.722V21.2727ZM188.684 27.6193L192.53 21.2727H194.36V30H192.695V23.6477L188.866 30H187.019V21.2727H188.684V27.6193ZM209.15 28.5341L208.991 32.5H207.326V30H206.241V28.5341H209.15ZM196.644 21.2727H198.309V28.5284H201.326V21.2727H202.991V28.5284H206.008V21.2727H207.672V30H196.644V21.2727ZM214.608 30.1761C213.749 30.1761 213.008 29.9924 212.387 29.625C211.769 29.2538 211.292 28.733 210.955 28.0625C210.622 27.3883 210.455 26.5985 210.455 25.6932C210.455 24.7992 210.622 24.0114 210.955 23.3295C211.292 22.6477 211.762 22.1155 212.364 21.733C212.97 21.3504 213.679 21.1591 214.489 21.1591C214.982 21.1591 215.459 21.2405 215.921 21.4034C216.383 21.5663 216.798 21.822 217.165 22.1705C217.533 22.5189 217.823 22.9716 218.035 23.5284C218.247 24.0814 218.353 24.7538 218.353 25.5455V26.1477H211.415V24.875H216.688C216.688 24.428 216.597 24.0322 216.415 23.6875C216.233 23.339 215.978 23.0644 215.648 22.8636C215.323 22.6629 214.94 22.5625 214.501 22.5625C214.023 22.5625 213.607 22.6799 213.251 22.9148C212.898 23.1458 212.626 23.4489 212.432 23.8239C212.243 24.1951 212.148 24.5985 212.148 25.0341V26.0284C212.148 26.6117 212.251 27.108 212.455 27.517C212.663 27.9261 212.953 28.2386 213.324 28.4545C213.696 28.6667 214.129 28.7727 214.626 28.7727C214.948 28.7727 215.241 28.7273 215.506 28.6364C215.771 28.5417 216.001 28.4015 216.194 28.2159C216.387 28.0303 216.535 27.8011 216.637 27.5284L218.245 27.8182C218.116 28.2917 217.885 28.7064 217.552 29.0625C217.222 29.4148 216.807 29.6894 216.307 29.8864C215.811 30.0795 215.245 30.1761 214.608 30.1761ZM226.153 24.9034V26.375H221.425V24.9034H226.153ZM221.903 21.2727V30H220.238V21.2727H221.903ZM227.34 21.2727V30H225.681V21.2727H227.34ZM233.289 30.1761C232.471 30.1761 231.757 29.9886 231.147 29.6136C230.537 29.2386 230.064 28.714 229.726 28.0398C229.389 27.3655 229.221 26.5777 229.221 25.6761C229.221 24.7708 229.389 23.9792 229.726 23.3011C230.064 22.6231 230.537 22.0966 231.147 21.7216C231.757 21.3466 232.471 21.1591 233.289 21.1591C234.107 21.1591 234.821 21.3466 235.431 21.7216C236.041 22.0966 236.514 22.6231 236.851 23.3011C237.189 23.9792 237.357 24.7708 237.357 25.6761C237.357 26.5777 237.189 27.3655 236.851 28.0398C236.514 28.714 236.041 29.2386 235.431 29.6136C234.821 29.9886 234.107 30.1761 233.289 30.1761ZM233.295 28.75C233.825 28.75 234.264 28.6098 234.613 28.3295C234.961 28.0492 235.219 27.6761 235.385 27.2102C235.556 26.7443 235.641 26.2311 235.641 25.6705C235.641 25.1136 235.556 24.6023 235.385 24.1364C235.219 23.6667 234.961 23.2898 234.613 23.0057C234.264 22.7216 233.825 22.5795 233.295 22.5795C232.76 22.5795 232.317 22.7216 231.965 23.0057C231.617 23.2898 231.357 23.6667 231.187 24.1364C231.02 24.6023 230.937 25.1136 230.937 25.6705C230.937 26.2311 231.02 26.7443 231.187 27.2102C231.357 27.6761 231.617 28.0492 231.965 28.3295C232.317 28.6098 232.76 28.75 233.295 28.75Z" fill="#061127" fill-opacity="0.7"/>
</svg>
