<svg width="59" height="43" viewBox="0 0 59 43" fill="none" xmlns="http://www.w3.org/2000/svg">
<path d="M43.2055 41.92C41.8988 41.92 40.6455 41.3467 39.4455 40.2C38.2721 39.0533 37.3121 37.3867 36.5655 35.2C35.8188 33.04 35.4455 30.4267 35.4455 27.36C35.4455 26.9867 35.4455 26.6 35.4455 26.2C35.4721 25.8 35.4988 25.3867 35.5255 24.96C35.2588 24.9867 34.9921 25 34.7255 25C34.4855 25 34.2588 25 34.0455 25C32.4988 25 31.3655 24.8 30.6455 24.4C29.9521 24 29.6055 23.48 29.6055 22.84C29.6055 22.2 29.9121 21.4933 30.5255 20.72C31.1655 19.9467 32.0455 19.16 33.1655 18.36C34.2855 17.56 35.5788 16.84 37.0455 16.2C37.6588 13.9867 38.4588 11.6533 39.4455 9.2C40.4321 6.74667 41.6588 4.18667 43.1255 1.52C43.3121 1.17333 43.5921 1 43.9655 1C44.2055 1 44.4188 1.08 44.6055 1.24C44.7921 1.4 44.8855 1.61333 44.8855 1.88C44.8855 2.01333 44.8455 2.18666 44.7655 2.4C44.5521 2.82667 44.3388 3.26667 44.1255 3.72C43.9121 4.14667 43.6988 4.57333 43.4855 5C43.8855 4.92 44.1921 4.88 44.4055 4.88C44.6188 4.88 44.8721 4.86667 45.1655 4.84C45.4588 4.81333 45.9121 4.76 46.5255 4.68C47.3788 4.54667 48.1788 4.44 48.9255 4.36C49.6988 4.28 50.4188 4.24 51.0855 4.24C53.6188 4.24 55.4855 4.68 56.6855 5.56C57.8855 6.44 58.4855 7.56 58.4855 8.92C58.4855 10.5467 57.6988 12.3333 56.1255 14.28C54.8188 15.88 53.1788 17.4267 51.2055 18.92C49.2588 20.4133 47.0588 21.6933 44.6055 22.76C42.1788 23.8 39.5921 24.4933 36.8455 24.84C36.7388 25.6133 36.6588 26.36 36.6055 27.08C36.5521 27.8 36.5255 28.48 36.5255 29.12C36.5255 31.44 36.7921 33.3467 37.3255 34.84C37.8855 36.36 38.5655 37.5467 39.3655 38.4C40.1921 39.2533 41.0055 39.8533 41.8055 40.2C42.6321 40.5467 43.2988 40.72 43.8055 40.72C44.2055 40.72 44.4721 40.6533 44.6055 40.52C44.7121 40.3867 44.8321 40.32 44.9655 40.32C45.2588 40.32 45.4055 40.52 45.4055 40.92C45.4055 41.24 45.2588 41.4533 44.9655 41.56C44.4055 41.8 43.8188 41.92 43.2055 41.92ZM36.9655 24.12C39.7655 23.56 42.2988 22.7067 44.5655 21.56C46.8588 20.4133 48.8855 19.0933 50.6455 17.6C52.4055 16.1067 53.8855 14.5467 55.0855 12.92C55.7788 12.0133 56.2721 11.2 56.5655 10.48C56.8588 9.73333 57.0055 9.08 57.0055 8.52C57.0055 7.61333 56.6855 6.89333 56.0455 6.36C55.4321 5.8 54.6188 5.4 53.6055 5.16C52.5921 4.92 51.4988 4.8 50.3255 4.8C49.0988 4.8 47.8855 4.90667 46.6855 5.12C45.4855 5.33333 44.4188 5.61333 43.4855 5.96C43.2988 6.04 43.1388 6.05333 43.0055 6C42.2321 7.70667 41.5255 9.34667 40.8855 10.92C40.2721 12.4667 39.7255 13.9467 39.2455 15.36C40.3921 14.9867 41.5921 14.6667 42.8455 14.4C44.0988 14.1333 45.3921 13.9733 46.7255 13.92H46.8855C47.1521 13.92 47.2855 13.9733 47.2855 14.08C47.2855 14.16 47.1521 14.2533 46.8855 14.36C46.6455 14.4667 46.2321 14.5333 45.6455 14.56C44.4188 14.6133 43.2588 14.7733 42.1655 15.04C41.0721 15.28 40.0321 15.5867 39.0455 15.96C38.5388 17.5067 38.1121 18.96 37.7655 20.32C37.4455 21.68 37.1788 22.9467 36.9655 24.12ZM34.2055 24.44C34.4188 24.44 34.6321 24.44 34.8455 24.44C35.0855 24.4133 35.3255 24.3867 35.5655 24.36C35.6721 23.2133 35.8321 22.0267 36.0455 20.8C36.2588 19.5467 36.5388 18.2533 36.8855 16.92C35.1788 17.8 33.8188 18.7867 32.8055 19.88C31.7921 20.9467 31.2855 21.8933 31.2855 22.72C31.2855 23.2267 31.5255 23.64 32.0055 23.96C32.4855 24.28 33.2188 24.44 34.2055 24.44Z" fill="#829D50"/>
<path d="M39.2707 40.3788L39.2728 40.3807C40.5062 41.5593 41.8184 42.17 43.2055 42.17C43.8502 42.17 44.4683 42.0441 45.0578 41.7924C45.2401 41.7249 45.3944 41.6175 45.5015 41.4616C45.6096 41.3044 45.6555 41.1185 45.6555 40.92C45.6555 40.6968 45.6159 40.4842 45.4971 40.3222C45.3677 40.1457 45.1753 40.07 44.9655 40.07C44.742 40.07 44.5601 40.1829 44.4218 40.3496C44.3958 40.3724 44.3435 40.4028 44.2448 40.4275C44.1381 40.4542 43.9934 40.47 43.8055 40.47C43.3486 40.47 42.7188 40.3118 41.9036 39.97C41.1433 39.6403 40.3571 39.064 39.5465 38.2275C38.7771 37.4064 38.1127 36.2532 37.5605 34.7547C37.0404 33.298 36.7755 31.4228 36.7755 29.12C36.7755 28.4869 36.8019 27.8131 36.8548 27.0985C36.9034 26.4429 36.9742 25.7646 37.0675 25.0634C39.7654 24.7063 42.3111 24.0153 44.704 22.9898L44.7052 22.9893C47.1752 21.9153 49.393 20.6254 51.357 19.1188C53.3429 17.616 54.9978 16.056 56.3191 14.4381L56.3199 14.4371C57.9108 12.4688 58.7355 10.6275 58.7355 8.92C58.7355 7.47204 58.0905 6.28034 56.8333 5.3584C55.5696 4.43165 53.6384 3.99 51.0855 3.99C50.4089 3.99 49.6803 4.03058 48.8998 4.11133L48.8988 4.11142C48.1486 4.19181 47.3456 4.29887 46.49 4.4325C45.8788 4.51221 45.4306 4.56487 45.1428 4.59102C44.8544 4.61725 44.609 4.63 44.4055 4.63C44.2734 4.63 44.1145 4.64348 43.9304 4.66923L44.3491 3.8318L44.3491 3.83183L44.3517 3.82645C44.5642 3.37482 44.7767 2.93661 44.9891 2.5118L44.9949 2.50007L44.9996 2.48778C45.0837 2.26338 45.1355 2.05727 45.1355 1.88C45.1355 1.54734 45.0153 1.26205 44.7682 1.05018C44.5374 0.852385 44.2667 0.75 43.9655 0.75C43.7387 0.75 43.5285 0.803147 43.3439 0.917433C43.1603 1.03109 43.0159 1.19657 42.9059 1.40042C41.4353 4.07428 40.2043 6.64308 39.2135 9.10672C38.2409 11.5253 37.4483 13.8293 36.8364 16.0187C35.401 16.6527 34.1284 17.365 33.0202 18.1566C31.8886 18.9648 30.9907 19.7657 30.3329 20.5606L30.3328 20.5606L30.3296 20.5647C29.6992 21.3595 29.3555 22.1202 29.3555 22.84C29.3555 23.5927 29.7724 24.1849 30.5205 24.6165L30.5205 24.6166L30.5241 24.6185C31.3013 25.0503 32.4876 25.25 34.0455 25.25H34.0467H34.048H34.0492H34.0505H34.0517H34.053H34.0542H34.0555H34.0567H34.058H34.0592H34.0605H34.0617H34.063H34.0643H34.0655H34.0668H34.068H34.0693H34.0705H34.0718H34.073H34.0743H34.0756H34.0768H34.0781H34.0793H34.0806H34.0818H34.0831H34.0844H34.0856H34.0869H34.0881H34.0894H34.0907H34.0919H34.0932H34.0945H34.0957H34.097H34.0982H34.0995H34.1008H34.102H34.1033H34.1046H34.1058H34.1071H34.1084H34.1096H34.1109H34.1121H34.1134H34.1147H34.1159H34.1172H34.1185H34.1198H34.121H34.1223H34.1236H34.1248H34.1261H34.1274H34.1286H34.1299H34.1312H34.1324H34.1337H34.135H34.1363H34.1375H34.1388H34.1401H34.1414H34.1426H34.1439H34.1452H34.1464H34.1477H34.149H34.1503H34.1515H34.1528H34.1541H34.1554H34.1567H34.1579H34.1592H34.1605H34.1618H34.163H34.1643H34.1656H34.1669H34.1682H34.1694H34.1707H34.172H34.1733H34.1746H34.1758H34.1771H34.1784H34.1797H34.181H34.1823H34.1835H34.1848H34.1861H34.1874H34.1887H34.19H34.1912H34.1925H34.1938H34.1951H34.1964H34.1977H34.199H34.2002H34.2015H34.2028H34.2041H34.2054H34.2067H34.208H34.2093H34.2105H34.2118H34.2131H34.2144H34.2157H34.217H34.2183H34.2196H34.2209H34.2222H34.2235H34.2248H34.226H34.2273H34.2286H34.2299H34.2312H34.2325H34.2338H34.2351H34.2364H34.2377H34.239H34.2403H34.2416H34.2429H34.2442H34.2455H34.2468H34.2481H34.2494H34.2507H34.252H34.2533H34.2546H34.2559H34.2572H34.2585H34.2598H34.2611H34.2624H34.2637H34.265H34.2663H34.2676H34.2689H34.2702H34.2715H34.2728H34.2741H34.2754H34.2767H34.278H34.2793H34.2806H34.2819H34.2832H34.2846H34.2859H34.2872H34.2885H34.2898H34.2911H34.2924H34.2937H34.295H34.2963H34.2976H34.299H34.3003H34.3016H34.3029H34.3042H34.3055H34.3068H34.3081H34.3094H34.3108H34.3121H34.3134H34.3147H34.316H34.3173H34.3186H34.32H34.3213H34.3226H34.3239H34.3252H34.3265H34.3279H34.3292H34.3305H34.3318H34.3331H34.3344H34.3358H34.3371H34.3384H34.3397H34.341H34.3424H34.3437H34.345H34.3463H34.3476H34.349H34.3503H34.3516H34.3529H34.3543H34.3556H34.3569H34.3582H34.3596H34.3609H34.3622H34.3635H34.3649H34.3662H34.3675H34.3688H34.3702H34.3715H34.3728H34.3741H34.3755H34.3768H34.3781H34.3795H34.3808H34.3821H34.3834H34.3848H34.3861H34.3874H34.3888H34.3901H34.3914H34.3928H34.3941H34.3954H34.3968H34.3981H34.3994H34.4008H34.4021H34.4034H34.4048H34.4061H34.4074H34.4088H34.4101H34.4114H34.4128H34.4141H34.4155H34.4168H34.4181H34.4195H34.4208H34.4221H34.4235H34.4248H34.4262H34.4275H34.4288H34.4302H34.4315H34.4329H34.4342H34.4355H34.4369H34.4382H34.4396H34.4409H34.4423H34.4436H34.4449H34.4463H34.4476H34.449H34.4503H34.4517H34.453H34.4544H34.4557H34.4571H34.4584H34.4597H34.4611H34.4624H34.4638H34.4651H34.4665H34.4678H34.4692H34.4705H34.4719H34.4732H34.4746H34.4759H34.4773H34.4786H34.48H34.4813H34.4827H34.4841H34.4854H34.4868H34.4881H34.4895H34.4908H34.4922H34.4935H34.4949H34.4962H34.4976H34.499H34.5003H34.5017H34.503H34.5044H34.5057H34.5071H34.5085H34.5098H34.5112H34.5125H34.5139H34.5152H34.5166H34.518H34.5193H34.5207H34.522H34.5234H34.5248H34.5261H34.5275H34.5289H34.5302H34.5316H34.533H34.5343H34.5357H34.537H34.5384H34.5398H34.5411H34.5425H34.5439H34.5452H34.5466H34.548H34.5493H34.5507H34.5521H34.5534H34.5548H34.5562H34.5575H34.5589H34.5603H34.5617H34.563H34.5644H34.5658H34.5671H34.5685H34.5699H34.5713H34.5726H34.574H34.5754H34.5767H34.5781H34.5795H34.5809H34.5822H34.5836H34.585H34.5864H34.5877H34.5891H34.5905H34.5919H34.5933H34.5946H34.596H34.5974H34.5988H34.6001H34.6015H34.6029H34.6043H34.6057H34.607H34.6084H34.6098H34.6112H34.6126H34.6139H34.6153H34.6167H34.6181H34.6195H34.6209H34.6222H34.6236H34.625H34.6264H34.6278H34.6292H34.6306H34.6319H34.6333H34.6347H34.6361H34.6375H34.6389H34.6403H34.6416H34.643H34.6444H34.6458H34.6472H34.6486H34.65H34.6514H34.6528H34.6541H34.6555H34.6569H34.6583H34.6597H34.6611H34.6625H34.6639H34.6653H34.6667H34.6681H34.6695H34.6709H34.6723H34.6736H34.675H34.6764H34.6778H34.6792H34.6806H34.682H34.6834H34.6848H34.6862H34.6876H34.689H34.6904H34.6918H34.6932H34.6946H34.696H34.6974H34.6988H34.7002H34.7016H34.703H34.7044H34.7058H34.7072H34.7086H34.71H34.7114H34.7128H34.7142H34.7156H34.717H34.7184H34.7198H34.7213H34.7227H34.7241H34.7255C34.9029 25.25 35.0804 25.2443 35.2578 25.2328C35.2372 25.5576 35.2166 25.8745 35.196 26.1834L35.1955 26.1917V26.2V26.2023V26.2047V26.207V26.2094V26.2117V26.2141V26.2164V26.2187V26.2211V26.2234V26.2258V26.2281V26.2304V26.2328V26.2351V26.2375V26.2398V26.2421V26.2445V26.2468V26.2492V26.2515V26.2538V26.2562V26.2585V26.2608V26.2632V26.2655V26.2678V26.2702V26.2725V26.2748V26.2772V26.2795V26.2818V26.2842V26.2865V26.2888V26.2912V26.2935V26.2958V26.2982V26.3005V26.3028V26.3052V26.3075V26.3098V26.3121V26.3145V26.3168V26.3191V26.3215V26.3238V26.3261V26.3284V26.3308V26.3331V26.3354V26.3378V26.3401V26.3424V26.3447V26.3471V26.3494V26.3517V26.354V26.3563V26.3587V26.361V26.3633V26.3656V26.368V26.3703V26.3726V26.3749V26.3772V26.3796V26.3819V26.3842V26.3865V26.3888V26.3912V26.3935V26.3958V26.3981V26.4004V26.4028V26.4051V26.4074V26.4097V26.412V26.4143V26.4166V26.419V26.4213V26.4236V26.4259V26.4282V26.4305V26.4328V26.4352V26.4375V26.4398V26.4421V26.4444V26.4467V26.449V26.4513V26.4537V26.456V26.4583V26.4606V26.4629V26.4652V26.4675V26.4698V26.4721V26.4744V26.4767V26.4791V26.4814V26.4837V26.486V26.4883V26.4906V26.4929V26.4952V26.4975V26.4998V26.5021V26.5044V26.5067V26.509V26.5113V26.5136V26.5159V26.5182V26.5205V26.5228V26.5251V26.5274V26.5297V26.532V26.5343V26.5366V26.5389V26.5412V26.5435V26.5458V26.5481V26.5504V26.5527V26.555V26.5573V26.5596V26.5619V26.5642V26.5665V26.5688V26.5711V26.5734V26.5757V26.578V26.5803V26.5826V26.5849V26.5872V26.5894V26.5917V26.594V26.5963V26.5986V26.6009V26.6032V26.6055V26.6078V26.6101V26.6124V26.6146V26.6169V26.6192V26.6215V26.6238V26.6261V26.6284V26.6307V26.6329V26.6352V26.6375V26.6398V26.6421V26.6444V26.6467V26.6489V26.6512V26.6535V26.6558V26.6581V26.6604V26.6626V26.6649V26.6672V26.6695V26.6718V26.6741V26.6763V26.6786V26.6809V26.6832V26.6855V26.6877V26.69V26.6923V26.6946V26.6969V26.6991V26.7014V26.7037V26.706V26.7082V26.7105V26.7128V26.7151V26.7173V26.7196V26.7219V26.7242V26.7264V26.7287V26.731V26.7333V26.7355V26.7378V26.7401V26.7424V26.7446V26.7469V26.7492V26.7514V26.7537V26.756V26.7583V26.7605V26.7628V26.7651V26.7673V26.7696V26.7719V26.7741V26.7764V26.7787V26.7809V26.7832V26.7855V26.7877V26.79V26.7923V26.7945V26.7968V26.7991V26.8013V26.8036V26.8059V26.8081V26.8104V26.8126V26.8149V26.8172V26.8194V26.8217V26.8239V26.8262V26.8285V26.8307V26.833V26.8353V26.8375V26.8398V26.842V26.8443V26.8465V26.8488V26.8511V26.8533V26.8556V26.8578V26.8601V26.8623V26.8646V26.8669V26.8691V26.8714V26.8736V26.8759V26.8781V26.8804V26.8826V26.8849V26.8871V26.8894V26.8916V26.8939V26.8961V26.8984V26.9007V26.9029V26.9052V26.9074V26.9097V26.9119V26.9141V26.9164V26.9186V26.9209V26.9231V26.9254V26.9276V26.9299V26.9321V26.9344V26.9366V26.9389V26.9411V26.9434V26.9456V26.9478V26.9501V26.9523V26.9546V26.9568V26.9591V26.9613V26.9635V26.9658V26.968V26.9703V26.9725V26.9748V26.977V26.9792V26.9815V26.9837V26.986V26.9882V26.9904V26.9927V26.9949V26.9971V26.9994V27.0016V27.0039V27.0061V27.0083V27.0106V27.0128V27.015V27.0173V27.0195V27.0217V27.024V27.0262V27.0284V27.0307V27.0329V27.0351V27.0374V27.0396V27.0418V27.0441V27.0463V27.0485V27.0508V27.053V27.0552V27.0574V27.0597V27.0619V27.0641V27.0664V27.0686V27.0708V27.073V27.0753V27.0775V27.0797V27.082V27.0842V27.0864V27.0886V27.0909V27.0931V27.0953V27.0975V27.0998V27.102V27.1042V27.1064V27.1086V27.1109V27.1131V27.1153V27.1175V27.1198V27.122V27.1242V27.1264V27.1286V27.1308V27.1331V27.1353V27.1375V27.1397V27.1419V27.1442V27.1464V27.1486V27.1508V27.153V27.1552V27.1575V27.1597V27.1619V27.1641V27.1663V27.1685V27.1707V27.173V27.1752V27.1774V27.1796V27.1818V27.184V27.1862V27.1884V27.1907V27.1929V27.1951V27.1973V27.1995V27.2017V27.2039V27.2061V27.2083V27.2105V27.2128V27.215V27.2172V27.2194V27.2216V27.2238V27.226V27.2282V27.2304V27.2326V27.2348V27.237V27.2392V27.2414V27.2436V27.2458V27.248V27.2502V27.2524V27.2546V27.2569V27.2591V27.2613V27.2635V27.2657V27.2679V27.2701V27.2723V27.2745V27.2767V27.2789V27.2811V27.2833V27.2854V27.2876V27.2898V27.292V27.2942V27.2964V27.2986V27.3008V27.303V27.3052V27.3074V27.3096V27.3118V27.314V27.3162V27.3184V27.3206V27.3228V27.325V27.3272V27.3293V27.3315V27.3337V27.3359V27.3381V27.3403V27.3425V27.3447V27.3469V27.3491V27.3512V27.3534V27.3556V27.3578V27.36C35.1955 30.4453 35.5709 33.0876 36.329 35.2811C37.0834 37.4905 38.0604 39.196 39.2707 40.3788ZM44.4526 21.3369C42.3064 22.4227 39.9156 23.2443 37.2788 23.8004C37.4791 22.7356 37.7222 21.5954 38.0083 20.3795C38.3448 19.0598 38.7572 17.6506 39.2458 16.1519C40.1872 15.802 41.1782 15.5127 42.2191 15.2842L42.2191 15.2843L42.2247 15.2829C43.3008 15.0204 44.4445 14.8625 45.6563 14.8098L45.6568 14.8097C46.2425 14.7831 46.6958 14.7165 46.9825 14.5904C47.1206 14.535 47.2398 14.4772 47.3288 14.4148C47.3739 14.3833 47.4209 14.344 47.4586 14.2949C47.4967 14.2454 47.5355 14.1722 47.5355 14.08C47.5355 13.9964 47.5076 13.9161 47.4525 13.85C47.4011 13.7883 47.3363 13.7511 47.2783 13.7279C47.1667 13.6832 47.0281 13.67 46.8855 13.67H46.7255V13.6698L46.7155 13.6702C45.3686 13.7241 44.0612 13.8857 42.7934 14.1555C41.7038 14.3873 40.6536 14.6593 39.643 14.9716C40.0817 13.7053 40.5732 12.3858 41.1175 11.0132C41.7337 9.49838 42.412 7.9212 43.1524 6.28165C43.294 6.28626 43.438 6.25157 43.578 6.19233C44.4933 5.85281 45.5432 5.57699 46.7292 5.36614C47.9147 5.15539 49.1134 5.05 50.3255 5.05C51.4818 5.05 52.5556 5.16826 53.5479 5.40327C54.5302 5.63592 55.302 6.01968 55.8769 6.54462L55.8767 6.54481L55.8854 6.55206C56.4629 7.03332 56.7555 7.68008 56.7555 8.52C56.7555 9.03793 56.6194 9.65857 56.3334 10.387C56.0513 11.079 55.572 11.8723 54.8869 12.7681L54.8869 12.7681L54.8843 12.7716C53.6972 14.3807 52.231 15.9268 50.4837 17.4094C48.7406 18.8884 46.731 20.1977 44.4537 21.3364L44.4526 21.3369ZM32.9867 20.0522L32.9867 20.0522L32.9888 20.0499C33.8787 19.0898 35.0485 18.2078 36.5039 17.4065C36.2192 18.5529 35.9842 19.6699 35.7991 20.7576C35.5973 21.918 35.4429 23.0435 35.3359 24.134L34.8317 24.19H34.8316H34.8305H34.8292H34.828H34.8267H34.8255H34.8242H34.823H34.8217H34.8205H34.8192H34.818H34.8167H34.8155H34.8142H34.813H34.8117H34.8105H34.8092H34.808H34.8067H34.8055H34.8042H34.803H34.8017H34.8005H34.7992H34.798H34.7967H34.7955H34.7942H34.793H34.7917H34.7905H34.7892H34.788H34.7867H34.7855H34.7842H34.783H34.7817H34.7805H34.7792H34.778H34.7767H34.7755H34.7742H34.773H34.7717H34.7705H34.7692H34.768H34.7667H34.7655H34.7642H34.763H34.7617H34.7605H34.7592H34.758H34.7567H34.7555H34.7542H34.753H34.7517H34.7505H34.7492H34.748H34.7467H34.7455H34.7442H34.743H34.7417H34.7405H34.7392H34.738H34.7367H34.7355H34.7342H34.733H34.7317H34.7305H34.7292H34.728H34.7267H34.7255H34.7242H34.723H34.7217H34.7205H34.7192H34.718H34.7167H34.7155H34.7142H34.713H34.7117H34.7105H34.7092H34.708H34.7067H34.7055H34.7042H34.703H34.7017H34.7005H34.6992H34.698H34.6967H34.6955H34.6942H34.693H34.6917H34.6905H34.6892H34.688H34.6867H34.6855H34.6842H34.683H34.6817H34.6805H34.6792H34.678H34.6767H34.6755H34.6742H34.673H34.6717H34.6705H34.6692H34.668H34.6667H34.6655H34.6642H34.663H34.6617H34.6605H34.6592H34.658H34.6567H34.6555H34.6542H34.653H34.6517H34.6505H34.6492H34.648H34.6467H34.6455H34.6442H34.643H34.6417H34.6405H34.6392H34.638H34.6367H34.6355H34.6342H34.633H34.6317H34.6305H34.6292H34.628H34.6267H34.6255H34.6242H34.623H34.6217H34.6205H34.6192H34.618H34.6167H34.6155H34.6142H34.613H34.6117H34.6105H34.6092H34.608H34.6067H34.6055H34.6042H34.603H34.6017H34.6005H34.5992H34.598H34.5967H34.5955H34.5942H34.593H34.5917H34.5905H34.5892H34.588H34.5867H34.5855H34.5842H34.583H34.5817H34.5805H34.5792H34.578H34.5767H34.5755H34.5742H34.573H34.5717H34.5705H34.5692H34.568H34.5667H34.5655H34.5642H34.563H34.5617H34.5605H34.5592H34.558H34.5567H34.5555H34.5542H34.553H34.5517H34.5505H34.5492H34.548H34.5467H34.5455H34.5442H34.543H34.5417H34.5405H34.5392H34.538H34.5367H34.5355H34.5342H34.533H34.5317H34.5305H34.5292H34.528H34.5267H34.5255H34.5242H34.523H34.5217H34.5205H34.5192H34.518H34.5167H34.5155H34.5142H34.513H34.5117H34.5105H34.5092H34.508H34.5067H34.5055H34.5042H34.503H34.5017H34.5005H34.4992H34.498H34.4967H34.4955H34.4942H34.493H34.4917H34.4905H34.4892H34.488H34.4867H34.4855H34.4842H34.483H34.4817H34.4805H34.4792H34.478H34.4767H34.4755H34.4742H34.473H34.4717H34.4705H34.4692H34.468H34.4667H34.4655H34.4642H34.463H34.4617H34.4605H34.4592H34.458H34.4567H34.4555H34.4542H34.453H34.4517H34.4505H34.4492H34.448H34.4467H34.4455H34.4442H34.443H34.4417H34.4405H34.4392H34.438H34.4367H34.4355H34.4342H34.433H34.4317H34.4305H34.4292H34.428H34.4267H34.4255H34.4242H34.423H34.4217H34.4205H34.4192H34.418H34.4167H34.4155H34.4142H34.413H34.4117H34.4105H34.4092H34.408H34.4067H34.4055H34.4042H34.403H34.4017H34.4005H34.3992H34.398H34.3967H34.3955H34.3942H34.393H34.3917H34.3905H34.3892H34.388H34.3867H34.3855H34.3842H34.383H34.3817H34.3805H34.3792H34.378H34.3767H34.3755H34.3742H34.373H34.3717H34.3705H34.3692H34.368H34.3667H34.3655H34.3642H34.363H34.3617H34.3605H34.3592H34.358H34.3567H34.3555H34.3542H34.353H34.3517H34.3505H34.3492H34.348H34.3467H34.3455H34.3442H34.343H34.3417H34.3405H34.3392H34.338H34.3367H34.3355H34.3342H34.333H34.3317H34.3305H34.3292H34.328H34.3267H34.3255H34.3242H34.323H34.3217H34.3205H34.3192H34.318H34.3167H34.3155H34.3142H34.313H34.3117H34.3105H34.3092H34.308H34.3067H34.3055H34.3042H34.303H34.3017H34.3005H34.2992H34.298H34.2967H34.2955H34.2942H34.293H34.2917H34.2905H34.2892H34.288H34.2867H34.2855H34.2842H34.283H34.2817H34.2805H34.2792H34.278H34.2767H34.2755H34.2742H34.273H34.2717H34.2705H34.2692H34.268H34.2667H34.2655H34.2642H34.263H34.2617H34.2605H34.2592H34.258H34.2567H34.2555H34.2542H34.253H34.2517H34.2505H34.2492H34.248H34.2467H34.2455H34.2442H34.243H34.2417H34.2405H34.2392H34.238H34.2367H34.2355H34.2342H34.233H34.2317H34.2305H34.2292H34.228H34.2267H34.2255H34.2242H34.223H34.2217H34.2205H34.2192H34.218H34.2167H34.2155H34.2142H34.213H34.2117H34.2105H34.2092H34.208H34.2067H34.2055C33.237 24.19 32.5632 24.0313 32.1441 23.752C31.7224 23.4708 31.5355 23.1304 31.5355 22.72C31.5355 21.9918 31.9862 21.1054 32.9867 20.0522Z" stroke="#829D50" stroke-width="0.5"/>
<path d="M12.16 37.6395C10.48 37.6395 8.90667 37.2929 7.44 36.5995C5.97333 35.9062 4.78667 34.7862 3.88 33.2395C3 31.6929 2.56 29.6529 2.56 27.1195C2.56 26.5595 2.57333 25.9862 2.6 25.3995C2.65333 24.7862 2.73333 24.1595 2.84 23.5195C2.65333 23.4929 2.46667 23.4929 2.28 23.5195C2.09333 23.5195 1.93333 23.5195 1.8 23.5195C1.56 23.5195 1.37333 23.4662 1.24 23.3595C1.10667 23.2529 1.02667 23.0262 1 22.6795C1 22.3062 1.08 21.9595 1.24 21.6395C1.42667 21.3195 1.61333 21.2662 1.8 21.4795C2.09333 21.7195 2.62667 21.8662 3.4 21.9195C3.93333 20.0529 4.73333 18.3329 5.8 16.7595C6.89333 15.1862 8.13333 13.7729 9.52 12.5195C10.9333 11.2395 12.3867 10.1595 13.88 9.27953C15.4 8.37286 16.8533 7.69286 18.24 7.23953C19.6267 6.75953 20.8533 6.51953 21.92 6.51953C22.8267 6.51953 23.5467 6.7062 24.08 7.07953C24.64 7.45286 24.92 8.03953 24.92 8.83953C24.92 9.1862 24.8667 9.53286 24.76 9.87953C24.5467 10.7862 24.2 11.5062 23.72 12.0395C23.2667 12.5729 22.9333 12.8395 22.72 12.8395C22.5867 12.8395 22.52 12.7729 22.52 12.6395C22.52 12.5062 22.6267 12.2262 22.84 11.7995C23.24 11.0795 23.44 10.4529 23.44 9.91953C23.44 9.25286 23.1733 8.75953 22.64 8.43953C22.1067 8.09286 21.4 7.91953 20.52 7.91953C19.4 7.91953 18.1067 8.19953 16.64 8.75953C15.1733 9.31953 13.68 10.1729 12.16 11.3195C10.64 12.4395 9.24 13.8795 7.96 15.6395C6.70667 17.3729 5.73333 19.4395 5.04 21.8395C5.54667 21.7862 6.06667 21.7329 6.6 21.6795C7.13333 21.5995 7.61333 21.5062 8.04 21.3995C11.56 20.6262 14.2133 20.0795 16 19.7595C17.8133 19.4129 18.9467 19.2395 19.4 19.2395C19.8 19.2395 19.7733 19.3329 19.32 19.5195C18.8667 19.7062 18.0933 19.9729 17 20.3195C15.9333 20.6395 14.6267 20.9995 13.08 21.3995C11.5333 21.7729 9.85333 22.1595 8.04 22.5595C7.58667 22.6662 7.05333 22.7995 6.44 22.9595C5.85333 23.1195 5.25333 23.2662 4.64 23.3995C4.48 24.5462 4.4 25.6262 4.4 26.6395C4.4 29.0395 4.8 30.9862 5.6 32.4795C6.4 33.9462 7.45333 35.0129 8.76 35.6795C10.0667 36.3729 11.48 36.7195 13 36.7195C14.5467 36.7195 16.08 36.4129 17.6 35.7995C19.1467 35.1862 20.5467 34.3329 21.8 33.2395C23.0533 32.1195 24 30.8262 24.64 29.3595C24.88 28.8529 25.0933 28.5995 25.28 28.5995C25.4133 28.5995 25.48 28.7062 25.48 28.9195C25.48 29.0529 25.44 29.2395 25.36 29.4795C24.96 30.6529 24.3067 31.7462 23.4 32.7595C22.4933 33.7462 21.4267 34.5995 20.2 35.3195C18.9733 36.0662 17.6667 36.6395 16.28 37.0395C14.8933 37.4395 13.52 37.6395 12.16 37.6395Z" fill="#1C1C1C"/>
<path d="M9.35226 12.3342C7.95114 13.6006 6.69862 15.0283 5.5947 16.6169L5.59469 16.6169L5.59307 16.6192C4.54891 18.1594 3.75694 19.8379 3.21711 21.6536C2.5832 21.5923 2.1839 21.4621 1.97199 21.297C1.84858 21.1638 1.66857 21.0571 1.45132 21.1192C1.25964 21.1739 1.12383 21.3425 1.02406 21.5136L1.02 21.5205L1.01639 21.5277C0.838275 21.884 0.75 22.2691 0.75 22.6795V22.6891L0.750736 22.6987C0.765072 22.8851 0.794511 23.0518 0.844252 23.1927C0.893745 23.333 0.968714 23.4627 1.08383 23.5547C1.2764 23.7088 1.52584 23.7695 1.8 23.7695H1.80078H1.80156H1.80235H1.80313H1.80391H1.8047H1.80548H1.80627H1.80706H1.80784H1.80863H1.80942H1.81021H1.811H1.81179H1.81258H1.81337H1.81416H1.81495H1.81575H1.81654H1.81734H1.81813H1.81893H1.81972H1.82052H1.82132H1.82211H1.82291H1.82371H1.82451H1.82531H1.82611H1.82692H1.82772H1.82852H1.82932H1.83013H1.83093H1.83174H1.83254H1.83335H1.83416H1.83497H1.83577H1.83658H1.83739H1.8382H1.83901H1.83983H1.84064H1.84145H1.84226H1.84308H1.84389H1.84471H1.84552H1.84634H1.84716H1.84797H1.84879H1.84961H1.85043H1.85125H1.85207H1.85289H1.85371H1.85454H1.85536H1.85618H1.85701H1.85783H1.85866H1.85948H1.86031H1.86114H1.86197H1.86279H1.86362H1.86445H1.86528H1.86611H1.86695H1.86778H1.86861H1.86944H1.87028H1.87111H1.87195H1.87278H1.87362H1.87446H1.8753H1.87613H1.87697H1.87781H1.87865H1.87949H1.88033H1.88118H1.88202H1.88286H1.88371H1.88455H1.8854H1.88624H1.88709H1.88793H1.88878H1.88963H1.89048H1.89133H1.89218H1.89303H1.89388H1.89473H1.89558H1.89644H1.89729H1.89814H1.899H1.89985H1.90071H1.90157H1.90242H1.90328H1.90414H1.905H1.90586H1.90672H1.90758H1.90844H1.9093H1.91017H1.91103H1.91189H1.91276H1.91362H1.91449H1.91536H1.91622H1.91709H1.91796H1.91883H1.9197H1.92057H1.92144H1.92231H1.92318H1.92405H1.92493H1.9258H1.92668H1.92755H1.92843H1.9293H1.93018H1.93106H1.93193H1.93281H1.93369H1.93457H1.93545H1.93633H1.93721H1.9381H1.93898H1.93986H1.94075H1.94163H1.94252H1.9434H1.94429H1.94518H1.94606H1.94695H1.94784H1.94873H1.94962H1.95051H1.9514H1.9523H1.95319H1.95408H1.95498H1.95587H1.95677H1.95766H1.95856H1.95945H1.96035H1.96125H1.96215H1.96305H1.96395H1.96485H1.96575H1.96665H1.96755H1.96846H1.96936H1.97026H1.97117H1.97208H1.97298H1.97389H1.9748H1.9757H1.97661H1.97752H1.97843H1.97934H1.98025H1.98116H1.98208H1.98299H1.9839H1.98482H1.98573H1.98665H1.98756H1.98848H1.98939H1.99031H1.99123H1.99215H1.99307H1.99399H1.99491H1.99583H1.99675H1.99768H1.9986H1.99952H2.00045H2.00137H2.0023H2.00322H2.00415H2.00508H2.00601H2.00693H2.00786H2.00879H2.00972H2.01066H2.01159H2.01252H2.01345H2.01439H2.01532H2.01626H2.01719H2.01813H2.01906H2.02H2.02094H2.02188H2.02282H2.02375H2.0247H2.02564H2.02658H2.02752H2.02846H2.02941H2.03035H2.03129H2.03224H2.03318H2.03413H2.03508H2.03603H2.03697H2.03792H2.03887H2.03982H2.04077H2.04172H2.04268H2.04363H2.04458H2.04554H2.04649H2.04744H2.0484H2.04936H2.05031H2.05127H2.05223H2.05319H2.05415H2.05511H2.05607H2.05703H2.05799H2.05895H2.05991H2.06088H2.06184H2.06281H2.06377H2.06474H2.0657H2.06667H2.06764H2.06861H2.06958H2.07054H2.07151H2.07249H2.07346H2.07443H2.0754H2.07637H2.07735H2.07832H2.0793H2.08027H2.08125H2.08223H2.0832H2.08418H2.08516H2.08614H2.08712H2.0881H2.08908H2.09006H2.09105H2.09203H2.09301H2.094H2.09498H2.09597H2.09695H2.09794H2.09893H2.09991H2.1009H2.10189H2.10288H2.10387H2.10486H2.10585H2.10685H2.10784H2.10883H2.10983H2.11082H2.11182H2.11281H2.11381H2.11481H2.1158H2.1168H2.1178H2.1188H2.1198H2.1208H2.1218H2.1228H2.12381H2.12481H2.12581H2.12682H2.12782H2.12883H2.12983H2.13084H2.13185H2.13286H2.13387H2.13487H2.13588H2.13689H2.13791H2.13892H2.13993H2.14094H2.14196H2.14297H2.14398H2.145H2.14602H2.14703H2.14805H2.14907H2.15009H2.1511H2.15212H2.15314H2.15417H2.15519H2.15621H2.15723H2.15825H2.15928H2.1603H2.16133H2.16235H2.16338H2.16441H2.16543H2.16646H2.16749H2.16852H2.16955H2.17058H2.17161H2.17264H2.17368H2.17471H2.17574H2.17678H2.17781H2.17885H2.17988H2.18092H2.18196H2.183H2.18403H2.18507H2.18611H2.18715H2.18819H2.18924H2.19028H2.19132H2.19236H2.19341H2.19445H2.1955H2.19654H2.19759H2.19864H2.19969H2.20073H2.20178H2.20283H2.20388H2.20493H2.20598H2.20704H2.20809H2.20914H2.2102H2.21125H2.21231H2.21336H2.21442H2.21547H2.21653H2.21759H2.21865H2.21971H2.22077H2.22183H2.22289H2.22395H2.22501H2.22608H2.22714H2.2282H2.22927H2.23033H2.2314H2.23247H2.23353H2.2346H2.23567H2.23674H2.23781H2.23888H2.23995H2.24102H2.24209H2.24317H2.24424H2.24531H2.24639H2.24746H2.24854H2.24961H2.25069H2.25177H2.25285H2.25393H2.25501H2.25609H2.25717H2.25825H2.25933H2.26041H2.26149H2.26258H2.26366H2.26475H2.26583H2.26692H2.26801H2.26909H2.27018H2.27127H2.27236H2.27345H2.27454H2.27563H2.27672H2.27781H2.27891H2.28H2.29777L2.31536 23.767C2.39352 23.7559 2.47159 23.75 2.54967 23.7496C2.46356 24.3019 2.3973 24.8447 2.35094 25.3779L2.35073 25.3779L2.35026 25.3882C2.32343 25.9784 2.31 26.5556 2.31 27.1195C2.31 29.6789 2.75408 31.7662 3.66271 33.3632L3.66269 33.3632L3.66433 33.366C4.59364 34.9513 5.81628 36.1085 7.33316 36.8255C8.83443 37.5352 10.4444 37.8895 12.16 37.8895C13.5448 37.8895 14.9415 37.6858 16.3493 37.2797C17.7565 36.8738 19.083 36.2919 20.3282 35.5341C21.5743 34.8026 22.6601 33.9342 23.5841 32.9287L23.5863 32.9262C24.5132 31.8903 25.1848 30.7683 25.5966 29.5602L25.5972 29.5586C25.6795 29.3117 25.73 29.0941 25.73 28.9195C25.73 28.7949 25.712 28.659 25.642 28.547C25.5598 28.4155 25.4266 28.3495 25.28 28.3495C25.0722 28.3495 24.9082 28.4867 24.7888 28.6285C24.662 28.7791 24.5379 28.9912 24.4141 29.2525L24.414 29.2525L24.4109 29.2595C23.7862 30.6911 22.8619 31.9551 21.6346 33.0521C20.4029 34.1263 19.0277 34.9644 17.5078 35.5671L17.5065 35.5677C16.0144 36.1698 14.5127 36.4695 13 36.4695C11.5197 36.4695 10.1467 36.1323 8.87718 35.4587L8.87719 35.4587L8.87362 35.4568C7.61808 34.8163 6.59922 33.789 5.81992 32.3606C5.04608 30.9157 4.65 29.014 4.65 26.6395C4.65 25.6899 4.72119 24.6789 4.86412 23.6062C5.42177 23.4823 5.96854 23.3472 6.50444 23.2011C7.11515 23.0418 7.64544 22.9092 8.09558 22.8033C9.9096 22.4031 11.5906 22.0162 13.1387 21.6426L13.1387 21.6426L13.1426 21.6416C14.6912 21.2411 16.0011 20.8802 17.0718 20.559L17.0718 20.559L17.0756 20.5578C18.1691 20.2111 18.9513 19.9417 19.4152 19.7507C19.5324 19.7024 19.6313 19.6565 19.706 19.613C19.7429 19.5914 19.7812 19.5663 19.8146 19.5371C19.8418 19.5133 19.8968 19.4607 19.9204 19.3782C19.9339 19.3309 19.9368 19.274 19.9177 19.2155C19.8991 19.1586 19.8655 19.1178 19.8346 19.0908C19.7794 19.0425 19.716 19.0233 19.6806 19.0145C19.6026 18.995 19.5034 18.9895 19.4 18.9895C18.9177 18.9895 17.7579 19.169 15.9545 19.5137C14.1629 19.8346 11.5062 20.3821 7.98636 21.1554L7.98633 21.1553L7.97937 21.157C7.56357 21.2609 7.09364 21.3525 6.56897 21.4314C6.16715 21.4716 5.77287 21.5118 5.38614 21.552C6.06446 19.3274 6.99076 17.4067 8.1623 15.7864C9.42945 14.0441 10.8119 12.6234 12.3083 11.5208L12.3083 11.5208L12.3106 11.5191C13.8156 10.3837 15.2885 9.54314 16.7292 8.99309C18.1779 8.43992 19.4401 8.16953 20.52 8.16953C21.3695 8.16953 22.0237 8.33713 22.5038 8.64914L22.5037 8.64928L22.5114 8.6539C22.9631 8.92492 23.19 9.33303 23.19 9.91953C23.19 10.3934 23.0111 10.9768 22.6215 11.6781L22.6213 11.678L22.6164 11.6877C22.5079 11.9047 22.4239 12.0896 22.3664 12.2405C22.3124 12.3823 22.27 12.5231 22.27 12.6395C22.27 12.7447 22.2965 12.8696 22.3932 12.9663C22.49 13.0631 22.6148 13.0895 22.72 13.0895C22.9177 13.0895 23.1126 12.9736 23.2862 12.8347C23.4701 12.6876 23.6778 12.475 23.9082 12.2041C24.4207 11.6335 24.7814 10.8755 25.0014 9.94493C25.1134 9.57823 25.17 9.20952 25.17 8.83953C25.17 7.97517 24.8628 7.30211 24.221 6.87309C23.6324 6.46196 22.8572 6.26953 21.92 6.26953C20.8178 6.26953 19.5632 6.51711 18.1603 7.00258C16.7536 7.46266 15.2842 8.15087 13.7525 9.06446C12.2434 9.95381 10.7767 11.0441 9.35226 12.3342ZM9.35226 12.3342C9.35223 12.3342 9.35221 12.3342 9.35218 12.3342L9.52 12.5195L9.35237 12.3341C9.35233 12.3341 9.3523 12.3341 9.35226 12.3342ZM19.5618 19.5003C19.5618 19.5003 19.5607 19.5001 19.5587 19.4994L19.5594 19.4996C19.561 19.5 19.5618 19.5002 19.5618 19.5003Z" stroke="black" stroke-width="0.5"/>
</svg>
