<svg width="250" height="50" viewBox="0 0 250 50" fill="none" xmlns="http://www.w3.org/2000/svg">
<path d="M1.63081 18.416C1.63081 17.7091 1.49002 16.6486 1.20844 15.2347C0.926863 13.7737 0.786074 12.5012 0.786074 11.4172C0.786074 10.3332 1.06765 9.39064 1.63081 8.58943C3.60186 5.7145 6.55844 4.11209 10.5005 3.78218C14.4426 3.40514 17.8685 4.3713 20.7782 6.68067C21.4352 7.15197 21.5056 7.83535 20.9893 8.73082C20.4731 9.57916 19.6518 10.0976 18.5255 10.2861C17.7277 10.3804 16.3198 10.1683 14.3018 9.64985C12.3308 9.13142 10.8056 9.10786 9.7262 9.57916C8.69374 10.0505 8.08365 10.9224 7.89593 12.1949C7.75514 13.4674 7.80207 14.7399 8.03672 16.0124C8.3183 17.2378 8.22444 18.4631 7.75515 19.6885C8.64681 20.207 9.77313 20.4897 11.1341 20.5369C12.542 20.5369 13.7856 20.4662 14.865 20.3248C15.9444 20.1363 17.0003 20.2777 18.0328 20.749C19.1122 21.1731 19.91 22.0215 20.4262 23.294C19.6753 24.6136 18.5255 25.3912 16.9768 25.6269C15.4282 25.8625 13.8326 26.0039 12.19 26.0511C10.5944 26.0982 9.44462 26.4988 8.74067 27.2529C8.22444 27.8184 7.87247 28.5961 7.68475 29.5858C7.49703 30.5755 7.40317 31.4003 7.40317 32.0601C7.4501 32.72 7.56743 33.8275 7.75515 35.3828C7.94286 36.9381 8.06019 37.9042 8.10712 38.2813C9.6558 38.5641 11.2279 38.4934 12.8236 38.0692C14.4661 37.645 16.2494 37.0088 18.1736 36.1604C20.1446 35.265 21.6698 34.6758 22.7492 34.3931C22.89 34.2517 23.3124 34.4638 24.0163 35.0293C24.3448 36.1604 24.2979 37.1737 23.8755 38.0692C23.4532 38.9647 22.7492 39.6009 21.7637 39.978C20.9189 40.2607 19.6753 40.732 18.0328 41.3919C16.4372 42.0517 15.1466 42.5701 14.1611 42.9471C13.1755 43.2771 11.9554 43.5834 10.5005 43.8662C9.09264 44.149 7.75515 44.2668 6.48804 44.2197C6.15953 44.1725 5.59638 44.149 4.79857 44.149C4.04769 44.1018 3.46107 44.0076 3.0387 43.8662C2.61633 43.6777 2.35822 43.3477 2.26436 42.8764C1.7012 41.0855 1.49002 38.4934 1.63081 35.1C1.81853 31.6595 1.7012 29.0438 1.27884 27.2529C1.23191 27.0172 1.02072 26.6402 0.645284 26.1218C0.316776 25.6033 0.105592 25.2027 0.0117324 24.9199C-0.0351973 24.6372 0.0586622 24.213 0.293311 23.6474C0.293311 23.5532 0.340241 23.4589 0.4341 23.3647C0.57489 23.2233 0.715679 23.1054 0.856468 23.0112C1.04419 22.8698 1.18498 22.752 1.27884 22.6577C1.41963 22.3278 1.51349 21.9743 1.56042 21.5973C1.65427 21.1731 1.7012 20.8196 1.7012 20.5369C1.7012 20.2541 1.67774 19.877 1.63081 19.4057C1.63081 18.9344 1.63081 18.6045 1.63081 18.416Z" fill="white"/>
<path d="M33.0532 14.0329C33.2879 13.2789 33.7337 11.323 34.3907 8.16526C35.0947 4.96042 35.9394 2.67462 36.9249 1.30786C37.3004 0.742295 38.0747 0.365255 39.248 0.176735C40.4681 -0.0117823 41.2659 0.247433 41.6414 0.954381C42.533 2.83958 43.3543 4.93686 44.1052 7.24623C44.8561 9.50846 45.4192 11.5115 45.7947 13.2553C46.217 14.952 46.7567 17.2142 47.4137 20.042C48.0708 22.8227 48.587 24.9671 48.9624 26.4752C48.9624 26.8051 49.2675 27.1351 49.8775 27.465C50.5346 27.7949 50.9569 28.1012 51.1447 28.384C51.6139 29.1852 51.6139 29.8215 51.1447 30.2928C50.3468 32.0366 50.4642 34.3459 51.4966 37.2209C52.5291 40.0958 52.9515 42.1459 52.7637 43.3713C52.6229 44.361 51.8486 44.9973 50.4407 45.2801C49.0797 45.5157 48.0473 45.1858 47.3433 44.2903C46.6863 43.3949 46.1466 41.6039 45.7243 38.9175C45.3488 36.2311 44.5276 34.5109 43.2605 33.7568C41.9464 33.0027 40.3977 32.7435 38.6144 32.9792C36.8311 33.1677 35.3059 33.7568 34.0388 34.7465C33.4756 35.1707 33.0063 35.9484 32.6309 37.0795C32.2554 38.1635 31.9738 39.2474 31.7861 40.3314C31.6453 41.3683 31.3403 42.3816 30.871 43.3713C30.4486 44.361 29.862 44.9737 29.1111 45.2094C28.4072 45.3979 27.3043 45.2094 25.8026 44.6438C25.521 43.3242 25.4975 41.9574 25.7322 40.5435C26.0138 39.1296 26.4596 37.5272 27.0697 35.7363C27.7267 33.8982 28.1491 32.5079 28.3368 31.5653C29.7916 24.9199 31.3638 19.0758 33.0532 14.0329ZM36.9249 20.3955C36.8311 21.0082 36.6199 21.7858 36.2914 22.7284C35.9629 23.6239 35.6578 24.378 35.3763 24.9906C35.1416 25.5562 35.0008 26.1689 34.9539 26.8287C34.907 27.4885 35.1181 27.8891 35.5874 28.0305C36.3852 28.5961 37.6289 28.8317 39.3184 28.7375C41.0078 28.6432 41.9934 28.1012 42.2749 27.1115C42.4626 26.4045 42.5565 25.6505 42.5565 24.8493C42.5565 24.0009 42.533 23.3175 42.4861 22.7991C42.4392 22.2335 42.228 21.4323 41.8526 20.3955C41.4771 19.3586 41.219 18.6988 41.0782 18.416C40.9844 18.0861 40.6324 17.3085 40.0223 16.0831C39.4591 14.8106 39.1541 14.1272 39.1072 14.0329C38.0278 15.3526 37.3004 17.4734 36.9249 20.3955Z" fill="white"/>
<path d="M55.9557 15.5882C55.721 15.2583 55.3925 14.8813 54.9702 14.4571C54.5478 13.9858 54.2193 13.6088 53.9846 13.326C53.75 13.0432 53.5388 12.7133 53.3511 12.3363C53.1634 11.9592 53.093 11.6057 53.1399 11.2758C53.2338 10.9459 53.4215 10.5925 53.7031 10.2154C54.8763 8.75438 56.2138 7.50544 57.7156 6.46858C59.2642 5.43172 60.9537 4.60695 62.784 3.99426C64.6612 3.38157 66.3741 2.88671 67.9228 2.50967C69.5184 2.13263 71.4425 1.73202 73.6951 1.30786C75.9478 0.883686 77.7311 0.506646 79.0451 0.176735C79.9837 -0.0589145 80.8989 0.0824763 81.7905 0.600907C82.6822 1.07221 83.2923 1.70846 83.6208 2.50967C83.9962 3.35801 83.8085 4.15922 83.0576 4.91329C82.3537 5.62024 81.5324 6.09154 80.5938 6.32719C79.0921 6.89275 76.4875 7.43475 72.78 7.95317C69.0726 8.4716 66.3037 9.22568 64.4734 10.2154C63.3941 10.8281 62.9952 11.4644 63.2767 12.1242C64.1684 13.4438 65.3651 14.787 66.8669 16.1538C68.3686 17.5205 69.8469 18.6752 71.3017 19.6178C72.7566 20.5604 74.2583 21.668 75.807 22.9405C77.4026 24.1659 78.6697 25.3441 79.6083 26.4752C80.5469 27.5592 81.2743 28.926 81.7905 30.5755C82.3537 32.178 82.3302 33.8746 81.7201 35.6656C81.0631 38.0692 79.7256 40.0722 77.7076 41.6746C75.7366 43.2299 73.484 44.2903 70.9498 44.8559C68.4155 45.3743 65.764 45.5157 62.9952 45.2801C60.2732 45.0444 57.8094 44.4082 55.6037 43.3713C53.7735 42.4287 53.1634 40.9913 53.7735 39.0589C54.3835 37.1266 55.6272 35.7363 57.5044 34.8879C58.2552 34.7465 58.9123 35.1471 59.4754 36.0897C60.0855 37.0323 60.5783 37.5508 60.9537 37.645C61.2353 37.6922 61.9158 37.7629 62.9952 37.8571C64.1215 37.9514 64.9897 38.1399 65.5998 38.4227C66.3506 38.7526 67.1484 38.9175 67.9932 38.9175C68.8379 38.8704 69.448 38.7997 69.8234 38.7055C70.2458 38.5641 71.0201 38.2341 72.1465 37.7157C73.2728 37.1973 73.9063 36.9145 74.0471 36.8674C75.5489 35.6891 75.807 34.1339 74.8215 32.2015C73.0381 29.8922 69.8938 27.1351 65.3886 23.9302C60.9302 20.7254 57.7859 17.9447 55.9557 15.5882Z" fill="white"/>
<path d="M90.2665 49.6632C89.4687 49.3332 88.9994 48.697 88.8586 47.7544C88.7178 46.8118 88.7647 45.9635 88.9994 45.2094C89.1871 43.984 89.9614 41.2269 91.3224 36.9381C92.7303 32.6021 93.3169 29.4444 93.0823 27.465C92.7538 24.9671 91.3224 20.961 88.7882 15.4468C86.3009 9.93263 84.893 5.83233 84.5645 3.14592C84.4237 2.06194 85.0807 1.19003 86.5356 0.530213C88.0373 -0.176738 89.1636 -0.176738 89.9145 0.530213C91.0408 1.51994 91.9325 3.14592 92.5895 5.40816C93.2465 7.62327 93.8801 9.93263 94.4902 12.3363C95.1472 14.6928 95.945 16.4366 96.8836 17.5677C97.6345 16.5779 98.5965 14.0094 99.7698 9.86194C100.99 5.66737 102.374 3.00453 103.923 1.87342C104.674 1.30786 105.519 1.02508 106.457 1.02508C107.396 1.02508 108.147 1.28429 108.71 1.80272C109.273 2.32115 109.39 2.98097 109.062 3.78218C105.214 13.3496 102.539 19.7592 101.037 23.0112C100.38 24.9906 100.685 26.8051 101.952 28.4547C102.374 28.8789 102.281 29.845 101.67 31.3532C101.436 31.5417 100.849 31.8009 99.9106 32.1308C98.972 32.4607 98.3853 32.932 98.1507 33.5447C96.3204 41.981 95.1941 46.9296 94.7717 48.3907C94.584 48.9562 94.0678 49.4039 93.2231 49.7339C92.4253 50.1109 91.4397 50.0873 90.2665 49.6632Z" fill="white"/>
<path d="M124.542 16.2245C124.823 12.5483 125.339 10.0033 126.09 8.58943C126.184 8.35378 126.301 8.14169 126.442 7.95317C126.208 7.85892 125.762 7.74109 125.105 7.5997C124.495 7.45831 124.049 7.31692 123.767 7.17553C123.063 6.37432 122.829 5.40816 123.063 4.27704C123.345 3.09879 123.838 2.36828 124.542 2.0855C129.938 -0.0824792 135.523 -0.483083 141.295 0.883687C147.068 2.20333 151.878 5.07825 155.726 9.50846C155.867 10.8281 155.844 12.1006 155.656 13.326C155.468 14.5042 155.187 15.5647 154.811 16.5073C154.483 17.4499 153.896 18.3925 153.051 19.3351C152.254 20.2776 151.526 21.0789 150.869 21.7387C150.212 22.3514 149.25 23.0348 147.983 23.7888C146.716 24.5429 145.707 25.132 144.956 25.5562C144.252 25.9804 143.126 26.4988 141.577 27.1115C140.075 27.7242 138.996 28.1719 138.339 28.4547C137.682 28.6903 136.556 29.0909 134.96 29.6565C133.364 30.2221 132.355 30.5755 131.933 30.7169C131.792 31.9423 131.956 33.7804 132.426 36.2311C132.895 38.6348 132.989 40.4493 132.707 41.6746C132.285 42.9 131.44 43.8897 130.173 44.6438C128.906 45.3979 127.545 45.5864 126.09 45.2094C125.856 45.068 125.339 44.526 124.542 43.5834C123.603 36.2311 123.603 27.1115 124.542 16.2245ZM132.285 14.5985C132.285 15.1641 132.144 16.1538 131.863 17.5677C131.581 18.9344 131.464 20.042 131.511 20.8903C131.604 21.6915 132.003 22.21 132.707 22.4456C135.429 23.3882 138.433 22.7991 141.718 20.6783C145.05 18.5103 147.115 15.8474 147.913 12.6897C145.942 11.1816 144.275 10.0033 142.915 9.15499C141.554 8.30665 139.841 7.5997 137.776 7.03414C135.711 6.42145 133.763 6.35076 131.933 6.82206C131.839 6.82206 131.91 6.93988 132.144 7.17553C132.379 7.36405 132.66 7.6704 132.989 8.09457C133.317 8.4716 133.482 8.82508 133.482 9.15499C133.482 9.81481 133.27 10.7338 132.848 11.9121C132.473 13.0903 132.285 13.9858 132.285 14.5985Z" fill="white"/>
<path d="M157.107 22.3749C157.107 21.1967 157.553 18.8402 158.444 15.3054C159.336 11.7236 159.453 9.08429 158.796 7.38762C158.749 7.24623 158.655 6.91632 158.515 6.39789C158.374 5.83233 158.28 5.40816 158.233 5.12538C158.233 4.8426 158.21 4.48912 158.163 4.06495C158.163 3.64078 158.233 3.28731 158.374 3.00453C158.562 2.72175 158.82 2.4861 159.148 2.29758C163.466 -0.106042 167.948 -0.506647 172.594 1.09577C177.24 2.65106 180.877 5.54955 183.505 9.79124C185.71 13.2789 183.458 17.2378 176.747 21.668C178.296 29.9629 180.548 36.9852 183.505 42.7351C183.833 43.3949 183.669 43.984 183.012 44.5024C182.402 45.0209 181.651 45.3036 180.759 45.3508C179.868 45.3979 179.093 45.2094 178.436 44.7852C176.7 43.3242 175.409 41.3447 174.565 38.8468C173.72 36.349 172.922 33.7568 172.171 31.0704C171.467 28.384 170.411 26.2632 169.003 24.7079C168.534 24.1423 167.643 23.9067 166.328 24.0009C165.014 24.048 164.193 24.4015 163.865 25.0613C163.208 27.1822 163.301 30.2692 164.146 34.3224C165.038 38.3284 165.507 40.8027 165.554 41.7453C165.601 42.4052 165.085 42.9707 164.005 43.442C162.926 43.8662 161.87 43.984 160.838 43.7955C159.993 43.5127 159.312 42.8293 158.796 41.7453C158.233 40.2843 157.811 38.6112 157.529 36.726C157.294 34.8408 157.13 33.4269 157.036 32.4843C156.989 31.5417 156.989 29.7036 157.036 26.9701C157.083 24.1894 157.107 22.6577 157.107 22.3749ZM165.273 13.1846C165.226 13.2789 165.085 13.6323 164.85 14.245C164.616 14.8577 164.451 15.3054 164.357 15.5882C164.31 15.871 164.24 16.248 164.146 16.7193C164.099 17.1906 164.123 17.5441 164.217 17.7798C164.357 18.0154 164.592 18.1804 164.921 18.2746C166.939 18.7459 169.027 18.6988 171.186 18.1332C173.344 17.5677 175.198 16.6015 176.747 15.2347C177.263 14.9991 177.685 14.6456 178.014 14.1743C178.389 13.703 178.413 13.2553 178.084 12.8311C176.395 9.29638 173.016 7.24623 167.948 6.68067C167.15 6.58641 166.587 6.91632 166.258 7.67039C165.93 8.37734 165.695 9.39064 165.554 10.7103C165.46 11.9828 165.366 12.8076 165.273 13.1846Z" fill="white"/>
<path d="M186.332 33.1206C186.332 31.8952 186.308 29.9157 186.261 27.1822C186.214 24.4015 186.191 22.21 186.191 20.6076C186.191 19.0051 186.261 17.0257 186.402 14.6692C186.543 12.3127 186.777 10.1212 187.106 8.09457C187.387 6.20937 188.303 5.00755 189.851 4.48913C191.4 3.92357 193.043 4.22991 194.779 5.40816C195.577 6.20937 195.835 6.89275 195.553 7.45831C194.38 10.8045 193.7 14.3628 193.512 18.1332C193.324 21.9036 193.371 26.1925 193.653 30.9997C193.981 35.7598 194.098 39.3181 194.005 41.6746C193.958 42.1931 193.418 42.5465 192.385 42.7351C191.353 42.9236 190.368 42.7822 189.429 42.3109C189.053 42.1224 188.702 41.9103 188.373 41.6746C188.091 41.439 187.833 41.1562 187.599 40.8263C187.411 40.4964 187.223 40.2136 187.035 39.978C186.895 39.6952 186.777 39.3417 186.684 38.9175C186.59 38.4462 186.519 38.0928 186.472 37.8571C186.425 37.5743 186.378 37.1502 186.332 36.5846C186.332 36.019 186.332 35.642 186.332 35.4535C186.332 35.265 186.332 34.8644 186.332 34.2517C186.332 33.639 186.332 33.2619 186.332 33.1206Z" fill="white"/>
<path d="M197.815 40.8263C197.44 40.4021 197.252 39.9073 197.252 39.3417C197.534 37.1266 197.792 32.7435 198.026 26.1925C198.308 19.6414 198.824 14.5514 199.575 10.9224C199.716 10.2625 200.396 9.93263 201.617 9.93263C202.837 9.93263 203.681 10.1683 204.151 10.6396C205.606 12.5719 207.107 15.8239 208.656 20.3955C210.205 24.9199 211.706 28.1483 213.161 30.0807C213.49 29.1852 213.701 28.3133 213.795 27.465C213.889 26.5695 213.889 25.4148 213.795 24.0009C213.748 22.587 213.724 21.7151 213.724 21.3852C213.724 19.877 213.302 17.2613 212.457 13.5381C211.613 9.76768 211.354 6.86919 211.683 4.8426C211.824 3.85287 212.645 3.28731 214.147 3.14592C215.649 3.00453 216.564 3.38157 216.892 4.27704C217.69 6.39789 218.3 8.82508 218.722 11.5586C219.145 14.2921 219.379 16.5544 219.426 18.3453C219.473 20.0891 219.497 22.6106 219.497 25.9097C219.497 26.6166 219.497 27.1351 219.497 27.465C219.497 32.3193 218.535 35.7127 216.611 37.645C216.001 38.352 215.132 38.7526 214.006 38.8468C212.88 38.894 212.011 38.5876 211.401 37.9278C210.744 37.1737 210.087 36.2783 209.43 35.2414C208.773 34.2045 208.234 33.3091 207.811 32.555C207.436 31.8009 206.896 30.7641 206.192 29.4444C205.535 28.0777 205.066 27.1351 204.784 26.6166C204.174 28.2662 203.916 30.5991 204.01 33.6154C204.104 36.5846 203.963 38.894 203.588 40.5435C203.353 41.439 202.555 41.9574 201.194 42.0988C199.833 42.1931 198.707 41.7689 197.815 40.8263Z" fill="white"/>
<path d="M232.088 45.2094C231.337 45.4922 230.704 45.3743 230.187 44.8559C229.671 44.3375 229.39 43.7719 229.343 43.1592C229.108 38.9175 229.39 32.8613 230.187 24.9906C230.985 17.0728 231.384 11.4172 231.384 8.02387C231.384 7.69396 231.29 7.45831 231.103 7.31692C230.962 7.17553 230.727 7.1284 230.399 7.17553C230.117 7.22266 229.859 7.29336 229.624 7.38762C229.39 7.48188 229.085 7.5997 228.709 7.74109C228.334 7.88248 228.076 7.97674 227.935 8.02387C227.653 8.071 226.691 8.4716 225.049 9.22568C223.453 9.93263 222.256 10.0976 221.458 9.72055C220.285 9.20212 219.746 8.30665 219.839 7.03414C219.933 5.76163 220.59 4.81904 221.81 4.20635C224.345 2.93384 226.715 1.99124 228.92 1.37855C231.173 0.76586 233.214 0.43595 235.045 0.388821C236.922 0.341692 239.01 0.318127 241.31 0.318127C243.656 0.318127 246.167 0.270996 248.842 0.176735C248.936 0.176735 249.03 0.270995 249.124 0.459515C249.264 0.600906 249.405 0.789426 249.546 1.02508C249.687 1.26072 249.781 1.42568 249.828 1.51994C250.156 2.50967 250.015 3.4287 249.405 4.27704C248.795 5.07825 247.927 5.66737 246.801 6.04441C244.923 6.42145 243.609 6.60997 242.858 6.60997C242.108 6.60997 240.911 6.63354 239.268 6.68067C237.579 14.9755 236.546 26.6638 236.171 41.7453C236.171 42.9236 234.81 44.0783 232.088 45.2094Z" fill="white"/>
</svg>
