<svg width="80" height="80" viewBox="0 0 80 80" fill="none" xmlns="http://www.w3.org/2000/svg">
<path d="M70 41.4132V36.6665C70 28.71 66.8393 21.0794 61.2132 15.4533C55.5871 9.82721 47.9565 6.6665 40 6.6665C32.0435 6.6665 24.4129 9.82721 18.7868 15.4533C13.1607 21.0794 10 28.71 10 36.6665V41.4132C6.50386 42.9526 3.64267 45.6463 1.8954 49.0434C0.14814 52.4404 -0.379132 56.3346 0.401857 60.074C1.18285 63.8134 3.22469 67.171 6.18556 69.5847C9.14644 71.9984 12.8466 73.3218 16.6667 73.3332C18.4348 73.3332 20.1305 72.6308 21.3807 71.3806C22.631 70.1303 23.3333 68.4346 23.3333 66.6665V46.6665C23.3333 44.8984 22.631 43.2027 21.3807 41.9525C20.1305 40.7022 18.4348 39.9998 16.6667 39.9998V36.6665C16.6667 30.4781 19.125 24.5432 23.5008 20.1673C27.8767 15.7915 33.8116 13.3332 40 13.3332C46.1884 13.3332 52.1233 15.7915 56.4992 20.1673C60.875 24.5432 63.3333 30.4781 63.3333 36.6665V39.9998C61.5652 39.9998 59.8695 40.7022 58.6193 41.9525C57.369 43.2027 56.6667 44.8984 56.6667 46.6665V66.6665H46.6667C45.7826 66.6665 44.9348 67.0177 44.3096 67.6428C43.6845 68.2679 43.3333 69.1158 43.3333 69.9998C43.3333 70.8839 43.6845 71.7317 44.3096 72.3569C44.9348 72.982 45.7826 73.3332 46.6667 73.3332H63.3333C67.1534 73.3218 70.8536 71.9984 73.8144 69.5847C76.7753 67.171 78.8172 63.8134 79.5981 60.074C80.3791 56.3346 79.8519 52.4404 78.1046 49.0434C76.3573 45.6463 73.4961 42.9526 70 41.4132ZM16.6667 66.6665C14.0145 66.6665 11.471 65.6129 9.5956 63.7376C7.72023 61.8622 6.66666 59.3187 6.66666 56.6665C6.66666 54.0143 7.72023 51.4708 9.5956 49.5954C11.471 47.7201 14.0145 46.6665 16.6667 46.6665V66.6665ZM63.3333 66.6665V46.6665C65.9855 46.6665 68.529 47.7201 70.4044 49.5954C72.2798 51.4708 73.3333 54.0143 73.3333 56.6665C73.3333 59.3187 72.2798 61.8622 70.4044 63.7376C68.529 65.6129 65.9855 66.6665 63.3333 66.6665Z" fill="#3C7CFB"/>
</svg>
