<svg width="240" height="60" viewBox="0 0 240 60" fill="none" xmlns="http://www.w3.org/2000/svg">
<g filter="url(#filter0_d_972_2944)">
<rect x="2" y="1" width="236" height="56" rx="10" fill="#32454B" shape-rendering="crispEdges"/>
<path d="M31.8168 36.179C30.9389 36.179 30.1548 36.0277 29.4645 35.7251C28.7784 35.4226 28.2351 35.0028 27.8345 34.4659C27.4382 33.9247 27.2251 33.2983 27.1953 32.5866H29.2024C29.228 32.9744 29.358 33.3111 29.5923 33.5966C29.831 33.8778 30.142 34.0952 30.5256 34.2486C30.9091 34.402 31.3352 34.4787 31.804 34.4787C32.3196 34.4787 32.7756 34.3892 33.1719 34.2102C33.5724 34.0312 33.8857 33.782 34.1115 33.4624C34.3374 33.1385 34.4503 32.7656 34.4503 32.3438C34.4503 31.9048 34.3374 31.5192 34.1115 31.1868C33.8899 30.8501 33.5639 30.5859 33.1335 30.3942C32.7074 30.2024 32.1918 30.1065 31.5866 30.1065H30.4808V28.4957H31.5866C32.0724 28.4957 32.4986 28.4084 32.8651 28.2337C33.2358 28.0589 33.5256 27.8161 33.7344 27.505C33.9432 27.1896 34.0476 26.821 34.0476 26.3991C34.0476 25.9943 33.956 25.6428 33.7727 25.3445C33.5938 25.0419 33.3381 24.8054 33.0057 24.6349C32.6776 24.4645 32.2898 24.3793 31.8423 24.3793C31.4162 24.3793 31.0178 24.4581 30.647 24.6158C30.2805 24.7692 29.9822 24.9908 29.7521 25.2805C29.522 25.5661 29.3984 25.9091 29.3814 26.3097H27.4702C27.4915 25.6023 27.7003 24.9801 28.0966 24.4432C28.4972 23.9062 29.0256 23.4865 29.6818 23.1839C30.3381 22.8814 31.0668 22.7301 31.8679 22.7301C32.7074 22.7301 33.4318 22.8942 34.0412 23.2223C34.6548 23.5462 35.1278 23.9787 35.4602 24.5199C35.7969 25.0611 35.9631 25.6534 35.9588 26.2969C35.9631 27.0298 35.7585 27.652 35.3452 28.1634C34.9361 28.6747 34.3906 29.0178 33.7088 29.1925V29.2947C34.5781 29.4268 35.2514 29.772 35.7287 30.3303C36.2102 30.8885 36.4489 31.581 36.4446 32.4077C36.4489 33.1278 36.2486 33.7734 35.8438 34.3445C35.4432 34.9155 34.8956 35.3651 34.201 35.6932C33.5064 36.017 32.7116 36.179 31.8168 36.179ZM41.7436 36.2173C41.1214 36.2173 40.5589 36.1023 40.0561 35.8722C39.5533 35.6378 39.1548 35.299 38.8608 34.8558C38.571 34.4126 38.4261 33.8693 38.4261 33.2259C38.4261 32.6719 38.5327 32.2159 38.7457 31.858C38.9588 31.5 39.2464 31.2166 39.6087 31.0078C39.9709 30.799 40.3757 30.6413 40.8232 30.5348C41.2706 30.4283 41.7266 30.3473 42.1911 30.2919C42.7791 30.2237 43.2564 30.1683 43.6229 30.1257C43.9893 30.0788 44.2557 30.0043 44.4219 29.902C44.5881 29.7997 44.6712 29.6335 44.6712 29.4034V29.3587C44.6712 28.8004 44.5135 28.3679 44.1982 28.0611C43.8871 27.7543 43.4226 27.6009 42.8047 27.6009C42.1612 27.6009 41.6541 27.7436 41.2834 28.0291C40.9169 28.3104 40.6634 28.6236 40.5227 28.9688L38.7266 28.5597C38.9396 27.9631 39.2507 27.4815 39.6598 27.1151C40.0732 26.7443 40.5483 26.4759 41.0852 26.3097C41.6222 26.1392 42.1868 26.054 42.7791 26.054C43.1712 26.054 43.5866 26.1009 44.0256 26.1946C44.4688 26.2841 44.8821 26.4503 45.2656 26.6932C45.6534 26.9361 45.9709 27.2834 46.218 27.7351C46.4652 28.1825 46.5888 28.7642 46.5888 29.4801V36H44.7223V34.6577H44.6456C44.522 34.9048 44.3366 35.1477 44.0895 35.3864C43.8423 35.625 43.5249 35.8232 43.1371 35.9808C42.7493 36.1385 42.2848 36.2173 41.7436 36.2173ZM42.1591 34.6832C42.6875 34.6832 43.1392 34.5788 43.5142 34.37C43.8935 34.1612 44.1811 33.8885 44.3771 33.5518C44.5774 33.2109 44.6776 32.8466 44.6776 32.4588V31.1932C44.6094 31.2614 44.4773 31.3253 44.2812 31.3849C44.0895 31.4403 43.87 31.4893 43.6229 31.532C43.3757 31.5703 43.1349 31.6065 42.9006 31.6406C42.6662 31.6705 42.4702 31.696 42.3125 31.7173C41.9418 31.7642 41.603 31.843 41.2962 31.9538C40.9936 32.0646 40.7507 32.2244 40.5675 32.4332C40.3885 32.6378 40.299 32.9105 40.299 33.2514C40.299 33.7244 40.4737 34.0824 40.8232 34.3253C41.1726 34.5639 41.6179 34.6832 42.1591 34.6832ZM49.1344 36V26.1818H51.0456V30.2983H51.9661L55.2069 26.1818H57.5719L53.7686 30.9567L57.6167 36H55.2452L52.2857 32.0753H51.0456V36H49.1344ZM61.9585 36.2173C61.3363 36.2173 60.7738 36.1023 60.271 35.8722C59.7681 35.6378 59.3697 35.299 59.0756 34.8558C58.7859 34.4126 58.641 33.8693 58.641 33.2259C58.641 32.6719 58.7475 32.2159 58.9606 31.858C59.1737 31.5 59.4613 31.2166 59.8235 31.0078C60.1857 30.799 60.5906 30.6413 61.038 30.5348C61.4854 30.4283 61.9414 30.3473 62.4059 30.2919C62.994 30.2237 63.4712 30.1683 63.8377 30.1257C64.2042 30.0788 64.4705 30.0043 64.6367 29.902C64.8029 29.7997 64.886 29.6335 64.886 29.4034V29.3587C64.886 28.8004 64.7283 28.3679 64.413 28.0611C64.1019 27.7543 63.6374 27.6009 63.0195 27.6009C62.3761 27.6009 61.869 27.7436 61.4982 28.0291C61.1317 28.3104 60.8782 28.6236 60.7376 28.9688L58.9414 28.5597C59.1545 27.9631 59.4656 27.4815 59.8746 27.1151C60.288 26.7443 60.7631 26.4759 61.3001 26.3097C61.837 26.1392 62.4016 26.054 62.994 26.054C63.386 26.054 63.8015 26.1009 64.2404 26.1946C64.6836 26.2841 65.0969 26.4503 65.4805 26.6932C65.8683 26.9361 66.1857 27.2834 66.4329 27.7351C66.68 28.1825 66.8036 28.7642 66.8036 29.4801V36H64.9371V34.6577H64.8604C64.7369 34.9048 64.5515 35.1477 64.3043 35.3864C64.0572 35.625 63.7397 35.8232 63.3519 35.9808C62.9641 36.1385 62.4996 36.2173 61.9585 36.2173ZM62.3739 34.6832C62.9023 34.6832 63.354 34.5788 63.729 34.37C64.1083 34.1612 64.396 33.8885 64.592 33.5518C64.7923 33.2109 64.8924 32.8466 64.8924 32.4588V31.1932C64.8242 31.2614 64.6921 31.3253 64.4961 31.3849C64.3043 31.4403 64.0849 31.4893 63.8377 31.532C63.5906 31.5703 63.3498 31.6065 63.1154 31.6406C62.881 31.6705 62.685 31.696 62.5273 31.7173C62.1566 31.7642 61.8178 31.843 61.511 31.9538C61.2085 32.0646 60.9656 32.2244 60.7823 32.4332C60.6033 32.6378 60.5138 32.9105 60.5138 33.2514C60.5138 33.7244 60.6886 34.0824 61.038 34.3253C61.3874 34.5639 61.8327 34.6832 62.3739 34.6832ZM68.7676 33.4048H70.7235C70.7491 33.8054 70.9302 34.1143 71.2669 34.3317C71.6078 34.549 72.0488 34.6577 72.59 34.6577C73.1397 34.6577 73.6085 34.5405 73.9963 34.3061C74.3841 34.0675 74.5779 33.6989 74.5779 33.2003C74.5779 32.902 74.5034 32.642 74.3542 32.4205C74.2093 32.1946 74.0027 32.0199 73.7342 31.8963C73.47 31.7727 73.1568 31.7109 72.7946 31.7109H71.1966V30.2088H72.7946C73.3358 30.2088 73.7406 30.0852 74.0091 29.8381C74.2775 29.5909 74.4118 29.282 74.4118 28.9112C74.4118 28.5107 74.2669 28.1889 73.9771 27.946C73.6916 27.6989 73.2931 27.5753 72.7818 27.5753C72.2619 27.5753 71.8294 27.6925 71.4842 27.9268C71.139 28.157 70.9579 28.4553 70.9409 28.8217H69.0105C69.0233 28.272 69.1895 27.7905 69.5091 27.3771C69.8329 26.9595 70.2676 26.6357 70.813 26.4055C71.3627 26.1712 71.987 26.054 72.6859 26.054C73.4146 26.054 74.0453 26.1712 74.5779 26.4055C75.1106 26.6399 75.5218 26.9638 75.8116 27.3771C76.1056 27.7905 76.2527 28.2656 76.2527 28.8026C76.2527 29.3437 76.0907 29.7869 75.7669 30.1321C75.4473 30.473 75.0297 30.718 74.514 30.8672V30.9695C74.8933 30.995 75.2299 31.1101 75.524 31.3146C75.818 31.5192 76.0481 31.7898 76.2143 32.1264C76.3805 32.4631 76.4636 32.8445 76.4636 33.2706C76.4636 33.8714 76.2974 34.3913 75.965 34.8303C75.6369 35.2692 75.1809 35.608 74.5971 35.8466C74.0176 36.081 73.3549 36.1982 72.6092 36.1982C71.8848 36.1982 71.2349 36.0852 70.6596 35.8594C70.0886 35.6293 69.6348 35.3054 69.2981 34.8878C68.9657 34.4702 68.7889 33.9759 68.7676 33.4048ZM81.2944 36.2173C80.6722 36.2173 80.1097 36.1023 79.6069 35.8722C79.104 35.6378 78.7056 35.299 78.4116 34.8558C78.1218 34.4126 77.9769 33.8693 77.9769 33.2259C77.9769 32.6719 78.0835 32.2159 78.2965 31.858C78.5096 31.5 78.7972 31.2166 79.1594 31.0078C79.5217 30.799 79.9265 30.6413 80.3739 30.5348C80.8214 30.4283 81.2773 30.3473 81.7418 30.2919C82.3299 30.2237 82.8072 30.1683 83.1737 30.1257C83.5401 30.0788 83.8065 30.0043 83.9727 29.902C84.1388 29.7997 84.2219 29.6335 84.2219 29.4034V29.3587C84.2219 28.8004 84.0643 28.3679 83.7489 28.0611C83.4379 27.7543 82.9734 27.6009 82.3555 27.6009C81.712 27.6009 81.2049 27.7436 80.8342 28.0291C80.4677 28.3104 80.2141 28.6236 80.0735 28.9688L78.2773 28.5597C78.4904 27.9631 78.8015 27.4815 79.2106 27.1151C79.6239 26.7443 80.0991 26.4759 80.636 26.3097C81.1729 26.1392 81.7376 26.054 82.3299 26.054C82.7219 26.054 83.1374 26.1009 83.5763 26.1946C84.0195 26.2841 84.4329 26.4503 84.8164 26.6932C85.2042 26.9361 85.5217 27.2834 85.7688 27.7351C86.016 28.1825 86.1396 28.7642 86.1396 29.4801V36H84.2731V34.6577H84.1964C84.0728 34.9048 83.8874 35.1477 83.6403 35.3864C83.3931 35.625 83.0756 35.8232 82.6879 35.9808C82.3001 36.1385 81.8356 36.2173 81.2944 36.2173ZM81.7099 34.6832C82.2383 34.6832 82.69 34.5788 83.065 34.37C83.4442 34.1612 83.7319 33.8885 83.9279 33.5518C84.1282 33.2109 84.2283 32.8466 84.2283 32.4588V31.1932C84.1602 31.2614 84.0281 31.3253 83.832 31.3849C83.6403 31.4403 83.4208 31.4893 83.1737 31.532C82.9265 31.5703 82.6857 31.6065 82.4513 31.6406C82.217 31.6705 82.021 31.696 81.8633 31.7173C81.4925 31.7642 81.1538 31.843 80.8469 31.9538C80.5444 32.0646 80.3015 32.2244 80.1183 32.4332C79.9393 32.6378 79.8498 32.9105 79.8498 33.2514C79.8498 33.7244 80.0245 34.0824 80.3739 34.3253C80.7234 34.5639 81.1687 34.6832 81.7099 34.6832ZM87.4675 27.831V26.1818H95.7516V27.831H92.5492V36H90.6827V27.831H87.4675ZM99.2113 29.5568H102.062C103.264 29.5568 104.189 29.8551 104.836 30.4517C105.484 31.0483 105.808 31.8175 105.808 32.7592C105.808 33.3729 105.663 33.9247 105.373 34.4148C105.083 34.9048 104.659 35.2926 104.101 35.5781C103.543 35.8594 102.863 36 102.062 36H97.7731V26.1818H99.646V34.3509H102.062C102.612 34.3509 103.064 34.2081 103.417 33.9226C103.771 33.6328 103.948 33.2642 103.948 32.8168C103.948 32.3437 103.771 31.9581 103.417 31.6598C103.064 31.3572 102.612 31.206 102.062 31.206H99.2113V29.5568ZM116.85 36.1982C115.9 36.1982 115.082 35.983 114.396 35.5526C113.714 35.1179 113.19 34.5192 112.823 33.7564C112.457 32.9936 112.273 32.12 112.273 31.1357C112.273 30.1385 112.461 29.2585 112.836 28.4957C113.211 27.7287 113.739 27.13 114.421 26.6996C115.103 26.2692 115.906 26.054 116.831 26.054C117.577 26.054 118.241 26.1925 118.825 26.4695C119.409 26.7422 119.88 27.1257 120.238 27.62C120.6 28.1143 120.815 28.6918 120.884 29.3523H119.023C118.921 28.892 118.687 28.4957 118.32 28.1634C117.958 27.831 117.472 27.6648 116.863 27.6648C116.33 27.6648 115.864 27.8054 115.463 28.0866C115.067 28.3636 114.758 28.7599 114.536 29.2756C114.315 29.7869 114.204 30.392 114.204 31.0909C114.204 31.8068 114.313 32.4247 114.53 32.9446C114.747 33.4645 115.054 33.8672 115.45 34.1527C115.851 34.4382 116.322 34.581 116.863 34.581C117.225 34.581 117.553 34.5149 117.847 34.3828C118.146 34.2464 118.395 34.0526 118.595 33.8011C118.8 33.5497 118.942 33.2472 119.023 32.8935H120.884C120.815 33.5284 120.609 34.0952 120.263 34.5938C119.918 35.0923 119.456 35.4844 118.876 35.7699C118.301 36.0554 117.626 36.1982 116.85 36.1982ZM127.159 36.1982C126.192 36.1982 125.358 35.9915 124.66 35.5781C123.965 35.1605 123.428 34.5746 123.049 33.8203C122.674 33.0618 122.486 32.1733 122.486 31.1548C122.486 30.1491 122.674 29.2628 123.049 28.4957C123.428 27.7287 123.956 27.13 124.634 26.6996C125.316 26.2692 126.113 26.054 127.025 26.054C127.579 26.054 128.116 26.1456 128.635 26.3288C129.155 26.5121 129.622 26.7997 130.035 27.1918C130.449 27.5838 130.775 28.093 131.013 28.7195C131.252 29.3416 131.371 30.098 131.371 30.9886V31.6662H123.567V30.2344H129.498C129.498 29.7315 129.396 29.2862 129.192 28.8984C128.987 28.5064 128.699 28.1974 128.329 27.9716C127.962 27.7457 127.532 27.6328 127.037 27.6328C126.501 27.6328 126.032 27.7649 125.631 28.0291C125.235 28.2891 124.928 28.63 124.711 29.0518C124.498 29.4695 124.391 29.9233 124.391 30.4134V31.532C124.391 32.1882 124.506 32.7464 124.736 33.2067C124.971 33.6669 125.297 34.0185 125.714 34.2614C126.132 34.5 126.62 34.6193 127.178 34.6193C127.54 34.6193 127.871 34.5682 128.169 34.4659C128.467 34.3594 128.725 34.2017 128.942 33.9929C129.16 33.7841 129.326 33.5263 129.441 33.2195L131.25 33.5455C131.105 34.0781 130.845 34.5447 130.47 34.9453C130.099 35.3416 129.633 35.6506 129.07 35.8722C128.512 36.0895 127.875 36.1982 127.159 36.1982ZM135.365 33.3217L139.692 26.1818H141.75V36H139.877V28.8537L135.569 36H133.492V26.1818H135.365V33.3217ZM138.874 22.858H140.446C140.446 23.5781 140.191 24.1641 139.679 24.6158C139.172 25.0632 138.486 25.2869 137.621 25.2869C136.76 25.2869 136.076 25.0632 135.569 24.6158C135.062 24.1641 134.809 23.5781 134.809 22.858H136.375C136.375 23.1776 136.468 23.4609 136.656 23.7081C136.843 23.951 137.165 24.0724 137.621 24.0724C138.069 24.0724 138.388 23.951 138.58 23.7081C138.776 23.4652 138.874 23.1818 138.874 22.858ZM152.201 26.1818V36H150.335V26.1818H152.201ZM151.39 30.7393V32.3885C151.096 32.5078 150.784 32.6143 150.456 32.7081C150.128 32.7976 149.783 32.8679 149.421 32.919C149.059 32.9702 148.681 32.9957 148.289 32.9957C147.075 32.9957 146.11 32.6996 145.394 32.1072C144.678 31.5107 144.32 30.5987 144.32 29.3714V26.1626H146.18V29.3714C146.18 29.8359 146.265 30.2131 146.436 30.5028C146.606 30.7926 146.849 31.0057 147.164 31.142C147.48 31.2784 147.855 31.3466 148.289 31.3466C148.865 31.3466 149.395 31.2933 149.881 31.1868C150.371 31.076 150.874 30.9268 151.39 30.7393ZM157.601 36.2173C156.979 36.2173 156.416 36.1023 155.914 35.8722C155.411 35.6378 155.012 35.299 154.718 34.8558C154.428 34.4126 154.284 33.8693 154.284 33.2259C154.284 32.6719 154.39 32.2159 154.603 31.858C154.816 31.5 155.104 31.2166 155.466 31.0078C155.828 30.799 156.233 30.6413 156.681 30.5348C157.128 30.4283 157.584 30.3473 158.048 30.2919C158.637 30.2237 159.114 30.1683 159.48 30.1257C159.847 30.0788 160.113 30.0043 160.279 29.902C160.445 29.7997 160.529 29.6335 160.529 29.4034V29.3587C160.529 28.8004 160.371 28.3679 160.056 28.0611C159.744 27.7543 159.28 27.6009 158.662 27.6009C158.019 27.6009 157.512 27.7436 157.141 28.0291C156.774 28.3104 156.521 28.6236 156.38 28.9688L154.584 28.5597C154.797 27.9631 155.108 27.4815 155.517 27.1151C155.931 26.7443 156.406 26.4759 156.943 26.3097C157.48 26.1392 158.044 26.054 158.637 26.054C159.029 26.054 159.444 26.1009 159.883 26.1946C160.326 26.2841 160.74 26.4503 161.123 26.6932C161.511 26.9361 161.828 27.2834 162.075 27.7351C162.323 28.1825 162.446 28.7642 162.446 29.4801V36H160.58V34.6577H160.503C160.379 34.9048 160.194 35.1477 159.947 35.3864C159.7 35.625 159.382 35.8232 158.994 35.9808C158.607 36.1385 158.142 36.2173 157.601 36.2173ZM158.017 34.6832C158.545 34.6832 158.997 34.5788 159.372 34.37C159.751 34.1612 160.039 33.8885 160.235 33.5518C160.435 33.2109 160.535 32.8466 160.535 32.4588V31.1932C160.467 31.2614 160.335 31.3253 160.139 31.3849C159.947 31.4403 159.727 31.4893 159.48 31.532C159.233 31.5703 158.992 31.6065 158.758 31.6406C158.524 31.6705 158.328 31.696 158.17 31.7173C157.799 31.7642 157.46 31.843 157.154 31.9538C156.851 32.0646 156.608 32.2244 156.425 32.4332C156.246 32.6378 156.156 32.9105 156.156 33.2514C156.156 33.7244 156.331 34.0824 156.681 34.3253C157.03 34.5639 157.475 34.6832 158.017 34.6832ZM169.127 36.1982C168.177 36.1982 167.359 35.983 166.673 35.5526C165.991 35.1179 165.467 34.5192 165.1 33.7564C164.734 32.9936 164.551 32.12 164.551 31.1357C164.551 30.1385 164.738 29.2585 165.113 28.4957C165.488 27.7287 166.017 27.13 166.699 26.6996C167.38 26.2692 168.184 26.054 169.108 26.054C169.854 26.054 170.519 26.1925 171.103 26.4695C171.686 26.7422 172.157 27.1257 172.515 27.62C172.877 28.1143 173.093 28.6918 173.161 29.3523H171.301C171.199 28.892 170.964 28.4957 170.598 28.1634C170.235 27.831 169.75 27.6648 169.14 27.6648C168.608 27.6648 168.141 27.8054 167.74 28.0866C167.344 28.3636 167.035 28.7599 166.814 29.2756C166.592 29.7869 166.481 30.392 166.481 31.0909C166.481 31.8068 166.59 32.4247 166.807 32.9446C167.025 33.4645 167.331 33.8672 167.728 34.1527C168.128 34.4382 168.599 34.581 169.14 34.581C169.502 34.581 169.831 34.5149 170.125 34.3828C170.423 34.2464 170.672 34.0526 170.873 33.8011C171.077 33.5497 171.22 33.2472 171.301 32.8935H173.161C173.093 33.5284 172.886 34.0952 172.541 34.5938C172.196 35.0923 171.733 35.4844 171.154 35.7699C170.578 36.0554 169.903 36.1982 169.127 36.1982Z" fill="white"/>
<path d="M212 30.0039C211.995 29.4774 211.783 28.9741 211.41 28.6029L207.12 24.2998C206.933 24.1134 206.679 24.0088 206.415 24.0088C206.151 24.0088 205.897 24.1134 205.71 24.2998C205.616 24.3928 205.542 24.5035 205.491 24.6254C205.44 24.7474 205.414 24.8782 205.414 25.0103C205.414 25.1424 205.44 25.2732 205.491 25.3952C205.542 25.5171 205.616 25.6278 205.71 25.7208L209 29.0032H193C192.735 29.0032 192.48 29.1086 192.293 29.2963C192.105 29.484 192 29.7385 192 30.0039C192 30.2693 192.105 30.5238 192.293 30.7115C192.48 30.8992 192.735 31.0046 193 31.0046H209L205.71 34.297C205.522 34.4841 205.415 34.7384 205.414 35.004C205.414 35.2695 205.518 35.5246 205.705 35.713C205.892 35.9015 206.146 36.0078 206.411 36.0088C206.677 36.0097 206.932 35.9051 207.12 35.718L211.41 31.4149C211.786 31.0413 211.998 30.5339 212 30.0039Z" fill="white"/>
</g>
<defs>
<filter id="filter0_d_972_2944" x="0" y="0" width="240" height="60" filterUnits="userSpaceOnUse" color-interpolation-filters="sRGB">
<feFlood flood-opacity="0" result="BackgroundImageFix"/>
<feColorMatrix in="SourceAlpha" type="matrix" values="0 0 0 0 0 0 0 0 0 0 0 0 0 0 0 0 0 0 127 0" result="hardAlpha"/>
<feOffset dy="1"/>
<feGaussianBlur stdDeviation="1"/>
<feComposite in2="hardAlpha" operator="out"/>
<feColorMatrix type="matrix" values="0 0 0 0 0.054902 0 0 0 0 0.0901961 0 0 0 0 0.101961 0 0 0 0.2 0"/>
<feBlend mode="normal" in2="BackgroundImageFix" result="effect1_dropShadow_972_2944"/>
<feBlend mode="normal" in="SourceGraphic" in2="effect1_dropShadow_972_2944" result="shape"/>
</filter>
</defs>
</svg>
