<svg width="222" height="44" viewBox="0 0 222 44" fill="none" xmlns="http://www.w3.org/2000/svg">
<rect width="221" height="44" transform="translate(0.345703)" fill="white"/>
<path d="M29.9025 24.2273H31.6298L32.8457 25.8125L33.4196 26.517L35.3571 29.0455H33.5616L32.2662 27.358L31.823 26.7443L29.9025 24.2273ZM35.7321 22.1818C35.7321 23.4242 35.5048 24.4924 35.0502 25.3864C34.5957 26.2765 33.9726 26.9621 33.1809 27.4432C32.3931 27.9205 31.4972 28.1591 30.4934 28.1591C29.4859 28.1591 28.5862 27.9205 27.7946 27.4432C27.0067 26.9621 26.3855 26.2746 25.9309 25.3807C25.4764 24.4867 25.2491 23.4205 25.2491 22.1818C25.2491 20.9394 25.4764 19.8731 25.9309 18.983C26.3855 18.089 27.0067 17.4034 27.7946 16.9261C28.5862 16.4451 29.4859 16.2045 30.4934 16.2045C31.4972 16.2045 32.3931 16.4451 33.1809 16.9261C33.9726 17.4034 34.5957 18.089 35.0502 18.983C35.5048 19.8731 35.7321 20.9394 35.7321 22.1818ZM33.9934 22.1818C33.9934 21.2348 33.84 20.4375 33.5332 19.7898C33.2302 19.1383 32.8135 18.6458 32.2832 18.3125C31.7567 17.9754 31.1601 17.8068 30.4934 17.8068C29.823 17.8068 29.2245 17.9754 28.698 18.3125C28.1715 18.6458 27.7548 19.1383 27.448 19.7898C27.1449 20.4375 26.9934 21.2348 26.9934 22.1818C26.9934 23.1288 27.1449 23.928 27.448 24.5795C27.7548 25.2273 28.1715 25.7197 28.698 26.0568C29.2245 26.3902 29.823 26.5568 30.4934 26.5568C31.1601 26.5568 31.7567 26.3902 32.2832 26.0568C32.8135 25.7197 33.2302 25.2273 33.5332 24.5795C33.84 23.928 33.9934 23.1288 33.9934 22.1818ZM40.3244 28.1932C39.7714 28.1932 39.2714 28.0909 38.8244 27.8864C38.3774 27.678 38.0233 27.3769 37.7619 26.983C37.5043 26.589 37.3755 26.1061 37.3755 25.5341C37.3755 25.0417 37.4702 24.6364 37.6596 24.3182C37.849 24 38.1047 23.7481 38.4267 23.5625C38.7486 23.3769 39.1085 23.2367 39.5062 23.142C39.9039 23.0473 40.3092 22.9754 40.7221 22.9261C41.2449 22.8655 41.6691 22.8163 41.9949 22.7784C42.3206 22.7367 42.5574 22.6705 42.7051 22.5795C42.8528 22.4886 42.9267 22.3409 42.9267 22.1364V22.0966C42.9267 21.6004 42.7865 21.2159 42.5062 20.9432C42.2297 20.6705 41.8168 20.5341 41.2676 20.5341C40.6956 20.5341 40.2449 20.661 39.9153 20.9148C39.5895 21.1648 39.3642 21.4432 39.2392 21.75L37.6426 21.3864C37.832 20.8561 38.1085 20.428 38.4721 20.1023C38.8395 19.7727 39.2619 19.5341 39.7392 19.3864C40.2164 19.2348 40.7183 19.1591 41.2449 19.1591C41.5933 19.1591 41.9627 19.2008 42.3528 19.2841C42.7467 19.3636 43.1142 19.5114 43.4551 19.7273C43.7998 19.9432 44.082 20.2519 44.3017 20.6534C44.5214 21.0511 44.6312 21.5682 44.6312 22.2045V28H42.9721V26.8068H42.9039C42.7941 27.0265 42.6293 27.2424 42.4096 27.4545C42.1899 27.6667 41.9077 27.8428 41.563 27.983C41.2183 28.1231 40.8055 28.1932 40.3244 28.1932ZM40.6937 26.8295C41.1634 26.8295 41.5649 26.7367 41.8983 26.5511C42.2354 26.3655 42.4911 26.1231 42.6653 25.8239C42.8433 25.5208 42.9324 25.197 42.9324 24.8523V23.7273C42.8717 23.7879 42.7543 23.8447 42.5801 23.8977C42.4096 23.947 42.2145 23.9905 41.9949 24.0284C41.7752 24.0625 41.5611 24.0947 41.3528 24.125C41.1445 24.1515 40.9702 24.1742 40.8301 24.1932C40.5005 24.2348 40.1994 24.3049 39.9267 24.4034C39.6577 24.5019 39.4418 24.6439 39.2789 24.8295C39.1199 25.0114 39.0403 25.2538 39.0403 25.5568C39.0403 25.9773 39.1956 26.2955 39.5062 26.5114C39.8168 26.7235 40.2127 26.8295 40.6937 26.8295ZM47.6554 31.2727C47.4016 31.2727 47.1705 31.2519 46.9622 31.2102C46.7538 31.1723 46.5985 31.1307 46.4963 31.0852L46.9054 29.6932C47.216 29.7765 47.4925 29.8125 47.7349 29.8011C47.9773 29.7898 48.1913 29.6989 48.377 29.5284C48.5663 29.358 48.733 29.0795 48.877 28.6932L49.0872 28.1136L45.894 19.2727H47.7122L49.9224 26.0455H50.0133L52.2235 19.2727H54.0474L50.4508 29.1648C50.2842 29.6193 50.072 30.0038 49.8145 30.3182C49.5569 30.6364 49.2501 30.875 48.894 31.0341C48.5379 31.1932 48.1251 31.2727 47.6554 31.2727ZM59.7179 19.2727V20.6364H54.9508V19.2727H59.7179ZM56.2292 17.1818H57.9281V25.4375C57.9281 25.767 57.9773 26.0152 58.0758 26.1818C58.1743 26.3447 58.3012 26.4564 58.4565 26.517C58.6156 26.5739 58.7879 26.6023 58.9735 26.6023C59.1099 26.6023 59.2292 26.5928 59.3315 26.5739C59.4338 26.5549 59.5133 26.5398 59.5701 26.5284L59.877 27.9318C59.7785 27.9697 59.6383 28.0076 59.4565 28.0455C59.2747 28.0871 59.0474 28.1098 58.7747 28.1136C58.3277 28.1212 57.911 28.0417 57.5247 27.875C57.1383 27.7083 56.8258 27.4508 56.5872 27.1023C56.3485 26.7538 56.2292 26.3163 56.2292 25.7898V17.1818ZM64.1369 28.1932C63.5839 28.1932 63.0839 28.0909 62.6369 27.8864C62.1899 27.678 61.8358 27.3769 61.5744 26.983C61.3168 26.589 61.188 26.1061 61.188 25.5341C61.188 25.0417 61.2827 24.6364 61.4721 24.3182C61.6615 24 61.9172 23.7481 62.2392 23.5625C62.5611 23.3769 62.921 23.2367 63.3187 23.142C63.7164 23.0473 64.1217 22.9754 64.5346 22.9261C65.0574 22.8655 65.4816 22.8163 65.8074 22.7784C66.1331 22.7367 66.3699 22.6705 66.5176 22.5795C66.6653 22.4886 66.7392 22.3409 66.7392 22.1364V22.0966C66.7392 21.6004 66.599 21.2159 66.3187 20.9432C66.0422 20.6705 65.6293 20.5341 65.0801 20.5341C64.5081 20.5341 64.0574 20.661 63.7278 20.9148C63.402 21.1648 63.1767 21.4432 63.0517 21.75L61.4551 21.3864C61.6445 20.8561 61.921 20.428 62.2846 20.1023C62.652 19.7727 63.0744 19.5341 63.5517 19.3864C64.0289 19.2348 64.5308 19.1591 65.0574 19.1591C65.4058 19.1591 65.7752 19.2008 66.1653 19.2841C66.5592 19.3636 66.9267 19.5114 67.2676 19.7273C67.6123 19.9432 67.8945 20.2519 68.1142 20.6534C68.3339 21.0511 68.4437 21.5682 68.4437 22.2045V28H66.7846V26.8068H66.7164C66.6066 27.0265 66.4418 27.2424 66.2221 27.4545C66.0024 27.6667 65.7202 27.8428 65.3755 27.983C65.0308 28.1231 64.618 28.1932 64.1369 28.1932ZM64.5062 26.8295C64.9759 26.8295 65.3774 26.7367 65.7108 26.5511C66.0479 26.3655 66.3036 26.1231 66.4778 25.8239C66.6558 25.5208 66.7449 25.197 66.7449 24.8523V23.7273C66.6842 23.7879 66.5668 23.8447 66.3926 23.8977C66.2221 23.947 66.027 23.9905 65.8074 24.0284C65.5877 24.0625 65.3736 24.0947 65.1653 24.125C64.957 24.1515 64.7827 24.1742 64.6426 24.1932C64.313 24.2348 64.0119 24.3049 63.7392 24.4034C63.4702 24.5019 63.2543 24.6439 63.0914 24.8295C62.9324 25.0114 62.8528 25.2538 62.8528 25.5568C62.8528 25.9773 63.0081 26.2955 63.3187 26.5114C63.6293 26.7235 64.0252 26.8295 64.5062 26.8295ZM70.7065 28V19.2727H72.3485V20.6591H72.4395C72.5985 20.1894 72.8788 19.8201 73.2804 19.5511C73.6857 19.2784 74.144 19.142 74.6554 19.142C74.7614 19.142 74.8864 19.1458 75.0304 19.1534C75.1781 19.161 75.2936 19.1705 75.377 19.1818V20.8068C75.3088 20.7879 75.1876 20.767 75.0133 20.7443C74.8391 20.7178 74.6648 20.7045 74.4906 20.7045C74.0891 20.7045 73.7311 20.7898 73.4167 20.9602C73.1061 21.1269 72.8599 21.3598 72.6781 21.6591C72.4963 21.9545 72.4054 22.2917 72.4054 22.6705V28H70.7065ZM76.8471 28V19.2727H78.546V28H76.8471ZM77.7051 17.9261C77.4096 17.9261 77.1558 17.8277 76.9437 17.6307C76.7354 17.4299 76.6312 17.1913 76.6312 16.9148C76.6312 16.6345 76.7354 16.3958 76.9437 16.1989C77.1558 15.9981 77.4096 15.8977 77.7051 15.8977C78.0005 15.8977 78.2524 15.9981 78.4608 16.1989C78.6729 16.3958 78.7789 16.6345 78.7789 16.9148C78.7789 17.1913 78.6729 17.4299 78.4608 17.6307C78.2524 17.8277 78.0005 17.9261 77.7051 17.9261ZM80.9679 28V16.3636H82.6667V20.6875H82.769C82.8675 20.5057 83.0095 20.2955 83.1951 20.0568C83.3807 19.8182 83.6383 19.6098 83.9679 19.4318C84.2974 19.25 84.733 19.1591 85.2747 19.1591C85.9792 19.1591 86.608 19.3371 87.161 19.6932C87.7141 20.0492 88.1478 20.5625 88.4622 21.233C88.7804 21.9034 88.9395 22.7102 88.9395 23.6534C88.9395 24.5966 88.7823 25.4053 88.4679 26.0795C88.1535 26.75 87.7217 27.267 87.1724 27.6307C86.6232 27.9905 85.9963 28.1705 85.2917 28.1705C84.7614 28.1705 84.3277 28.0814 83.9906 27.9034C83.6573 27.7254 83.3959 27.517 83.2065 27.2784C83.0171 27.0398 82.8713 26.8277 82.769 26.642H82.627V28H80.9679ZM82.6326 23.6364C82.6326 24.25 82.7217 24.7879 82.8997 25.25C83.0777 25.7121 83.3353 26.0739 83.6724 26.3352C84.0095 26.5928 84.4224 26.7216 84.911 26.7216C85.4186 26.7216 85.8429 26.5871 86.1838 26.3182C86.5247 26.0455 86.7823 25.6761 86.9565 25.2102C87.1345 24.7443 87.2235 24.2197 87.2235 23.6364C87.2235 23.0606 87.1364 22.5436 86.9622 22.0852C86.7917 21.6269 86.5342 21.2652 86.1895 21C85.8485 20.7348 85.4224 20.6023 84.911 20.6023C84.4186 20.6023 84.002 20.7292 83.661 20.983C83.3239 21.2367 83.0682 21.5909 82.894 22.0455C82.7198 22.5 82.6326 23.0303 82.6326 23.6364ZM98.7576 28.1761C97.9395 28.1761 97.2254 27.9886 96.6156 27.6136C96.0057 27.2386 95.5323 26.714 95.1951 26.0398C94.858 25.3655 94.6895 24.5777 94.6895 23.6761C94.6895 22.7708 94.858 21.9792 95.1951 21.3011C95.5323 20.6231 96.0057 20.0966 96.6156 19.7216C97.2254 19.3466 97.9395 19.1591 98.7576 19.1591C99.5758 19.1591 100.29 19.3466 100.9 19.7216C101.51 20.0966 101.983 20.6231 102.32 21.3011C102.657 21.9792 102.826 22.7708 102.826 23.6761C102.826 24.5777 102.657 25.3655 102.32 26.0398C101.983 26.714 101.51 27.2386 100.9 27.6136C100.29 27.9886 99.5758 28.1761 98.7576 28.1761ZM98.7633 26.75C99.2936 26.75 99.733 26.6098 100.081 26.3295C100.43 26.0492 100.688 25.6761 100.854 25.2102C101.025 24.7443 101.11 24.2311 101.11 23.6705C101.11 23.1136 101.025 22.6023 100.854 22.1364C100.688 21.6667 100.43 21.2898 100.081 21.0057C99.733 20.7216 99.2936 20.5795 98.7633 20.5795C98.2292 20.5795 97.786 20.7216 97.4338 21.0057C97.0853 21.2898 96.8258 21.6667 96.6554 22.1364C96.4887 22.6023 96.4054 23.1136 96.4054 23.6705C96.4054 24.2311 96.4887 24.7443 96.6554 25.2102C96.8258 25.6761 97.0853 26.0492 97.4338 26.3295C97.786 26.6098 98.2292 26.75 98.7633 26.75ZM106.421 16.3636V28H104.722V16.3636H106.421ZM108.706 28V19.2727H110.405V28H108.706ZM109.564 17.9261C109.269 17.9261 109.015 17.8277 108.803 17.6307C108.595 17.4299 108.491 17.1913 108.491 16.9148C108.491 16.6345 108.595 16.3958 108.803 16.1989C109.015 15.9981 109.269 15.8977 109.564 15.8977C109.86 15.8977 110.112 15.9981 110.32 16.1989C110.532 16.3958 110.638 16.6345 110.638 16.9148C110.638 17.1913 110.532 17.4299 110.32 17.6307C110.112 17.8277 109.86 17.9261 109.564 17.9261ZM119.231 21.4034L117.691 21.6761C117.626 21.4792 117.524 21.2917 117.384 21.1136C117.248 20.9356 117.062 20.7898 116.827 20.6761C116.592 20.5625 116.299 20.5057 115.947 20.5057C115.465 20.5057 115.064 20.6136 114.742 20.8295C114.42 21.0417 114.259 21.3163 114.259 21.6534C114.259 21.9451 114.367 22.1799 114.583 22.358C114.799 22.536 115.147 22.6818 115.628 22.7955L117.015 23.1136C117.818 23.2992 118.416 23.5852 118.81 23.9716C119.204 24.358 119.401 24.8598 119.401 25.4773C119.401 26 119.25 26.4659 118.947 26.875C118.647 27.2803 118.229 27.5985 117.691 27.8295C117.157 28.0606 116.537 28.1761 115.833 28.1761C114.856 28.1761 114.058 27.9678 113.441 27.5511C112.823 27.1307 112.445 26.5341 112.305 25.7614L113.947 25.5114C114.049 25.9394 114.259 26.2633 114.577 26.483C114.895 26.6989 115.31 26.8068 115.822 26.8068C116.378 26.8068 116.823 26.6913 117.157 26.4602C117.49 26.2254 117.657 25.9394 117.657 25.6023C117.657 25.3295 117.555 25.1004 117.35 24.9148C117.149 24.7292 116.84 24.589 116.424 24.4943L114.947 24.1705C114.132 23.9848 113.53 23.6894 113.14 23.2841C112.753 22.8788 112.56 22.3655 112.56 21.7443C112.56 21.2292 112.704 20.7784 112.992 20.392C113.28 20.0057 113.678 19.7045 114.185 19.4886C114.693 19.2689 115.274 19.1591 115.93 19.1591C116.873 19.1591 117.615 19.3636 118.157 19.7727C118.698 20.178 119.056 20.7216 119.231 21.4034ZM122.968 22.8182V28H121.269V16.3636H122.945V20.6932H123.053C123.258 20.2235 123.57 19.8504 123.991 19.5739C124.411 19.2973 124.96 19.1591 125.638 19.1591C126.237 19.1591 126.76 19.2822 127.206 19.5284C127.657 19.7746 128.006 20.142 128.252 20.6307C128.502 21.1155 128.627 21.7216 128.627 22.4489V28H126.928V22.6534C126.928 22.0133 126.763 21.517 126.434 21.1648C126.104 20.8087 125.646 20.6307 125.059 20.6307C124.657 20.6307 124.297 20.7159 123.979 20.8864C123.665 21.0568 123.417 21.3068 123.235 21.6364C123.057 21.9621 122.968 22.3561 122.968 22.8182ZM141.668 21.4034L140.128 21.6761C140.064 21.4792 139.962 21.2917 139.822 21.1136C139.685 20.9356 139.5 20.7898 139.265 20.6761C139.03 20.5625 138.736 20.5057 138.384 20.5057C137.903 20.5057 137.501 20.6136 137.18 20.8295C136.858 21.0417 136.697 21.3163 136.697 21.6534C136.697 21.9451 136.805 22.1799 137.02 22.358C137.236 22.536 137.585 22.6818 138.066 22.7955L139.452 23.1136C140.255 23.2992 140.854 23.5852 141.248 23.9716C141.642 24.358 141.839 24.8598 141.839 25.4773C141.839 26 141.687 26.4659 141.384 26.875C141.085 27.2803 140.666 27.5985 140.128 27.8295C139.594 28.0606 138.975 28.1761 138.27 28.1761C137.293 28.1761 136.496 27.9678 135.878 27.5511C135.261 27.1307 134.882 26.5341 134.742 25.7614L136.384 25.5114C136.486 25.9394 136.697 26.2633 137.015 26.483C137.333 26.6989 137.748 26.8068 138.259 26.8068C138.816 26.8068 139.261 26.6913 139.594 26.4602C139.928 26.2254 140.094 25.9394 140.094 25.6023C140.094 25.3295 139.992 25.1004 139.787 24.9148C139.587 24.7292 139.278 24.589 138.861 24.4943L137.384 24.1705C136.57 23.9848 135.967 23.6894 135.577 23.2841C135.191 22.8788 134.998 22.3655 134.998 21.7443C134.998 21.2292 135.142 20.7784 135.43 20.392C135.717 20.0057 136.115 19.7045 136.623 19.4886C137.13 19.2689 137.712 19.1591 138.367 19.1591C139.31 19.1591 140.053 19.3636 140.594 19.7727C141.136 20.178 141.494 20.7216 141.668 21.4034ZM145.405 22.8182V28H143.706V16.3636H145.383V20.6932H145.491C145.695 20.2235 146.008 19.8504 146.428 19.5739C146.849 19.2973 147.398 19.1591 148.076 19.1591C148.674 19.1591 149.197 19.2822 149.644 19.5284C150.095 19.7746 150.443 20.142 150.689 20.6307C150.939 21.1155 151.064 21.7216 151.064 22.4489V28H149.366V22.6534C149.366 22.0133 149.201 21.517 148.871 21.1648C148.542 20.8087 148.083 20.6307 147.496 20.6307C147.095 20.6307 146.735 20.7159 146.417 20.8864C146.102 21.0568 145.854 21.3068 145.672 21.6364C145.494 21.9621 145.405 22.3561 145.405 22.8182ZM155.871 28.1932C155.318 28.1932 154.818 28.0909 154.371 27.8864C153.924 27.678 153.57 27.3769 153.309 26.983C153.051 26.589 152.922 26.1061 152.922 25.5341C152.922 25.0417 153.017 24.6364 153.206 24.3182C153.396 24 153.652 23.7481 153.974 23.5625C154.296 23.3769 154.655 23.2367 155.053 23.142C155.451 23.0473 155.856 22.9754 156.269 22.9261C156.792 22.8655 157.216 22.8163 157.542 22.7784C157.867 22.7367 158.104 22.6705 158.252 22.5795C158.4 22.4886 158.474 22.3409 158.474 22.1364V22.0966C158.474 21.6004 158.333 21.2159 158.053 20.9432C157.777 20.6705 157.364 20.5341 156.814 20.5341C156.242 20.5341 155.792 20.661 155.462 20.9148C155.136 21.1648 154.911 21.4432 154.786 21.75L153.189 21.3864C153.379 20.8561 153.655 20.428 154.019 20.1023C154.386 19.7727 154.809 19.5341 155.286 19.3864C155.763 19.2348 156.265 19.1591 156.792 19.1591C157.14 19.1591 157.51 19.2008 157.9 19.2841C158.294 19.3636 158.661 19.5114 159.002 19.7273C159.347 19.9432 159.629 20.2519 159.849 20.6534C160.068 21.0511 160.178 21.5682 160.178 22.2045V28H158.519V26.8068H158.451C158.341 27.0265 158.176 27.2424 157.956 27.4545C157.737 27.6667 157.455 27.8428 157.11 27.983C156.765 28.1231 156.352 28.1932 155.871 28.1932ZM156.241 26.8295C156.71 26.8295 157.112 26.7367 157.445 26.5511C157.782 26.3655 158.038 26.1231 158.212 25.8239C158.39 25.5208 158.479 25.197 158.479 24.8523V23.7273C158.419 23.7879 158.301 23.8447 158.127 23.8977C157.956 23.947 157.761 23.9905 157.542 24.0284C157.322 24.0625 157.108 24.0947 156.9 24.125C156.691 24.1515 156.517 24.1742 156.377 24.1932C156.047 24.2348 155.746 24.3049 155.474 24.4034C155.205 24.5019 154.989 24.6439 154.826 24.8295C154.667 25.0114 154.587 25.2538 154.587 25.5568C154.587 25.9773 154.742 26.2955 155.053 26.5114C155.364 26.7235 155.76 26.8295 156.241 26.8295ZM162.441 28V19.2727H164.083V20.6591H164.174C164.333 20.1894 164.613 19.8201 165.015 19.5511C165.42 19.2784 165.878 19.142 166.39 19.142C166.496 19.142 166.621 19.1458 166.765 19.1534C166.912 19.161 167.028 19.1705 167.111 19.1818V20.8068C167.043 20.7879 166.922 20.767 166.748 20.7443C166.573 20.7178 166.399 20.7045 166.225 20.7045C165.823 20.7045 165.465 20.7898 165.151 20.9602C164.84 21.1269 164.594 21.3598 164.412 21.6591C164.231 21.9545 164.14 22.2917 164.14 22.6705V28H162.441ZM173.171 19.2727V20.6364H168.404V19.2727H173.171ZM169.682 17.1818H171.381V25.4375C171.381 25.767 171.43 26.0152 171.529 26.1818C171.627 26.3447 171.754 26.4564 171.91 26.517C172.069 26.5739 172.241 26.6023 172.427 26.6023C172.563 26.6023 172.682 26.5928 172.785 26.5739C172.887 26.5549 172.966 26.5398 173.023 26.5284L173.33 27.9318C173.232 27.9697 173.091 28.0076 172.91 28.0455C172.728 28.0871 172.501 28.1098 172.228 28.1136C171.781 28.1212 171.364 28.0417 170.978 27.875C170.591 27.7083 170.279 27.4508 170.04 27.1023C169.802 26.7538 169.682 26.3163 169.682 25.7898V17.1818ZM176.937 16.3636V28H175.238V16.3636H176.937ZM181.762 28.1932C181.209 28.1932 180.709 28.0909 180.262 27.8864C179.815 27.678 179.461 27.3769 179.199 26.983C178.942 26.589 178.813 26.1061 178.813 25.5341C178.813 25.0417 178.908 24.6364 179.097 24.3182C179.287 24 179.542 23.7481 179.864 23.5625C180.186 23.3769 180.546 23.2367 180.944 23.142C181.341 23.0473 181.747 22.9754 182.16 22.9261C182.682 22.8655 183.107 22.8163 183.432 22.7784C183.758 22.7367 183.995 22.6705 184.143 22.5795C184.29 22.4886 184.364 22.3409 184.364 22.1364V22.0966C184.364 21.6004 184.224 21.2159 183.944 20.9432C183.667 20.6705 183.254 20.5341 182.705 20.5341C182.133 20.5341 181.682 20.661 181.353 20.9148C181.027 21.1648 180.802 21.4432 180.677 21.75L179.08 21.3864C179.269 20.8561 179.546 20.428 179.91 20.1023C180.277 19.7727 180.699 19.5341 181.177 19.3864C181.654 19.2348 182.156 19.1591 182.682 19.1591C183.031 19.1591 183.4 19.2008 183.79 19.2841C184.184 19.3636 184.552 19.5114 184.893 19.7273C185.237 19.9432 185.519 20.2519 185.739 20.6534C185.959 21.0511 186.069 21.5682 186.069 22.2045V28H184.41V26.8068H184.341C184.232 27.0265 184.067 27.2424 183.847 27.4545C183.627 27.6667 183.345 27.8428 183.001 27.983C182.656 28.1231 182.243 28.1932 181.762 28.1932ZM182.131 26.8295C182.601 26.8295 183.002 26.7367 183.336 26.5511C183.673 26.3655 183.929 26.1231 184.103 25.8239C184.281 25.5208 184.37 25.197 184.37 24.8523V23.7273C184.309 23.7879 184.192 23.8447 184.018 23.8977C183.847 23.947 183.652 23.9905 183.432 24.0284C183.213 24.0625 182.999 24.0947 182.79 24.125C182.582 24.1515 182.408 24.1742 182.268 24.1932C181.938 24.2348 181.637 24.3049 181.364 24.4034C181.095 24.5019 180.879 24.6439 180.716 24.8295C180.557 25.0114 180.478 25.2538 180.478 25.5568C180.478 25.9773 180.633 26.2955 180.944 26.5114C181.254 26.7235 181.65 26.8295 182.131 26.8295ZM188.331 28V19.2727H189.974V20.6591H190.064C190.224 20.1894 190.504 19.8201 190.905 19.5511C191.311 19.2784 191.769 19.142 192.28 19.142C192.386 19.142 192.511 19.1458 192.655 19.1534C192.803 19.161 192.919 19.1705 193.002 19.1818V20.8068C192.934 20.7879 192.813 20.767 192.638 20.7443C192.464 20.7178 192.29 20.7045 192.116 20.7045C191.714 20.7045 191.356 20.7898 191.042 20.9602C190.731 21.1269 190.485 21.3598 190.303 21.6591C190.121 21.9545 190.03 22.2917 190.03 22.6705V28H188.331ZM194.472 28V19.2727H196.171V28H194.472ZM195.33 17.9261C195.035 17.9261 194.781 17.8277 194.569 17.6307C194.36 17.4299 194.256 17.1913 194.256 16.9148C194.256 16.6345 194.36 16.3958 194.569 16.1989C194.781 15.9981 195.035 15.8977 195.33 15.8977C195.626 15.8977 195.877 15.9981 196.086 16.1989C196.298 16.3958 196.404 16.6345 196.404 16.9148C196.404 17.1913 196.298 17.4299 196.086 17.6307C195.877 17.8277 195.626 17.9261 195.33 17.9261Z" fill="#061127" fill-opacity="0.7"/>
</svg>
