<svg width="253" height="44" viewBox="0 0 253 44" fill="none" xmlns="http://www.w3.org/2000/svg">
<rect width="252" height="44" transform="translate(0.345703)" fill="white"/>
<path d="M29.9025 24.2273H31.6298L32.8457 25.8125L33.4196 26.517L35.3571 29.0455H33.5616L32.2662 27.358L31.823 26.7443L29.9025 24.2273ZM35.7321 22.1818C35.7321 23.4242 35.5048 24.4924 35.0502 25.3864C34.5957 26.2765 33.9726 26.9621 33.1809 27.4432C32.3931 27.9205 31.4972 28.1591 30.4934 28.1591C29.4859 28.1591 28.5862 27.9205 27.7946 27.4432C27.0067 26.9621 26.3855 26.2746 25.9309 25.3807C25.4764 24.4867 25.2491 23.4205 25.2491 22.1818C25.2491 20.9394 25.4764 19.8731 25.9309 18.983C26.3855 18.089 27.0067 17.4034 27.7946 16.9261C28.5862 16.4451 29.4859 16.2045 30.4934 16.2045C31.4972 16.2045 32.3931 16.4451 33.1809 16.9261C33.9726 17.4034 34.5957 18.089 35.0502 18.983C35.5048 19.8731 35.7321 20.9394 35.7321 22.1818ZM33.9934 22.1818C33.9934 21.2348 33.84 20.4375 33.5332 19.7898C33.2302 19.1383 32.8135 18.6458 32.2832 18.3125C31.7567 17.9754 31.1601 17.8068 30.4934 17.8068C29.823 17.8068 29.2245 17.9754 28.698 18.3125C28.1715 18.6458 27.7548 19.1383 27.448 19.7898C27.1449 20.4375 26.9934 21.2348 26.9934 22.1818C26.9934 23.1288 27.1449 23.928 27.448 24.5795C27.7548 25.2273 28.1715 25.7197 28.698 26.0568C29.2245 26.3902 29.823 26.5568 30.4934 26.5568C31.1601 26.5568 31.7567 26.3902 32.2832 26.0568C32.8135 25.7197 33.2302 25.2273 33.5332 24.5795C33.84 23.928 33.9934 23.1288 33.9934 22.1818ZM41.4608 28.1761C40.6426 28.1761 39.9286 27.9886 39.3187 27.6136C38.7089 27.2386 38.2354 26.714 37.8983 26.0398C37.5611 25.3655 37.3926 24.5777 37.3926 23.6761C37.3926 22.7708 37.5611 21.9792 37.8983 21.3011C38.2354 20.6231 38.7089 20.0966 39.3187 19.7216C39.9286 19.3466 40.6426 19.1591 41.4608 19.1591C42.2789 19.1591 42.993 19.3466 43.6028 19.7216C44.2127 20.0966 44.6861 20.6231 45.0233 21.3011C45.3604 21.9792 45.5289 22.7708 45.5289 23.6761C45.5289 24.5777 45.3604 25.3655 45.0233 26.0398C44.6861 26.714 44.2127 27.2386 43.6028 27.6136C42.993 27.9886 42.2789 28.1761 41.4608 28.1761ZM41.4664 26.75C41.9967 26.75 42.4361 26.6098 42.7846 26.3295C43.1331 26.0492 43.3907 25.6761 43.5574 25.2102C43.7278 24.7443 43.813 24.2311 43.813 23.6705C43.813 23.1136 43.7278 22.6023 43.5574 22.1364C43.3907 21.6667 43.1331 21.2898 42.7846 21.0057C42.4361 20.7216 41.9967 20.5795 41.4664 20.5795C40.9324 20.5795 40.4892 20.7216 40.1369 21.0057C39.7884 21.2898 39.5289 21.6667 39.3585 22.1364C39.1918 22.6023 39.1085 23.1136 39.1085 23.6705C39.1085 24.2311 39.1918 24.7443 39.3585 25.2102C39.5289 25.6761 39.7884 26.0492 40.1369 26.3295C40.4892 26.6098 40.9324 26.75 41.4664 26.75ZM47.2832 20.25V18.7841C47.2832 18.4356 47.3438 18.0739 47.465 17.6989C47.5862 17.3239 47.7548 16.964 47.9707 16.6193C48.1866 16.2746 48.4385 15.9773 48.7264 15.7273L49.7093 16.3295C49.4821 16.6856 49.304 17.0606 49.1752 17.4545C49.0465 17.8485 48.9802 18.2841 48.9764 18.7614V20.25H47.2832ZM53.546 16.3636V28H51.8471V16.3636H53.546ZM57.5304 16.3636V28H55.8315V16.3636H57.5304ZM62.3556 28.1932C61.8026 28.1932 61.3026 28.0909 60.8556 27.8864C60.4087 27.678 60.0545 27.3769 59.7931 26.983C59.5356 26.589 59.4068 26.1061 59.4068 25.5341C59.4068 25.0417 59.5015 24.6364 59.6909 24.3182C59.8803 24 60.1359 23.7481 60.4579 23.5625C60.7799 23.3769 61.1397 23.2367 61.5375 23.142C61.9352 23.0473 62.3405 22.9754 62.7534 22.9261C63.2761 22.8655 63.7003 22.8163 64.0261 22.7784C64.3519 22.7367 64.5886 22.6705 64.7363 22.5795C64.8841 22.4886 64.9579 22.3409 64.9579 22.1364V22.0966C64.9579 21.6004 64.8178 21.2159 64.5375 20.9432C64.2609 20.6705 63.8481 20.5341 63.2988 20.5341C62.7269 20.5341 62.2761 20.661 61.9466 20.9148C61.6208 21.1648 61.3954 21.4432 61.2704 21.75L59.6738 21.3864C59.8632 20.8561 60.1397 20.428 60.5034 20.1023C60.8708 19.7727 61.2931 19.5341 61.7704 19.3864C62.2477 19.2348 62.7496 19.1591 63.2761 19.1591C63.6246 19.1591 63.9939 19.2008 64.3841 19.2841C64.778 19.3636 65.1454 19.5114 65.4863 19.7273C65.831 19.9432 66.1132 20.2519 66.3329 20.6534C66.5526 21.0511 66.6625 21.5682 66.6625 22.2045V28H65.0034V26.8068H64.9352C64.8253 27.0265 64.6606 27.2424 64.4409 27.4545C64.2212 27.6667 63.939 27.8428 63.5943 27.983C63.2496 28.1231 62.8367 28.1932 62.3556 28.1932ZM62.725 26.8295C63.1947 26.8295 63.5962 26.7367 63.9295 26.5511C64.2666 26.3655 64.5223 26.1231 64.6966 25.8239C64.8746 25.5208 64.9636 25.197 64.9636 24.8523V23.7273C64.903 23.7879 64.7856 23.8447 64.6113 23.8977C64.4409 23.947 64.2458 23.9905 64.0261 24.0284C63.8064 24.0625 63.5924 24.0947 63.3841 24.125C63.1757 24.1515 63.0015 24.1742 62.8613 24.1932C62.5318 24.2348 62.2306 24.3049 61.9579 24.4034C61.689 24.5019 61.4731 24.6439 61.3102 24.8295C61.1511 25.0114 61.0716 25.2538 61.0716 25.5568C61.0716 25.9773 61.2269 26.2955 61.5375 26.5114C61.8481 26.7235 62.2439 26.8295 62.725 26.8295ZM69.0616 28V16.3636H70.7605V20.6875H70.8627C70.9612 20.5057 71.1033 20.2955 71.2889 20.0568C71.4745 19.8182 71.7321 19.6098 72.0616 19.4318C72.3912 19.25 72.8268 19.1591 73.3684 19.1591C74.073 19.1591 74.7018 19.3371 75.2548 19.6932C75.8078 20.0492 76.2415 20.5625 76.5559 21.233C76.8741 21.9034 77.0332 22.7102 77.0332 23.6534C77.0332 24.5966 76.876 25.4053 76.5616 26.0795C76.2472 26.75 75.8154 27.267 75.2662 27.6307C74.7169 27.9905 74.09 28.1705 73.3855 28.1705C72.8552 28.1705 72.4215 28.0814 72.0843 27.9034C71.751 27.7254 71.4896 27.517 71.3002 27.2784C71.1109 27.0398 70.965 26.8277 70.8627 26.642H70.7207V28H69.0616ZM70.7264 23.6364C70.7264 24.25 70.8154 24.7879 70.9934 25.25C71.1715 25.7121 71.429 26.0739 71.7662 26.3352C72.1033 26.5928 72.5162 26.7216 73.0048 26.7216C73.5124 26.7216 73.9366 26.5871 74.2775 26.3182C74.6184 26.0455 74.876 25.6761 75.0502 25.2102C75.2283 24.7443 75.3173 24.2197 75.3173 23.6364C75.3173 23.0606 75.2302 22.5436 75.0559 22.0852C74.8855 21.6269 74.6279 21.2652 74.2832 21C73.9423 20.7348 73.5162 20.6023 73.0048 20.6023C72.5124 20.6023 72.0957 20.7292 71.7548 20.983C71.4177 21.2367 71.162 21.5909 70.9877 22.0455C70.8135 22.5 70.7264 23.0303 70.7264 23.6364ZM84.0829 22.3466V23.8182H78.9238V22.3466H84.0829ZM92.2392 31.2727V26.642H92.1369C92.0346 26.8277 91.8869 27.0398 91.6937 27.2784C91.5043 27.517 91.243 27.7254 90.9096 27.9034C90.5763 28.0814 90.1445 28.1705 89.6142 28.1705C88.9096 28.1705 88.2808 27.9905 87.7278 27.6307C87.1786 27.267 86.7467 26.75 86.4324 26.0795C86.1217 25.4053 85.9664 24.5966 85.9664 23.6534C85.9664 22.7102 86.1236 21.9034 86.438 21.233C86.7562 20.5625 87.1918 20.0492 87.7449 19.6932C88.2979 19.3371 88.9248 19.1591 89.6255 19.1591C90.1672 19.1591 90.6028 19.25 90.9324 19.4318C91.2657 19.6098 91.5233 19.8182 91.7051 20.0568C91.8907 20.2955 92.0346 20.5057 92.1369 20.6875H92.2789V19.2727H93.938V31.2727H92.2392ZM89.9892 26.7216C90.4778 26.7216 90.8907 26.5928 91.2278 26.3352C91.5687 26.0739 91.8263 25.7121 92.0005 25.25C92.1786 24.7879 92.2676 24.25 92.2676 23.6364C92.2676 23.0303 92.1805 22.5 92.0062 22.0455C91.832 21.5909 91.5763 21.2367 91.2392 20.983C90.902 20.7292 90.4854 20.6023 89.9892 20.6023C89.4778 20.6023 89.0517 20.7348 88.7108 21C88.3699 21.2652 88.1123 21.6269 87.938 22.0852C87.7676 22.5436 87.6824 23.0606 87.6824 23.6364C87.6824 24.2197 87.7695 24.7443 87.9437 25.2102C88.118 25.6761 88.3755 26.0455 88.7164 26.3182C89.0611 26.5871 89.4854 26.7216 89.9892 26.7216ZM101.751 24.3807V19.2727H103.455V28H101.785V26.4886H101.694C101.493 26.9545 101.171 27.3428 100.728 27.6534C100.288 27.9602 99.7411 28.1136 99.0858 28.1136C98.5252 28.1136 98.0289 27.9905 97.5971 27.7443C97.1691 27.4943 96.832 27.125 96.5858 26.6364C96.3433 26.1477 96.2221 25.5436 96.2221 24.8239V19.2727H97.921V24.6193C97.921 25.214 98.0858 25.6875 98.4153 26.0398C98.7449 26.392 99.1729 26.5682 99.6994 26.5682C100.018 26.5682 100.334 26.4886 100.648 26.3295C100.966 26.1705 101.23 25.9299 101.438 25.608C101.65 25.286 101.754 24.8769 101.751 24.3807ZM113.204 19.2727L110.039 28H108.221L105.05 19.2727H106.874L109.084 25.9886H109.175L111.38 19.2727H113.204ZM122.266 19.2727L119.101 28H117.283L114.113 19.2727H115.937L118.147 25.9886H118.238L120.442 19.2727H122.266ZM126.153 28.1932C125.599 28.1932 125.099 28.0909 124.653 27.8864C124.206 27.678 123.851 27.3769 123.59 26.983C123.332 26.589 123.204 26.1061 123.204 25.5341C123.204 25.0417 123.298 24.6364 123.488 24.3182C123.677 24 123.933 23.7481 124.255 23.5625C124.577 23.3769 124.937 23.2367 125.334 23.142C125.732 23.0473 126.137 22.9754 126.55 22.9261C127.073 22.8655 127.497 22.8163 127.823 22.7784C128.149 22.7367 128.385 22.6705 128.533 22.5795C128.681 22.4886 128.755 22.3409 128.755 22.1364V22.0966C128.755 21.6004 128.615 21.2159 128.334 20.9432C128.058 20.6705 127.645 20.5341 127.096 20.5341C126.524 20.5341 126.073 20.661 125.743 20.9148C125.418 21.1648 125.192 21.4432 125.067 21.75L123.471 21.3864C123.66 20.8561 123.937 20.428 124.3 20.1023C124.668 19.7727 125.09 19.5341 125.567 19.3864C126.045 19.2348 126.546 19.1591 127.073 19.1591C127.421 19.1591 127.791 19.2008 128.181 19.2841C128.575 19.3636 128.942 19.5114 129.283 19.7273C129.628 19.9432 129.91 20.2519 130.13 20.6534C130.349 21.0511 130.459 21.5682 130.459 22.2045V28H128.8V26.8068H128.732C128.622 27.0265 128.457 27.2424 128.238 27.4545C128.018 27.6667 127.736 27.8428 127.391 27.983C127.046 28.1231 126.634 28.1932 126.153 28.1932ZM126.522 26.8295C126.992 26.8295 127.393 26.7367 127.726 26.5511C128.064 26.3655 128.319 26.1231 128.493 25.8239C128.671 25.5208 128.76 25.197 128.76 24.8523V23.7273C128.7 23.7879 128.582 23.8447 128.408 23.8977C128.238 23.947 128.043 23.9905 127.823 24.0284C127.603 24.0625 127.389 24.0947 127.181 24.125C126.973 24.1515 126.798 24.1742 126.658 24.1932C126.329 24.2348 126.028 24.3049 125.755 24.4034C125.486 24.5019 125.27 24.6439 125.107 24.8295C124.948 25.0114 124.868 25.2538 124.868 25.5568C124.868 25.9773 125.024 26.2955 125.334 26.5114C125.645 26.7235 126.041 26.8295 126.522 26.8295ZM136.796 19.2727V20.6364H132.029V19.2727H136.796ZM133.307 17.1818H135.006V25.4375C135.006 25.767 135.055 26.0152 135.154 26.1818C135.252 26.3447 135.379 26.4564 135.535 26.517C135.694 26.5739 135.866 26.6023 136.052 26.6023C136.188 26.6023 136.307 26.5928 136.41 26.5739C136.512 26.5549 136.591 26.5398 136.648 26.5284L136.955 27.9318C136.857 27.9697 136.716 28.0076 136.535 28.0455C136.353 28.0871 136.126 28.1098 135.853 28.1136C135.406 28.1212 134.989 28.0417 134.603 27.875C134.216 27.7083 133.904 27.4508 133.665 27.1023C133.427 26.7538 133.307 26.3163 133.307 25.7898V17.1818ZM140.562 16.3636V28H138.863V16.3636H140.562ZM145.387 28.1932C144.834 28.1932 144.334 28.0909 143.887 27.8864C143.44 27.678 143.086 27.3769 142.824 26.983C142.567 26.589 142.438 26.1061 142.438 25.5341C142.438 25.0417 142.533 24.6364 142.722 24.3182C142.912 24 143.167 23.7481 143.489 23.5625C143.811 23.3769 144.171 23.2367 144.569 23.142C144.966 23.0473 145.372 22.9754 145.785 22.9261C146.307 22.8655 146.732 22.8163 147.057 22.7784C147.383 22.7367 147.62 22.6705 147.768 22.5795C147.915 22.4886 147.989 22.3409 147.989 22.1364V22.0966C147.989 21.6004 147.849 21.2159 147.569 20.9432C147.292 20.6705 146.879 20.5341 146.33 20.5341C145.758 20.5341 145.307 20.661 144.978 20.9148C144.652 21.1648 144.427 21.4432 144.302 21.75L142.705 21.3864C142.894 20.8561 143.171 20.428 143.535 20.1023C143.902 19.7727 144.324 19.5341 144.802 19.3864C145.279 19.2348 145.781 19.1591 146.307 19.1591C146.656 19.1591 147.025 19.2008 147.415 19.2841C147.809 19.3636 148.177 19.5114 148.518 19.7273C148.862 19.9432 149.144 20.2519 149.364 20.6534C149.584 21.0511 149.694 21.5682 149.694 22.2045V28H148.035V26.8068H147.966C147.857 27.0265 147.692 27.2424 147.472 27.4545C147.252 27.6667 146.97 27.8428 146.626 27.983C146.281 28.1231 145.868 28.1932 145.387 28.1932ZM145.756 26.8295C146.226 26.8295 146.627 26.7367 146.961 26.5511C147.298 26.3655 147.554 26.1231 147.728 25.8239C147.906 25.5208 147.995 25.197 147.995 24.8523V23.7273C147.934 23.7879 147.817 23.8447 147.643 23.8977C147.472 23.947 147.277 23.9905 147.057 24.0284C146.838 24.0625 146.624 24.0947 146.415 24.125C146.207 24.1515 146.033 24.1742 145.893 24.1932C145.563 24.2348 145.262 24.3049 144.989 24.4034C144.72 24.5019 144.504 24.6439 144.341 24.8295C144.182 25.0114 144.103 25.2538 144.103 25.5568C144.103 25.9773 144.258 26.2955 144.569 26.5114C144.879 26.7235 145.275 26.8295 145.756 26.8295ZM158.496 21.4034L156.956 21.6761C156.892 21.4792 156.79 21.2917 156.65 21.1136C156.513 20.9356 156.328 20.7898 156.093 20.6761C155.858 20.5625 155.564 20.5057 155.212 20.5057C154.731 20.5057 154.33 20.6136 154.008 20.8295C153.686 21.0417 153.525 21.3163 153.525 21.6534C153.525 21.9451 153.633 22.1799 153.849 22.358C154.064 22.536 154.413 22.6818 154.894 22.7955L156.28 23.1136C157.083 23.2992 157.682 23.5852 158.076 23.9716C158.47 24.358 158.667 24.8598 158.667 25.4773C158.667 26 158.515 26.4659 158.212 26.875C157.913 27.2803 157.494 27.5985 156.956 27.8295C156.422 28.0606 155.803 28.1761 155.099 28.1761C154.121 28.1761 153.324 27.9678 152.706 27.5511C152.089 27.1307 151.71 26.5341 151.57 25.7614L153.212 25.5114C153.314 25.9394 153.525 26.2633 153.843 26.483C154.161 26.6989 154.576 26.8068 155.087 26.8068C155.644 26.8068 156.089 26.6913 156.422 26.4602C156.756 26.2254 156.922 25.9394 156.922 25.6023C156.922 25.3295 156.82 25.1004 156.616 24.9148C156.415 24.7292 156.106 24.589 155.689 24.4943L154.212 24.1705C153.398 23.9848 152.796 23.6894 152.405 23.2841C152.019 22.8788 151.826 22.3655 151.826 21.7443C151.826 21.2292 151.97 20.7784 152.258 20.392C152.546 20.0057 152.943 19.7045 153.451 19.4886C153.958 19.2689 154.54 19.1591 155.195 19.1591C156.138 19.1591 156.881 19.3636 157.422 19.7727C157.964 20.178 158.322 20.7216 158.496 21.4034ZM162.233 22.8182V28H160.535V16.3636H162.211V20.6932H162.319C162.523 20.2235 162.836 19.8504 163.256 19.5739C163.677 19.2973 164.226 19.1591 164.904 19.1591C165.502 19.1591 166.025 19.2822 166.472 19.5284C166.923 19.7746 167.271 20.142 167.518 20.6307C167.768 21.1155 167.893 21.7216 167.893 22.4489V28H166.194V22.6534C166.194 22.0133 166.029 21.517 165.699 21.1648C165.37 20.8087 164.912 20.6307 164.324 20.6307C163.923 20.6307 163.563 20.7159 163.245 20.8864C162.93 21.0568 162.682 21.3068 162.501 21.6364C162.323 21.9621 162.233 22.3561 162.233 22.8182ZM175.735 19.2727L177.661 22.6705L179.604 19.2727H181.462L178.741 23.6364L181.485 28H179.627L177.661 24.7386L175.701 28H173.837L176.553 23.6364L173.871 19.2727H175.735ZM183.206 28V19.2727H184.905V28H183.206ZM184.064 17.9261C183.769 17.9261 183.515 17.8277 183.303 17.6307C183.095 17.4299 182.991 17.1913 182.991 16.9148C182.991 16.6345 183.095 16.3958 183.303 16.1989C183.515 15.9981 183.769 15.8977 184.064 15.8977C184.36 15.8977 184.612 15.9981 184.82 16.1989C185.032 16.3958 185.138 16.6345 185.138 16.9148C185.138 17.1913 185.032 17.4299 184.82 17.6307C184.612 17.8277 184.36 17.9261 184.064 17.9261ZM187.009 28V26.8352L191.736 20.8295V20.75H187.162V19.2727H193.856V20.5114L189.31 26.4432V26.5227H194.015V28H187.009ZM196.019 28V19.2727H197.65V20.6932H197.758C197.939 20.2121 198.237 19.8371 198.65 19.5682C199.063 19.2955 199.557 19.1591 200.133 19.1591C200.716 19.1591 201.205 19.2955 201.599 19.5682C201.996 19.8409 202.29 20.2159 202.479 20.6932H202.57C202.778 20.2273 203.11 19.8561 203.564 19.5795C204.019 19.2992 204.561 19.1591 205.189 19.1591C205.981 19.1591 206.627 19.4072 207.127 19.9034C207.631 20.3996 207.883 21.1477 207.883 22.1477V28H206.184V22.3068C206.184 21.7159 206.023 21.2879 205.701 21.0227C205.379 20.7576 204.994 20.625 204.547 20.625C203.994 20.625 203.564 20.7955 203.258 21.1364C202.951 21.4735 202.797 21.9072 202.797 22.4375V28H201.104V22.1989C201.104 21.7254 200.956 21.3447 200.661 21.0568C200.366 20.7689 199.981 20.625 199.508 20.625C199.186 20.625 198.888 20.7102 198.616 20.8807C198.347 21.0473 198.129 21.2803 197.962 21.5795C197.799 21.8788 197.718 22.2254 197.718 22.6193V28H196.019ZM212.699 28.1932C212.146 28.1932 211.646 28.0909 211.199 27.8864C210.752 27.678 210.398 27.3769 210.137 26.983C209.879 26.589 209.751 26.1061 209.751 25.5341C209.751 25.0417 209.845 24.6364 210.035 24.3182C210.224 24 210.48 23.7481 210.802 23.5625C211.124 23.3769 211.483 23.2367 211.881 23.142C212.279 23.0473 212.684 22.9754 213.097 22.9261C213.62 22.8655 214.044 22.8163 214.37 22.7784C214.696 22.7367 214.932 22.6705 215.08 22.5795C215.228 22.4886 215.302 22.3409 215.302 22.1364V22.0966C215.302 21.6004 215.162 21.2159 214.881 20.9432C214.605 20.6705 214.192 20.5341 213.643 20.5341C213.071 20.5341 212.62 20.661 212.29 20.9148C211.965 21.1648 211.739 21.4432 211.614 21.75L210.018 21.3864C210.207 20.8561 210.483 20.428 210.847 20.1023C211.215 19.7727 211.637 19.5341 212.114 19.3864C212.591 19.2348 213.093 19.1591 213.62 19.1591C213.968 19.1591 214.338 19.2008 214.728 19.2841C215.122 19.3636 215.489 19.5114 215.83 19.7273C216.175 19.9432 216.457 20.2519 216.677 20.6534C216.896 21.0511 217.006 21.5682 217.006 22.2045V28H215.347V26.8068H215.279C215.169 27.0265 215.004 27.2424 214.785 27.4545C214.565 27.6667 214.283 27.8428 213.938 27.983C213.593 28.1231 213.18 28.1932 212.699 28.1932ZM213.069 26.8295C213.538 26.8295 213.94 26.7367 214.273 26.5511C214.61 26.3655 214.866 26.1231 215.04 25.8239C215.218 25.5208 215.307 25.197 215.307 24.8523V23.7273C215.247 23.7879 215.129 23.8447 214.955 23.8977C214.785 23.947 214.59 23.9905 214.37 24.0284C214.15 24.0625 213.936 24.0947 213.728 24.125C213.519 24.1515 213.345 24.1742 213.205 24.1932C212.876 24.2348 212.574 24.3049 212.302 24.4034C212.033 24.5019 211.817 24.6439 211.654 24.8295C211.495 25.0114 211.415 25.2538 211.415 25.5568C211.415 25.9773 211.571 26.2955 211.881 26.5114C212.192 26.7235 212.588 26.8295 213.069 26.8295ZM223.343 19.2727V20.6364H218.576V19.2727H223.343ZM219.854 17.1818H221.553V25.4375C221.553 25.767 221.602 26.0152 221.701 26.1818C221.799 26.3447 221.926 26.4564 222.081 26.517C222.241 26.5739 222.413 26.6023 222.599 26.6023C222.735 26.6023 222.854 26.5928 222.956 26.5739C223.059 26.5549 223.138 26.5398 223.195 26.5284L223.502 27.9318C223.403 27.9697 223.263 28.0076 223.081 28.0455C222.9 28.0871 222.672 28.1098 222.4 28.1136C221.953 28.1212 221.536 28.0417 221.15 27.875C220.763 27.7083 220.451 27.4508 220.212 27.1023C219.974 26.7538 219.854 26.3163 219.854 25.7898V17.1818ZM225.222 28V19.2727H226.921V28H225.222ZM226.08 17.9261C225.785 17.9261 225.531 17.8277 225.319 17.6307C225.11 17.4299 225.006 17.1913 225.006 16.9148C225.006 16.6345 225.11 16.3958 225.319 16.1989C225.531 15.9981 225.785 15.8977 226.08 15.8977C226.376 15.8977 226.627 15.9981 226.836 16.1989C227.048 16.3958 227.154 16.6345 227.154 16.9148C227.154 17.1913 227.048 17.4299 226.836 17.6307C226.627 17.8277 226.376 17.9261 226.08 17.9261Z" fill="#061127" fill-opacity="0.7"/>
</svg>
