<svg width="21" height="20" viewBox="0 0 21 20" fill="none" xmlns="http://www.w3.org/2000/svg">
<g clip-path="url(#clip0_345_21)">
<path d="M20.4222 18.5774L15.448 13.6033C16.8035 11.9454 17.47 9.83002 17.3095 7.69457C17.1491 5.55913 16.174 3.56705 14.586 2.13037C12.998 0.693699 10.9185 -0.0776494 8.77769 -0.0241229C6.6369 0.0294036 4.59857 0.90371 3.08433 2.41795C1.57009 3.93219 0.695785 5.97052 0.642259 8.11131C0.588732 10.2521 1.36008 12.3316 2.79676 13.9196C4.23343 15.5076 6.22551 16.4827 8.36096 16.6431C10.4964 16.8036 12.6118 16.1371 14.2697 14.7816L19.2438 19.7558C19.401 19.9076 19.6115 19.9916 19.83 19.9897C20.0485 19.9878 20.2575 19.9001 20.412 19.7456C20.5665 19.5911 20.6542 19.3821 20.6561 19.1636C20.658 18.9451 20.574 18.7346 20.4222 18.5774ZM8.99966 14.9999C7.68111 14.9999 6.39218 14.6089 5.29585 13.8764C4.19953 13.1439 3.34504 12.1027 2.84046 10.8845C2.33587 9.66632 2.20385 8.32588 2.46109 7.03267C2.71832 5.73947 3.35326 4.55158 4.28561 3.61923C5.21796 2.68688 6.40585 2.05194 7.69905 1.7947C8.99226 1.53747 10.3327 1.66949 11.5509 2.17408C12.7691 2.67866 13.8102 3.53314 14.5428 4.62947C15.2753 5.7258 15.6663 7.01473 15.6663 8.33327C15.6643 10.1008 14.9613 11.7953 13.7115 13.0451C12.4617 14.2949 10.7672 14.998 8.99966 14.9999Z" fill="#CCCCCC"/>
</g>
<defs>
<clipPath id="clip0_345_21">
<rect width="20" height="20" fill="white" transform="translate(0.666504)"/>
</clipPath>
</defs>
</svg>
