<svg width="48" height="48" viewBox="0 0 48 48" fill="none" xmlns="http://www.w3.org/2000/svg">
<rect width="48" height="48" rx="24" transform="matrix(-1 0 0 1 48 0)" fill="#F8F8F8"/>
<path d="M14 25.0039C14.0049 24.4774 14.2168 23.9741 14.59 23.6029L18.88 19.2998C19.0674 19.1134 19.3208 19.0088 19.585 19.0088C19.8492 19.0088 20.1026 19.1134 20.29 19.2998C20.3837 19.3928 20.4581 19.5035 20.5089 19.6254C20.5597 19.7474 20.5858 19.8782 20.5858 20.0103C20.5858 20.1424 20.5597 20.2732 20.5089 20.3952C20.4581 20.5171 20.3837 20.6278 20.29 20.7208L17 24.0032H33C33.2652 24.0032 33.5196 24.1086 33.7071 24.2963C33.8946 24.484 34 24.7385 34 25.0039C34 25.2693 33.8946 25.5238 33.7071 25.7115C33.5196 25.8992 33.2652 26.0046 33 26.0046H17L20.29 29.297C20.4783 29.4841 20.5846 29.7384 20.5856 30.004C20.5865 30.2695 20.482 30.5246 20.295 30.713C20.108 30.9015 19.8539 31.0078 19.5885 31.0088C19.3232 31.0097 19.0683 30.9051 18.88 30.718L14.59 26.4149C14.2144 26.0413 14.0022 25.5339 14 25.0039Z" fill="#666666"/>
</svg>
