<svg width="18" height="18" viewBox="0 0 18 18" fill="none" xmlns="http://www.w3.org/2000/svg">
<rect x="0.5" y="0.5" width="17" height="17" fill="white"/>
<g clip-path="url(#clip0_2_9)">
<path d="M7.75 7.75C7.55477 7.94523 7.23823 7.94523 7.043 7.75L4 4.707L4 6.5C4 6.77614 3.77614 7 3.5 7V7C3.22386 7 3 6.77614 3 6.5L3 4C3 3 3 3 4 3L6.5 3C6.77614 3 7 3.22386 7 3.5V3.5C7 3.77614 6.77614 4 6.5 4L4.707 4L7.75 7.043C7.94523 7.23823 7.94523 7.55477 7.75 7.75V7.75ZM15 14L15 11.5C15 11.2239 14.7761 11 14.5 11V11C14.2239 11 14 11.2239 14 11.5L14 13.293L10.957 10.25C10.7618 10.0548 10.4452 10.0548 10.25 10.25V10.25C10.0548 10.4452 10.0548 10.7618 10.25 10.957L13.293 14L11.5 14C11.2239 14 11 14.2239 11 14.5V14.5C11 14.7761 11.2239 15 11.5 15L14 15C15 15 15 15 15 14Z" fill="#17262B"/>
</g>
<rect x="0.5" y="0.5" width="17" height="17" stroke="#83A1AB"/>
<defs>
<clipPath id="clip0_2_9">
<rect width="12" height="12" fill="white" transform="translate(15 3) rotate(90)"/>
</clipPath>
</defs>
</svg>
