<svg width="245" height="48" viewBox="0 0 245 48" fill="none" xmlns="http://www.w3.org/2000/svg">
<rect width="244" height="48" transform="translate(0.345703)" fill="white"/>
<path fill-rule="evenodd" clip-rule="evenodd" d="M42.3457 20H41.3457V18C41.3457 15.24 39.1057 13 36.3457 13C33.5857 13 31.3457 15.24 31.3457 18V20H30.3457C29.2457 20 28.3457 20.9 28.3457 22V32C28.3457 33.1 29.2457 34 30.3457 34H42.3457C43.4457 34 44.3457 33.1 44.3457 32V22C44.3457 20.9 43.4457 20 42.3457 20ZM36.3457 29C35.2457 29 34.3457 28.1 34.3457 27C34.3457 25.9 35.2457 25 36.3457 25C37.4457 25 38.3457 25.9 38.3457 27C38.3457 28.1 37.4457 29 36.3457 29ZM33.3457 20V18C33.3457 16.34 34.6857 15 36.3457 15C38.0057 15 39.3457 16.34 39.3457 18V20H33.3457Z" fill="#B3B3B3"/>
<path d="M61.1071 18.3636H62.8684V26.017C62.8684 26.8314 62.6771 27.553 62.2946 28.1818C61.912 28.8068 61.3741 29.2992 60.6809 29.6591C59.9877 30.0152 59.1752 30.1932 58.2434 30.1932C57.3154 30.1932 56.5048 30.0152 55.8116 29.6591C55.1184 29.2992 54.5806 28.8068 54.198 28.1818C53.8154 27.553 53.6241 26.8314 53.6241 26.017V18.3636H55.3798V25.875C55.3798 26.4015 55.4953 26.8693 55.7264 27.2784C55.9612 27.6875 56.2927 28.0095 56.7207 28.2443C57.1487 28.4754 57.6563 28.5909 58.2434 28.5909C58.8343 28.5909 59.3438 28.4754 59.7718 28.2443C60.2037 28.0095 60.5332 27.6875 60.7605 27.2784C60.9915 26.8693 61.1071 26.4015 61.1071 25.875V18.3636ZM66.9835 18.3636V30H65.2846V18.3636H66.9835ZM71.8088 30.1932C71.2557 30.1932 70.7557 30.0909 70.3088 29.8864C69.8618 29.678 69.5076 29.3769 69.2463 28.983C68.9887 28.589 68.8599 28.1061 68.8599 27.5341C68.8599 27.0417 68.9546 26.6364 69.144 26.3182C69.3334 26 69.5891 25.7481 69.911 25.5625C70.233 25.3769 70.5929 25.2367 70.9906 25.142C71.3883 25.0473 71.7936 24.9754 72.2065 24.9261C72.7292 24.8655 73.1535 24.8163 73.4792 24.7784C73.805 24.7367 74.0417 24.6705 74.1895 24.5795C74.3372 24.4886 74.411 24.3409 74.411 24.1364V24.0966C74.411 23.6004 74.2709 23.2159 73.9906 22.9432C73.7141 22.6705 73.3012 22.5341 72.752 22.5341C72.18 22.5341 71.7292 22.661 71.3997 22.9148C71.0739 23.1648 70.8485 23.4432 70.7235 23.75L69.127 23.3864C69.3163 22.8561 69.5929 22.428 69.9565 22.1023C70.3239 21.7727 70.7463 21.5341 71.2235 21.3864C71.7008 21.2348 72.2027 21.1591 72.7292 21.1591C73.0777 21.1591 73.447 21.2008 73.8372 21.2841C74.2311 21.3636 74.5985 21.5114 74.9395 21.7273C75.2842 21.9432 75.5663 22.2519 75.786 22.6534C76.0057 23.0511 76.1156 23.5682 76.1156 24.2045V30H74.4565V28.8068H74.3883C74.2785 29.0265 74.1137 29.2424 73.894 29.4545C73.6743 29.6667 73.3921 29.8428 73.0474 29.983C72.7027 30.1231 72.2898 30.1932 71.8088 30.1932ZM72.1781 28.8295C72.6478 28.8295 73.0493 28.7367 73.3826 28.5511C73.7198 28.3655 73.9754 28.1231 74.1497 27.8239C74.3277 27.5208 74.4167 27.197 74.4167 26.8523V25.7273C74.3561 25.7879 74.2387 25.8447 74.0645 25.8977C73.894 25.947 73.6989 25.9905 73.4792 26.0284C73.2595 26.0625 73.0455 26.0947 72.8372 26.125C72.6288 26.1515 72.4546 26.1742 72.3145 26.1932C71.9849 26.2348 71.6838 26.3049 71.411 26.4034C71.1421 26.5019 70.9262 26.6439 70.7633 26.8295C70.6042 27.0114 70.5247 27.2538 70.5247 27.5568C70.5247 27.9773 70.68 28.2955 70.9906 28.5114C71.3012 28.7235 71.697 28.8295 72.1781 28.8295ZM80.0772 24.8182V30H78.3784V21.2727H80.0091V22.6932H80.117C80.3178 22.2311 80.6322 21.8598 81.0602 21.5795C81.492 21.2992 82.0356 21.1591 82.6909 21.1591C83.2856 21.1591 83.8064 21.2841 84.2534 21.5341C84.7003 21.7803 85.0469 22.1477 85.2931 22.6364C85.5394 23.125 85.6625 23.7292 85.6625 24.4489V30H83.9636V24.6534C83.9636 24.0208 83.7988 23.5265 83.4693 23.1705C83.1397 22.8106 82.6871 22.6307 82.1113 22.6307C81.7174 22.6307 81.367 22.7159 81.0602 22.8864C80.7572 23.0568 80.5166 23.3068 80.3386 23.6364C80.1644 23.9621 80.0772 24.3561 80.0772 24.8182ZM87.9409 30V21.2727H89.6397V30H87.9409ZM88.7988 19.9261C88.5034 19.9261 88.2496 19.8277 88.0375 19.6307C87.8291 19.4299 87.725 19.1913 87.725 18.9148C87.725 18.6345 87.8291 18.3958 88.0375 18.1989C88.2496 17.9981 88.5034 17.8977 88.7988 17.8977C89.0943 17.8977 89.3462 17.9981 89.5545 18.1989C89.7666 18.3958 89.8727 18.6345 89.8727 18.9148C89.8727 19.1913 89.7666 19.4299 89.5545 19.6307C89.3462 19.8277 89.0943 19.9261 88.7988 19.9261ZM98.465 23.4034L96.9252 23.6761C96.8609 23.4792 96.7586 23.2917 96.6184 23.1136C96.4821 22.9356 96.2965 22.7898 96.0616 22.6761C95.8268 22.5625 95.5332 22.5057 95.1809 22.5057C94.6999 22.5057 94.2984 22.6136 93.9764 22.8295C93.6544 23.0417 93.4934 23.3163 93.4934 23.6534C93.4934 23.9451 93.6014 24.1799 93.8173 24.358C94.0332 24.536 94.3817 24.6818 94.8627 24.7955L96.2491 25.1136C97.0521 25.2992 97.6506 25.5852 98.0446 25.9716C98.4385 26.358 98.6355 26.8598 98.6355 27.4773C98.6355 28 98.484 28.4659 98.1809 28.875C97.8817 29.2803 97.4631 29.5985 96.9252 29.8295C96.3912 30.0606 95.7718 30.1761 95.0673 30.1761C94.09 30.1761 93.2927 29.9678 92.6752 29.5511C92.0578 29.1307 91.679 28.5341 91.5389 27.7614L93.1809 27.5114C93.2832 27.9394 93.4934 28.2633 93.8116 28.483C94.1298 28.6989 94.5446 28.8068 95.0559 28.8068C95.6127 28.8068 96.0578 28.6913 96.3912 28.4602C96.7245 28.2254 96.8912 27.9394 96.8912 27.6023C96.8912 27.3295 96.7889 27.1004 96.5843 26.9148C96.3836 26.7292 96.0749 26.589 95.6582 26.4943L94.1809 26.1705C93.3665 25.9848 92.7643 25.6894 92.3741 25.2841C91.9877 24.8788 91.7946 24.3655 91.7946 23.7443C91.7946 23.2292 91.9385 22.7784 92.2264 22.392C92.5143 22.0057 92.912 21.7045 93.4196 21.4886C93.9271 21.2689 94.5086 21.1591 95.1639 21.1591C96.1071 21.1591 96.8495 21.3636 97.3912 21.7727C97.9328 22.178 98.2908 22.7216 98.465 23.4034ZM102.202 24.8182V30H100.503V18.3636H102.18V22.6932H102.287C102.492 22.2235 102.805 21.8504 103.225 21.5739C103.645 21.2973 104.195 21.1591 104.873 21.1591C105.471 21.1591 105.994 21.2822 106.441 21.5284C106.892 21.7746 107.24 22.142 107.486 22.6307C107.736 23.1155 107.861 23.7216 107.861 24.4489V30H106.162V24.6534C106.162 24.0133 105.998 23.517 105.668 23.1648C105.339 22.8087 104.88 22.6307 104.293 22.6307C103.892 22.6307 103.532 22.7159 103.214 22.8864C102.899 23.0568 102.651 23.3068 102.469 23.6364C102.291 23.9621 102.202 24.3561 102.202 24.8182ZM116.062 24.8182V30H114.363V18.3636H116.039V22.6932H116.147C116.351 22.2235 116.664 21.8504 117.084 21.5739C117.505 21.2973 118.054 21.1591 118.732 21.1591C119.331 21.1591 119.853 21.2822 120.3 21.5284C120.751 21.7746 121.099 22.142 121.346 22.6307C121.596 23.1155 121.721 23.7216 121.721 24.4489V30H120.022V24.6534C120.022 24.0133 119.857 23.517 119.528 23.1648C119.198 22.8087 118.74 22.6307 118.153 22.6307C117.751 22.6307 117.391 22.7159 117.073 22.8864C116.759 23.0568 116.51 23.3068 116.329 23.6364C116.151 23.9621 116.062 24.3561 116.062 24.8182ZM123.988 30V21.2727H125.687V30H123.988ZM124.846 19.9261C124.55 19.9261 124.296 19.8277 124.084 19.6307C123.876 19.4299 123.772 19.1913 123.772 18.9148C123.772 18.6345 123.876 18.3958 124.084 18.1989C124.296 17.9981 124.55 17.8977 124.846 17.8977C125.141 17.8977 125.393 17.9981 125.601 18.1989C125.814 18.3958 125.92 18.6345 125.92 18.9148C125.92 19.1913 125.814 19.4299 125.601 19.6307C125.393 19.8277 125.141 19.9261 124.846 19.9261ZM127.972 30V21.2727H129.603V22.6932H129.711C129.893 22.2121 130.19 21.8371 130.603 21.5682C131.016 21.2955 131.51 21.1591 132.086 21.1591C132.669 21.1591 133.158 21.2955 133.552 21.5682C133.949 21.8409 134.243 22.2159 134.432 22.6932H134.523C134.732 22.2273 135.063 21.8561 135.518 21.5795C135.972 21.2992 136.514 21.1591 137.143 21.1591C137.934 21.1591 138.58 21.4072 139.08 21.9034C139.584 22.3996 139.836 23.1477 139.836 24.1477V30H138.137V24.3068C138.137 23.7159 137.976 23.2879 137.654 23.0227C137.332 22.7576 136.948 22.625 136.501 22.625C135.948 22.625 135.518 22.7955 135.211 23.1364C134.904 23.4735 134.751 23.9072 134.751 24.4375V30H133.057V24.1989C133.057 23.7254 132.91 23.3447 132.614 23.0568C132.319 22.7689 131.934 22.625 131.461 22.625C131.139 22.625 130.841 22.7102 130.569 22.8807C130.3 23.0473 130.082 23.2803 129.915 23.5795C129.752 23.8788 129.671 24.2254 129.671 24.6193V30H127.972ZM145.789 30.1761C144.971 30.1761 144.257 29.9886 143.647 29.6136C143.037 29.2386 142.564 28.714 142.226 28.0398C141.889 27.3655 141.721 26.5777 141.721 25.6761C141.721 24.7708 141.889 23.9792 142.226 23.3011C142.564 22.6231 143.037 22.0966 143.647 21.7216C144.257 21.3466 144.971 21.1591 145.789 21.1591C146.607 21.1591 147.321 21.3466 147.931 21.7216C148.541 22.0966 149.014 22.6231 149.351 23.3011C149.689 23.9792 149.857 24.7708 149.857 25.6761C149.857 26.5777 149.689 27.3655 149.351 28.0398C149.014 28.714 148.541 29.2386 147.931 29.6136C147.321 29.9886 146.607 30.1761 145.789 30.1761ZM145.795 28.75C146.325 28.75 146.764 28.6098 147.113 28.3295C147.461 28.0492 147.719 27.6761 147.885 27.2102C148.056 26.7443 148.141 26.2311 148.141 25.6705C148.141 25.1136 148.056 24.6023 147.885 24.1364C147.719 23.6667 147.461 23.2898 147.113 23.0057C146.764 22.7216 146.325 22.5795 145.795 22.5795C145.26 22.5795 144.817 22.7216 144.465 23.0057C144.117 23.2898 143.857 23.6667 143.687 24.1364C143.52 24.6023 143.437 25.1136 143.437 25.6705C143.437 26.2311 143.52 26.7443 143.687 27.2102C143.857 27.6761 144.117 28.0492 144.465 28.3295C144.817 28.6098 145.26 28.75 145.795 28.75ZM152.53 33.2727C152.277 33.2727 152.046 33.2519 151.837 33.2102C151.629 33.1723 151.474 33.1307 151.371 33.0852L151.78 31.6932C152.091 31.7765 152.367 31.8125 152.61 31.8011C152.852 31.7898 153.066 31.6989 153.252 31.5284C153.441 31.358 153.608 31.0795 153.752 30.6932L153.962 30.1136L150.769 21.2727H152.587L154.797 28.0455H154.888L157.099 21.2727H158.922L155.326 31.1648C155.159 31.6193 154.947 32.0038 154.689 32.3182C154.432 32.6364 154.125 32.875 153.769 33.0341C153.413 33.1932 153 33.2727 152.53 33.2727ZM162.809 30.1932C162.256 30.1932 161.756 30.0909 161.309 29.8864C160.862 29.678 160.508 29.3769 160.246 28.983C159.989 28.589 159.86 28.1061 159.86 27.5341C159.86 27.0417 159.955 26.6364 160.144 26.3182C160.333 26 160.589 25.7481 160.911 25.5625C161.233 25.3769 161.593 25.2367 161.991 25.142C162.388 25.0473 162.794 24.9754 163.206 24.9261C163.729 24.8655 164.153 24.8163 164.479 24.7784C164.805 24.7367 165.042 24.6705 165.189 24.5795C165.337 24.4886 165.411 24.3409 165.411 24.1364V24.0966C165.411 23.6004 165.271 23.2159 164.991 22.9432C164.714 22.6705 164.301 22.5341 163.752 22.5341C163.18 22.5341 162.729 22.661 162.4 22.9148C162.074 23.1648 161.849 23.4432 161.724 23.75L160.127 23.3864C160.316 22.8561 160.593 22.428 160.956 22.1023C161.324 21.7727 161.746 21.5341 162.224 21.3864C162.701 21.2348 163.203 21.1591 163.729 21.1591C164.078 21.1591 164.447 21.2008 164.837 21.2841C165.231 21.3636 165.599 21.5114 165.939 21.7273C166.284 21.9432 166.566 22.2519 166.786 22.6534C167.006 23.0511 167.116 23.5682 167.116 24.2045V30H165.456V28.8068H165.388C165.278 29.0265 165.114 29.2424 164.894 29.4545C164.674 29.6667 164.392 29.8428 164.047 29.983C163.703 30.1231 163.29 30.1932 162.809 30.1932ZM163.178 28.8295C163.648 28.8295 164.049 28.7367 164.383 28.5511C164.72 28.3655 164.975 28.1231 165.15 27.8239C165.328 27.5208 165.417 27.197 165.417 26.8523V25.7273C165.356 25.7879 165.239 25.8447 165.064 25.8977C164.894 25.947 164.699 25.9905 164.479 26.0284C164.26 26.0625 164.046 26.0947 163.837 26.125C163.629 26.1515 163.455 26.1742 163.314 26.1932C162.985 26.2348 162.684 26.3049 162.411 26.4034C162.142 26.5019 161.926 26.6439 161.763 26.8295C161.604 27.0114 161.525 27.2538 161.525 27.5568C161.525 27.9773 161.68 28.2955 161.991 28.5114C162.301 28.7235 162.697 28.8295 163.178 28.8295ZM171.077 18.3636V30H169.378V18.3636H171.077ZM175.903 30.1932C175.349 30.1932 174.849 30.0909 174.403 29.8864C173.956 29.678 173.601 29.3769 173.34 28.983C173.082 28.589 172.954 28.1061 172.954 27.5341C172.954 27.0417 173.048 26.6364 173.238 26.3182C173.427 26 173.683 25.7481 174.005 25.5625C174.327 25.3769 174.687 25.2367 175.084 25.142C175.482 25.0473 175.887 24.9754 176.3 24.9261C176.823 24.8655 177.247 24.8163 177.573 24.7784C177.899 24.7367 178.135 24.6705 178.283 24.5795C178.431 24.4886 178.505 24.3409 178.505 24.1364V24.0966C178.505 23.6004 178.365 23.2159 178.084 22.9432C177.808 22.6705 177.395 22.5341 176.846 22.5341C176.274 22.5341 175.823 22.661 175.493 22.9148C175.168 23.1648 174.942 23.4432 174.817 23.75L173.221 23.3864C173.41 22.8561 173.687 22.428 174.05 22.1023C174.418 21.7727 174.84 21.5341 175.317 21.3864C175.795 21.2348 176.296 21.1591 176.823 21.1591C177.171 21.1591 177.541 21.2008 177.931 21.2841C178.325 21.3636 178.692 21.5114 179.033 21.7273C179.378 21.9432 179.66 22.2519 179.88 22.6534C180.099 23.0511 180.209 23.5682 180.209 24.2045V30H178.55V28.8068H178.482C178.372 29.0265 178.207 29.2424 177.988 29.4545C177.768 29.6667 177.486 29.8428 177.141 29.983C176.796 30.1231 176.384 30.1932 175.903 30.1932ZM176.272 28.8295C176.742 28.8295 177.143 28.7367 177.476 28.5511C177.814 28.3655 178.069 28.1231 178.243 27.8239C178.421 27.5208 178.51 27.197 178.51 26.8523V25.7273C178.45 25.7879 178.332 25.8447 178.158 25.8977C177.988 25.947 177.793 25.9905 177.573 26.0284C177.353 26.0625 177.139 26.0947 176.931 26.125C176.723 26.1515 176.548 26.1742 176.408 26.1932C176.079 26.2348 175.778 26.3049 175.505 26.4034C175.236 26.5019 175.02 26.6439 174.857 26.8295C174.698 27.0114 174.618 27.2538 174.618 27.5568C174.618 27.9773 174.774 28.2955 175.084 28.5114C175.395 28.7235 175.791 28.8295 176.272 28.8295ZM184.171 24.8182V30H182.472V21.2727H184.103V22.6932H184.211C184.412 22.2311 184.726 21.8598 185.154 21.5795C185.586 21.2992 186.129 21.1591 186.785 21.1591C187.379 21.1591 187.9 21.2841 188.347 21.5341C188.794 21.7803 189.141 22.1477 189.387 22.6364C189.633 23.125 189.756 23.7292 189.756 24.4489V30H188.057V24.6534C188.057 24.0208 187.893 23.5265 187.563 23.1705C187.233 22.8106 186.781 22.6307 186.205 22.6307C185.811 22.6307 185.461 22.7159 185.154 22.8864C184.851 23.0568 184.61 23.3068 184.432 23.6364C184.258 23.9621 184.171 24.3561 184.171 24.8182ZM195.694 33.4545C195.001 33.4545 194.404 33.3636 193.904 33.1818C193.408 33 193.002 32.7595 192.688 32.4602C192.374 32.161 192.139 31.8333 191.983 31.4773L193.444 30.875C193.546 31.0417 193.682 31.2178 193.853 31.4034C194.027 31.5928 194.262 31.7538 194.557 31.8864C194.857 32.0189 195.241 32.0852 195.711 32.0852C196.355 32.0852 196.887 31.928 197.307 31.6136C197.728 31.303 197.938 30.8068 197.938 30.125V28.4091H197.83C197.728 28.5947 197.58 28.8011 197.387 29.0284C197.198 29.2557 196.936 29.4527 196.603 29.6193C196.269 29.786 195.836 29.8693 195.302 29.8693C194.612 29.8693 193.991 29.7083 193.438 29.3864C192.889 29.0606 192.453 28.5814 192.131 27.9489C191.813 27.3125 191.654 26.5303 191.654 25.6023C191.654 24.6742 191.811 23.8788 192.126 23.2159C192.444 22.553 192.879 22.0455 193.432 21.6932C193.985 21.3371 194.612 21.1591 195.313 21.1591C195.855 21.1591 196.292 21.25 196.626 21.4318C196.959 21.6098 197.218 21.8182 197.404 22.0568C197.593 22.2955 197.739 22.5057 197.841 22.6875H197.966V21.2727H199.631V30.1932C199.631 30.9432 199.457 31.5587 199.108 32.0398C198.76 32.5208 198.288 32.8769 197.694 33.108C197.103 33.339 196.436 33.4545 195.694 33.4545ZM195.677 28.4602C196.165 28.4602 196.578 28.3466 196.915 28.1193C197.256 27.8883 197.514 27.5587 197.688 27.1307C197.866 26.6989 197.955 26.1818 197.955 25.5795C197.955 24.9924 197.868 24.4754 197.694 24.0284C197.519 23.5814 197.264 23.233 196.927 22.983C196.59 22.7292 196.173 22.6023 195.677 22.6023C195.165 22.6023 194.739 22.7348 194.398 23C194.057 23.2614 193.8 23.6174 193.626 24.0682C193.455 24.5189 193.37 25.0227 193.37 25.5795C193.37 26.1515 193.457 26.6534 193.631 27.0852C193.805 27.517 194.063 27.8542 194.404 28.0966C194.749 28.339 195.173 28.4602 195.677 28.4602ZM204.449 30.1932C203.896 30.1932 203.396 30.0909 202.949 29.8864C202.502 29.678 202.148 29.3769 201.887 28.983C201.629 28.589 201.501 28.1061 201.501 27.5341C201.501 27.0417 201.595 26.6364 201.785 26.3182C201.974 26 202.23 25.7481 202.552 25.5625C202.874 25.3769 203.233 25.2367 203.631 25.142C204.029 25.0473 204.434 24.9754 204.847 24.9261C205.37 24.8655 205.794 24.8163 206.12 24.7784C206.446 24.7367 206.682 24.6705 206.83 24.5795C206.978 24.4886 207.052 24.3409 207.052 24.1364V24.0966C207.052 23.6004 206.912 23.2159 206.631 22.9432C206.355 22.6705 205.942 22.5341 205.393 22.5341C204.821 22.5341 204.37 22.661 204.04 22.9148C203.715 23.1648 203.489 23.4432 203.364 23.75L201.768 23.3864C201.957 22.8561 202.233 22.428 202.597 22.1023C202.965 21.7727 203.387 21.5341 203.864 21.3864C204.341 21.2348 204.843 21.1591 205.37 21.1591C205.718 21.1591 206.088 21.2008 206.478 21.2841C206.872 21.3636 207.239 21.5114 207.58 21.7273C207.925 21.9432 208.207 22.2519 208.427 22.6534C208.646 23.0511 208.756 23.5682 208.756 24.2045V30H207.097V28.8068H207.029C206.919 29.0265 206.754 29.2424 206.535 29.4545C206.315 29.6667 206.033 29.8428 205.688 29.983C205.343 30.1231 204.93 30.1932 204.449 30.1932ZM204.819 28.8295C205.288 28.8295 205.69 28.7367 206.023 28.5511C206.36 28.3655 206.616 28.1231 206.79 27.8239C206.968 27.5208 207.057 27.197 207.057 26.8523V25.7273C206.997 25.7879 206.879 25.8447 206.705 25.8977C206.535 25.947 206.34 25.9905 206.12 26.0284C205.9 26.0625 205.686 26.0947 205.478 26.125C205.269 26.1515 205.095 26.1742 204.955 26.1932C204.626 26.2348 204.324 26.3049 204.052 26.4034C203.783 26.5019 203.567 26.6439 203.404 26.8295C203.245 27.0114 203.165 27.2538 203.165 27.5568C203.165 27.9773 203.321 28.2955 203.631 28.5114C203.942 28.7235 204.338 28.8295 204.819 28.8295ZM212.718 24.8182V30H211.019V21.2727H212.65V22.6932H212.758C212.958 22.2311 213.273 21.8598 213.701 21.5795C214.133 21.2992 214.676 21.1591 215.331 21.1591C215.926 21.1591 216.447 21.2841 216.894 21.5341C217.341 21.7803 217.688 22.1477 217.934 22.6364C218.18 23.125 218.303 23.7292 218.303 24.4489V30H216.604V24.6534C216.604 24.0208 216.439 23.5265 216.11 23.1705C215.78 22.8106 215.328 22.6307 214.752 22.6307C214.358 22.6307 214.008 22.7159 213.701 22.8864C213.398 23.0568 213.157 23.3068 212.979 23.6364C212.805 23.9621 212.718 24.3561 212.718 24.8182Z" fill="#061127" fill-opacity="0.7"/>
</svg>
