<svg width="361" height="251" viewBox="0 0 361 251" fill="none" xmlns="http://www.w3.org/2000/svg">
<path d="M256.711 50.3425C256.711 76.785 235.682 98.6509 209.524 100.176C208.498 100.176 207.473 100.176 206.447 100.176C197.728 100.176 189.008 97.6339 181.828 93.5658C166.441 84.9211 156.183 68.6488 156.183 49.834C156.183 37.1212 160.799 25.4255 169.005 16.7808C178.237 6.61063 191.573 0 206.447 0C225.937 0 242.863 11.1872 251.069 27.4595C254.659 34.5787 256.711 42.2063 256.711 50.3425Z" fill="url(#paint0_linear_349_1659)"/>
<path opacity="0.1" d="M256.271 50.3428C256.271 76.7853 235.242 98.6512 209.084 100.177C199.339 98.6512 190.106 96.1087 181.387 94.0746C166 85.43 155.742 69.1577 155.742 50.3428C155.742 37.6301 160.358 25.9343 168.565 17.2897C185.49 16.7812 204.981 18.3067 224.984 21.8663C234.216 23.3918 242.935 25.4258 251.142 27.4599C254.219 34.579 256.271 42.2067 256.271 50.3428Z" fill="black"/>
<path d="M317.597 83.997C321.468 62.4309 273.739 35.9734 210.992 24.9026C148.245 13.8318 94.2405 22.34 90.3694 43.9061C86.4984 65.4723 134.227 91.9297 196.974 103.001C259.721 114.071 313.726 105.563 317.597 83.997Z" fill="url(#paint1_linear_349_1659)"/>
<path d="M194.996 37.2163C195.282 33.5763 189.561 30.1666 182.218 29.6006C174.875 29.0346 168.691 31.5265 168.406 35.1665C168.12 38.8065 173.841 42.2162 181.184 42.7822C188.527 43.3482 194.711 40.8563 194.996 37.2163Z" fill="white"/>
<path d="M130.46 46.5649C137.52 44.4868 142.394 39.965 141.346 36.4652C140.298 32.9654 133.725 31.8129 126.665 33.891C119.605 35.9692 114.731 40.491 115.779 43.9908C116.827 47.4906 123.4 48.6431 130.46 46.5649Z" fill="white"/>
<path d="M246.867 50.5953C247.512 47.0009 242.157 43.05 234.906 41.7707C227.656 40.4914 221.255 42.3682 220.61 45.9625C219.964 49.5569 225.319 53.5078 232.57 54.7871C239.821 56.0664 246.222 54.1896 246.867 50.5953Z" fill="white"/>
<path d="M285.804 77.1845C287.491 73.9395 283.553 68.5961 277.007 65.2497C270.461 61.9032 263.786 61.8209 262.099 65.0659C260.411 68.3108 264.35 73.6542 270.895 77.0007C277.441 80.3472 284.116 80.4294 285.804 77.1845Z" fill="white"/>
<path d="M197.588 68.5544L149.375 68.0459L80.7139 195.755L273.429 216.022L251.955 85.8437L197.588 68.5544Z" fill="url(#paint2_linear_349_1659)"/>
<path opacity="0.5" d="M298.62 250H51.915C58.5827 244.024 68.3278 238.049 79.6116 233.567C85.7664 231.326 92.947 228.338 100.128 226.844C121.669 220.869 147.827 217.134 175.524 217.134C208.862 217.134 239.636 222.363 263.23 230.579C271.436 233.567 278.617 236.555 284.772 240.29C290.414 243.278 295.03 246.265 298.62 250Z" fill="url(#paint3_linear_349_1659)"/>
<path opacity="0.3" d="M103.544 230.458C103.867 233.492 98.5801 237.123 92.4599 237.775C86.3397 238.427 80.9702 236.442 80.1371 233.462C86.0957 231.294 93.0205 228.51 100.053 226.739C102.201 227.533 103.382 228.941 103.544 230.458Z" fill="url(#paint4_linear_349_1659)"/>
<path opacity="0.3" d="M146.802 228.321C155.017 228.321 161.676 226.728 161.676 224.762C161.676 222.796 155.017 221.202 146.802 221.202C138.587 221.202 131.928 222.796 131.928 224.762C131.928 226.728 138.587 228.321 146.802 228.321Z" fill="url(#paint5_linear_349_1659)"/>
<path opacity="0.3" d="M226.977 228.028C227.146 225.506 220.638 223.025 212.441 222.487C204.244 221.948 197.463 223.556 197.295 226.078C197.126 228.6 203.634 231.081 211.831 231.62C220.027 232.158 226.809 230.55 226.977 228.028Z" fill="url(#paint6_linear_349_1659)"/>
<path opacity="0.3" d="M283.446 239.487C281.408 239.252 278.96 239.331 275.961 238.473C267.867 237.028 261.535 233.738 261.826 231.212C261.884 230.707 261.884 230.707 262.452 230.261C270.371 233.222 277.57 236.085 283.446 239.487Z" fill="url(#paint7_linear_349_1659)"/>
<path d="M251.649 87.1565C253.386 77.4794 231.735 65.566 203.289 60.5472C174.844 55.5285 150.376 59.3048 148.639 68.9819C146.902 78.6591 168.554 90.5724 196.999 95.5912C225.444 100.61 249.912 96.8336 251.649 87.1565Z" fill="url(#paint8_linear_349_1659)"/>
<path d="M67.4669 134.022C67.4669 134.022 49.7498 138.521 55.1186 142.119C60.4875 145.538 73.1937 151.476 85.1841 147.517C97.1744 143.559 85.1841 137.981 85.363 137.981C85.542 137.981 67.4669 134.022 67.4669 134.022Z" fill="#CED7E2"/>
<path d="M45.8125 132.582C52.2551 134.561 72.1197 131.322 84.826 123.045C94.8478 135.461 98.606 138.7 102.185 139.059C96.6374 144.637 78.2044 153.634 67.8247 141.938C55.6553 149.675 45.8125 132.582 45.8125 132.582Z" fill="#E9EEF8"/>
<path d="M258.614 148.779C265.415 149.139 283.848 140.862 293.87 129.706C306.755 139.242 311.05 141.402 314.808 140.862C310.692 147.699 298.165 162.634 280.447 163.713C267.562 156.156 258.614 148.779 258.614 148.779Z" fill="#E9EEF8"/>
<path d="M199.678 149.001C198.332 142.325 185.725 126.535 172.424 119.608C178.45 104.753 179.472 100.056 178.013 96.5507C185.66 98.8338 203.244 107.246 208.703 124.136C204.594 138.497 199.678 149.001 199.678 149.001Z" fill="white"/>
<path d="M359.555 250H343.981H21.12H1" stroke="#D5DAE8" stroke-width="2" stroke-miterlimit="10" stroke-linecap="round" stroke-linejoin="round"/>
<path d="M140.135 209.143V219.313H133.98V228.975H122.183V219.313H96.5381V207.617L120.132 175.073H133.98V209.143H140.135ZM122.696 188.294L107.822 209.143H122.696V188.294Z" fill="url(#paint9_linear_349_1659)"/>
<path d="M177.063 229.992C164.753 229.992 153.982 219.314 153.982 202.024C153.982 184.735 164.753 174.056 177.063 174.056C189.373 174.056 200.143 184.735 200.143 202.024C200.656 218.805 189.885 229.992 177.063 229.992ZM177.063 219.314C182.705 219.314 188.86 213.72 188.86 201.516C188.86 189.82 183.218 183.718 177.063 183.718C171.421 183.718 165.266 189.311 165.266 201.516C165.779 213.72 171.421 219.314 177.063 219.314Z" fill="url(#paint10_linear_349_1659)"/>
<path d="M258.614 209.143V219.313H252.459V228.975H240.663V219.313H215.018V207.617L238.611 175.073H251.946V209.143H258.614ZM240.663 188.294L225.788 209.143H240.663V188.294Z" fill="url(#paint11_linear_349_1659)"/>
<path d="M135.518 209.143V219.313H129.364V228.975H117.567V219.313H91.9219V207.617L115.515 175.073H128.851V209.143H135.518ZM118.08 188.294L103.206 209.143H118.08V188.294Z" fill="url(#paint12_linear_349_1659)"/>
<path d="M172.447 229.992C160.137 229.992 149.366 219.314 149.366 202.024C149.366 184.735 160.137 174.056 172.447 174.056C184.756 174.056 195.527 184.735 195.527 202.024C196.04 218.805 185.269 229.992 172.447 229.992ZM172.447 219.314C178.089 219.314 184.243 213.72 184.243 201.516C184.243 189.82 178.602 183.718 172.447 183.718C166.805 183.718 160.65 189.311 160.65 201.516C161.163 213.72 166.805 219.314 172.447 219.314Z" fill="url(#paint13_linear_349_1659)"/>
<path d="M253.998 209.143V219.313H247.843V228.975H236.046V219.313H210.401V207.617L233.995 175.073H247.33V209.143H253.998ZM236.046 188.294L221.172 209.143H236.046V188.294Z" fill="url(#paint14_linear_349_1659)"/>
<defs>
<linearGradient id="paint0_linear_349_1659" x1="206.455" y1="3.48001" x2="206.455" y2="59.708" gradientUnits="userSpaceOnUse">
<stop stop-color="#B0BACC"/>
<stop offset="1" stop-color="#969EAE"/>
</linearGradient>
<linearGradient id="paint1_linear_349_1659" x1="98.2642" y1="45.2927" x2="225.737" y2="68.1733" gradientUnits="userSpaceOnUse">
<stop stop-color="#E3E7EE"/>
<stop offset="1" stop-color="#D1D6DF"/>
</linearGradient>
<linearGradient id="paint2_linear_349_1659" x1="177.084" y1="73.1864" x2="177.084" y2="156.244" gradientUnits="userSpaceOnUse">
<stop stop-color="#BDC4D1" stop-opacity="0.53"/>
<stop offset="1" stop-color="#5D7CB8" stop-opacity="0"/>
</linearGradient>
<linearGradient id="paint3_linear_349_1659" x1="175.268" y1="217.134" x2="175.268" y2="250" gradientUnits="userSpaceOnUse">
<stop stop-color="#B6BFD7"/>
<stop offset="1" stop-color="#838DA7" stop-opacity="0"/>
</linearGradient>
<linearGradient id="paint4_linear_349_1659" x1="91.422" y1="228.013" x2="92.0266" y2="233.69" gradientUnits="userSpaceOnUse">
<stop stop-color="#B0BACC"/>
<stop offset="1" stop-color="#969EAE"/>
</linearGradient>
<linearGradient id="paint5_linear_349_1659" x1="146.804" y1="221.449" x2="146.804" y2="225.445" gradientUnits="userSpaceOnUse">
<stop stop-color="#B0BACC"/>
<stop offset="1" stop-color="#969EAE"/>
</linearGradient>
<linearGradient id="paint6_linear_349_1659" x1="198.326" y1="226.145" x2="214.985" y2="227.259" gradientUnits="userSpaceOnUse">
<stop stop-color="#B0BACC"/>
<stop offset="1" stop-color="#969EAE"/>
</linearGradient>
<linearGradient id="paint7_linear_349_1659" x1="273.126" y1="231.731" x2="272.687" y2="235.543" gradientUnits="userSpaceOnUse">
<stop stop-color="#B0BACC"/>
<stop offset="1" stop-color="#969EAE"/>
</linearGradient>
<linearGradient id="paint8_linear_349_1659" x1="200.144" y1="91.5924" x2="207.736" y2="65.3892" gradientUnits="userSpaceOnUse">
<stop stop-color="#B0BACC"/>
<stop offset="1" stop-color="#969EAE"/>
</linearGradient>
<linearGradient id="paint9_linear_349_1659" x1="118.34" y1="176.945" x2="118.34" y2="207.2" gradientUnits="userSpaceOnUse">
<stop stop-color="#D6DCE6"/>
<stop offset="1" stop-color="#C4CBDA"/>
</linearGradient>
<linearGradient id="paint10_linear_349_1659" x1="177.075" y1="175.999" x2="177.075" y2="207.396" gradientUnits="userSpaceOnUse">
<stop stop-color="#D6DCE6"/>
<stop offset="1" stop-color="#C4CBDA"/>
</linearGradient>
<linearGradient id="paint11_linear_349_1659" x1="236.819" y1="176.945" x2="236.819" y2="207.2" gradientUnits="userSpaceOnUse">
<stop stop-color="#D6DCE6"/>
<stop offset="1" stop-color="#C4CBDA"/>
</linearGradient>
<linearGradient id="paint12_linear_349_1659" x1="113.724" y1="176.945" x2="113.724" y2="207.2" gradientUnits="userSpaceOnUse">
<stop stop-color="#EAEEF5"/>
<stop offset="1" stop-color="#D4DAE4"/>
</linearGradient>
<linearGradient id="paint13_linear_349_1659" x1="172.459" y1="175.999" x2="172.459" y2="207.396" gradientUnits="userSpaceOnUse">
<stop stop-color="#EAEEF5"/>
<stop offset="1" stop-color="#D4DAE4"/>
</linearGradient>
<linearGradient id="paint14_linear_349_1659" x1="232.203" y1="176.945" x2="232.203" y2="207.2" gradientUnits="userSpaceOnUse">
<stop stop-color="#EAEEF5"/>
<stop offset="1" stop-color="#D4DAE4"/>
</linearGradient>
</defs>
</svg>
