<svg width="270" height="63" viewBox="0 0 270 63" fill="none" xmlns="http://www.w3.org/2000/svg">
<path d="M119 11.764L130.989 22.3657C131.39 22.7204 131.999 22.6962 132.371 22.3109L151 3" stroke="#32C045" stroke-width="6" stroke-linecap="round"/>
<path d="M2.41761 56V38.5455H8.80966C10.0483 38.5455 11.0739 38.75 11.8864 39.1591C12.6989 39.5625 13.3068 40.1108 13.7102 40.804C14.1136 41.4915 14.3153 42.267 14.3153 43.1307C14.3153 43.858 14.1818 44.4716 13.9148 44.9716C13.6477 45.4659 13.2898 45.8636 12.8409 46.1648C12.3977 46.4602 11.9091 46.6761 11.375 46.8125V46.983C11.9545 47.0114 12.5199 47.1989 13.071 47.5455C13.6278 47.8864 14.0881 48.3722 14.4517 49.0028C14.8153 49.6335 14.9972 50.4006 14.9972 51.304C14.9972 52.196 14.7869 52.9972 14.3665 53.7074C13.9517 54.4119 13.3097 54.9716 12.4403 55.3864C11.571 55.7955 10.4602 56 9.10795 56H2.41761ZM5.05114 53.7415H8.85227C10.1136 53.7415 11.017 53.4972 11.5625 53.0085C12.108 52.5199 12.3807 51.9091 12.3807 51.1761C12.3807 50.625 12.2415 50.1193 11.9631 49.6591C11.6847 49.1989 11.2869 48.8324 10.7699 48.5597C10.2585 48.2869 9.65057 48.1506 8.94602 48.1506H5.05114V53.7415ZM5.05114 46.0966H8.57955C9.17045 46.0966 9.7017 45.983 10.1733 45.7557C10.6506 45.5284 11.0284 45.2102 11.3068 44.8011C11.5909 44.3864 11.733 43.8977 11.733 43.3352C11.733 42.6136 11.4801 42.0085 10.9744 41.5199C10.4688 41.0312 9.69318 40.7869 8.64773 40.7869H5.05114V46.0966ZM26.1608 50.571V42.9091H28.7176V56H26.2119V53.733H26.0756C25.7744 54.4318 25.2915 55.0142 24.6267 55.4801C23.9676 55.9403 23.1466 56.1705 22.1636 56.1705C21.3227 56.1705 20.5784 55.9858 19.9307 55.6165C19.2886 55.2415 18.783 54.6875 18.4136 53.9545C18.05 53.2216 17.8682 52.3153 17.8682 51.2358V42.9091H20.4165V50.929C20.4165 51.821 20.6636 52.5312 21.158 53.0597C21.6523 53.5881 22.2943 53.8523 23.0841 53.8523C23.5614 53.8523 24.0358 53.733 24.5074 53.4943C24.9847 53.2557 25.3796 52.8949 25.6921 52.4119C26.0102 51.929 26.1665 51.3153 26.1608 50.571ZM33.7044 60.9091C33.3237 60.9091 32.9772 60.8778 32.6647 60.8153C32.3522 60.7585 32.1192 60.696 31.9658 60.6278L32.5794 58.5398C33.0453 58.6648 33.4601 58.7188 33.8237 58.7017C34.1874 58.6847 34.5084 58.5483 34.7868 58.2926C35.0709 58.0369 35.3209 57.6193 35.5368 57.0398L35.8522 56.1705L31.0624 42.9091H33.7897L37.105 53.0682H37.2414L40.5567 42.9091H43.2925L37.8976 57.7472C37.6476 58.429 37.3294 59.0057 36.9431 59.4773C36.5567 59.9545 36.0965 60.3125 35.5624 60.5511C35.0283 60.7898 34.409 60.9091 33.7044 60.9091ZM53.932 50.571V42.9091H56.4888V56H53.9831V53.733H53.8468C53.5456 54.4318 53.0627 55.0142 52.3979 55.4801C51.7388 55.9403 50.9178 56.1705 49.9348 56.1705C49.0939 56.1705 48.3496 55.9858 47.7019 55.6165C47.0598 55.2415 46.5542 54.6875 46.1848 53.9545C45.8212 53.2216 45.6394 52.3153 45.6394 51.2358V42.9091H48.1877V50.929C48.1877 51.821 48.4348 52.5312 48.9292 53.0597C49.4235 53.5881 50.0655 53.8523 50.8553 53.8523C51.3326 53.8523 51.807 53.733 52.2786 53.4943C52.7559 53.2557 53.1507 52.8949 53.4632 52.4119C53.7814 51.929 53.9377 51.3153 53.932 50.571ZM59.8648 56V42.9091H62.3279V44.9886H62.4642C62.7029 44.2841 63.1233 43.7301 63.7256 43.3267C64.3336 42.9176 65.0211 42.7131 65.7881 42.7131C65.9472 42.7131 66.1347 42.7187 66.3506 42.7301C66.5722 42.7415 66.7455 42.7557 66.8705 42.7727V45.2102C66.7682 45.1818 66.5864 45.1506 66.325 45.1165C66.0637 45.0767 65.8023 45.0568 65.541 45.0568C64.9387 45.0568 64.4017 45.1847 63.9302 45.4403C63.4642 45.6903 63.0949 46.0398 62.8222 46.4886C62.5495 46.9318 62.4131 47.4375 62.4131 48.0057V56H59.8648ZM75.912 42.9091V44.9545H68.7614V42.9091H75.912ZM70.679 39.7727H73.2273V52.1562C73.2273 52.6506 73.3012 53.0227 73.4489 53.2727C73.5967 53.517 73.787 53.6847 74.0199 53.7756C74.2586 53.8608 74.5171 53.9034 74.7955 53.9034C75.0001 53.9034 75.179 53.8892 75.3324 53.8608C75.4859 53.8324 75.6052 53.8097 75.6904 53.7926L76.1506 55.8977C76.0029 55.9545 75.7927 56.0114 75.5199 56.0682C75.2472 56.1307 74.9063 56.1648 74.4972 56.1705C73.8268 56.1818 73.2018 56.0625 72.6222 55.8125C72.0427 55.5625 71.5739 55.1761 71.216 54.6534C70.858 54.1307 70.679 53.4744 70.679 52.6847V39.7727ZM78.6829 56V42.9091H81.1289V45.0398H81.2908C81.5636 44.3182 82.0096 43.7557 82.6289 43.3523C83.2482 42.9432 83.9897 42.7386 84.8533 42.7386C85.7283 42.7386 86.4613 42.9432 87.0522 43.3523C87.6488 43.7614 88.0891 44.3239 88.3732 45.0398H88.5096C88.8221 44.3409 89.3192 43.7841 90.0011 43.3693C90.6829 42.9489 91.4954 42.7386 92.4386 42.7386C93.6261 42.7386 94.5948 43.1108 95.3448 43.8551C96.1005 44.5994 96.4783 45.7216 96.4783 47.2216V56H93.93V47.4602C93.93 46.5739 93.6886 45.9318 93.2056 45.5341C92.7227 45.1364 92.1459 44.9375 91.4755 44.9375C90.6459 44.9375 90.0011 45.1932 89.5408 45.7045C89.0806 46.2102 88.8505 46.8608 88.8505 47.6562V56H86.3107V47.2983C86.3107 46.5881 86.0891 46.017 85.6459 45.5852C85.2028 45.1534 84.6261 44.9375 83.9158 44.9375C83.4329 44.9375 82.9869 45.0653 82.5778 45.321C82.1744 45.571 81.8477 45.9205 81.5977 46.3693C81.3533 46.8182 81.2312 47.3381 81.2312 47.929V56H78.6829ZM103.655 56.2898C102.826 56.2898 102.076 56.1364 101.405 55.8295C100.735 55.517 100.204 55.0653 99.8117 54.4744C99.4254 53.8835 99.2322 53.1591 99.2322 52.3011C99.2322 51.5625 99.3742 50.9545 99.6583 50.4773C99.9424 50 100.326 49.6222 100.809 49.3438C101.292 49.0653 101.832 48.8551 102.428 48.7131C103.025 48.571 103.633 48.4631 104.252 48.3892C105.036 48.2983 105.673 48.2244 106.161 48.1676C106.65 48.1051 107.005 48.0057 107.227 47.8693C107.448 47.733 107.559 47.5114 107.559 47.2045V47.1449C107.559 46.4006 107.349 45.8239 106.928 45.4148C106.513 45.0057 105.894 44.8011 105.07 44.8011C104.212 44.8011 103.536 44.9915 103.042 45.3722C102.553 45.7472 102.215 46.1648 102.028 46.625L99.6328 46.0795C99.9168 45.2841 100.332 44.642 100.877 44.1534C101.428 43.6591 102.062 43.3011 102.778 43.0795C103.494 42.8523 104.246 42.7386 105.036 42.7386C105.559 42.7386 106.113 42.8011 106.698 42.9261C107.289 43.0455 107.84 43.267 108.352 43.5909C108.869 43.9148 109.292 44.3778 109.621 44.9801C109.951 45.5767 110.116 46.3523 110.116 47.3068V56H107.627V54.2102H107.525C107.36 54.5398 107.113 54.8636 106.783 55.1818C106.454 55.5 106.03 55.7642 105.513 55.9744C104.996 56.1847 104.377 56.2898 103.655 56.2898ZM104.209 54.2443C104.914 54.2443 105.516 54.1051 106.016 53.8267C106.522 53.5483 106.905 53.1847 107.167 52.7358C107.434 52.2812 107.567 51.7955 107.567 51.2784V49.5909C107.477 49.6818 107.3 49.767 107.039 49.8466C106.783 49.9205 106.491 49.9858 106.161 50.0426C105.832 50.0937 105.511 50.142 105.198 50.1875C104.886 50.2273 104.624 50.2614 104.414 50.2898C103.92 50.3523 103.468 50.4574 103.059 50.6051C102.655 50.7528 102.332 50.9659 102.087 51.2443C101.849 51.517 101.729 51.8807 101.729 52.3352C101.729 52.9659 101.962 53.4432 102.428 53.767C102.894 54.0852 103.488 54.2443 104.209 54.2443ZM128.604 60.9091V53.9631H128.45C128.297 54.2415 128.075 54.5597 127.785 54.9176C127.501 55.2756 127.109 55.5881 126.609 55.8551C126.109 56.1222 125.461 56.2557 124.666 56.2557C123.609 56.2557 122.666 55.9858 121.836 55.446C121.013 54.9006 120.365 54.125 119.893 53.1193C119.427 52.108 119.194 50.8949 119.194 49.4801C119.194 48.0653 119.43 46.8551 119.902 45.8494C120.379 44.8437 121.032 44.0739 121.862 43.5398C122.692 43.0057 123.632 42.7386 124.683 42.7386C125.496 42.7386 126.149 42.875 126.643 43.1477C127.143 43.4148 127.53 43.7273 127.802 44.0852C128.081 44.4432 128.297 44.7585 128.45 45.0312H128.663V42.9091H131.152V60.9091H128.604ZM125.229 54.0824C125.961 54.0824 126.581 53.8892 127.086 53.5028C127.598 53.1108 127.984 52.5682 128.246 51.875C128.513 51.1818 128.646 50.375 128.646 49.4545C128.646 48.5455 128.515 47.75 128.254 47.0682C127.993 46.3864 127.609 45.8551 127.104 45.4744C126.598 45.0937 125.973 44.9034 125.229 44.9034C124.461 44.9034 123.822 45.1023 123.311 45.5C122.8 45.8977 122.413 46.4403 122.152 47.1278C121.896 47.8153 121.768 48.5909 121.768 49.4545C121.768 50.3295 121.899 51.1165 122.16 51.8153C122.422 52.5142 122.808 53.0682 123.319 53.4773C123.836 53.8807 124.473 54.0824 125.229 54.0824ZM138.34 56.2898C137.51 56.2898 136.76 56.1364 136.09 55.8295C135.419 55.517 134.888 55.0653 134.496 54.4744C134.109 53.8835 133.916 53.1591 133.916 52.3011C133.916 51.5625 134.058 50.9545 134.342 50.4773C134.627 50 135.01 49.6222 135.493 49.3438C135.976 49.0653 136.516 48.8551 137.112 48.7131C137.709 48.571 138.317 48.4631 138.936 48.3892C139.72 48.2983 140.357 48.2244 140.845 48.1676C141.334 48.1051 141.689 48.0057 141.911 47.8693C142.132 47.733 142.243 47.5114 142.243 47.2045V47.1449C142.243 46.4006 142.033 45.8239 141.612 45.4148C141.198 45.0057 140.578 44.8011 139.754 44.8011C138.896 44.8011 138.22 44.9915 137.726 45.3722C137.237 45.7472 136.899 46.1648 136.712 46.625L134.317 46.0795C134.601 45.2841 135.016 44.642 135.561 44.1534C136.112 43.6591 136.746 43.3011 137.462 43.0795C138.178 42.8523 138.931 42.7386 139.72 42.7386C140.243 42.7386 140.797 42.8011 141.382 42.9261C141.973 43.0455 142.524 43.267 143.036 43.5909C143.553 43.9148 143.976 44.3778 144.306 44.9801C144.635 45.5767 144.8 46.3523 144.8 47.3068V56H142.311V54.2102H142.209C142.044 54.5398 141.797 54.8636 141.467 55.1818C141.138 55.5 140.715 55.7642 140.198 55.9744C139.681 56.1847 139.061 56.2898 138.34 56.2898ZM138.894 54.2443C139.598 54.2443 140.2 54.1051 140.7 53.8267C141.206 53.5483 141.59 53.1847 141.851 52.7358C142.118 52.2812 142.252 51.7955 142.252 51.2784V49.5909C142.161 49.6818 141.984 49.767 141.723 49.8466C141.467 49.9205 141.175 49.9858 140.845 50.0426C140.516 50.0937 140.195 50.142 139.882 50.1875C139.57 50.2273 139.308 50.2614 139.098 50.2898C138.604 50.3523 138.152 50.4574 137.743 50.6051C137.34 50.7528 137.016 50.9659 136.771 51.2443C136.533 51.517 136.413 51.8807 136.413 52.3352C136.413 52.9659 136.646 53.4432 137.112 53.767C137.578 54.0852 138.172 54.2443 138.894 54.2443ZM148.351 56V38.5455H150.899V45.0312H151.052C151.2 44.7585 151.413 44.4432 151.691 44.0852C151.97 43.7273 152.356 43.4148 152.851 43.1477C153.345 42.875 153.998 42.7386 154.811 42.7386C155.868 42.7386 156.811 43.0057 157.64 43.5398C158.47 44.0739 159.12 44.8437 159.592 45.8494C160.069 46.8551 160.308 48.0653 160.308 49.4801C160.308 50.8949 160.072 52.108 159.601 53.1193C159.129 54.125 158.481 54.9006 157.657 55.446C156.834 55.9858 155.893 56.2557 154.836 56.2557C154.041 56.2557 153.39 56.1222 152.885 55.8551C152.385 55.5881 151.993 55.2756 151.709 54.9176C151.424 54.5597 151.206 54.2415 151.052 53.9631H150.839V56H148.351ZM150.848 49.4545C150.848 50.375 150.981 51.1818 151.248 51.875C151.515 52.5682 151.902 53.1108 152.407 53.5028C152.913 53.8892 153.532 54.0824 154.265 54.0824C155.027 54.0824 155.663 53.8807 156.174 53.4773C156.686 53.0682 157.072 52.5142 157.334 51.8153C157.601 51.1165 157.734 50.3295 157.734 49.4545C157.734 48.5909 157.603 47.8153 157.342 47.1278C157.086 46.4403 156.7 45.8977 156.183 45.5C155.672 45.1023 155.032 44.9034 154.265 44.9034C153.527 44.9034 152.902 45.0937 152.39 45.4744C151.885 45.8551 151.501 46.3864 151.24 47.0682C150.978 47.75 150.848 48.5455 150.848 49.4545ZM171.414 50.571V42.9091H173.971V56H171.465V53.733H171.329C171.028 54.4318 170.545 55.0142 169.88 55.4801C169.221 55.9403 168.4 56.1705 167.417 56.1705C166.576 56.1705 165.832 55.9858 165.184 55.6165C164.542 55.2415 164.036 54.6875 163.667 53.9545C163.303 53.2216 163.121 52.3153 163.121 51.2358V42.9091H165.67V50.929C165.67 51.821 165.917 52.5312 166.411 53.0597C166.906 53.5881 167.548 53.8523 168.337 53.8523C168.815 53.8523 169.289 53.733 169.761 53.4943C170.238 53.2557 170.633 52.8949 170.945 52.4119C171.263 51.929 171.42 51.3153 171.414 50.571ZM179.895 38.5455V56H177.347V38.5455H179.895ZM198.417 60.9091V53.9631H198.264C198.11 54.2415 197.889 54.5597 197.599 54.9176C197.315 55.2756 196.923 55.5881 196.423 55.8551C195.923 56.1222 195.275 56.2557 194.48 56.2557C193.423 56.2557 192.48 55.9858 191.65 55.446C190.826 54.9006 190.178 54.125 189.707 53.1193C189.241 52.108 189.008 50.8949 189.008 49.4801C189.008 48.0653 189.244 46.8551 189.715 45.8494C190.193 44.8437 190.846 44.0739 191.676 43.5398C192.505 43.0057 193.445 42.7386 194.497 42.7386C195.309 42.7386 195.963 42.875 196.457 43.1477C196.957 43.4148 197.343 43.7273 197.616 44.0852C197.894 44.4432 198.11 44.7585 198.264 45.0312H198.477V42.9091H200.965V60.9091H198.417ZM195.042 54.0824C195.775 54.0824 196.394 53.8892 196.9 53.5028C197.411 53.1108 197.798 52.5682 198.059 51.875C198.326 51.1818 198.46 50.375 198.46 49.4545C198.46 48.5455 198.329 47.75 198.068 47.0682C197.806 46.3864 197.423 45.8551 196.917 45.4744C196.411 45.0937 195.786 44.9034 195.042 44.9034C194.275 44.9034 193.636 45.1023 193.124 45.5C192.613 45.8977 192.227 46.4403 191.965 47.1278C191.71 47.8153 191.582 48.5909 191.582 49.4545C191.582 50.3295 191.713 51.1165 191.974 51.8153C192.235 52.5142 192.622 53.0682 193.133 53.4773C193.65 53.8807 194.286 54.0824 195.042 54.0824ZM204.344 56V42.9091H206.892V56H204.344ZM205.63 40.8892C205.187 40.8892 204.807 40.7415 204.488 40.446C204.176 40.1449 204.02 39.7869 204.02 39.3722C204.02 38.9517 204.176 38.5937 204.488 38.2983C204.807 37.9972 205.187 37.8466 205.63 37.8466C206.074 37.8466 206.451 37.9972 206.764 38.2983C207.082 38.5937 207.241 38.9517 207.241 39.3722C207.241 39.7869 207.082 40.1449 206.764 40.446C206.451 40.7415 206.074 40.8892 205.63 40.8892ZM212.82 38.5455V56H210.272V38.5455H212.82ZM216.201 56V42.9091H218.749V56H216.201ZM217.488 40.8892C217.044 40.8892 216.664 40.7415 216.346 40.446C216.033 40.1449 215.877 39.7869 215.877 39.3722C215.877 38.9517 216.033 38.5937 216.346 38.2983C216.664 37.9972 217.044 37.8466 217.488 37.8466C217.931 37.8466 218.309 37.9972 218.621 38.2983C218.939 38.5937 219.098 38.9517 219.098 39.3722C219.098 39.7869 218.939 40.1449 218.621 40.446C218.309 40.7415 217.931 40.8892 217.488 40.8892ZM224.677 48.2273V56H222.129V42.9091H224.575V45.0398H224.737C225.038 44.3466 225.51 43.7898 226.152 43.3693C226.8 42.9489 227.615 42.7386 228.598 42.7386C229.49 42.7386 230.271 42.9261 230.942 43.3011C231.612 43.6705 232.132 44.2216 232.501 44.9545C232.871 45.6875 233.055 46.5937 233.055 47.6733V56H230.507V47.9801C230.507 47.0312 230.26 46.2898 229.766 45.7557C229.271 45.2159 228.592 44.946 227.729 44.946C227.138 44.946 226.612 45.0739 226.152 45.3295C225.697 45.5852 225.337 45.9602 225.07 46.4545C224.808 46.9432 224.677 47.5341 224.677 48.2273ZM240.235 56.2898C239.405 56.2898 238.655 56.1364 237.985 55.8295C237.314 55.517 236.783 55.0653 236.391 54.4744C236.004 53.8835 235.811 53.1591 235.811 52.3011C235.811 51.5625 235.953 50.9545 236.237 50.4773C236.522 50 236.905 49.6222 237.388 49.3438C237.871 49.0653 238.411 48.8551 239.007 48.7131C239.604 48.571 240.212 48.4631 240.831 48.3892C241.615 48.2983 242.252 48.2244 242.74 48.1676C243.229 48.1051 243.584 48.0057 243.806 47.8693C244.027 47.733 244.138 47.5114 244.138 47.2045V47.1449C244.138 46.4006 243.928 45.8239 243.507 45.4148C243.093 45.0057 242.473 44.8011 241.649 44.8011C240.791 44.8011 240.115 44.9915 239.621 45.3722C239.132 45.7472 238.794 46.1648 238.607 46.625L236.212 46.0795C236.496 45.2841 236.911 44.642 237.456 44.1534C238.007 43.6591 238.641 43.3011 239.357 43.0795C240.073 42.8523 240.826 42.7386 241.615 42.7386C242.138 42.7386 242.692 42.8011 243.277 42.9261C243.868 43.0455 244.419 43.267 244.931 43.5909C245.448 43.9148 245.871 44.3778 246.201 44.9801C246.53 45.5767 246.695 46.3523 246.695 47.3068V56H244.206V54.2102H244.104C243.939 54.5398 243.692 54.8636 243.362 55.1818C243.033 55.5 242.61 55.7642 242.093 55.9744C241.576 56.1847 240.956 56.2898 240.235 56.2898ZM240.789 54.2443C241.493 54.2443 242.095 54.1051 242.595 53.8267C243.101 53.5483 243.485 53.1847 243.746 52.7358C244.013 52.2812 244.147 51.7955 244.147 51.2784V49.5909C244.056 49.6818 243.879 49.767 243.618 49.8466C243.362 49.9205 243.07 49.9858 242.74 50.0426C242.411 50.0937 242.09 50.142 241.777 50.1875C241.465 50.2273 241.203 50.2614 240.993 50.2898C240.499 50.3523 240.047 50.4574 239.638 50.6051C239.235 50.7528 238.911 50.9659 238.666 51.2443C238.428 51.517 238.308 51.8807 238.308 52.3352C238.308 52.9659 238.541 53.4432 239.007 53.767C239.473 54.0852 240.067 54.2443 240.789 54.2443ZM254.942 56.2557C253.885 56.2557 252.942 55.9858 252.112 55.446C251.288 54.9006 250.64 54.125 250.169 53.1193C249.703 52.108 249.47 50.8949 249.47 49.4801C249.47 48.0653 249.706 46.8551 250.177 45.8494C250.655 44.8437 251.308 44.0739 252.138 43.5398C252.967 43.0057 253.907 42.7386 254.959 42.7386C255.771 42.7386 256.425 42.875 256.919 43.1477C257.419 43.4148 257.805 43.7273 258.078 44.0852C258.356 44.4432 258.572 44.7585 258.726 45.0312H258.879V38.5455H261.427V56H258.939V53.9631H258.726C258.572 54.2415 258.351 54.5597 258.061 54.9176C257.777 55.2756 257.385 55.5881 256.885 55.8551C256.385 56.1222 255.737 56.2557 254.942 56.2557ZM255.504 54.0824C256.237 54.0824 256.856 53.8892 257.362 53.5028C257.873 53.1108 258.26 52.5682 258.521 51.875C258.788 51.1818 258.922 50.375 258.922 49.4545C258.922 48.5455 258.791 47.75 258.53 47.0682C258.268 46.3864 257.885 45.8551 257.379 45.4744C256.873 45.0937 256.248 44.9034 255.504 44.9034C254.737 44.9034 254.098 45.1023 253.586 45.5C253.075 45.8977 252.689 46.4403 252.427 47.1278C252.172 47.8153 252.044 48.5909 252.044 49.4545C252.044 50.3295 252.175 51.1165 252.436 51.8153C252.697 52.5142 253.084 53.0682 253.595 53.4773C254.112 53.8807 254.748 54.0824 255.504 54.0824ZM265.016 56V42.9091H267.565V56H265.016ZM266.303 40.8892C265.86 40.8892 265.48 40.7415 265.161 40.446C264.849 40.1449 264.693 39.7869 264.693 39.3722C264.693 38.9517 264.849 38.5937 265.161 38.2983C265.48 37.9972 265.86 37.8466 266.303 37.8466C266.747 37.8466 267.124 37.9972 267.437 38.2983C267.755 38.5937 267.914 38.9517 267.914 39.3722C267.914 39.7869 267.755 40.1449 267.437 40.446C267.124 40.7415 266.747 40.8892 266.303 40.8892Z" fill="#121212"/>
</svg>
