<svg width="210" height="56" viewBox="0 0 210 56" fill="none" xmlns="http://www.w3.org/2000/svg">
<rect x="1" y="1" width="208" height="54" rx="11" fill="white"/>
<path d="M117 28C117 21.3726 111.627 16 105 16C98.3726 16 93 21.3726 93 28C93 33.9895 97.3882 38.954 103.125 39.8542V31.4688H100.078V28H103.125V25.3563C103.125 22.3488 104.917 20.6875 107.658 20.6875C108.97 20.6875 110.344 20.9219 110.344 20.9219V23.875H108.831C107.34 23.875 106.875 24.8001 106.875 25.75V28H110.203L109.671 31.4688H106.875V39.8542C112.612 38.954 117 33.9895 117 28Z" fill="#1877F2"/>
<path d="M109.671 31.4688L110.203 28H106.875V25.75C106.875 24.8001 107.34 23.875 108.831 23.875H110.344V20.9219C110.344 20.9219 108.97 20.6875 107.658 20.6875C104.917 20.6875 103.125 22.3488 103.125 25.3563V28H100.078V31.4688H103.125V39.8542C104.367 40.0486 105.633 40.0486 106.875 39.8542V31.4688H109.671Z" fill="white"/>
<rect x="1" y="1" width="208" height="54" rx="11" stroke="#E6E6E6" stroke-width="2"/>
</svg>
