<svg width="210" height="56" viewBox="0 0 210 56" fill="none" xmlns="http://www.w3.org/2000/svg">
<rect x="1" y="1" width="208" height="54" rx="11" fill="white"/>
<path d="M116.766 28.2764C116.766 27.4607 116.7 26.6406 116.559 25.8381H105.24V30.4591H111.722C111.453 31.9494 110.589 33.2678 109.323 34.1056V37.1039H113.19C115.461 35.0139 116.766 31.9274 116.766 28.2764Z" fill="#4285F4"/>
<path d="M105.24 40.0008C108.477 40.0008 111.206 38.9382 113.195 37.1039L109.328 34.1055C108.252 34.8375 106.863 35.252 105.245 35.252C102.114 35.252 99.4596 33.1399 98.5072 30.3003H94.5167V33.3912C96.5538 37.4434 100.703 40.0008 105.24 40.0008Z" fill="#34A853"/>
<path d="M98.5028 30.3003C98.0001 28.8099 98.0001 27.1961 98.5028 25.7057V22.6148H94.5167C92.8147 26.0056 92.8147 30.0005 94.5167 33.3912L98.5028 30.3003Z" fill="#FBBC04"/>
<path d="M105.24 20.7497C106.951 20.7232 108.605 21.367 109.844 22.5487L113.27 19.1226C111.1 17.0855 108.221 15.9655 105.24 16.0008C100.703 16.0008 96.5539 18.5582 94.5167 22.6148L98.5028 25.7057C99.4508 22.8617 102.11 20.7497 105.24 20.7497Z" fill="#EA4335"/>
<rect x="1" y="1" width="208" height="54" rx="11" stroke="#E6E6E6" stroke-width="2"/>
</svg>
