<svg width="550" height="656" viewBox="0 0 550 656" fill="none" xmlns="http://www.w3.org/2000/svg">
<path d="M545 636.446L486.666 654.424C480.27 636.422 475.99 627.779 466.5 616.241L429 548.361V611.241C426.567 621.466 425.773 630.551 427.463 646.581C427.721 649.027 425.775 651.165 423.318 651.082L369 649.241L300.5 652.241L232.25 649.741L175.125 652.491L122.486 651.339C120.096 651.286 118.291 649.158 118.572 646.785C120.416 631.219 119.669 622.564 117 611.241V535.361L76.5 618.241C69.605 622.862 67 635.241 62.5 654.741C38.1432 656.467 23.1775 652.501 1 641.446C5.07734 623.302 7.64061 612.812 2.5 605.241L2 580.241L43.5 397.24L85 253.261L92.5 227.24C97.7155 215.283 101.988 209.467 112.525 201.011C150.892 176.054 154.751 178.582 178.5 168.24C166.805 166.211 158.327 164.904 156 155.24C154.424 128.235 159.85 115.468 162.5 104.24C167.611 89.9404 170.599 81.9742 177 68.2404L177.208 67.8267C183.502 55.3256 187.094 48.1898 201 38.2404C220.553 23.9622 236.594 16.4089 263 2.74037C268.061 0.210912 269.629 0.63868 271.5 2.74037C278.099 0.416029 284.583 2.51493 299 9.74037C318.903 21.2186 329.321 25.3478 345.5 40.7404C361.004 57.4243 368.834 66.6265 377.5 86.7404C381.888 97.8422 387.486 114.874 397.5 141.24C400.657 152.299 387.78 158.567 366.5 169.74C393.305 179.408 407.277 184.977 431.888 200.422C442.775 209.118 447.264 214.955 452 227.24L459.812 251.74L545 561.741C550.356 579.894 549.277 586.994 543.5 596.741C541.579 612.102 542.059 620.798 545 636.446Z" fill="white"/>
<path d="M178.5 168.24C268 161.74 283 163.74 366.5 169.74M178.5 168.24C154.751 178.582 150.892 176.054 112.525 201.011C101.988 209.467 97.7155 215.283 92.5 227.24L85 253.261M178.5 168.24C166.805 166.211 158.327 164.904 156 155.24C154.424 128.235 159.85 115.468 162.5 104.24C167.611 89.9404 170.599 81.9742 177 68.2404C183.424 55.482 186.941 48.299 201 38.2404C220.553 23.9622 236.594 16.4089 263 2.74037C268.061 0.210912 269.629 0.63868 271.5 2.74037M366.5 169.74C393.305 179.408 407.277 184.977 431.888 200.422C442.775 209.118 447.264 214.955 452 227.24L459.812 251.74M366.5 169.74C387.78 158.567 400.657 152.299 397.5 141.24C387.486 114.874 381.888 97.8422 377.5 86.7404C368.834 66.6265 361.004 57.4243 345.5 40.7404C329.321 25.3478 318.903 21.2186 299 9.74037C284.583 2.51493 278.099 0.416029 271.5 2.74037M429 548.361L466.5 616.241M429 548.361C422.654 479.531 423.472 354.481 426.778 272.824C427.075 265.485 430.745 258.483 437.788 256.4C443.851 254.607 451.116 253.501 459.812 251.74M429 548.361V611.241M117 535.361C122.183 466.786 117.238 351.955 114.321 270.684C114.125 265.214 112.117 259.623 106.985 257.72C101.747 255.777 94.5042 254.795 85 253.261M117 535.361L76.5 618.241M117 535.361V611.241M543.5 596.741C541.579 612.102 542.059 620.798 545 636.446L486.666 654.424C480.27 636.422 475.99 627.779 466.5 616.241M543.5 596.741C549.277 586.994 550.356 579.894 545 561.741L459.812 251.74M543.5 596.741C536.577 595.951 532.695 595.519 525.5 598.241C510.374 603.069 502.111 606.437 485.5 606.741C474.922 607.529 471.814 611.1 466.5 616.241M2.5 605.241C7.64061 612.812 5.07734 623.302 1 641.446C23.1775 652.501 38.1432 656.467 62.5 654.741C67 635.241 69.605 622.861 76.5 618.241M2.5 605.241L2 580.241L43.5 397.24L85 253.261M2.5 605.241C17.788 612.285 15.5 612.398 24 613.241C33.1597 614.148 37.5 611.241 52.5 611.241C62 611.741 66.5 614.741 76.5 618.241M271.5 2.74037C270.793 27.1282 274.545 51.8104 272.5 57.2402C271.634 59.3679 271.578 60.5878 271.5 62.7402M117 611.241C119.669 622.564 120.416 631.219 118.572 646.785C118.291 649.158 120.096 651.286 122.486 651.339L175.125 652.491L232.25 649.741L300.5 652.241L369 649.241L423.318 651.082C425.775 651.165 427.721 649.027 427.463 646.581C425.773 630.551 426.567 621.466 429 611.241M117 611.241L173.5 612.491L234 609.741L301 612.241L369 609.241L429 611.241" stroke="#666666" stroke-width="1.5"/>
<path d="M288.683 198.689L270.74 210.845C269.481 211.698 267.844 211.756 266.527 210.994C264.464 209.8 263.504 206.808 264.91 204.883C264.93 204.855 264.95 204.828 264.971 204.8C266.046 203.371 266.781 201.597 266.211 199.901C265.861 198.857 265.099 198 264.103 197.53L255.098 193.276C232.869 183.514 232.013 177.986 189.196 168.322C174.637 166.895 164.324 167.762 157.991 159.297C157.304 158.378 156.995 157.23 157.042 156.084C157.214 151.814 158.079 149.418 164.043 148.36L164.507 148.28C184.492 144.854 195.846 142.907 205.294 143.369C229.595 145.222 242.615 151.141 266.639 154.28C266.99 154.326 267.349 154.34 267.701 154.323L317.981 151.853C343.016 149.749 354.838 147.944 369.294 142.87C383.165 137.999 391.999 134.098 396.168 140.868C396.37 141.196 396.523 141.562 396.622 141.934C399.22 151.735 388.271 158.233 368.76 169.546C368.449 169.726 368.117 169.881 367.779 170.003L290.015 198.011C289.544 198.181 289.097 198.408 288.683 198.689Z" fill="url(#paint0_linear_916_2773)" stroke="#666666"/>
<g filter="url(#filter0_ii_916_2773)">
<path d="M298.475 154.342L298.296 155.057C298.1 155.84 297.767 156.582 297.313 157.248L272 194.402V193.425C272 192.306 271.863 191.191 271.591 190.106C270.882 187.27 269.284 184.736 267.031 182.874L261.899 178.635C259.972 177.043 258.227 175.244 256.696 173.269L240.623 152.543C240.242 152.052 240.177 151.387 240.455 150.831C240.777 150.186 241.489 149.833 242.199 149.966L264.419 154.159C266.466 154.545 268.551 154.689 270.632 154.589L297.606 153.283C298.093 153.26 298.5 153.648 298.5 154.135C298.5 154.205 298.491 154.274 298.475 154.342Z" fill="white"/>
</g>
<path d="M272 194.402L267.688 200.177C267.031 201.057 266.469 202.003 266.01 203V203M272 194.402L297.313 157.248C297.767 156.582 298.1 155.84 298.296 155.057L298.475 154.342C298.491 154.274 298.5 154.205 298.5 154.135V154.135C298.5 153.648 298.093 153.26 297.606 153.283L270.632 154.589C268.551 154.689 266.466 154.545 264.419 154.159L242.199 149.966C241.489 149.833 240.777 150.186 240.455 150.831V150.831C240.177 151.387 240.242 152.052 240.623 152.543L256.696 173.269C258.227 175.244 259.972 177.043 261.899 178.635L267.031 182.874C269.284 184.736 270.882 187.27 271.591 190.106V190.106C271.863 191.191 272 192.306 272 193.425V194.402Z" stroke="#666666"/>
<defs>
<filter id="filter0_ii_916_2773" x="235.783" y="143.438" width="71.2168" height="65.7705" filterUnits="userSpaceOnUse" color-interpolation-filters="sRGB">
<feFlood flood-opacity="0" result="BackgroundImageFix"/>
<feBlend mode="normal" in="SourceGraphic" in2="BackgroundImageFix" result="shape"/>
<feColorMatrix in="SourceAlpha" type="matrix" values="0 0 0 0 0 0 0 0 0 0 0 0 0 0 0 0 0 0 127 0" result="hardAlpha"/>
<feOffset dx="8" dy="6"/>
<feGaussianBlur stdDeviation="5"/>
<feComposite in2="hardAlpha" operator="arithmetic" k2="-1" k3="1"/>
<feColorMatrix type="matrix" values="0 0 0 0 0 0 0 0 0 0 0 0 0 0 0 0 0 0 0.2 0"/>
<feBlend mode="normal" in2="shape" result="effect1_innerShadow_916_2773"/>
<feColorMatrix in="SourceAlpha" type="matrix" values="0 0 0 0 0 0 0 0 0 0 0 0 0 0 0 0 0 0 127 0" result="hardAlpha"/>
<feOffset dx="-4" dy="-6"/>
<feGaussianBlur stdDeviation="7.5"/>
<feComposite in2="hardAlpha" operator="arithmetic" k2="-1" k3="1"/>
<feColorMatrix type="matrix" values="0 0 0 0 0 0 0 0 0 0 0 0 0 0 0 0 0 0 0.2 0"/>
<feBlend mode="normal" in2="effect1_innerShadow_916_2773" result="effect2_innerShadow_916_2773"/>
</filter>
<linearGradient id="paint0_linear_916_2773" x1="157" y1="158.341" x2="397.449" y2="142.622" gradientUnits="userSpaceOnUse">
<stop stop-color="#C3C3C3"/>
<stop offset="0.185193" stop-color="white"/>
<stop offset="0.286087" stop-color="#F6F6F6"/>
<stop offset="0.360436" stop-color="white"/>
<stop offset="0.614317" stop-color="white"/>
<stop offset="0.732178" stop-color="#F0F0F0"/>
<stop offset="0.820602" stop-color="white"/>
<stop offset="1" stop-color="#CDCDCD"/>
</linearGradient>
</defs>
</svg>
