<svg width="550" height="656" viewBox="0 0 550 656" fill="none" xmlns="http://www.w3.org/2000/svg">
<path d="M545 636.446L486.666 654.424C480.27 636.422 475.99 627.779 466.5 616.241L429 548.361V611.241C426.567 621.466 425.773 630.551 427.463 646.581C427.721 649.027 425.775 651.165 423.318 651.082L369 649.241L300.5 652.241L232.25 649.741L175.125 652.491L122.486 651.339C120.096 651.286 118.291 649.158 118.572 646.785C120.416 631.219 119.669 622.564 117 611.241V535.361L76.5 618.241C69.605 622.862 67 635.241 62.5 654.741C38.1432 656.467 23.1775 652.501 1 641.446C5.07734 623.302 7.64061 612.812 2.5 605.241L2 580.241L43.5 397.24L85 253.261L92.5 227.24C97.7155 215.283 101.988 209.467 112.525 201.011C150.892 176.054 154.751 178.582 178.5 168.24C173.782 167.422 170.836 166.167 168.672 164.418C161.707 158.789 160.664 148.569 160.325 139.621C159.663 122.17 160.348 113.358 162.5 104.24C167.611 89.9404 170.599 81.9742 177 68.2404L177.208 67.8267C183.502 55.3256 187.094 48.1898 201 38.2404C220.553 23.9622 236.594 16.4089 263 2.74037C268.061 0.210912 269.629 0.63868 271.5 2.74037C278.099 0.416029 284.583 2.51493 299 9.74037C318.903 21.2186 329.321 25.3478 345.5 40.7404C361.004 57.4243 368.834 66.6265 377.5 86.7404C381.505 96.8731 383.197 109.135 384.983 133.811C385.339 138.731 385.105 143.722 383.956 148.52C382.471 154.722 379.843 159.555 366.5 169.74C393.305 179.408 407.277 184.977 431.888 200.422C442.775 209.118 447.264 214.955 452 227.24L459.812 251.74L545 561.741C550.356 579.894 549.277 586.994 543.5 596.741C541.579 612.102 542.059 620.798 545 636.446Z" fill="white"/>
<path d="M178.5 168.24C268 161.74 283 163.74 366.5 169.74M178.5 168.24C154.751 178.582 150.892 176.054 112.525 201.011C101.988 209.467 97.7155 215.283 92.5 227.24L85 253.261M178.5 168.24C173.782 167.422 170.836 166.167 168.672 164.418C161.707 158.789 160.664 148.569 160.325 139.621C159.663 122.17 160.348 113.358 162.5 104.24C167.611 89.9404 170.599 81.9742 177 68.2404C183.424 55.482 186.941 48.299 201 38.2404C220.553 23.9622 236.594 16.4089 263 2.74037C268.061 0.210912 269.629 0.63868 271.5 2.74037M366.5 169.74C393.305 179.408 407.277 184.977 431.888 200.422C442.775 209.118 447.264 214.955 452 227.24L459.812 251.74M366.5 169.74C379.843 159.555 382.471 154.722 383.956 148.52C385.105 143.722 385.339 138.731 384.983 133.811C383.197 109.135 381.505 96.8731 377.5 86.7404C368.834 66.6265 361.004 57.4243 345.5 40.7404C329.321 25.3478 318.903 21.2186 299 9.74037C284.583 2.51493 278.099 0.416029 271.5 2.74037M429 548.361L466.5 616.241M429 548.361C422.654 479.531 423.472 354.481 426.778 272.824C427.075 265.485 430.745 258.483 437.788 256.4C443.851 254.607 451.116 253.501 459.812 251.74M429 548.361V611.241M117 535.361C122.183 466.786 117.238 351.955 114.321 270.684C114.125 265.214 112.117 259.623 106.985 257.72C101.747 255.777 94.5042 254.795 85 253.261M117 535.361L76.5 618.241M117 535.361V611.241M543.5 596.741C541.579 612.102 542.059 620.798 545 636.446L486.666 654.424C480.27 636.422 475.99 627.779 466.5 616.241M543.5 596.741C549.277 586.994 550.356 579.894 545 561.741L459.812 251.74M543.5 596.741C536.577 595.951 532.695 595.519 525.5 598.241C510.374 603.069 502.111 606.437 485.5 606.741C474.922 607.529 471.814 611.1 466.5 616.241M2.5 605.241C7.64061 612.812 5.07734 623.302 1 641.446C23.1775 652.501 38.1432 656.467 62.5 654.741C67 635.241 69.605 622.861 76.5 618.241M2.5 605.241L2 580.241L43.5 397.24L85 253.261M2.5 605.241C17.788 612.285 15.5 612.398 24 613.241C33.1597 614.148 37.5 611.241 52.5 611.241C62 611.741 66.5 614.741 76.5 618.241M271.5 2.74037C270.793 27.1282 274.545 51.8104 272.5 57.2402C271.634 59.3679 271.578 60.5878 271.5 62.7402M117 611.241C119.669 622.564 120.416 631.219 118.572 646.785C118.291 649.158 120.096 651.286 122.486 651.339L175.125 652.491L232.25 649.741L300.5 652.241L369 649.241L423.318 651.082C425.775 651.165 427.721 649.027 427.463 646.581C425.773 630.551 426.567 621.466 429 611.241M117 611.241L173.5 612.491L234 609.741L301 612.241L369 609.241L429 611.241" stroke="#666666" stroke-width="1.5"/>
</svg>
