<svg width="158" height="63" viewBox="0 0 158 63" fill="none" xmlns="http://www.w3.org/2000/svg">
<path d="M63 11.764L74.9886 22.3657C75.3897 22.7204 75.999 22.6962 76.3707 22.3109L95 3" stroke="#32C045" stroke-width="6" stroke-linecap="round"/>
<path d="M7.75568 56.2386C6.58523 56.2386 5.53977 56.0369 4.61932 55.6335C3.70455 55.2301 2.98011 54.6705 2.44602 53.9545C1.91761 53.233 1.63352 52.3977 1.59375 51.4489H4.26989C4.30398 51.9659 4.47727 52.4148 4.78977 52.7955C5.10795 53.1705 5.52273 53.4602 6.03409 53.6648C6.54545 53.8693 7.11364 53.9716 7.73864 53.9716C8.42614 53.9716 9.03409 53.8523 9.5625 53.6136C10.0966 53.375 10.5142 53.0426 10.8153 52.6165C11.1165 52.1847 11.267 51.6875 11.267 51.125C11.267 50.5398 11.1165 50.0256 10.8153 49.5824C10.5199 49.1335 10.0852 48.7812 9.51136 48.5256C8.94318 48.2699 8.25568 48.142 7.44886 48.142H5.97443V45.9943H7.44886C8.09659 45.9943 8.66477 45.8778 9.15341 45.6449C9.64773 45.4119 10.0341 45.0881 10.3125 44.6733C10.5909 44.2528 10.7301 43.7614 10.7301 43.1989C10.7301 42.6591 10.608 42.1903 10.3636 41.7926C10.125 41.3892 9.78409 41.0739 9.34091 40.8466C8.90341 40.6193 8.38636 40.5057 7.78977 40.5057C7.22159 40.5057 6.69034 40.6108 6.19602 40.821C5.70739 41.0256 5.30966 41.321 5.00284 41.7074C4.69602 42.0881 4.53125 42.5455 4.50852 43.0795H1.96023C1.98864 42.1364 2.26705 41.3068 2.79545 40.5909C3.32955 39.875 4.03409 39.3153 4.90909 38.9119C5.78409 38.5085 6.75568 38.3068 7.82386 38.3068C8.94318 38.3068 9.90909 38.5256 10.7216 38.9631C11.5398 39.3949 12.1705 39.9716 12.6136 40.6932C13.0625 41.4148 13.2841 42.2045 13.2784 43.0625C13.2841 44.0398 13.0114 44.8693 12.4602 45.5511C11.9148 46.233 11.1875 46.6903 10.2784 46.9233V47.0597C11.4375 47.2358 12.3352 47.696 12.9716 48.4403C13.6136 49.1847 13.9318 50.108 13.9261 51.2102C13.9318 52.1705 13.6648 53.0312 13.125 53.7926C12.5909 54.554 11.8608 55.1534 10.9347 55.5909C10.0085 56.0227 8.94886 56.2386 7.75568 56.2386ZM20.9435 56.2898C20.1139 56.2898 19.3639 56.1364 18.6935 55.8295C18.023 55.517 17.4918 55.0653 17.0997 54.4744C16.7134 53.8835 16.5202 53.1591 16.5202 52.3011C16.5202 51.5625 16.6622 50.9545 16.9463 50.4773C17.2304 50 17.6139 49.6222 18.0969 49.3438C18.5798 49.0653 19.1196 48.8551 19.7162 48.7131C20.3128 48.571 20.9207 48.4631 21.5401 48.3892C22.3242 48.2983 22.9605 48.2244 23.4492 48.1676C23.9378 48.1051 24.2929 48.0057 24.5145 47.8693C24.7361 47.733 24.8469 47.5114 24.8469 47.2045V47.1449C24.8469 46.4006 24.6367 45.8239 24.2162 45.4148C23.8014 45.0057 23.1821 44.8011 22.3582 44.8011C21.5003 44.8011 20.8242 44.9915 20.3298 45.3722C19.8412 45.7472 19.5031 46.1648 19.3156 46.625L16.9207 46.0795C17.2048 45.2841 17.6196 44.642 18.1651 44.1534C18.7162 43.6591 19.3497 43.3011 20.0656 43.0795C20.7815 42.8523 21.5344 42.7386 22.3242 42.7386C22.8469 42.7386 23.4009 42.8011 23.9861 42.9261C24.577 43.0455 25.1281 43.267 25.6395 43.5909C26.1565 43.9148 26.5798 44.3778 26.9094 44.9801C27.2389 45.5767 27.4037 46.3523 27.4037 47.3068V56H24.9151V54.2102H24.8128C24.648 54.5398 24.4009 54.8636 24.0713 55.1818C23.7418 55.5 23.3185 55.7642 22.8014 55.9744C22.2844 56.1847 21.6651 56.2898 20.9435 56.2898ZM21.4975 54.2443C22.202 54.2443 22.8043 54.1051 23.3043 53.8267C23.81 53.5483 24.1935 53.1847 24.4548 52.7358C24.7219 52.2812 24.8554 51.7955 24.8554 51.2784V49.5909C24.7645 49.6818 24.5884 49.767 24.327 49.8466C24.0713 49.9205 23.7787 49.9858 23.4492 50.0426C23.1196 50.0937 22.7986 50.142 22.4861 50.1875C22.1736 50.2273 21.9122 50.2614 21.702 50.2898C21.2077 50.3523 20.756 50.4574 20.3469 50.6051C19.9435 50.7528 19.6196 50.9659 19.3753 51.2443C19.1367 51.517 19.0173 51.8807 19.0173 52.3352C19.0173 52.9659 19.2503 53.4432 19.7162 53.767C20.1821 54.0852 20.7759 54.2443 21.4975 54.2443ZM30.7499 56V42.9091H33.2982V48.3977H34.5254L38.8465 42.9091H41.9999L36.9289 49.2756L42.0595 56H38.8976L34.9516 50.767H33.2982V56H30.7499ZM47.8006 56.2898C46.9711 56.2898 46.2211 56.1364 45.5506 55.8295C44.8801 55.517 44.3489 55.0653 43.9569 54.4744C43.5705 53.8835 43.3773 53.1591 43.3773 52.3011C43.3773 51.5625 43.5194 50.9545 43.8034 50.4773C44.0875 50 44.4711 49.6222 44.954 49.3438C45.437 49.0653 45.9767 48.8551 46.5733 48.7131C47.1699 48.571 47.7779 48.4631 48.3972 48.3892C49.1813 48.2983 49.8176 48.2244 50.3063 48.1676C50.7949 48.1051 51.15 48.0057 51.3716 47.8693C51.5932 47.733 51.704 47.5114 51.704 47.2045V47.1449C51.704 46.4006 51.4938 45.8239 51.0733 45.4148C50.6586 45.0057 50.0392 44.8011 49.2154 44.8011C48.3574 44.8011 47.6813 44.9915 47.187 45.3722C46.6983 45.7472 46.3603 46.1648 46.1728 46.625L43.7779 46.0795C44.062 45.2841 44.4767 44.642 45.0222 44.1534C45.5733 43.6591 46.2069 43.3011 46.9228 43.0795C47.6387 42.8523 48.3915 42.7386 49.1813 42.7386C49.704 42.7386 50.258 42.8011 50.8432 42.9261C51.4341 43.0455 51.9853 43.267 52.4966 43.5909C53.0137 43.9148 53.437 44.3778 53.7665 44.9801C54.0961 45.5767 54.2608 46.3523 54.2608 47.3068V56H51.7722V54.2102H51.6699C51.5051 54.5398 51.258 54.8636 50.9284 55.1818C50.5989 55.5 50.1756 55.7642 49.6586 55.9744C49.1415 56.1847 48.5222 56.2898 47.8006 56.2898ZM48.3546 54.2443C49.0591 54.2443 49.6614 54.1051 50.1614 53.8267C50.6671 53.5483 51.0506 53.1847 51.312 52.7358C51.579 52.2812 51.7125 51.7955 51.7125 51.2784V49.5909C51.6216 49.6818 51.4455 49.767 51.1841 49.8466C50.9284 49.9205 50.6358 49.9858 50.3063 50.0426C49.9767 50.0937 49.6557 50.142 49.3432 50.1875C49.0307 50.2273 48.7694 50.2614 48.5591 50.2898C48.0648 50.3523 47.6131 50.4574 47.204 50.6051C46.8006 50.7528 46.4767 50.9659 46.2324 51.2443C45.9938 51.517 45.8745 51.8807 45.8745 52.3352C45.8745 52.9659 46.1074 53.4432 46.5733 53.767C47.0392 54.0852 47.633 54.2443 48.3546 54.2443ZM56.8314 52.5398H59.4394C59.4735 53.0739 59.715 53.4858 60.1638 53.7756C60.6184 54.0653 61.2064 54.2102 61.928 54.2102C62.661 54.2102 63.286 54.054 63.803 53.7415C64.3201 53.4233 64.5786 52.9318 64.5786 52.267C64.5786 51.8693 64.4792 51.5227 64.2803 51.2273C64.0871 50.9261 63.8116 50.6932 63.4536 50.5284C63.1013 50.3636 62.6837 50.2812 62.2008 50.2812H60.0701V48.2784H62.2008C62.9223 48.2784 63.4621 48.1136 63.8201 47.7841C64.178 47.4545 64.357 47.0426 64.357 46.5483C64.357 46.0142 64.1638 45.5852 63.7775 45.2614C63.3968 44.9318 62.8655 44.767 62.1837 44.767C61.4905 44.767 60.9138 44.9233 60.4536 45.2358C59.9934 45.5426 59.7519 45.9403 59.7292 46.429H57.1553C57.1723 45.696 57.3939 45.054 57.8201 44.5028C58.2519 43.946 58.8314 43.5142 59.5587 43.2074C60.2917 42.8949 61.124 42.7386 62.0559 42.7386C63.0275 42.7386 63.8684 42.8949 64.5786 43.2074C65.2888 43.5199 65.8371 43.9517 66.2235 44.5028C66.6155 45.054 66.8116 45.6875 66.8116 46.4034C66.8116 47.125 66.5956 47.7159 66.1638 48.1761C65.7377 48.6307 65.1809 48.9574 64.4934 49.1562V49.2926C64.999 49.3267 65.4479 49.4801 65.84 49.7528C66.232 50.0256 66.5388 50.3864 66.7604 50.8352C66.982 51.2841 67.0928 51.7926 67.0928 52.3608C67.0928 53.1619 66.8712 53.8551 66.428 54.4403C65.9905 55.0256 65.3826 55.4773 64.6042 55.7955C63.8314 56.108 62.9479 56.2642 61.9536 56.2642C60.9877 56.2642 60.1212 56.1136 59.3542 55.8125C58.5928 55.5057 57.9877 55.0739 57.5388 54.517C57.0956 53.9602 56.8598 53.3011 56.8314 52.5398ZM75.9798 56V42.9091H86.6587V56H84.1616V45.108H78.4599V56H75.9798ZM90.0177 60.9091V42.9091H92.5063V45.0312H92.7194C92.8671 44.7585 93.0802 44.4432 93.3586 44.0852C93.637 43.7273 94.0234 43.4148 94.5177 43.1477C95.012 42.875 95.6654 42.7386 96.4779 42.7386C97.5347 42.7386 98.4779 43.0057 99.3075 43.5398C100.137 44.0739 100.788 44.8437 101.259 45.8494C101.736 46.8551 101.975 48.0653 101.975 49.4801C101.975 50.8949 101.739 52.108 101.268 53.1193C100.796 54.125 100.148 54.9006 99.3245 55.446C98.5006 55.9858 97.5603 56.2557 96.5035 56.2557C95.708 56.2557 95.0575 56.1222 94.5518 55.8551C94.0518 55.5881 93.6597 55.2756 93.3756 54.9176C93.0916 54.5597 92.8728 54.2415 92.7194 53.9631H92.566V60.9091H90.0177ZM92.5149 49.4545C92.5149 50.375 92.6484 51.1818 92.9154 51.875C93.1825 52.5682 93.5688 53.1108 94.0745 53.5028C94.5802 53.8892 95.1995 54.0824 95.9325 54.0824C96.6938 54.0824 97.3302 53.8807 97.8416 53.4773C98.3529 53.0682 98.7393 52.5142 99.0006 51.8153C99.2677 51.1165 99.4012 50.3295 99.4012 49.4545C99.4012 48.5909 99.2705 47.8153 99.0092 47.1278C98.7535 46.4403 98.3671 45.8977 97.8501 45.5C97.3387 45.1023 96.6995 44.9034 95.9325 44.9034C95.1938 44.9034 94.5688 45.0937 94.0575 45.4744C93.5518 45.8551 93.1683 46.3864 92.9069 47.0682C92.6455 47.75 92.5149 48.5455 92.5149 49.4545ZM107.279 52.429L113.049 42.9091H115.794V56H113.296V46.4716L107.552 56H104.782V42.9091H107.279V52.429ZM128.044 48.3551V50.5625H120.953V48.3551H128.044ZM121.669 42.9091V56H119.172V42.9091H121.669ZM129.825 42.9091V56H127.336V42.9091H129.825ZM140.993 56V45.0824H137.857C137.112 45.0824 136.533 45.2557 136.118 45.6023C135.703 45.9489 135.496 46.4034 135.496 46.9659C135.496 47.5227 135.686 47.9716 136.067 48.3125C136.453 48.6477 136.993 48.8153 137.686 48.8153H141.734V50.8778H137.686C136.72 50.8778 135.885 50.7187 135.181 50.4006C134.482 50.0767 133.942 49.6193 133.561 49.0284C133.186 48.4375 132.999 47.7386 132.999 46.9318C132.999 46.108 133.192 45.3977 133.578 44.8011C133.97 44.1989 134.53 43.733 135.257 43.4034C135.99 43.0739 136.857 42.9091 137.857 42.9091H143.388V56H140.993ZM132.402 56L136.092 49.3864H138.7L135.01 56H132.402ZM145.108 45.108V42.9091H156.154V45.108H151.884V56H149.395V45.108H145.108Z" fill="#121212"/>
</svg>
