<svg width="549" height="493" viewBox="0 0 549 493" fill="none" xmlns="http://www.w3.org/2000/svg">
<path d="M193.878 2.37883C214.178 18.9487 323.464 24.2143 347.727 4.27537C348.634 3.52917 349.836 3.25834 350.94 3.66091L363.186 8.1258L417.023 29.7972C429.024 34.628 439.472 42.654 447.234 53.0037C452.681 60.2668 456.68 68.5095 459.015 77.2828L544.48 398.5C549.836 416.653 548.757 423.754 542.98 433.5C541.208 447.671 541.479 456.17 543.841 469.688C544.191 471.691 543.012 473.658 541.068 474.257L489.81 490.054C487.762 490.686 485.582 489.585 484.845 487.573C479.132 471.97 474.813 463.739 465.98 453L428.48 385.12V459.5C426.654 467.695 425.743 473.672 427.008 484.436C427.226 486.295 425.759 487.941 423.888 487.877L368.98 486L336.57 488.216C319.199 489.404 301.765 489.354 284.401 488.068L281.237 487.834C264.757 486.613 248.207 486.649 231.732 487.941C214.259 489.311 196.705 489.269 179.24 487.813L157.48 486L121.262 487.811C119.331 487.908 117.818 486.177 118.109 484.265C119.871 472.699 118.872 466.831 116.48 459.5V372.12L75.037 459.5C68.6292 468.103 65.6696 476.235 60.7965 489.025C60.2067 490.573 58.7145 491.599 57.058 491.578C36.4864 491.32 25.4647 488.068 4.81356 479.927C2.53342 479.028 1.60948 476.292 2.44428 473.987C6.74969 462.103 3.84896 445.984 1.98047 442L1.80031 432.992C1.58787 422.37 2.66838 411.762 5.01801 401.401L42.9805 234L88.1818 77.179C90.6923 68.4692 94.8029 60.3031 100.303 53.0984L101.318 51.7696C108.342 42.5691 117.454 35.171 127.901 30.1856L178.318 6.1258L190.51 1.69431C191.664 1.27502 192.927 1.60271 193.878 2.37883Z" fill="#1A1A1A"/>
<path d="M428.48 385.12L465.98 453M428.48 385.12C423.054 326.262 415.32 226.291 418.601 147.5M428.48 385.12V459.5M116.48 372.12C120.857 314.211 126.012 223.316 123.264 147.5M116.48 372.12L75.037 459.5M116.48 372.12V459.5M542.98 433.5C541.208 447.671 541.479 456.17 543.841 469.688C544.191 471.692 543.012 473.658 541.068 474.257L489.81 490.054C487.762 490.686 485.582 489.585 484.845 487.573C479.132 471.97 474.813 463.739 465.98 453M542.98 433.5C548.757 423.754 549.836 416.653 544.48 398.5L459.015 77.2828C456.68 68.5095 452.681 60.2668 447.234 53.0037V53.0037C439.472 42.654 429.024 34.628 417.023 29.7972L363.186 8.1258L350.94 3.66091C349.836 3.25834 348.634 3.52917 347.727 4.27537C323.464 24.2143 214.178 18.9487 193.878 2.37883C192.927 1.60271 191.664 1.27502 190.51 1.69431L178.318 6.1258L127.901 30.1856C117.454 35.171 108.342 42.5691 101.318 51.7696L100.303 53.0984C94.8029 60.3031 90.6923 68.4692 88.1818 77.179L42.9805 234L5.01801 401.401C2.66838 411.762 1.58787 422.37 1.80031 432.992L1.98047 442M542.98 433.5L530.469 435.63C523.166 436.873 516.024 438.923 509.174 441.744L503.908 443.912C497.309 446.63 490.437 448.633 483.412 449.887L465.98 453M1.98047 442C3.84896 445.984 6.74969 462.103 2.44428 473.987C1.60947 476.292 2.53342 479.028 4.81356 479.927C25.4647 488.068 36.4864 491.32 57.058 491.578C58.7145 491.599 60.2067 490.573 60.7965 489.025C65.6696 476.235 68.6292 468.103 75.037 459.5M1.98047 442L16.2033 444.963C22.7105 446.319 29.0962 448.204 35.2964 450.599V450.599C43.7264 453.856 52.492 456.167 61.4321 457.489L75.037 459.5M116.48 459.5C118.872 466.831 119.871 472.699 118.109 484.265C117.818 486.177 119.331 487.907 121.262 487.811L157.48 486L179.24 487.813C196.705 489.269 214.259 489.311 231.732 487.941V487.941C248.207 486.649 264.757 486.613 281.237 487.834L284.401 488.068C301.765 489.354 319.199 489.404 336.571 488.216L368.98 486L423.888 487.877C425.759 487.941 427.226 486.295 427.008 484.436C425.743 473.672 426.654 467.695 428.48 459.5M116.48 459.5L157.48 457.5L179.24 459.313C196.705 460.769 214.259 460.811 231.732 459.441V459.441C248.207 458.149 264.757 458.113 281.237 459.334L284.401 459.568C301.765 460.854 319.199 460.904 336.571 459.716L368.98 457.5L428.48 459.5" stroke="#4D4D4D" stroke-width="1.5"/>
</svg>
