<svg width="384" height="357" viewBox="0 0 384 357" fill="none" xmlns="http://www.w3.org/2000/svg">
<path d="M152.279 1.18634C165.243 12.2573 198.813 27.4468 231.452 1.1811C231.589 1.07094 231.777 1.03683 231.942 1.09702L240.58 4.24634L294.529 23.9153L382 89.7969L340.622 149.95L313.909 139.143V355.667H69.8291V139.143L43.3784 150.21L2 89.7969L89.7326 23.6549L143.131 4.24634L151.786 1.10033C151.956 1.03839 152.141 1.06859 152.279 1.18634Z" fill="white"/>
<path d="M294.529 23.9153L382 89.7969L340.622 149.95L313.909 139.143M294.529 23.9153L240.58 4.24634L231.942 1.09702C231.777 1.03683 231.589 1.07094 231.452 1.1811C198.813 27.4468 165.243 12.2573 152.279 1.18634C152.141 1.06859 151.956 1.03839 151.786 1.10033L143.131 4.24634L89.7326 23.6549M294.529 23.9153C290.426 49.0007 288.558 107.27 313.909 139.143M313.909 139.143V355.667H69.8291V139.143M69.8291 139.143L43.3784 150.21L2 89.7969L89.7326 23.6549M69.8291 139.143C95.3894 108.311 93.7482 49.3479 89.7326 23.6549" stroke="#666666" stroke-width="1.5"/>
<path d="M16.25 80.8L56.9219 143.753" stroke="#CCCCCC" stroke-dasharray="4 4"/>
<path d="M13.875 83.7559L53.6563 144.64" stroke="#CCCCCC" stroke-dasharray="4 4"/>
<path d="M368.047 80.2087L327.375 143.162" stroke="#CCCCCC" stroke-dasharray="4 4"/>
<path d="M370.422 83.1646L330.641 144.049" stroke="#CCCCCC" stroke-dasharray="4 4"/>
<path d="M71.4688 345.617H313.422" stroke="#CCCCCC" stroke-dasharray="4 4"/>
<path d="M71.4688 342.071H313.422" stroke="#CCCCCC" stroke-dasharray="4 4"/>
</svg>
