<svg width="60" height="40" viewBox="0 0 60 40" fill="none" xmlns="http://www.w3.org/2000/svg">
<g filter="url(#filter0_d_543_1041)">
<rect x="2" y="1" width="56" height="36" rx="8" fill="#F19654" shape-rendering="crispEdges"/>
<g clip-path="url(#clip0_543_1041)">
<path d="M27.5 14H25C25 12.6739 24.4732 11.4021 23.5355 10.4645C22.5979 9.52678 21.3261 9 20 9C18.6739 9 17.4021 9.52678 16.4645 10.4645C15.5268 11.4021 15 12.6739 15 14H12.5C11.837 14 11.2011 14.2634 10.7322 14.7322C10.2634 15.2011 10 15.837 10 16.5V24.8333C10.0013 25.938 10.4407 26.997 11.2218 27.7782C12.003 28.5593 13.062 28.9987 14.1667 29H25.8333C26.938 28.9987 27.997 28.5593 28.7782 27.7782C29.5593 26.997 29.9987 25.938 30 24.8333V16.5C30 15.837 29.7366 15.2011 29.2678 14.7322C28.7989 14.2634 28.163 14 27.5 14ZM20 10.6667C20.8841 10.6667 21.7319 11.0179 22.357 11.643C22.9821 12.2681 23.3333 13.1159 23.3333 14H16.6667C16.6667 13.1159 17.0179 12.2681 17.643 11.643C18.2681 11.0179 19.1159 10.6667 20 10.6667ZM28.3333 24.8333C28.3333 25.4964 28.0699 26.1323 27.6011 26.6011C27.1323 27.0699 26.4964 27.3333 25.8333 27.3333H14.1667C13.5036 27.3333 12.8677 27.0699 12.3989 26.6011C11.9301 26.1323 11.6667 25.4964 11.6667 24.8333V16.5C11.6667 16.279 11.7545 16.067 11.9107 15.9107C12.067 15.7545 12.279 15.6667 12.5 15.6667H15V17.3333C15 17.5543 15.0878 17.7663 15.2441 17.9226C15.4004 18.0789 15.6123 18.1667 15.8333 18.1667C16.0543 18.1667 16.2663 18.0789 16.4226 17.9226C16.5789 17.7663 16.6667 17.5543 16.6667 17.3333V15.6667H23.3333V17.3333C23.3333 17.5543 23.4211 17.7663 23.5774 17.9226C23.7337 18.0789 23.9457 18.1667 24.1667 18.1667C24.3877 18.1667 24.5996 18.0789 24.7559 17.9226C24.9122 17.7663 25 17.5543 25 17.3333V15.6667H27.5C27.721 15.6667 27.933 15.7545 28.0893 15.9107C28.2455 16.067 28.3333 16.279 28.3333 16.5V24.8333Z" fill="white"/>
</g>
<path d="M47.3333 19.3333H42.6667V14.6667C42.6667 14.2985 42.3682 14 42 14C41.6318 14 41.3333 14.2985 41.3333 14.6667V19.3333H36.6667C36.2985 19.3333 36 19.6318 36 20C36 20.3682 36.2985 20.6667 36.6667 20.6667H41.3333V25.3333C41.3333 25.7015 41.6318 26 42 26C42.3682 26 42.6666 25.7015 42.6666 25.3333V20.6667H47.3333C47.7015 20.6667 47.9999 20.3682 47.9999 20C48 19.6318 47.7015 19.3333 47.3333 19.3333Z" fill="white"/>
</g>
<defs>
<filter id="filter0_d_543_1041" x="0" y="0" width="60" height="40" filterUnits="userSpaceOnUse" color-interpolation-filters="sRGB">
<feFlood flood-opacity="0" result="BackgroundImageFix"/>
<feColorMatrix in="SourceAlpha" type="matrix" values="0 0 0 0 0 0 0 0 0 0 0 0 0 0 0 0 0 0 127 0" result="hardAlpha"/>
<feOffset dy="1"/>
<feGaussianBlur stdDeviation="1"/>
<feComposite in2="hardAlpha" operator="out"/>
<feColorMatrix type="matrix" values="0 0 0 0 0 0 0 0 0 0 0 0 0 0 0 0 0 0 0.1 0"/>
<feBlend mode="normal" in2="BackgroundImageFix" result="effect1_dropShadow_543_1041"/>
<feBlend mode="normal" in="SourceGraphic" in2="effect1_dropShadow_543_1041" result="shape"/>
</filter>
<clipPath id="clip0_543_1041">
<rect width="20" height="20" fill="white" transform="translate(10 9)"/>
</clipPath>
</defs>
</svg>
