<svg width="76" height="100" viewBox="0 0 76 100" fill="none" xmlns="http://www.w3.org/2000/svg">
<rect width="100" height="100" rx="50" fill="#F19654"/>
<path fill-rule="evenodd" clip-rule="evenodd" d="M25 32C25 33.66 26.34 34 28 34H34C34.5523 34 35 34.4477 35 35V55C35 56.66 35.34 58 37 58C38.66 58 39 56.66 39 55V35C39 34.4477 39.4477 34 40 34H46C47.66 34 49 33.66 49 32C49 30.34 47.66 30 46 30H28C26.34 30 25 30.34 25 32ZM60 39H48C46.34 39 45 39.34 45 41C45 42.66 46.34 43 48 43H51C51.5523 43 52 43.4477 52 44V55C52 56.66 52.34 58 54 58C55.66 58 56 56.66 56 55V44C56 43.4477 56.4477 43 57 43H60C61.66 43 63 42.66 63 41C63 39.34 61.66 39 60 39Z" fill="white"/>
</svg>
