<svg width="76" height="100" viewBox="0 0 76 100" fill="none" xmlns="http://www.w3.org/2000/svg">
<rect x="-24" width="100" height="100" rx="50" fill="#F19654"/>
<path fill-rule="evenodd" clip-rule="evenodd" d="M50.04 30H46V25.96C46 24.88 45.12 24 44.04 24H43.98C42.88 24 42 24.88 42 25.96V30H37.98C36.9 30 36.02 30.88 36 31.96V32.02C36 33.12 36.88 34 37.98 34H42V38.02C42 39.1 42.88 40 43.98 39.98H44.04C45.12 39.98 46 39.1 46 38.02V34H50.04C51.12 34 52 33.12 52 32.04V31.96C52 30.88 51.12 30 50.04 30ZM40 38.02V36H37.98C36.92 36 35.92 35.58 35.16 34.84C34.42 34.08 34 33.08 34 31.96C34 31.24 34.2 30.58 34.54 30H18C15.8 30 14 31.8 14 34V58C14 60.2 15.8 62 18 62H42C44.2 62 46 60.2 46 58V41.44C45.4 41.78 44.72 42 43.96 42C41.78 41.98 40 40.2 40 38.02ZM39.92 58H20C19.18 58 18.7 57.06 19.2 56.4L23.16 51.14C23.58 50.58 24.4 50.62 24.8 51.18L28 56L33.22 49.04C33.62 48.52 34.4 48.5 34.8 49.02L40.7 56.38C41.22 57.04 40.76 58 39.92 58Z" fill="#F8F8F8"/>
</svg>
