<svg width="222" height="222" viewBox="0 0 222 222" fill="none" xmlns="http://www.w3.org/2000/svg">
<path d="M88.3372 1.41564C96.0256 8.20946 114.988 17.0616 133.504 1.39946C133.788 1.1594 134.187 1.08473 134.534 1.21998L139.125 3.01371L170.359 15.2144L221 56.0808L197.044 93.3935L181.579 86.6902V221H40.2695V86.6902L24.9559 93.5551L1 56.0808L51.7926 15.0529L82.7072 3.01371L87.2943 1.22732C87.6513 1.08829 88.0501 1.16194 88.3372 1.41564Z" fill="white"/>
<path d="M170.359 15.2144L221 56.0808L197.044 93.3935L181.579 86.6902M170.359 15.2144L139.125 3.01371L134.534 1.21998C134.187 1.08473 133.788 1.1594 133.504 1.39946C114.988 17.0616 96.0256 8.20946 88.3372 1.41564C88.0501 1.16194 87.6513 1.08829 87.2943 1.22732L82.7072 3.01371L51.7926 15.0529M170.359 15.2144C167.984 30.7748 166.902 66.9192 181.579 86.6902M181.579 86.6902V221H40.2695V86.6902M40.2695 86.6902L24.9559 93.5551L1 56.0808L51.7926 15.0529M40.2695 86.6902C55.0675 67.5653 54.1174 30.9902 51.7926 15.0529" stroke="#666666" stroke-width="1.5"/>
<path d="M9.25 50.5L32.7969 89.55" stroke="#CCCCCC" stroke-dasharray="4 4"/>
<path d="M7.875 52.3335L30.9062 90.1002" stroke="#CCCCCC" stroke-dasharray="4 4"/>
<path d="M212.922 50.1332L189.375 89.1832" stroke="#CCCCCC" stroke-dasharray="4 4"/>
<path d="M214.297 51.9667L191.266 89.7333" stroke="#CCCCCC" stroke-dasharray="4 4"/>
<path d="M41.2188 214.766H181.297" stroke="#CCCCCC" stroke-dasharray="4 4"/>
<path d="M41.2188 212.567H181.297" stroke="#CCCCCC" stroke-dasharray="4 4"/>
</svg>
