<svg width="233" height="60" viewBox="0 0 233 60" fill="none" xmlns="http://www.w3.org/2000/svg">
<g filter="url(#filter0_d_972_2940)">
<rect x="2" y="1" width="229" height="56" rx="10" fill="#F19654" shape-rendering="crispEdges"/>
<path d="M41.5 24H39C39 22.6739 38.4732 21.4021 37.5355 20.4645C36.5979 19.5268 35.3261 19 34 19C32.6739 19 31.4021 19.5268 30.4645 20.4645C29.5268 21.4021 29 22.6739 29 24H26.5C25.837 24 25.2011 24.2634 24.7322 24.7322C24.2634 25.2011 24 25.837 24 26.5V34.8333C24.0013 35.938 24.4407 36.997 25.2218 37.7782C26.003 38.5593 27.062 38.9987 28.1667 39H39.8333C40.938 38.9987 41.997 38.5593 42.7782 37.7782C43.5593 36.997 43.9987 35.938 44 34.8333V26.5C44 25.837 43.7366 25.2011 43.2678 24.7322C42.7989 24.2634 42.163 24 41.5 24ZM34 20.6667C34.8841 20.6667 35.7319 21.0179 36.357 21.643C36.9821 22.2681 37.3333 23.1159 37.3333 24H30.6667C30.6667 23.1159 31.0179 22.2681 31.643 21.643C32.2681 21.0179 33.1159 20.6667 34 20.6667ZM42.3333 34.8333C42.3333 35.4964 42.0699 36.1323 41.6011 36.6011C41.1323 37.0699 40.4964 37.3333 39.8333 37.3333H28.1667C27.5036 37.3333 26.8677 37.0699 26.3989 36.6011C25.9301 36.1323 25.6667 35.4964 25.6667 34.8333V26.5C25.6667 26.279 25.7545 26.067 25.9107 25.9107C26.067 25.7545 26.279 25.6667 26.5 25.6667H29V27.3333C29 27.5543 29.0878 27.7663 29.2441 27.9226C29.4004 28.0789 29.6123 28.1667 29.8333 28.1667C30.0543 28.1667 30.2663 28.0789 30.4226 27.9226C30.5789 27.7663 30.6667 27.5543 30.6667 27.3333V25.6667H37.3333V27.3333C37.3333 27.5543 37.4211 27.7663 37.5774 27.9226C37.7337 28.0789 37.9457 28.1667 38.1667 28.1667C38.3877 28.1667 38.5996 28.0789 38.7559 27.9226C38.9122 27.7663 39 27.5543 39 27.3333V25.6667H41.5C41.721 25.6667 41.933 25.7545 42.0893 25.9107C42.2455 26.067 42.3333 26.279 42.3333 26.5V34.8333Z" fill="white"/>
<path d="M54.3977 37.8125V33.5114H55.1648C55.4261 33.2917 55.6705 32.9792 55.8977 32.5739C56.125 32.1686 56.3182 31.6212 56.4773 30.9318C56.6364 30.2424 56.7462 29.358 56.8068 28.2784L57.0795 23.3636H64.2557V33.5114H65.5739V37.7955H63.892V35H56.0795V37.8125H54.3977ZM57.233 33.5114H62.5739V24.875H58.6705L58.4886 28.2784C58.4394 29.1004 58.358 29.839 58.2443 30.4943C58.1345 31.1496 57.9924 31.7292 57.8182 32.233C57.6477 32.733 57.4527 33.1591 57.233 33.5114ZM70.9569 35.1761C70.1388 35.1761 69.4247 34.9886 68.8149 34.6136C68.205 34.2386 67.7316 33.714 67.3944 33.0398C67.0573 32.3655 66.8888 31.5777 66.8888 30.6761C66.8888 29.7708 67.0573 28.9792 67.3944 28.3011C67.7316 27.6231 68.205 27.0966 68.8149 26.7216C69.4247 26.3466 70.1388 26.1591 70.9569 26.1591C71.7751 26.1591 72.4891 26.3466 73.099 26.7216C73.7088 27.0966 74.1823 27.6231 74.5194 28.3011C74.8566 28.9792 75.0251 29.7708 75.0251 30.6761C75.0251 31.5777 74.8566 32.3655 74.5194 33.0398C74.1823 33.714 73.7088 34.2386 73.099 34.6136C72.4891 34.9886 71.7751 35.1761 70.9569 35.1761ZM70.9626 33.75C71.4929 33.75 71.9323 33.6098 72.2808 33.3295C72.6293 33.0492 72.8869 32.6761 73.0535 32.2102C73.224 31.7443 73.3092 31.2311 73.3092 30.6705C73.3092 30.1136 73.224 29.6023 73.0535 29.1364C72.8869 28.6667 72.6293 28.2898 72.2808 28.0057C71.9323 27.7216 71.4929 27.5795 70.9626 27.5795C70.4285 27.5795 69.9853 27.7216 69.6331 28.0057C69.2846 28.2898 69.0251 28.6667 68.8547 29.1364C68.688 29.6023 68.6047 30.1136 68.6047 30.6705C68.6047 31.2311 68.688 31.7443 68.8547 32.2102C69.0251 32.6761 69.2846 33.0492 69.6331 33.3295C69.9853 33.6098 70.4285 33.75 70.9626 33.75ZM83.5744 23.0227L84.2789 24.0966C84.0176 24.3352 83.7202 24.5057 83.3869 24.608C83.0573 24.7064 82.6766 24.7689 82.2448 24.7955C81.813 24.8182 81.3187 24.839 80.7619 24.858C80.1331 24.8769 79.616 25.0133 79.2107 25.267C78.8054 25.517 78.4929 25.8883 78.2732 26.3807C78.0573 26.8693 77.9172 27.483 77.8528 28.2216H77.9607C78.2448 27.6799 78.6388 27.2746 79.1426 27.0057C79.6501 26.7367 80.2202 26.6023 80.8528 26.6023C81.5573 26.6023 82.1842 26.7633 82.7335 27.0852C83.2827 27.4072 83.7145 27.8788 84.0289 28.5C84.3471 29.1174 84.5062 29.8731 84.5062 30.767C84.5062 31.6723 84.3395 32.4545 84.0062 33.1136C83.6766 33.7727 83.2107 34.2822 82.6085 34.642C82.01 34.9981 81.3035 35.1761 80.4891 35.1761C79.6748 35.1761 78.9645 34.9924 78.3585 34.625C77.7562 34.2538 77.2884 33.7045 76.9551 32.9773C76.6255 32.25 76.4607 31.3523 76.4607 30.2841V29.4205C76.4607 27.4242 76.8168 25.9223 77.5289 24.9148C78.241 23.9072 79.3054 23.3902 80.7221 23.3636C81.1804 23.3523 81.5895 23.3504 81.9494 23.358C82.3092 23.3617 82.6236 23.3447 82.8926 23.3068C83.1653 23.2652 83.3926 23.1705 83.5744 23.0227ZM80.4948 33.75C80.9683 33.75 81.3755 33.6307 81.7164 33.392C82.0611 33.1496 82.3263 32.8068 82.5119 32.3636C82.6975 31.9205 82.7903 31.3977 82.7903 30.7955C82.7903 30.2045 82.6975 29.7027 82.5119 29.2898C82.3263 28.8769 82.0611 28.5625 81.7164 28.3466C81.3717 28.1269 80.9588 28.017 80.4778 28.017C80.1217 28.017 79.8035 28.0795 79.5232 28.2045C79.2429 28.3258 79.0024 28.5057 78.8016 28.7443C78.6047 28.983 78.4513 29.2746 78.3414 29.6193C78.2354 29.9602 78.1785 30.3523 78.171 30.7955C78.171 31.697 78.3774 32.4148 78.7903 32.9489C79.207 33.483 79.7751 33.75 80.4948 33.75ZM88.8637 35.1932C88.3107 35.1932 87.8107 35.0909 87.3637 34.8864C86.9167 34.678 86.5626 34.3769 86.3012 33.983C86.0436 33.589 85.9148 33.1061 85.9148 32.5341C85.9148 32.0417 86.0095 31.6364 86.1989 31.3182C86.3883 31 86.644 30.7481 86.966 30.5625C87.2879 30.3769 87.6478 30.2367 88.0455 30.142C88.4432 30.0473 88.8485 29.9754 89.2614 29.9261C89.7841 29.8655 90.2084 29.8163 90.5341 29.7784C90.8599 29.7367 91.0966 29.6705 91.2444 29.5795C91.3921 29.4886 91.466 29.3409 91.466 29.1364V29.0966C91.466 28.6004 91.3258 28.2159 91.0455 27.9432C90.769 27.6705 90.3561 27.5341 89.8069 27.5341C89.2349 27.5341 88.7841 27.661 88.4546 27.9148C88.1288 28.1648 87.9035 28.4432 87.7785 28.75L86.1819 28.3864C86.3713 27.8561 86.6478 27.428 87.0114 27.1023C87.3788 26.7727 87.8012 26.5341 88.2785 26.3864C88.7557 26.2348 89.2576 26.1591 89.7841 26.1591C90.1326 26.1591 90.502 26.2008 90.8921 26.2841C91.286 26.3636 91.6535 26.5114 91.9944 26.7273C92.3391 26.9432 92.6213 27.2519 92.841 27.6534C93.0607 28.0511 93.1705 28.5682 93.1705 29.2045V35H91.5114V33.8068H91.4432C91.3334 34.0265 91.1686 34.2424 90.9489 34.4545C90.7292 34.6667 90.447 34.8428 90.1023 34.983C89.7576 35.1231 89.3448 35.1932 88.8637 35.1932ZM89.233 33.8295C89.7027 33.8295 90.1042 33.7367 90.4376 33.5511C90.7747 33.3655 91.0304 33.1231 91.2046 32.8239C91.3826 32.5208 91.4716 32.197 91.4716 31.8523V30.7273C91.411 30.7879 91.2936 30.8447 91.1194 30.8977C90.9489 30.947 90.7538 30.9905 90.5341 31.0284C90.3145 31.0625 90.1004 31.0947 89.8921 31.125C89.6838 31.1515 89.5095 31.1742 89.3694 31.1932C89.0398 31.2348 88.7387 31.3049 88.466 31.4034C88.197 31.5019 87.9811 31.6439 87.8182 31.8295C87.6591 32.0114 87.5796 32.2538 87.5796 32.5568C87.5796 32.9773 87.7349 33.2955 88.0455 33.5114C88.3561 33.7235 88.752 33.8295 89.233 33.8295ZM95.3533 35V26.2727H98.9726C99.9575 26.2727 100.738 26.483 101.314 26.9034C101.889 27.3201 102.177 27.8864 102.177 28.6023C102.177 29.1136 102.014 29.5189 101.689 29.8182C101.363 30.1174 100.931 30.3182 100.393 30.4205C100.783 30.4659 101.141 30.5833 101.467 30.7727C101.793 30.9583 102.054 31.2083 102.251 31.5227C102.452 31.8371 102.552 32.2121 102.552 32.6477C102.552 33.1098 102.433 33.5189 102.194 33.875C101.956 34.2273 101.609 34.5038 101.154 34.7045C100.704 34.9015 100.16 35 99.5238 35H95.3533ZM96.9499 33.5795H99.5238C99.9442 33.5795 100.274 33.4792 100.512 33.2784C100.751 33.0777 100.87 32.8049 100.87 32.4602C100.87 32.0549 100.751 31.7367 100.512 31.5057C100.274 31.2708 99.9442 31.1534 99.5238 31.1534H96.9499V33.5795ZM96.9499 29.9091H98.9897C99.3078 29.9091 99.5806 29.8636 99.8078 29.7727C100.039 29.6818 100.215 29.553 100.336 29.3864C100.461 29.2159 100.524 29.0152 100.524 28.7841C100.524 28.447 100.385 28.1837 100.109 27.9943C99.8325 27.8049 99.4537 27.7102 98.9726 27.7102H96.9499V29.9091ZM106.001 32.6193L109.847 26.2727H111.677V35H110.012V28.6477L106.182 35H104.336V26.2727H106.001V32.6193ZM112.798 27.7386V26.2727H120.162V27.7386H117.315V35H115.656V27.7386H112.798ZM123.157 29.2727H125.691C126.76 29.2727 127.582 29.5379 128.157 30.0682C128.733 30.5985 129.021 31.2822 129.021 32.1193C129.021 32.6648 128.892 33.1553 128.635 33.5909C128.377 34.0265 128 34.3712 127.504 34.625C127.008 34.875 126.404 35 125.691 35H121.879V26.2727H123.544V33.5341H125.691C126.18 33.5341 126.582 33.4072 126.896 33.1534C127.21 32.8958 127.368 32.5682 127.368 32.1705C127.368 31.75 127.21 31.4072 126.896 31.142C126.582 30.8731 126.18 30.7386 125.691 30.7386H123.157V29.2727ZM135 35V26.2727H138.619C139.604 26.2727 140.385 26.483 140.96 26.9034C141.536 27.3201 141.824 27.8864 141.824 28.6023C141.824 29.1136 141.661 29.5189 141.335 29.8182C141.01 30.1174 140.578 30.3182 140.04 30.4205C140.43 30.4659 140.788 30.5833 141.114 30.7727C141.44 30.9583 141.701 31.2083 141.898 31.5227C142.099 31.8371 142.199 32.2121 142.199 32.6477C142.199 33.1098 142.08 33.5189 141.841 33.875C141.602 34.2273 141.256 34.5038 140.801 34.7045C140.351 34.9015 139.807 35 139.171 35H135ZM136.597 33.5795H139.171C139.591 33.5795 139.921 33.4792 140.159 33.2784C140.398 33.0777 140.517 32.8049 140.517 32.4602C140.517 32.0549 140.398 31.7367 140.159 31.5057C139.921 31.2708 139.591 31.1534 139.171 31.1534H136.597V33.5795ZM136.597 29.9091H138.637C138.955 29.9091 139.227 29.8636 139.455 29.7727C139.686 29.6818 139.862 29.553 139.983 29.3864C140.108 29.2159 140.171 29.0152 140.171 28.7841C140.171 28.447 140.032 28.1837 139.756 27.9943C139.479 27.8049 139.101 27.7102 138.619 27.7102H136.597V29.9091ZM148.137 35V26.2727H149.836V29.9318H150.654L153.535 26.2727H155.637L152.256 30.517L155.677 35H153.569L150.938 31.5114H149.836V35H148.137ZM160.233 35.1761C159.415 35.1761 158.701 34.9886 158.091 34.6136C157.481 34.2386 157.008 33.714 156.671 33.0398C156.334 32.3655 156.165 31.5777 156.165 30.6761C156.165 29.7708 156.334 28.9792 156.671 28.3011C157.008 27.6231 157.481 27.0966 158.091 26.7216C158.701 26.3466 159.415 26.1591 160.233 26.1591C161.051 26.1591 161.765 26.3466 162.375 26.7216C162.985 27.0966 163.459 27.6231 163.796 28.3011C164.133 28.9792 164.301 29.7708 164.301 30.6761C164.301 31.5777 164.133 32.3655 163.796 33.0398C163.459 33.714 162.985 34.2386 162.375 34.6136C161.765 34.9886 161.051 35.1761 160.233 35.1761ZM160.239 33.75C160.769 33.75 161.209 33.6098 161.557 33.3295C161.906 33.0492 162.163 32.6761 162.33 32.2102C162.5 31.7443 162.585 31.2311 162.585 30.6705C162.585 30.1136 162.5 29.6023 162.33 29.1364C162.163 28.6667 161.906 28.2898 161.557 28.0057C161.209 27.7216 160.769 27.5795 160.239 27.5795C159.705 27.5795 159.262 27.7216 158.909 28.0057C158.561 28.2898 158.301 28.6667 158.131 29.1364C157.964 29.6023 157.881 30.1136 157.881 30.6705C157.881 31.2311 157.964 31.7443 158.131 32.2102C158.301 32.6761 158.561 33.0492 158.909 33.3295C159.262 33.6098 159.705 33.75 160.239 33.75ZM166.118 38.2727V26.2727H167.777V27.6875H167.919C168.017 27.5057 168.159 27.2955 168.345 27.0568C168.531 26.8182 168.788 26.6098 169.118 26.4318C169.447 26.25 169.883 26.1591 170.424 26.1591C171.129 26.1591 171.758 26.3371 172.311 26.6932C172.864 27.0492 173.298 27.5625 173.612 28.233C173.93 28.9034 174.089 29.7102 174.089 30.6534C174.089 31.5966 173.932 32.4053 173.618 33.0795C173.303 33.75 172.871 34.267 172.322 34.6307C171.773 34.9905 171.146 35.1705 170.442 35.1705C169.911 35.1705 169.478 35.0814 169.14 34.9034C168.807 34.7254 168.546 34.517 168.356 34.2784C168.167 34.0398 168.021 33.8277 167.919 33.642H167.817V38.2727H166.118ZM167.782 30.6364C167.782 31.25 167.871 31.7879 168.049 32.25C168.228 32.7121 168.485 33.0739 168.822 33.3352C169.159 33.5928 169.572 33.7216 170.061 33.7216C170.568 33.7216 170.993 33.5871 171.334 33.3182C171.674 33.0455 171.932 32.6761 172.106 32.2102C172.284 31.7443 172.373 31.2197 172.373 30.6364C172.373 30.0606 172.286 29.5436 172.112 29.0852C171.942 28.6269 171.684 28.2652 171.339 28C170.998 27.7348 170.572 27.6023 170.061 27.6023C169.568 27.6023 169.152 27.7292 168.811 27.983C168.474 28.2367 168.218 28.5909 168.044 29.0455C167.87 29.5 167.782 30.0303 167.782 30.6364ZM175.396 32.6932H177.134C177.157 33.0492 177.318 33.3239 177.617 33.517C177.92 33.7102 178.312 33.8068 178.793 33.8068C179.282 33.8068 179.699 33.7027 180.043 33.4943C180.388 33.2822 180.56 32.9545 180.56 32.5114C180.56 32.2462 180.494 32.0152 180.362 31.8182C180.233 31.6174 180.049 31.4621 179.81 31.3523C179.576 31.2424 179.297 31.1875 178.975 31.1875H177.555V29.8523H178.975C179.456 29.8523 179.816 29.7424 180.055 29.5227C180.293 29.303 180.413 29.0284 180.413 28.6989C180.413 28.3428 180.284 28.0568 180.026 27.8409C179.773 27.6212 179.418 27.5114 178.964 27.5114C178.502 27.5114 178.117 27.6155 177.81 27.8239C177.504 28.0284 177.343 28.2936 177.327 28.6193H175.612C175.623 28.1307 175.771 27.7027 176.055 27.3352C176.343 26.964 176.729 26.6761 177.214 26.4716C177.702 26.2633 178.257 26.1591 178.879 26.1591C179.526 26.1591 180.087 26.2633 180.56 26.4716C181.034 26.6799 181.399 26.9678 181.657 27.3352C181.918 27.7027 182.049 28.125 182.049 28.6023C182.049 29.0833 181.905 29.4773 181.617 29.7841C181.333 30.0871 180.962 30.3049 180.504 30.4375V30.5284C180.841 30.5511 181.14 30.6534 181.401 30.8352C181.663 31.017 181.867 31.2576 182.015 31.5568C182.163 31.8561 182.237 32.1951 182.237 32.5739C182.237 33.108 182.089 33.5701 181.793 33.9602C181.502 34.3504 181.096 34.6515 180.577 34.8636C180.062 35.072 179.473 35.1761 178.81 35.1761C178.166 35.1761 177.589 35.0758 177.077 34.875C176.57 34.6705 176.166 34.3826 175.867 34.0114C175.572 33.6402 175.415 33.2008 175.396 32.6932ZM185.576 32.6193L189.422 26.2727H191.252V35H189.587V28.6477L185.757 35H183.911V26.2727H185.576V32.6193ZM199.371 29.9034V31.375H194.643V29.9034H199.371ZM195.121 26.2727V35H193.456V26.2727H195.121ZM200.558 26.2727V35H198.899V26.2727H200.558ZM203.512 38.2727C203.258 38.2727 203.027 38.2519 202.819 38.2102C202.611 38.1723 202.455 38.1307 202.353 38.0852L202.762 36.6932C203.073 36.7765 203.349 36.8125 203.592 36.8011C203.834 36.7898 204.048 36.6989 204.234 36.5284C204.423 36.358 204.59 36.0795 204.734 35.6932L204.944 35.1136L201.751 26.2727H203.569L205.779 33.0455H205.87L208.08 26.2727H209.904L206.308 36.1648C206.141 36.6193 205.929 37.0038 205.671 37.3182C205.414 37.6364 205.107 37.875 204.751 38.0341C204.395 38.1932 203.982 38.2727 203.512 38.2727Z" fill="white"/>
</g>
<defs>
<filter id="filter0_d_972_2940" x="0" y="0" width="233" height="60" filterUnits="userSpaceOnUse" color-interpolation-filters="sRGB">
<feFlood flood-opacity="0" result="BackgroundImageFix"/>
<feColorMatrix in="SourceAlpha" type="matrix" values="0 0 0 0 0 0 0 0 0 0 0 0 0 0 0 0 0 0 127 0" result="hardAlpha"/>
<feOffset dy="1"/>
<feGaussianBlur stdDeviation="1"/>
<feComposite in2="hardAlpha" operator="out"/>
<feColorMatrix type="matrix" values="0 0 0 0 0 0 0 0 0 0 0 0 0 0 0 0 0 0 0.15 0"/>
<feBlend mode="normal" in2="BackgroundImageFix" result="effect1_dropShadow_972_2940"/>
<feBlend mode="normal" in="SourceGraphic" in2="effect1_dropShadow_972_2940" result="shape"/>
</filter>
</defs>
</svg>
