<svg width="37" height="36" viewBox="0 0 37 36" fill="none" xmlns="http://www.w3.org/2000/svg">
<path fill-rule="evenodd" clip-rule="evenodd" d="M28.4748 12.525L24.2898 16.71C23.8098 17.19 24.1398 18 24.8148 18H27.4998C27.4998 22.965 23.4648 27 18.4998 27C17.3148 27 16.1598 26.775 15.1248 26.34C14.5848 26.115 13.9698 26.28 13.5648 26.685C12.7998 27.45 13.0698 28.74 14.0748 29.145C15.4398 29.7 16.9398 30 18.4998 30C25.1298 30 30.4998 24.63 30.4998 18H33.1848C33.8598 18 34.1898 17.19 33.7098 16.725L29.5248 12.54C29.2398 12.24 28.7598 12.24 28.4748 12.525ZM9.4998 18C9.4998 13.035 13.5348 9 18.4998 9C19.6848 9 20.8398 9.225 21.8748 9.66C22.4148 9.885 23.0298 9.72 23.4348 9.315C24.1998 8.55 23.9298 7.26 22.9248 6.855C21.5598 6.3 20.0598 6 18.4998 6C11.8698 6 6.4998 11.37 6.4998 18H3.8148C3.1398 18 2.8098 18.81 3.2898 19.275L7.4748 23.46C7.7748 23.76 8.2398 23.76 8.5398 23.46L12.7248 19.275C13.1898 18.81 12.8598 18 12.1848 18H9.4998Z" fill="#244C9D"/>
</svg>
