<svg width="133" height="20" viewBox="0 0 133 20" fill="none" xmlns="http://www.w3.org/2000/svg">
<g clip-path="url(#clip0_2444_5123)">
<path d="M14.6663 4.66667H11.333V3.33333C11.333 2.97971 11.1925 2.64057 10.9425 2.39052C10.6924 2.14048 10.3533 2 9.99967 2H5.99967C5.64605 2 5.30691 2.14048 5.05687 2.39052C4.80682 2.64057 4.66634 2.97971 4.66634 3.33333V4.66667H1.33301V6H2.66634V16C2.66634 16.5304 2.87705 17.0391 3.25213 17.4142C3.6272 17.7893 4.13591 18 4.66634 18H11.333C11.8634 18 12.3721 17.7893 12.7472 17.4142C13.1223 17.0391 13.333 16.5304 13.333 16V6H14.6663V4.66667ZM5.99967 3.33333H9.99967V4.66667H5.99967V3.33333ZM11.9997 16C11.9997 16.1768 11.9294 16.3464 11.8044 16.4714C11.6794 16.5964 11.5098 16.6667 11.333 16.6667H4.66634C4.48953 16.6667 4.31996 16.5964 4.19494 16.4714C4.06991 16.3464 3.99967 16.1768 3.99967 16V6H11.9997V16Z" fill="#666666"/>
<path d="M7.33333 8.6665H6V13.9998H7.33333V8.6665Z" fill="#666666"/>
<path d="M9.99935 8.6665H8.66602V13.9998H9.99935V8.6665Z" fill="#666666"/>
</g>
<path d="M26.336 11.752C25.9947 12.5093 25.648 13.144 25.296 13.656C24.9547 14.1573 24.5493 14.536 24.08 14.792C23.6107 15.0373 23.0133 15.16 22.288 15.16C21.9893 15.16 21.7067 15.1387 21.44 15.096C21.184 15.0533 20.9493 14.9947 20.736 14.92V13.496C20.9493 13.592 21.1787 13.672 21.424 13.736C21.6693 13.7893 21.9253 13.816 22.192 13.816C22.5867 13.816 22.9227 13.7627 23.2 13.656C23.488 13.5387 23.7387 13.352 23.952 13.096C24.176 12.84 24.384 12.4987 24.576 12.072L20.176 3.576H21.76L24.944 9.864C24.9867 9.93867 25.0293 10.0293 25.072 10.136C25.1147 10.232 25.1573 10.3333 25.2 10.44C25.2533 10.5467 25.296 10.648 25.328 10.744H25.392C25.424 10.6693 25.456 10.584 25.488 10.488C25.5307 10.3813 25.568 10.28 25.6 10.184C25.6427 10.0773 25.68 9.98667 25.712 9.912L28.464 3.576H29.984L26.336 11.752ZM36.6793 6.424V13.816H37.9273V17.976H36.5673V15H30.5993V17.976H29.2553V13.816H29.9433C30.4339 13.1333 30.8393 12.392 31.1593 11.592C31.4899 10.7813 31.7353 9.93867 31.8953 9.064C32.0659 8.17867 32.1566 7.29867 32.1673 6.424H36.6793ZM33.4153 7.528C33.3726 8.25333 33.2606 9.00533 33.0793 9.784C32.8979 10.552 32.6633 11.288 32.3753 11.992C32.0979 12.696 31.7726 13.304 31.3993 13.816H35.3193V7.528H33.4153ZM42.7761 6.28C43.8215 6.28 44.5948 6.50933 45.0961 6.968C45.5975 7.42667 45.8481 8.15733 45.8481 9.16V15H44.8241L44.5521 13.784H44.4881C44.2428 14.0933 43.9868 14.3547 43.7201 14.568C43.4641 14.7707 43.1655 14.92 42.8241 15.016C42.4935 15.112 42.0881 15.16 41.6081 15.16C41.0961 15.16 40.6321 15.0693 40.2161 14.888C39.8108 14.7067 39.4908 14.4293 39.2561 14.056C39.0215 13.672 38.9041 13.192 38.9041 12.616C38.9041 11.7627 39.2401 11.1067 39.9121 10.648C40.5841 10.1787 41.6188 9.92267 43.0161 9.88L44.4721 9.832V9.32C44.4721 8.60533 44.3175 8.10933 44.0081 7.832C43.6988 7.55467 43.2615 7.416 42.6961 7.416C42.2481 7.416 41.8215 7.48533 41.4161 7.624C41.0108 7.752 40.6321 7.90133 40.2801 8.072L39.8481 7.016C40.2215 6.81333 40.6641 6.64267 41.1761 6.504C41.6881 6.35467 42.2215 6.28 42.7761 6.28ZM43.1921 10.856C42.1255 10.8987 41.3841 11.0693 40.9681 11.368C40.5628 11.6667 40.3601 12.088 40.3601 12.632C40.3601 13.112 40.5041 13.464 40.7921 13.688C41.0908 13.912 41.4695 14.024 41.9281 14.024C42.6535 14.024 43.2561 13.8267 43.7361 13.432C44.2161 13.0267 44.4561 12.408 44.4561 11.576V10.808L43.1921 10.856ZM54.9449 15H53.5209V7.592H50.9929C50.8862 8.94667 50.7529 10.104 50.5929 11.064C50.4329 12.0133 50.2302 12.7867 49.9849 13.384C49.7395 13.9813 49.4462 14.4187 49.1049 14.696C48.7635 14.9733 48.3635 15.112 47.9049 15.112C47.7662 15.112 47.6275 15.1013 47.4889 15.08C47.3609 15.0693 47.2542 15.0427 47.1689 15V13.944C47.2329 13.9653 47.3022 13.9813 47.3769 13.992C47.4515 14.0027 47.5262 14.008 47.6009 14.008C47.8355 14.008 48.0489 13.912 48.2409 13.72C48.4329 13.528 48.6035 13.2347 48.7529 12.84C48.9129 12.4453 49.0569 11.9493 49.1849 11.352C49.3129 10.744 49.4249 10.0293 49.5209 9.208C49.6169 8.38667 49.7022 7.45867 49.7769 6.424H54.9449V15ZM58.9149 11.656C58.9149 11.752 58.9095 11.8907 58.8989 12.072C58.8989 12.2427 58.8935 12.4293 58.8829 12.632C58.8722 12.824 58.8615 13.0107 58.8509 13.192C58.8402 13.3627 58.8295 13.5013 58.8189 13.608L63.4109 6.424H65.1389V15H63.8269V9.944C63.8269 9.77333 63.8269 9.54933 63.8269 9.272C63.8375 8.99467 63.8482 8.72267 63.8589 8.456C63.8695 8.17867 63.8802 7.97067 63.8909 7.832L59.3309 15H57.5869V6.424H58.9149V11.656ZM73.7081 7.608H70.9081V15H69.5161V7.608H66.7481V6.424H73.7081V7.608ZM79.2695 9.944C80.0162 9.944 80.6348 10.0347 81.1255 10.216C81.6162 10.3973 81.9842 10.6693 82.2295 11.032C82.4855 11.384 82.6135 11.832 82.6135 12.376C82.6135 12.9093 82.4908 13.3733 82.2455 13.768C82.0108 14.1627 81.6428 14.4667 81.1415 14.68C80.6402 14.8933 79.9948 15 79.2055 15H75.3175V6.424H76.7255V9.944H79.2695ZM81.2055 12.456C81.2055 11.9333 81.0188 11.5813 80.6455 11.4C80.2828 11.208 79.7708 11.112 79.1095 11.112H76.7255V13.864H79.1415C79.7388 13.864 80.2295 13.7573 80.6135 13.544C81.0082 13.3307 81.2055 12.968 81.2055 12.456ZM94.5619 7.608H91.7619V15H90.3699V7.608H87.6019V6.424H94.5619V7.608ZM103.471 10.696C103.471 11.4107 103.375 12.0453 103.183 12.6C103.002 13.144 102.735 13.608 102.383 13.992C102.042 14.376 101.62 14.6693 101.119 14.872C100.628 15.064 100.079 15.16 99.471 15.16C98.9057 15.16 98.383 15.064 97.903 14.872C97.423 14.6693 97.007 14.376 96.655 13.992C96.303 13.608 96.0257 13.144 95.823 12.6C95.631 12.0453 95.535 11.4107 95.535 10.696C95.535 9.74667 95.695 8.94667 96.015 8.296C96.335 7.63467 96.7937 7.13333 97.391 6.792C97.9883 6.44 98.6977 6.264 99.519 6.264C100.298 6.264 100.98 6.44 101.567 6.792C102.164 7.13333 102.628 7.63467 102.959 8.296C103.3 8.94667 103.471 9.74667 103.471 10.696ZM96.991 10.696C96.991 11.368 97.0763 11.9547 97.247 12.456C97.4283 12.9467 97.7057 13.3253 98.079 13.592C98.4523 13.8587 98.927 13.992 99.503 13.992C100.079 13.992 100.554 13.8587 100.927 13.592C101.3 13.3253 101.572 12.9467 101.743 12.456C101.924 11.9547 102.015 11.368 102.015 10.696C102.015 10.0133 101.924 9.432 101.743 8.952C101.562 8.472 101.284 8.104 100.911 7.848C100.548 7.58133 100.074 7.448 99.487 7.448C98.6123 7.448 97.9777 7.736 97.583 8.312C97.1883 8.888 96.991 9.68267 96.991 10.696ZM112.518 8.584C112.518 9.11733 112.358 9.53333 112.038 9.832C111.718 10.1307 111.308 10.3333 110.806 10.44V10.504C111.34 10.5787 111.804 10.7707 112.198 11.08C112.593 11.3787 112.79 11.848 112.79 12.488C112.79 12.8507 112.721 13.1867 112.582 13.496C112.454 13.8053 112.252 14.072 111.974 14.296C111.697 14.52 111.34 14.696 110.902 14.824C110.465 14.9413 109.937 15 109.318 15H105.622V6.424H109.302C109.91 6.424 110.454 6.49333 110.934 6.632C111.425 6.76 111.809 6.984 112.086 7.304C112.374 7.61333 112.518 8.04 112.518 8.584ZM111.334 12.488C111.334 11.9973 111.148 11.6453 110.774 11.432C110.401 11.2187 109.852 11.112 109.126 11.112H107.03V13.864H109.158C109.862 13.864 110.401 13.7627 110.774 13.56C111.148 13.3467 111.334 12.9893 111.334 12.488ZM111.094 8.76C111.094 8.35467 110.945 8.06133 110.646 7.88C110.358 7.688 109.884 7.592 109.222 7.592H107.03V9.944H108.966C109.66 9.944 110.188 9.848 110.55 9.656C110.913 9.464 111.094 9.16533 111.094 8.76ZM118.009 6.28C119.055 6.28 119.828 6.50933 120.329 6.968C120.831 7.42667 121.081 8.15733 121.081 9.16V15H120.057L119.785 13.784H119.721C119.476 14.0933 119.22 14.3547 118.953 14.568C118.697 14.7707 118.399 14.92 118.057 15.016C117.727 15.112 117.321 15.16 116.841 15.16C116.329 15.16 115.865 15.0693 115.449 14.888C115.044 14.7067 114.724 14.4293 114.489 14.056C114.255 13.672 114.137 13.192 114.137 12.616C114.137 11.7627 114.473 11.1067 115.145 10.648C115.817 10.1787 116.852 9.92267 118.249 9.88L119.705 9.832V9.32C119.705 8.60533 119.551 8.10933 119.241 7.832C118.932 7.55467 118.495 7.416 117.929 7.416C117.481 7.416 117.055 7.48533 116.649 7.624C116.244 7.752 115.865 7.90133 115.513 8.072L115.081 7.016C115.455 6.81333 115.897 6.64267 116.409 6.504C116.921 6.35467 117.455 6.28 118.009 6.28ZM118.425 10.856C117.359 10.8987 116.617 11.0693 116.201 11.368C115.796 11.6667 115.593 12.088 115.593 12.632C115.593 13.112 115.737 13.464 116.025 13.688C116.324 13.912 116.703 14.024 117.161 14.024C117.887 14.024 118.489 13.8267 118.969 13.432C119.449 13.0267 119.689 12.408 119.689 11.576V10.808L118.425 10.856ZM127.73 6.264C128.786 6.264 129.634 6.632 130.274 7.368C130.925 8.104 131.25 9.21333 131.25 10.696C131.25 11.6667 131.101 12.488 130.802 13.16C130.514 13.8213 130.103 14.3227 129.57 14.664C129.047 14.9947 128.429 15.16 127.714 15.16C127.277 15.16 126.887 15.1013 126.546 14.984C126.205 14.8667 125.911 14.7173 125.666 14.536C125.431 14.344 125.229 14.136 125.058 13.912H124.962C124.983 14.0933 125.005 14.3227 125.026 14.6C125.047 14.8773 125.058 15.1173 125.058 15.32V18.84H123.65V6.424H124.802L124.994 7.592H125.058C125.229 7.34667 125.431 7.12267 125.666 6.92C125.911 6.71733 126.199 6.55733 126.53 6.44C126.871 6.32267 127.271 6.264 127.73 6.264ZM127.474 7.448C126.898 7.448 126.434 7.56 126.082 7.784C125.73 7.99733 125.474 8.32267 125.314 8.76C125.154 9.19733 125.069 9.752 125.058 10.424V10.696C125.058 11.4 125.133 11.9973 125.282 12.488C125.431 12.9787 125.682 13.352 126.034 13.608C126.397 13.864 126.887 13.992 127.506 13.992C128.029 13.992 128.455 13.848 128.786 13.56C129.127 13.272 129.378 12.8827 129.538 12.392C129.709 11.8907 129.794 11.32 129.794 10.68C129.794 9.69867 129.602 8.91467 129.218 8.328C128.845 7.74133 128.263 7.448 127.474 7.448Z" fill="#666666"/>
<defs>
<clipPath id="clip0_2444_5123">
<rect width="16" height="16" fill="white" transform="translate(0 2)"/>
</clipPath>
</defs>
</svg>
