<svg width="138" height="20" viewBox="0 0 138 20" fill="none" xmlns="http://www.w3.org/2000/svg">
<g clip-path="url(#clip0_654_2409)">
<path d="M15.2933 2.70671C14.8401 2.25417 14.2258 2 13.5853 2C12.9449 2 12.3306 2.25417 11.8773 2.70671L0 14.584V18H3.416L15.2933 6.12271C15.7457 5.66939 15.9998 5.05513 15.9998 4.41471C15.9998 3.77429 15.7457 3.16003 15.2933 2.70671ZM2.86667 16.6667H1.33333V15.1334L10.2067 6.26671L11.74 7.80004L2.86667 16.6667ZM14.3507 5.18004L12.6793 6.85138L11.1493 5.31804L12.82 3.64938C13.0233 3.44604 13.2991 3.33181 13.5867 3.33181C13.8742 3.33181 14.15 3.44604 14.3533 3.64938C14.5567 3.85271 14.6709 4.12849 14.6709 4.41604C14.6709 4.7036 14.5567 4.97938 14.3533 5.18271L14.3507 5.18004Z" fill="#4D646B"/>
</g>
<path d="M21.4091 4.36364H22.7955V13.5227H22.9091L29.2727 4.36364H30.6364V16H29.2273V6.86364H29.1136L22.7727 16H21.4091V4.36364ZM32.6487 13.7727H34.0805C34.1108 14.1667 34.2888 14.4659 34.6146 14.6705C34.9441 14.875 35.3722 14.9773 35.8987 14.9773C36.4366 14.9773 36.8968 14.8674 37.2794 14.6477C37.662 14.4242 37.8532 14.0644 37.8532 13.5682C37.8532 13.2765 37.7813 13.0227 37.6373 12.8068C37.4934 12.5871 37.2907 12.4167 37.0294 12.2955C36.768 12.1742 36.4593 12.1136 36.1032 12.1136H34.6032V10.9091H36.1032C36.6373 10.9091 37.0313 10.7879 37.2851 10.5455C37.5426 10.303 37.6714 10 37.6714 9.63636C37.6714 9.24621 37.5332 8.93371 37.2566 8.69886C36.9801 8.46023 36.5881 8.34091 36.0805 8.34091C35.5691 8.34091 35.143 8.45644 34.8021 8.6875C34.4612 8.91477 34.2813 9.20833 34.2623 9.56818H32.8532C32.8684 9.09848 33.0123 8.68371 33.2851 8.32386C33.5578 7.96023 33.929 7.67614 34.3987 7.47159C34.8684 7.26326 35.4063 7.15909 36.0123 7.15909C36.626 7.15909 37.1582 7.26705 37.6089 7.48295C38.0635 7.69508 38.4138 7.98485 38.6601 8.35227C38.9101 8.71591 39.0351 9.12879 39.0351 9.59091C39.0351 10.0833 38.8968 10.4811 38.6203 10.7841C38.3438 11.0871 37.9972 11.303 37.5805 11.4318V11.5227C37.9101 11.5455 38.196 11.6515 38.4385 11.8409C38.6847 12.0265 38.876 12.2708 39.0123 12.5739C39.1487 12.8731 39.2169 13.2045 39.2169 13.5682C39.2169 14.0985 39.0748 14.5606 38.7907 14.9545C38.5066 15.3447 38.1165 15.6477 37.6203 15.8636C37.1241 16.0758 36.5578 16.1818 35.9214 16.1818C35.304 16.1818 34.751 16.0814 34.2623 15.8807C33.7737 15.6761 33.3854 15.3939 33.0976 15.0341C32.8135 14.6705 32.6638 14.25 32.6487 13.7727ZM45.7931 14.1818L48.8386 7.27273H50.1113L46.3386 16H45.2477L41.5431 7.27273H42.7931L45.7931 14.1818ZM42.3613 7.27273V16H41.0204V7.27273H42.3613ZM49.2249 16V7.27273H50.5659V16H49.2249ZM56.5995 16.1818C55.7586 16.1818 55.0332 15.9962 54.4234 15.625C53.8173 15.25 53.3495 14.7273 53.0199 14.0568C52.6942 13.3826 52.5313 12.5985 52.5313 11.7045C52.5313 10.8106 52.6942 10.0227 53.0199 9.34091C53.3495 8.6553 53.8078 8.12121 54.3949 7.73864C54.9859 7.35227 55.6752 7.15909 56.4631 7.15909C56.9177 7.15909 57.3665 7.23485 57.8097 7.38636C58.2529 7.53788 58.6563 7.78409 59.0199 8.125C59.3836 8.46212 59.6734 8.90909 59.8893 9.46591C60.1052 10.0227 60.2131 10.7083 60.2131 11.5227V12.0909H53.4859V10.9318H58.8495C58.8495 10.4394 58.751 10 58.554 9.61364C58.3609 9.22727 58.0843 8.92235 57.7245 8.69886C57.3684 8.47538 56.948 8.36364 56.4631 8.36364C55.929 8.36364 55.4669 8.49621 55.0768 8.76136C54.6904 9.02273 54.393 9.36364 54.1847 9.78409C53.9764 10.2045 53.8722 10.6553 53.8722 11.1364V11.9091C53.8722 12.5682 53.9859 13.1269 54.2131 13.5852C54.4442 14.0398 54.7643 14.3864 55.1734 14.625C55.5824 14.8598 56.0578 14.9773 56.5995 14.9773C56.9518 14.9773 57.2699 14.928 57.554 14.8295C57.8419 14.7273 58.09 14.5758 58.2984 14.375C58.5067 14.1705 58.6677 13.9167 58.7813 13.6136L60.0768 13.9773C59.9404 14.4167 59.7112 14.803 59.3893 15.1364C59.0673 15.4659 58.6696 15.7235 58.1961 15.9091C57.7226 16.0909 57.1904 16.1818 56.5995 16.1818ZM68.0138 11.0227V12.2727H63.1956V11.0227H68.0138ZM63.5138 7.27273V16H62.1729V7.27273H63.5138ZM69.0365 7.27273V16H67.6956V7.27273H69.0365ZM72.7463 14.0227L76.9509 7.27273H78.4963V16H77.1554V9.25L72.9736 16H71.4054V7.27273H72.7463V14.0227ZM79.6848 8.52273V7.27273H86.7757V8.52273H83.912V16H82.5711V8.52273H79.6848ZM89.8107 10.4318H92.3107C93.3335 10.4318 94.1157 10.6913 94.6573 11.2102C95.199 11.7292 95.4698 12.3864 95.4698 13.1818C95.4698 13.7045 95.3486 14.1799 95.1062 14.608C94.8638 15.0322 94.5077 15.3712 94.038 15.625C93.5683 15.875 92.9926 16 92.3107 16H88.6517V7.27273H89.9926V14.75H92.3107C92.841 14.75 93.2767 14.6098 93.6176 14.3295C93.9585 14.0492 94.1289 13.6894 94.1289 13.25C94.1289 12.7879 93.9585 12.411 93.6176 12.1193C93.2767 11.8277 92.841 11.6818 92.3107 11.6818H89.8107V10.4318ZM105.396 18.9773V4.36364H106.737V18.9773H105.396ZM105.396 16.1818C104.806 16.1818 104.268 16.0758 103.783 15.8636C103.298 15.6477 102.881 15.3428 102.533 14.9489C102.184 14.5511 101.915 14.0758 101.726 13.5227C101.537 12.9697 101.442 12.3561 101.442 11.6818C101.442 11 101.537 10.3826 101.726 9.82955C101.915 9.27273 102.184 8.79545 102.533 8.39773C102.881 8 103.298 7.69508 103.783 7.48295C104.268 7.26705 104.806 7.15909 105.396 7.15909H105.806V16.1818H105.396ZM105.396 14.9773H105.624V8.36364H105.396C104.95 8.36364 104.561 8.45455 104.232 8.63636C103.902 8.81439 103.629 9.05871 103.414 9.36932C103.201 9.67614 103.042 10.0284 102.936 10.4261C102.834 10.8239 102.783 11.2424 102.783 11.6818C102.783 12.2652 102.876 12.8068 103.061 13.3068C103.247 13.8068 103.533 14.2102 103.919 14.517C104.306 14.8239 104.798 14.9773 105.396 14.9773ZM106.737 16.1818H106.328V7.15909H106.737C107.328 7.15909 107.866 7.26705 108.351 7.48295C108.836 7.69508 109.253 8 109.601 8.39773C109.95 8.79545 110.218 9.27273 110.408 9.82955C110.597 10.3826 110.692 11 110.692 11.6818C110.692 12.3561 110.597 12.9697 110.408 13.5227C110.218 14.0758 109.95 14.5511 109.601 14.9489C109.253 15.3428 108.836 15.6477 108.351 15.8636C107.866 16.0758 107.328 16.1818 106.737 16.1818ZM106.737 14.9773C107.188 14.9773 107.576 14.8902 107.902 14.7159C108.232 14.5379 108.503 14.2955 108.715 13.9886C108.931 13.678 109.09 13.3258 109.192 12.9318C109.298 12.5341 109.351 12.1174 109.351 11.6818C109.351 11.0985 109.258 10.5549 109.073 10.0511C108.887 9.54735 108.601 9.14015 108.215 8.82955C107.828 8.51894 107.336 8.36364 106.737 8.36364H106.51V14.9773H106.737ZM116.207 16.1818C115.419 16.1818 114.728 15.9943 114.133 15.6193C113.542 15.2443 113.08 14.7197 112.747 14.0455C112.417 13.3712 112.253 12.5833 112.253 11.6818C112.253 10.7727 112.417 9.97917 112.747 9.30114C113.08 8.62311 113.542 8.09659 114.133 7.72159C114.728 7.34659 115.419 7.15909 116.207 7.15909C116.995 7.15909 117.684 7.34659 118.275 7.72159C118.87 8.09659 119.332 8.62311 119.662 9.30114C119.995 9.97917 120.162 10.7727 120.162 11.6818C120.162 12.5833 119.995 13.3712 119.662 14.0455C119.332 14.7197 118.87 15.2443 118.275 15.6193C117.684 15.9943 116.995 16.1818 116.207 16.1818ZM116.207 14.9773C116.806 14.9773 117.298 14.8239 117.684 14.517C118.071 14.2102 118.357 13.8068 118.542 13.3068C118.728 12.8068 118.821 12.2652 118.821 11.6818C118.821 11.0985 118.728 10.5549 118.542 10.0511C118.357 9.54735 118.071 9.14015 117.684 8.82955C117.298 8.51894 116.806 8.36364 116.207 8.36364C115.609 8.36364 115.116 8.51894 114.73 8.82955C114.343 9.14015 114.057 9.54735 113.872 10.0511C113.686 10.5549 113.593 11.0985 113.593 11.6818C113.593 12.2652 113.686 12.8068 113.872 13.3068C114.057 13.8068 114.343 14.2102 114.73 14.517C115.116 14.8239 115.609 14.9773 116.207 14.9773ZM120.988 8.52273V7.27273H128.079V8.52273H125.215V16H123.874V8.52273H120.988ZM133.047 16.1818C132.259 16.1818 131.568 15.9943 130.973 15.6193C130.382 15.2443 129.92 14.7197 129.587 14.0455C129.257 13.3712 129.093 12.5833 129.093 11.6818C129.093 10.7727 129.257 9.97917 129.587 9.30114C129.92 8.62311 130.382 8.09659 130.973 7.72159C131.568 7.34659 132.259 7.15909 133.047 7.15909C133.835 7.15909 134.524 7.34659 135.115 7.72159C135.71 8.09659 136.172 8.62311 136.502 9.30114C136.835 9.97917 137.002 10.7727 137.002 11.6818C137.002 12.5833 136.835 13.3712 136.502 14.0455C136.172 14.7197 135.71 15.2443 135.115 15.6193C134.524 15.9943 133.835 16.1818 133.047 16.1818ZM133.047 14.9773C133.646 14.9773 134.138 14.8239 134.524 14.517C134.911 14.2102 135.197 13.8068 135.382 13.3068C135.568 12.8068 135.661 12.2652 135.661 11.6818C135.661 11.0985 135.568 10.5549 135.382 10.0511C135.197 9.54735 134.911 9.14015 134.524 8.82955C134.138 8.51894 133.646 8.36364 133.047 8.36364C132.449 8.36364 131.956 8.51894 131.57 8.82955C131.183 9.14015 130.897 9.54735 130.712 10.0511C130.526 10.5549 130.433 11.0985 130.433 11.6818C130.433 12.2652 130.526 12.8068 130.712 13.3068C130.897 13.8068 131.183 14.2102 131.57 14.517C131.956 14.8239 132.449 14.9773 133.047 14.9773Z" fill="#4D646B"/>
<defs>
<clipPath id="clip0_654_2409">
<rect width="16" height="16" fill="white" transform="translate(0 2)"/>
</clipPath>
</defs>
</svg>
