<svg width="49" height="48" viewBox="0 0 49 48" fill="none" xmlns="http://www.w3.org/2000/svg">
<g clip-path="url(#clip0_206_228)">
<path d="M48.5 24.146C48.5 36.124 39.712 46.054 28.24 47.856V31.13H33.818L34.88 24.21H28.24V19.72C28.24 17.826 29.168 15.982 32.14 15.982H35.158V10.09C35.158 10.09 32.418 9.622 29.8 9.622C24.332 9.622 20.76 12.936 20.76 18.934V24.208H14.682V31.128H20.76V47.854C9.29 46.05 0.5 36.122 0.5 24.146C0.5 10.892 11.246 0.145996 24.5 0.145996C37.754 0.145996 48.5 10.89 48.5 24.146Z" fill="#4D4D4D"/>
</g>
<defs>
<clipPath id="clip0_206_228">
<rect width="48" height="48" fill="white" transform="translate(0.5)"/>
</clipPath>
</defs>
</svg>
