<svg width="48" height="32" viewBox="0 0 48 32" fill="none" xmlns="http://www.w3.org/2000/svg">
<path d="M33.2675 13.5618L26.9467 7.23633C26.1644 6.45585 25.1047 6.01758 24 6.01758C22.8953 6.01758 21.8356 6.45585 21.0533 7.23633L14.7325 13.5618C14.4995 13.7934 14.3148 14.069 14.1891 14.3726C14.0633 14.6762 13.9991 15.0017 14 15.3303V23.5161C14 24.1795 14.2634 24.8158 14.7322 25.2849C15.2011 25.754 15.837 26.0176 16.5 26.0176H31.5C32.1631 26.0176 32.7989 25.754 33.2678 25.2849C33.7366 24.8158 34 24.1795 34 23.5161V15.3303C34.0009 15.0017 33.9367 14.6762 33.8109 14.3726C33.6852 14.069 33.5005 13.7934 33.2675 13.5618ZM26.5 24.3499H21.5V21.0696C21.5 20.4062 21.7634 19.7699 22.2322 19.3008C22.7011 18.8317 23.337 18.5681 24 18.5681C24.6631 18.5681 25.2989 18.8317 25.7678 19.3008C26.2366 19.7699 26.5 20.4062 26.5 21.0696V24.3499ZM32.3333 23.5161C32.3333 23.7372 32.2455 23.9493 32.0893 24.1057C31.933 24.2621 31.721 24.3499 31.5 24.3499H28.1667V21.0696C28.1667 19.9639 27.7277 18.9034 26.9463 18.1216C26.1649 17.3397 25.1051 16.9005 24 16.9005C22.8949 16.9005 21.8351 17.3397 21.0537 18.1216C20.2723 18.9034 19.8333 19.9639 19.8333 21.0696V24.3499H16.5C16.279 24.3499 16.067 24.2621 15.9108 24.1057C15.7545 23.9493 15.6667 23.7372 15.6667 23.5161V15.3303C15.6674 15.1094 15.7552 14.8976 15.9108 14.7408L22.2317 8.41787C22.7014 7.95003 23.3372 7.68739 24 7.68739C24.6628 7.68739 25.2986 7.95003 25.7683 8.41787L32.0892 14.7433C32.2442 14.8995 32.3319 15.1102 32.3333 15.3303V23.5161Z" fill="#3064CC"/>
</svg>
