<svg width="48" height="32" viewBox="0 0 48 32" fill="none" xmlns="http://www.w3.org/2000/svg">
<path d="M31.5 25.9998H29.8333V21.7973C29.8327 21.144 29.5728 20.5176 29.1109 20.0556C28.6489 19.5937 28.0225 19.3338 27.3692 19.3332H20.6308C19.9775 19.3338 19.3511 19.5937 18.8891 20.0556C18.4272 20.5176 18.1673 21.144 18.1667 21.7973V25.9998H16.5V21.7973C16.5013 20.7022 16.937 19.6523 17.7114 18.8779C18.4857 18.1035 19.5357 17.6678 20.6308 17.6665H27.3692C28.4643 17.6678 29.5143 18.1035 30.2886 18.8779C31.063 19.6523 31.4987 20.7022 31.5 21.7973V25.9998Z" fill="#B3B3B3"/>
<path d="M24 16C23.0111 16 22.0444 15.7068 21.2222 15.1573C20.3999 14.6079 19.759 13.827 19.3806 12.9134C19.0022 11.9998 18.9031 10.9945 19.0961 10.0246C19.289 9.05465 19.7652 8.16373 20.4645 7.46447C21.1637 6.76521 22.0546 6.289 23.0246 6.09608C23.9945 5.90315 24.9998 6.00217 25.9134 6.3806C26.827 6.75904 27.6079 7.39991 28.1573 8.22215C28.7068 9.0444 29 10.0111 29 11C28.9987 12.3257 28.4715 13.5967 27.5341 14.5341C26.5967 15.4715 25.3257 15.9987 24 16ZM24 7.66667C23.3407 7.66667 22.6963 7.86217 22.1481 8.22844C21.5999 8.59471 21.1727 9.1153 20.9204 9.72439C20.6681 10.3335 20.6021 11.0037 20.7307 11.6503C20.8593 12.2969 21.1768 12.8909 21.643 13.357C22.1092 13.8232 22.7031 14.1407 23.3497 14.2693C23.9963 14.3979 24.6665 14.3319 25.2756 14.0796C25.8847 13.8273 26.4053 13.4001 26.7716 12.8519C27.1378 12.3037 27.3333 11.6593 27.3333 11C27.3333 10.1159 26.9821 9.2681 26.357 8.64298C25.7319 8.01786 24.8841 7.66667 24 7.66667Z" fill="#B3B3B3"/>
</svg>
