<svg width="48" height="32" viewBox="0 0 48 32" fill="none" xmlns="http://www.w3.org/2000/svg">
<path d="M14.7587 11.0257C14.2097 10.3916 13.9511 9.61323 14.0076 8.80823C14.065 8.00239 14.431 7.26906 15.0389 6.74156C15.6477 6.21323 16.4196 5.95656 17.228 6.01239C18.0306 6.06989 18.7633 6.43656 19.2897 7.04573L22.486 10.8574L21.3058 12.0399L18.0247 8.12656C17.7977 7.86406 17.47 7.69989 17.1099 7.67489C16.7456 7.65156 16.4004 7.76406 16.1293 7.99989C15.8565 8.23656 15.6926 8.56573 15.6669 8.92573C15.6411 9.28739 15.7567 9.63573 15.9921 9.90739L19.6 13.7482L18.4239 14.9266L14.7587 11.0257ZM34 25.9999H28.717C26.9139 25.9999 24.818 24.3616 24.818 22.2499C24.818 20.2874 26.602 18.4999 28.5607 18.4999C32.117 18.4999 33.254 23.0291 33.7397 24.9632L34 25.9999ZM31.8484 24.3332C31.2113 22.1357 30.284 20.1666 28.5607 20.1666C27.6192 20.1666 26.4814 21.0957 26.4814 22.2499C26.4814 23.3524 27.7315 24.3332 28.717 24.3332H31.8484ZM33.0851 11.1532L18.2668 25.9999H14.006V21.7299L28.8235 6.88323C29.9604 5.74406 31.949 5.74489 33.0843 6.88323H33.0851C33.6532 7.45406 33.9659 8.21156 33.9659 9.01823C33.9659 9.82489 33.6532 10.5841 33.0835 11.1532H33.0851ZM28.5923 13.2974L26.6827 11.3841L15.6694 22.4207V24.3332H17.5781L28.5915 13.2982L28.5923 13.2974ZM32.3033 9.01823C32.3033 8.65656 32.1636 8.31656 31.9091 8.06156C31.4001 7.55239 30.5085 7.55239 30.0004 8.06156L27.8596 10.2066L29.7691 12.1199L31.9099 9.97489C32.1644 9.71989 32.3042 9.38073 32.3042 9.01906L32.3033 9.01823Z" fill="#3064CC"/>
</svg>
