<svg width="48" height="32" viewBox="0 0 48 32" fill="none" xmlns="http://www.w3.org/2000/svg">
<path d="M31.5 11H29C29 9.67392 28.4732 8.40215 27.5355 7.46447C26.5979 6.52678 25.3261 6 24 6C22.6739 6 21.4021 6.52678 20.4645 7.46447C19.5268 8.40215 19 9.67392 19 11H16.5C15.837 11 15.2011 11.2634 14.7322 11.7322C14.2634 12.2011 14 12.837 14 13.5V21.8333C14.0013 22.938 14.4407 23.997 15.2218 24.7782C16.003 25.5593 17.062 25.9987 18.1667 26H29.8333C30.938 25.9987 31.997 25.5593 32.7782 24.7782C33.5593 23.997 33.9987 22.938 34 21.8333V13.5C34 12.837 33.7366 12.2011 33.2678 11.7322C32.7989 11.2634 32.163 11 31.5 11ZM24 7.66667C24.8841 7.66667 25.7319 8.01786 26.357 8.64298C26.9821 9.2681 27.3333 10.1159 27.3333 11H20.6667C20.6667 10.1159 21.0179 9.2681 21.643 8.64298C22.2681 8.01786 23.1159 7.66667 24 7.66667ZM32.3333 21.8333C32.3333 22.4964 32.0699 23.1323 31.6011 23.6011C31.1323 24.0699 30.4964 24.3333 29.8333 24.3333H18.1667C17.5036 24.3333 16.8677 24.0699 16.3989 23.6011C15.9301 23.1323 15.6667 22.4964 15.6667 21.8333V13.5C15.6667 13.279 15.7545 13.067 15.9107 12.9107C16.067 12.7545 16.279 12.6667 16.5 12.6667H19V14.3333C19 14.5543 19.0878 14.7663 19.2441 14.9226C19.4004 15.0789 19.6123 15.1667 19.8333 15.1667C20.0543 15.1667 20.2663 15.0789 20.4226 14.9226C20.5789 14.7663 20.6667 14.5543 20.6667 14.3333V12.6667H27.3333V14.3333C27.3333 14.5543 27.4211 14.7663 27.5774 14.9226C27.7337 15.0789 27.9457 15.1667 28.1667 15.1667C28.3877 15.1667 28.5996 15.0789 28.7559 14.9226C28.9122 14.7663 29 14.5543 29 14.3333V12.6667H31.5C31.721 12.6667 31.933 12.7545 32.0893 12.9107C32.2455 13.067 32.3333 13.279 32.3333 13.5V21.8333Z" fill="#688E22"/>
</svg>
