<svg width="206" height="44" viewBox="0 0 206 44" fill="none" xmlns="http://www.w3.org/2000/svg">
<rect width="205" height="44" transform="translate(0.345703)" fill="white"/>
<path d="M35.2889 20.1477H33.5162C33.448 19.7689 33.3211 19.4356 33.1355 19.1477C32.9499 18.8598 32.7226 18.6155 32.4537 18.4148C32.1847 18.214 31.8836 18.0625 31.5502 17.9602C31.2207 17.858 30.8703 17.8068 30.4991 17.8068C29.8287 17.8068 29.2283 17.9754 28.698 18.3125C28.1715 18.6496 27.7548 19.1439 27.448 19.7955C27.1449 20.447 26.9934 21.2424 26.9934 22.1818C26.9934 23.1288 27.1449 23.928 27.448 24.5795C27.7548 25.2311 28.1734 25.7235 28.7037 26.0568C29.234 26.3902 29.8306 26.5568 30.4934 26.5568C30.8609 26.5568 31.2093 26.5076 31.5389 26.4091C31.8722 26.3068 32.1734 26.1572 32.4423 25.9602C32.7112 25.7633 32.9385 25.5227 33.1241 25.2386C33.3135 24.9508 33.4442 24.6212 33.5162 24.25L35.2889 24.2557C35.1942 24.8277 35.0105 25.3542 34.7377 25.8352C34.4688 26.3125 34.1222 26.7254 33.698 27.0739C33.2775 27.4186 32.7965 27.6856 32.2548 27.875C31.7131 28.0644 31.1222 28.1591 30.4821 28.1591C29.4745 28.1591 28.5768 27.9205 27.7889 27.4432C27.001 26.9621 26.3798 26.2746 25.9252 25.3807C25.4745 24.4867 25.2491 23.4205 25.2491 22.1818C25.2491 20.9394 25.4764 19.8731 25.9309 18.983C26.3855 18.089 27.0067 17.4034 27.7946 16.9261C28.5824 16.4451 29.4783 16.2045 30.4821 16.2045C31.0995 16.2045 31.6752 16.2936 32.2093 16.4716C32.7472 16.6458 33.2302 16.9034 33.6582 17.2443C34.0862 17.5814 34.4404 17.9943 34.7207 18.483C35.001 18.9678 35.1904 19.5227 35.2889 20.1477ZM36.5659 28L36.5602 26.5284H36.8727C37.1151 26.5284 37.3178 26.4773 37.4806 26.375C37.6473 26.2689 37.7837 26.0909 37.8897 25.8409C37.9958 25.5909 38.0772 25.2462 38.1341 24.8068C38.1909 24.3636 38.2325 23.8068 38.2591 23.1364L38.4125 19.2727H44.5034V28H42.8386V20.7386H39.9863L39.85 23.7045C39.8159 24.4242 39.742 25.053 39.6284 25.5909C39.5185 26.1288 39.3575 26.5777 39.1454 26.9375C38.9333 27.2936 38.6606 27.5606 38.3272 27.7386C37.9939 27.9129 37.5886 28 37.1113 28H36.5659ZM47.5304 31.2727C47.2766 31.2727 47.0455 31.2519 46.8372 31.2102C46.6288 31.1723 46.4735 31.1307 46.3713 31.0852L46.7804 29.6932C47.091 29.7765 47.3675 29.8125 47.6099 29.8011C47.8523 29.7898 48.0663 29.6989 48.252 29.5284C48.4413 29.358 48.608 29.0795 48.752 28.6932L48.9622 28.1136L45.769 19.2727H47.5872L49.7974 26.0455H49.8883L52.0985 19.2727H53.9224L50.3258 29.1648C50.1592 29.6193 49.947 30.0038 49.6895 30.3182C49.4319 30.6364 49.1251 30.875 48.769 31.0341C48.4129 31.1932 48.0001 31.2727 47.5304 31.2727ZM54.9622 28L58.3429 23.5341L55.002 19.2727H56.9792L59.6781 22.8977H60.286V19.2727H61.9849V22.8977H62.5758L65.2747 19.2727H67.252L63.9281 23.5341L67.2917 28H65.2747L62.5531 24.3636H61.9849V28H60.286V24.3636H59.7179L56.9792 28H54.9622ZM75.752 16.0227L76.4565 17.0966C76.1951 17.3352 75.8978 17.5057 75.5645 17.608C75.2349 17.7064 74.8542 17.7689 74.4224 17.7955C73.9906 17.8182 73.4963 17.839 72.9395 17.858C72.3107 17.8769 71.7936 18.0133 71.3883 18.267C70.983 18.517 70.6705 18.8883 70.4508 19.3807C70.2349 19.8693 70.0948 20.483 70.0304 21.2216H70.1383C70.4224 20.6799 70.8163 20.2746 71.3201 20.0057C71.8277 19.7367 72.3978 19.6023 73.0304 19.6023C73.7349 19.6023 74.3618 19.7633 74.911 20.0852C75.4603 20.4072 75.8921 20.8788 76.2065 21.5C76.5247 22.1174 76.6838 22.8731 76.6838 23.767C76.6838 24.6723 76.5171 25.4545 76.1838 26.1136C75.8542 26.7727 75.3883 27.2822 74.786 27.642C74.1876 27.9981 73.4811 28.1761 72.6667 28.1761C71.8523 28.1761 71.1421 27.9924 70.536 27.625C69.9338 27.2538 69.466 26.7045 69.1326 25.9773C68.8031 25.25 68.6383 24.3523 68.6383 23.2841V22.4205C68.6383 20.4242 68.9944 18.9223 69.7065 17.9148C70.4186 16.9072 71.483 16.3902 72.8997 16.3636C73.358 16.3523 73.7671 16.3504 74.127 16.358C74.4868 16.3617 74.8012 16.3447 75.0701 16.3068C75.3429 16.2652 75.5701 16.1705 75.752 16.0227ZM72.6724 26.75C73.1459 26.75 73.5531 26.6307 73.894 26.392C74.2387 26.1496 74.5038 25.8068 74.6895 25.3636C74.8751 24.9205 74.9679 24.3977 74.9679 23.7955C74.9679 23.2045 74.8751 22.7027 74.6895 22.2898C74.5038 21.8769 74.2387 21.5625 73.894 21.3466C73.5493 21.1269 73.1364 21.017 72.6554 21.017C72.2993 21.017 71.9811 21.0795 71.7008 21.2045C71.4205 21.3258 71.18 21.5057 70.9792 21.7443C70.7823 21.983 70.6288 22.2746 70.519 22.6193C70.4129 22.9602 70.3561 23.3523 70.3485 23.7955C70.3485 24.697 70.555 25.4148 70.9679 25.9489C71.3845 26.483 71.9527 26.75 72.6724 26.75ZM81.1213 28.1932C80.5682 28.1932 80.0682 28.0909 79.6213 27.8864C79.1743 27.678 78.8201 27.3769 78.5588 26.983C78.3012 26.589 78.1724 26.1061 78.1724 25.5341C78.1724 25.0417 78.2671 24.6364 78.4565 24.3182C78.6459 24 78.9016 23.7481 79.2235 23.5625C79.5455 23.3769 79.9054 23.2367 80.3031 23.142C80.7008 23.0473 81.1061 22.9754 81.519 22.9261C82.0417 22.8655 82.466 22.8163 82.7917 22.7784C83.1175 22.7367 83.3542 22.6705 83.502 22.5795C83.6497 22.4886 83.7235 22.3409 83.7235 22.1364V22.0966C83.7235 21.6004 83.5834 21.2159 83.3031 20.9432C83.0266 20.6705 82.6137 20.5341 82.0645 20.5341C81.4925 20.5341 81.0417 20.661 80.7122 20.9148C80.3864 21.1648 80.161 21.4432 80.036 21.75L78.4395 21.3864C78.6288 20.8561 78.9054 20.428 79.269 20.1023C79.6364 19.7727 80.0588 19.5341 80.536 19.3864C81.0133 19.2348 81.5152 19.1591 82.0417 19.1591C82.3902 19.1591 82.7595 19.2008 83.1497 19.2841C83.5436 19.3636 83.911 19.5114 84.252 19.7273C84.5967 19.9432 84.8788 20.2519 85.0985 20.6534C85.3182 21.0511 85.4281 21.5682 85.4281 22.2045V28H83.769V26.8068H83.7008C83.591 27.0265 83.4262 27.2424 83.2065 27.4545C82.9868 27.6667 82.7046 27.8428 82.3599 27.983C82.0152 28.1231 81.6023 28.1932 81.1213 28.1932ZM81.4906 26.8295C81.9603 26.8295 82.3618 26.7367 82.6951 26.5511C83.0323 26.3655 83.2879 26.1231 83.4622 25.8239C83.6402 25.5208 83.7292 25.197 83.7292 24.8523V23.7273C83.6686 23.7879 83.5512 23.8447 83.377 23.8977C83.2065 23.947 83.0114 23.9905 82.7917 24.0284C82.572 24.0625 82.358 24.0947 82.1497 24.125C81.9413 24.1515 81.7671 24.1742 81.627 24.1932C81.2974 24.2348 80.9963 24.3049 80.7235 24.4034C80.4546 24.5019 80.2387 24.6439 80.0758 24.8295C79.9167 25.0114 79.8372 25.2538 79.8372 25.5568C79.8372 25.9773 79.9925 26.2955 80.3031 26.5114C80.6137 26.7235 81.0095 26.8295 81.4906 26.8295ZM91.9252 28V19.2727H99.0446V28H97.3798V20.7386H93.5787V28H91.9252ZM104.992 28.1761C104.174 28.1761 103.46 27.9886 102.85 27.6136C102.24 27.2386 101.767 26.714 101.43 26.0398C101.092 25.3655 100.924 24.5777 100.924 23.6761C100.924 22.7708 101.092 21.9792 101.43 21.3011C101.767 20.6231 102.24 20.0966 102.85 19.7216C103.46 19.3466 104.174 19.1591 104.992 19.1591C105.81 19.1591 106.524 19.3466 107.134 19.7216C107.744 20.0966 108.217 20.6231 108.555 21.3011C108.892 21.9792 109.06 22.7708 109.06 23.6761C109.06 24.5777 108.892 25.3655 108.555 26.0398C108.217 26.714 107.744 27.2386 107.134 27.6136C106.524 27.9886 105.81 28.1761 104.992 28.1761ZM104.998 26.75C105.528 26.75 105.967 26.6098 106.316 26.3295C106.664 26.0492 106.922 25.6761 107.089 25.2102C107.259 24.7443 107.344 24.2311 107.344 23.6705C107.344 23.1136 107.259 22.6023 107.089 22.1364C106.922 21.6667 106.664 21.2898 106.316 21.0057C105.967 20.7216 105.528 20.5795 104.998 20.5795C104.464 20.5795 104.02 20.7216 103.668 21.0057C103.32 21.2898 103.06 21.6667 102.89 22.1364C102.723 22.6023 102.64 23.1136 102.64 23.6705C102.64 24.2311 102.723 24.7443 102.89 25.2102C103.06 25.6761 103.32 26.0492 103.668 26.3295C104.02 26.6098 104.464 26.75 104.998 26.75ZM110.104 30.517V26.5284H110.814C110.996 26.3617 111.15 26.1629 111.275 25.9318C111.403 25.7008 111.511 25.4261 111.599 25.108C111.689 24.7898 111.765 24.4186 111.826 23.9943C111.886 23.5663 111.939 23.0777 111.985 22.5284L112.258 19.2727H118.189V26.5284H119.53V30.517H117.871V28H111.786V30.517H110.104ZM112.633 26.5284H116.53V20.7273H113.78L113.599 22.5284C113.511 23.4451 113.402 24.2405 113.269 24.9148C113.136 25.5852 112.924 26.1231 112.633 26.5284ZM120.339 30.517V26.5284H121.049C121.231 26.3617 121.384 26.1629 121.509 25.9318C121.638 25.7008 121.746 25.4261 121.833 25.108C121.924 24.7898 122 24.4186 122.06 23.9943C122.121 23.5663 122.174 23.0777 122.219 22.5284L122.492 19.2727H128.424V26.5284H129.765V30.517H128.106V28H122.02V30.517H120.339ZM122.867 26.5284H126.765V20.7273H124.015L123.833 22.5284C123.746 23.4451 123.636 24.2405 123.503 24.9148C123.371 25.5852 123.159 26.1231 122.867 26.5284ZM135.187 28.1761C134.327 28.1761 133.586 27.9924 132.965 27.625C132.348 27.2538 131.87 26.733 131.533 26.0625C131.2 25.3883 131.033 24.5985 131.033 23.6932C131.033 22.7992 131.2 22.0114 131.533 21.3295C131.87 20.6477 132.34 20.1155 132.942 19.733C133.548 19.3504 134.257 19.1591 135.067 19.1591C135.56 19.1591 136.037 19.2405 136.499 19.4034C136.961 19.5663 137.376 19.822 137.743 20.1705C138.111 20.5189 138.401 20.9716 138.613 21.5284C138.825 22.0814 138.931 22.7538 138.931 23.5455V24.1477H131.993V22.875H137.266C137.266 22.428 137.175 22.0322 136.993 21.6875C136.812 21.339 136.556 21.0644 136.226 20.8636C135.901 20.6629 135.518 20.5625 135.079 20.5625C134.601 20.5625 134.185 20.6799 133.829 20.9148C133.476 21.1458 133.204 21.4489 133.01 21.8239C132.821 22.1951 132.726 22.5985 132.726 23.0341V24.0284C132.726 24.6117 132.829 25.108 133.033 25.517C133.242 25.9261 133.531 26.2386 133.903 26.4545C134.274 26.6667 134.707 26.7727 135.204 26.7727C135.526 26.7727 135.819 26.7273 136.084 26.6364C136.349 26.5417 136.579 26.4015 136.772 26.2159C136.965 26.0303 137.113 25.8011 137.215 25.5284L138.823 25.8182C138.694 26.2917 138.463 26.7064 138.13 27.0625C137.8 27.4148 137.385 27.6894 136.885 27.8864C136.389 28.0795 135.823 28.1761 135.187 28.1761ZM140.816 31.2727V19.2727H142.475V20.6875H142.617C142.715 20.5057 142.858 20.2955 143.043 20.0568C143.229 19.8182 143.486 19.6098 143.816 19.4318C144.145 19.25 144.581 19.1591 145.123 19.1591C145.827 19.1591 146.456 19.3371 147.009 19.6932C147.562 20.0492 147.996 20.5625 148.31 21.233C148.628 21.9034 148.787 22.7102 148.787 23.6534C148.787 24.5966 148.63 25.4053 148.316 26.0795C148.001 26.75 147.57 27.267 147.02 27.6307C146.471 27.9905 145.844 28.1705 145.14 28.1705C144.609 28.1705 144.176 28.0814 143.839 27.9034C143.505 27.7254 143.244 27.517 143.055 27.2784C142.865 27.0398 142.719 26.8277 142.617 26.642H142.515V31.2727H140.816ZM142.481 23.6364C142.481 24.25 142.57 24.7879 142.748 25.25C142.926 25.7121 143.183 26.0739 143.52 26.3352C143.858 26.5928 144.27 26.7216 144.759 26.7216C145.267 26.7216 145.691 26.5871 146.032 26.3182C146.373 26.0455 146.63 25.6761 146.805 25.2102C146.983 24.7443 147.072 24.2197 147.072 23.6364C147.072 23.0606 146.984 22.5436 146.81 22.0852C146.64 21.6269 146.382 21.2652 146.037 21C145.697 20.7348 145.27 20.6023 144.759 20.6023C144.267 20.6023 143.85 20.7292 143.509 20.983C143.172 21.2367 142.916 21.5909 142.742 22.0455C142.568 22.5 142.481 23.0303 142.481 23.6364ZM149.79 28L153.171 23.5341L149.83 19.2727H151.807L154.506 22.8977H155.114V19.2727H156.813V22.8977H157.404L160.103 19.2727H162.08L158.756 23.5341L162.12 28H160.103L157.381 24.3636H156.813V28H155.114V24.3636H154.546L151.807 28H149.79ZM163.847 28V19.2727H165.546V22.9318H166.364L169.245 19.2727H171.347L167.966 23.517L171.387 28H169.279L166.648 24.5114H165.546V28H163.847ZM174.371 25.6193L178.218 19.2727H180.047V28H178.383V21.6477L174.553 28H172.706V19.2727H174.371V25.6193Z" fill="#061127" fill-opacity="0.7"/>
</svg>
