<svg width="282" height="60" viewBox="0 0 282 60" fill="none" xmlns="http://www.w3.org/2000/svg">
<g filter="url(#filter0_d_1027_4516)">
<rect x="2" y="1" width="278" height="56" rx="10" fill="#32454B" shape-rendering="crispEdges"/>
<path d="M60.8097 29.4545C60.8097 30.8523 60.554 32.054 60.0426 33.0597C59.5313 34.0611 58.8303 34.8324 57.9396 35.3736C57.0533 35.9105 56.0455 36.179 54.9162 36.179C53.7827 36.179 52.7706 35.9105 51.88 35.3736C50.9936 34.8324 50.2947 34.0589 49.7834 33.0533C49.272 32.0476 49.0163 30.848 49.0163 29.4545C49.0163 28.0568 49.272 26.8572 49.7834 25.8558C50.2947 24.8501 50.9936 24.0788 51.88 23.5419C52.7706 23.0007 53.7827 22.7301 54.9162 22.7301C56.0455 22.7301 57.0533 23.0007 57.9396 23.5419C58.8303 24.0788 59.5313 24.8501 60.0426 25.8558C60.554 26.8572 60.8097 28.0568 60.8097 29.4545ZM58.8537 29.4545C58.8537 28.3892 58.6811 27.4922 58.3359 26.7635C57.995 26.0305 57.5263 25.4766 56.9297 25.1016C56.3374 24.7223 55.6662 24.5327 54.9162 24.5327C54.1619 24.5327 53.4886 24.7223 52.8963 25.1016C52.304 25.4766 51.8352 26.0305 51.4901 26.7635C51.1491 27.4922 50.9787 28.3892 50.9787 29.4545C50.9787 30.5199 51.1491 31.419 51.4901 32.152C51.8352 32.8807 52.304 33.4347 52.8963 33.8139C53.4886 34.1889 54.1619 34.3764 54.9162 34.3764C55.6662 34.3764 56.3374 34.1889 56.9297 33.8139C57.5263 33.4347 57.995 32.8807 58.3359 32.152C58.6811 31.419 58.8537 30.5199 58.8537 29.4545ZM67.3079 39.343V22.9091H69.2191V39.343H67.3079ZM67.3079 36.1982C66.6133 36.1982 65.9805 36.0788 65.4095 35.8402C64.8385 35.5973 64.3463 35.2521 63.9329 34.8047C63.5196 34.3572 63.2 33.8224 62.9741 33.2003C62.7525 32.5781 62.6417 31.8899 62.6417 31.1357C62.6417 30.3729 62.7525 29.6804 62.9741 29.0582C63.2 28.4361 63.5196 27.9013 63.9329 27.4538C64.3463 27.0064 64.8385 26.6612 65.4095 26.4183C65.9805 26.1754 66.6133 26.054 67.3079 26.054H67.7809V36.1982H67.3079ZM67.3079 34.5874H67.5764V27.6648H67.3079C66.8477 27.6648 66.4471 27.7585 66.1062 27.946C65.7653 28.1293 65.4819 28.3828 65.2561 28.7067C65.0302 29.0263 64.8598 29.3949 64.7447 29.8125C64.6339 30.2301 64.5785 30.6712 64.5785 31.1357C64.5785 31.7578 64.6787 32.331 64.879 32.8551C65.0792 33.375 65.3818 33.7947 65.7866 34.1143C66.1915 34.4297 66.6986 34.5874 67.3079 34.5874ZM69.2191 36.1982H68.7397V26.054H69.2191C69.9138 26.054 70.5466 26.1754 71.1176 26.4183C71.6886 26.6612 72.1787 27.0064 72.5878 27.4538C73.0011 27.9013 73.3186 28.4361 73.5402 29.0582C73.766 29.6804 73.879 30.3729 73.879 31.1357C73.879 31.8899 73.766 32.5781 73.5402 33.2003C73.3186 33.8224 73.0011 34.3572 72.5878 34.8047C72.1787 35.2521 71.6886 35.5973 71.1176 35.8402C70.5466 36.0788 69.9138 36.1982 69.2191 36.1982ZM69.2191 34.5874C69.6794 34.5874 70.0799 34.4979 70.4209 34.3189C70.7618 34.1357 71.0451 33.8842 71.271 33.5646C71.4968 33.2408 71.6652 32.8722 71.776 32.4588C71.8868 32.0412 71.9422 31.6001 71.9422 31.1357C71.9422 30.5178 71.842 29.9467 71.6417 29.4226C71.4457 28.8942 71.1453 28.4702 70.7405 28.1506C70.3356 27.8267 69.8285 27.6648 69.2191 27.6648H68.9443V34.5874H69.2191ZM80.1024 36.1982C79.1819 36.1982 78.3786 35.9872 77.6926 35.5653C77.0065 35.1435 76.4738 34.5533 76.0945 33.7947C75.7153 33.0362 75.5257 32.1499 75.5257 31.1357C75.5257 30.1172 75.7153 29.2266 76.0945 28.4638C76.4738 27.701 77.0065 27.1087 77.6926 26.6868C78.3786 26.2649 79.1819 26.054 80.1024 26.054C81.0228 26.054 81.8261 26.2649 82.5122 26.6868C83.1982 27.1087 83.7309 27.701 84.1102 28.4638C84.4894 29.2266 84.6791 30.1172 84.6791 31.1357C84.6791 32.1499 84.4894 33.0362 84.1102 33.7947C83.7309 34.5533 83.1982 35.1435 82.5122 35.5653C81.8261 35.9872 81.0228 36.1982 80.1024 36.1982ZM80.1088 34.5938C80.7053 34.5938 81.1997 34.4361 81.5917 34.1207C81.9838 33.8054 82.2735 33.3857 82.461 32.8615C82.6528 32.3374 82.7487 31.7599 82.7487 31.1293C82.7487 30.5028 82.6528 29.9276 82.461 29.4034C82.2735 28.875 81.9838 28.451 81.5917 28.1314C81.1997 27.8118 80.7053 27.652 80.1088 27.652C79.5079 27.652 79.0093 27.8118 78.613 28.1314C78.221 28.451 77.9291 28.875 77.7373 29.4034C77.5498 29.9276 77.4561 30.5028 77.4561 31.1293C77.4561 31.7599 77.5498 32.3374 77.7373 32.8615C77.9291 33.3857 78.221 33.8054 78.613 34.1207C79.0093 34.4361 79.5079 34.5938 80.1088 34.5938ZM86.7764 39.6818V26.1818H88.6429V27.7734H88.8027C88.9135 27.5689 89.0733 27.3324 89.2821 27.0639C89.4909 26.7955 89.7807 26.5611 90.1514 26.3608C90.5221 26.1562 91.0122 26.054 91.6216 26.054C92.4142 26.054 93.1216 26.2543 93.7437 26.6548C94.3659 27.0554 94.8538 27.6328 95.2075 28.3871C95.5655 29.1413 95.7444 30.049 95.7444 31.1101C95.7444 32.1712 95.5676 33.081 95.2139 33.8395C94.8602 34.5937 94.3744 35.1754 93.7565 35.5845C93.1386 35.9893 92.4334 36.1918 91.6408 36.1918C91.0442 36.1918 90.5562 36.0916 90.177 35.8913C89.802 35.6911 89.5079 35.4567 89.2949 35.1882C89.0818 34.9197 88.9177 34.6811 88.8027 34.4723H88.6876V39.6818H86.7764ZM88.6493 31.0909C88.6493 31.7812 88.7494 32.3864 88.9497 32.9062C89.15 33.4261 89.4398 33.8331 89.819 34.1271C90.1983 34.4169 90.6628 34.5618 91.2125 34.5618C91.7835 34.5618 92.2608 34.4105 92.6443 34.108C93.0278 33.8011 93.3176 33.3857 93.5136 32.8615C93.7139 32.3374 93.8141 31.7472 93.8141 31.0909C93.8141 30.4432 93.716 29.8615 93.52 29.3459C93.3283 28.8303 93.0385 28.4233 92.6507 28.125C92.2672 27.8267 91.7878 27.6776 91.2125 27.6776C90.6585 27.6776 90.1898 27.8203 89.8062 28.1058C89.427 28.3913 89.1393 28.7898 88.9433 29.3011C88.7473 29.8125 88.6493 30.4091 88.6493 31.0909ZM103.36 33.6349L106.53 26.1818H108.179L104.069 36H102.65L98.6232 26.1818H100.253L103.36 33.6349ZM99.7227 26.1818V36H97.8498V26.1818H99.7227ZM107.048 36V26.1818H108.908V36H107.048ZM113.292 33.3217L117.62 26.1818H119.678V36H117.805V28.8537L113.497 36H111.419V26.1818H113.292V33.3217ZM120.994 27.831V26.1818H129.278V27.831H126.075V36H124.209V27.831H120.994ZM132.701 29.5568H135.552C136.754 29.5568 137.679 29.8551 138.326 30.4517C138.974 31.0483 139.298 31.8175 139.298 32.7592C139.298 33.3729 139.153 33.9247 138.863 34.4148C138.574 34.9048 138.15 35.2926 137.591 35.5781C137.033 35.8594 136.353 36 135.552 36H131.263V26.1818H133.136V34.3509H135.552C136.102 34.3509 136.554 34.2081 136.907 33.9226C137.261 33.6328 137.438 33.2642 137.438 32.8168C137.438 32.3437 137.261 31.9581 136.907 31.6598C136.554 31.3572 136.102 31.206 135.552 31.206H132.701V29.5568ZM145.551 33.4048H147.507C147.533 33.8054 147.714 34.1143 148.05 34.3317C148.391 34.549 148.832 34.6577 149.373 34.6577C149.923 34.6577 150.392 34.5405 150.78 34.3061C151.167 34.0675 151.361 33.6989 151.361 33.2003C151.361 32.902 151.287 32.642 151.138 32.4205C150.993 32.1946 150.786 32.0199 150.518 31.8963C150.253 31.7727 149.94 31.7109 149.578 31.7109H147.98V30.2088H149.578C150.119 30.2088 150.524 30.0852 150.792 29.8381C151.061 29.5909 151.195 29.282 151.195 28.9112C151.195 28.5107 151.05 28.1889 150.761 27.946C150.475 27.6989 150.077 27.5753 149.565 27.5753C149.045 27.5753 148.613 27.6925 148.268 27.9268C147.922 28.157 147.741 28.4553 147.724 28.8217H145.794C145.807 28.272 145.973 27.7905 146.292 27.3771C146.616 26.9595 147.051 26.6357 147.596 26.4055C148.146 26.1712 148.77 26.054 149.469 26.054C150.198 26.054 150.829 26.1712 151.361 26.4055C151.894 26.6399 152.305 26.9638 152.595 27.3771C152.889 27.7905 153.036 28.2656 153.036 28.8026C153.036 29.3437 152.874 29.7869 152.55 30.1321C152.231 30.473 151.813 30.718 151.297 30.8672V30.9695C151.677 30.995 152.013 31.1101 152.307 31.3146C152.601 31.5192 152.832 31.7898 152.998 32.1264C153.164 32.4631 153.247 32.8445 153.247 33.2706C153.247 33.8714 153.081 34.3913 152.748 34.8303C152.42 35.2692 151.964 35.608 151.381 35.8466C150.801 36.081 150.138 36.1982 149.393 36.1982C148.668 36.1982 148.018 36.0852 147.443 35.8594C146.872 35.6293 146.418 35.3054 146.082 34.8878C145.749 34.4702 145.572 33.9759 145.551 33.4048ZM158.042 36.2173C157.42 36.2173 156.857 36.1023 156.354 35.8722C155.851 35.6378 155.453 35.299 155.159 34.8558C154.869 34.4126 154.724 33.8693 154.724 33.2259C154.724 32.6719 154.831 32.2159 155.044 31.858C155.257 31.5 155.545 31.2166 155.907 31.0078C156.269 30.799 156.674 30.6413 157.121 30.5348C157.569 30.4283 158.025 30.3473 158.489 30.2919C159.077 30.2237 159.555 30.1683 159.921 30.1257C160.288 30.0788 160.554 30.0043 160.72 29.902C160.886 29.7997 160.969 29.6335 160.969 29.4034V29.3587C160.969 28.8004 160.812 28.3679 160.496 28.0611C160.185 27.7543 159.721 27.6009 159.103 27.6009C158.459 27.6009 157.952 27.7436 157.582 28.0291C157.215 28.3104 156.962 28.6236 156.821 28.9688L155.025 28.5597C155.238 27.9631 155.549 27.4815 155.958 27.1151C156.371 26.7443 156.846 26.4759 157.383 26.3097C157.92 26.1392 158.485 26.054 159.077 26.054C159.469 26.054 159.885 26.1009 160.324 26.1946C160.767 26.2841 161.18 26.4503 161.564 26.6932C161.952 26.9361 162.269 27.2834 162.516 27.7351C162.763 28.1825 162.887 28.7642 162.887 29.4801V36H161.021V34.6577H160.944C160.82 34.9048 160.635 35.1477 160.388 35.3864C160.141 35.625 159.823 35.8232 159.435 35.9808C159.047 36.1385 158.583 36.2173 158.042 36.2173ZM158.457 34.6832C158.986 34.6832 159.437 34.5788 159.812 34.37C160.192 34.1612 160.479 33.8885 160.675 33.5518C160.876 33.2109 160.976 32.8466 160.976 32.4588V31.1932C160.908 31.2614 160.775 31.3253 160.579 31.3849C160.388 31.4403 160.168 31.4893 159.921 31.532C159.674 31.5703 159.433 31.6065 159.199 31.6406C158.964 31.6705 158.768 31.696 158.611 31.7173C158.24 31.7642 157.901 31.843 157.594 31.9538C157.292 32.0646 157.049 32.2244 156.866 32.4332C156.687 32.6378 156.597 32.9105 156.597 33.2514C156.597 33.7244 156.772 34.0824 157.121 34.3253C157.471 34.5639 157.916 34.6832 158.457 34.6832ZM165.397 36V26.1818H167.308V30.2983H168.228L171.469 26.1818H173.834L170.031 30.9567L173.879 36H171.507L168.548 32.0753H167.308V36H165.397ZM178.185 36.2173C177.562 36.2173 177 36.1023 176.497 35.8722C175.994 35.6378 175.596 35.299 175.302 34.8558C175.012 34.4126 174.867 33.8693 174.867 33.2259C174.867 32.6719 174.974 32.2159 175.187 31.858C175.4 31.5 175.687 31.2166 176.05 31.0078C176.412 30.799 176.817 30.6413 177.264 30.5348C177.712 30.4283 178.168 30.3473 178.632 30.2919C179.22 30.2237 179.697 30.1683 180.064 30.1257C180.43 30.0788 180.697 30.0043 180.863 29.902C181.029 29.7997 181.112 29.6335 181.112 29.4034V29.3587C181.112 28.8004 180.955 28.3679 180.639 28.0611C180.328 27.7543 179.864 27.6009 179.246 27.6009C178.602 27.6009 178.095 27.7436 177.724 28.0291C177.358 28.3104 177.104 28.6236 176.964 28.9688L175.168 28.5597C175.381 27.9631 175.692 27.4815 176.101 27.1151C176.514 26.7443 176.989 26.4759 177.526 26.3097C178.063 26.1392 178.628 26.054 179.22 26.054C179.612 26.054 180.028 26.1009 180.467 26.1946C180.91 26.2841 181.323 26.4503 181.707 26.6932C182.094 26.9361 182.412 27.2834 182.659 27.7351C182.906 28.1825 183.03 28.7642 183.03 29.4801V36H181.163V34.6577H181.087C180.963 34.9048 180.778 35.1477 180.531 35.3864C180.283 35.625 179.966 35.8232 179.578 35.9808C179.19 36.1385 178.726 36.2173 178.185 36.2173ZM178.6 34.6832C179.129 34.6832 179.58 34.5788 179.955 34.37C180.335 34.1612 180.622 33.8885 180.818 33.5518C181.018 33.2109 181.119 32.8466 181.119 32.4588V31.1932C181.05 31.2614 180.918 31.3253 180.722 31.3849C180.531 31.4403 180.311 31.4893 180.064 31.532C179.817 31.5703 179.576 31.6065 179.342 31.6406C179.107 31.6705 178.911 31.696 178.754 31.7173C178.383 31.7642 178.044 31.843 177.737 31.9538C177.435 32.0646 177.192 32.2244 177.009 32.4332C176.83 32.6378 176.74 32.9105 176.74 33.2514C176.74 33.7244 176.915 34.0824 177.264 34.3253C177.614 34.5639 178.059 34.6832 178.6 34.6832ZM184.958 33.4048H186.914C186.939 33.8054 187.12 34.1143 187.457 34.3317C187.798 34.549 188.239 34.6577 188.78 34.6577C189.33 34.6577 189.799 34.5405 190.186 34.3061C190.574 34.0675 190.768 33.6989 190.768 33.2003C190.768 32.902 190.694 32.642 190.544 32.4205C190.4 32.1946 190.193 32.0199 189.924 31.8963C189.66 31.7727 189.347 31.7109 188.985 31.7109H187.387V30.2088H188.985C189.526 30.2088 189.931 30.0852 190.199 29.8381C190.468 29.5909 190.602 29.282 190.602 28.9112C190.602 28.5107 190.457 28.1889 190.167 27.946C189.882 27.6989 189.483 27.5753 188.972 27.5753C188.452 27.5753 188.02 27.6925 187.674 27.9268C187.329 28.157 187.148 28.4553 187.131 28.8217H185.201C185.213 28.272 185.38 27.7905 185.699 27.3771C186.023 26.9595 186.458 26.6357 187.003 26.4055C187.553 26.1712 188.177 26.054 188.876 26.054C189.605 26.054 190.235 26.1712 190.768 26.4055C191.301 26.6399 191.712 26.9638 192.002 27.3771C192.296 27.7905 192.443 28.2656 192.443 28.8026C192.443 29.3437 192.281 29.7869 191.957 30.1321C191.637 30.473 191.22 30.718 190.704 30.8672V30.9695C191.083 30.995 191.42 31.1101 191.714 31.3146C192.008 31.5192 192.238 31.7898 192.405 32.1264C192.571 32.4631 192.654 32.8445 192.654 33.2706C192.654 33.8714 192.488 34.3913 192.155 34.8303C191.827 35.2692 191.371 35.608 190.787 35.8466C190.208 36.081 189.545 36.1982 188.799 36.1982C188.075 36.1982 187.425 36.0852 186.85 35.8594C186.279 35.6293 185.825 35.3054 185.488 34.8878C185.156 34.4702 184.979 33.9759 184.958 33.4048Z" fill="white"/>
<path d="M232 30.0039C231.995 29.4774 231.783 28.9741 231.41 28.6029L227.12 24.2998C226.933 24.1134 226.679 24.0088 226.415 24.0088C226.151 24.0088 225.897 24.1134 225.71 24.2998C225.616 24.3928 225.542 24.5035 225.491 24.6254C225.44 24.7474 225.414 24.8782 225.414 25.0103C225.414 25.1424 225.44 25.2732 225.491 25.3952C225.542 25.5171 225.616 25.6278 225.71 25.7208L229 29.0032H213C212.735 29.0032 212.48 29.1086 212.293 29.2963C212.105 29.484 212 29.7385 212 30.0039C212 30.2693 212.105 30.5238 212.293 30.7115C212.48 30.8992 212.735 31.0046 213 31.0046H229L225.71 34.297C225.522 34.4841 225.415 34.7384 225.414 35.004C225.414 35.2695 225.518 35.5246 225.705 35.713C225.892 35.9015 226.146 36.0078 226.411 36.0088C226.677 36.0097 226.932 35.9051 227.12 35.718L231.41 31.4149C231.786 31.0413 231.998 30.5339 232 30.0039Z" fill="white"/>
</g>
<defs>
<filter id="filter0_d_1027_4516" x="0" y="0" width="282" height="60" filterUnits="userSpaceOnUse" color-interpolation-filters="sRGB">
<feFlood flood-opacity="0" result="BackgroundImageFix"/>
<feColorMatrix in="SourceAlpha" type="matrix" values="0 0 0 0 0 0 0 0 0 0 0 0 0 0 0 0 0 0 127 0" result="hardAlpha"/>
<feOffset dy="1"/>
<feGaussianBlur stdDeviation="1"/>
<feComposite in2="hardAlpha" operator="out"/>
<feColorMatrix type="matrix" values="0 0 0 0 0.054902 0 0 0 0 0.0901961 0 0 0 0 0.101961 0 0 0 0.2 0"/>
<feBlend mode="normal" in2="BackgroundImageFix" result="effect1_dropShadow_1027_4516"/>
<feBlend mode="normal" in="SourceGraphic" in2="effect1_dropShadow_1027_4516" result="shape"/>
</filter>
</defs>
</svg>
