<svg width="20" height="20" viewBox="0 0 20 20" fill="none" xmlns="http://www.w3.org/2000/svg">
<path d="M14.9475 15.2091H16.6849L15.3924 20L0 15.7921L2.37516 6.9962V13.4432L2.06462 14.6008L14.2174 17.9214L14.9475 15.2091ZM8.66974 5.91466C9.36634 5.91466 9.92866 5.34854 9.92866 4.64723C9.92866 3.94592 9.36634 3.37981 8.66974 3.37981C7.97314 3.37981 7.41083 3.94592 7.41083 4.64723C7.41083 5.34854 7.97314 5.91466 8.66974 5.91466ZM20 2.53485V13.5192H4.05371V2.53485C4.05371 1.14068 5.18674 0 6.57155 0H17.4822C18.867 0 20 1.14068 20 2.53485ZM5.73227 2.53485V11.5505L12.2283 5.01056L14.9979 7.7989L18.3214 4.45289V2.53485C18.3214 2.07013 17.9438 1.6899 17.4822 1.6899H6.57155C6.10995 1.6899 5.73227 2.07013 5.73227 2.53485ZM18.3214 11.8293V6.84411L14.9979 10.1901L12.2283 7.40177L7.83047 11.8293H18.3214Z" fill="#32454B"/>
</svg>
