<svg width="37" height="28" viewBox="0 0 37 28" fill="none" xmlns="http://www.w3.org/2000/svg">
<g clip-path="url(#clip0_1049_3484)">
<path d="M7.85 11.3468L9.5 7.3467C9.59296 7.25297 9.70356 7.17858 9.82542 7.12781C9.94728 7.07704 10.078 7.0509 10.21 7.0509C10.342 7.0509 10.4727 7.07704 10.5946 7.12781C10.7164 7.17858 10.827 7.25297 10.92 7.3467C11.1062 7.53406 11.2108 7.78752 11.2108 8.0517C11.2108 8.31589 11.1062 8.56934 10.92 8.7567L9.25 13.3468L10.1703 12.9398C16.7534 10.0281 24.2872 10.1771 30.75 13.3467C31.0152 13.3467 31.2696 13.4521 31.4571 13.6396C31.6446 13.8271 31.75 14.0815 31.75 14.3467C31.75 14.6119 31.6446 14.8663 31.4571 15.0538C31.2696 15.2413 31.0152 15.3467 30.75 15.3467C24.2817 12.1837 16.7317 12.1069 10.2005 15.1378L9.75 15.3468L15.92 17.9567C16.0137 18.0497 16.0881 18.1603 16.1389 18.2821C16.1897 18.404 16.2158 18.5347 16.2158 18.6667C16.2158 18.7987 16.1897 18.9294 16.1389 19.0513C16.0881 19.1731 16.0137 19.2837 15.92 19.3767C15.827 19.4704 15.7164 19.5448 15.5946 19.5956C15.4727 19.6464 15.342 19.6725 15.21 19.6725C15.078 19.6725 14.9473 19.6464 14.8254 19.5956C14.7036 19.5448 14.593 19.4704 14.5 19.3767L9.4653 17.1168C8.3313 16.6077 6.75 16.0898 6.75 14.8468C6.75 14.0518 7.25 12.8468 7.85 11.3468Z" fill="#18356D"/>
</g>
<defs>
<clipPath id="clip0_1049_3484">
<rect width="24" height="24" fill="white" transform="matrix(-1 0 0 1 30.75 2.34668)"/>
</clipPath>
</defs>
</svg>
