<svg width="199" height="40" viewBox="0 0 199 40" fill="none" xmlns="http://www.w3.org/2000/svg">
<path d="M90.128 7.25527C92.7815 2.75909 97.6136 0 102.834 0H191.778C196.854 0 200.005 5.5189 197.425 9.89019L183.938 32.7447C181.284 37.2409 176.452 40 171.231 40H82.2874C77.2116 40 74.0603 34.4811 76.6401 30.1098L90.128 7.25527Z" fill="#3C7CFB"/>
<path d="M97.6885 10.437C97.6885 9.7837 97.9391 9.24304 98.4402 8.81501C98.9652 8.38699 99.5975 8.17298 100.337 8.17298H110.109C111.875 8.17298 113.438 8.51089 114.798 9.18672C116.158 9.84002 117.208 10.7637 117.948 11.9576C118.712 13.1516 119.093 14.537 119.093 16.114C119.093 17.7134 118.724 19.1214 117.984 20.3379C117.244 21.5319 116.194 22.4555 114.834 23.1088C113.498 23.7621 111.923 24.0888 110.109 24.0888H102.95V28.5492C102.95 29.7207 102.497 30.6105 101.59 31.2188C100.707 31.827 99.4066 32.1311 97.6885 32.1311V10.437ZM110.109 19.7973C111.302 19.7973 112.221 19.4819 112.865 18.8511C113.51 18.1978 113.832 17.2742 113.832 16.0802C113.832 14.9313 113.51 14.0414 112.865 13.4107C112.221 12.7799 111.302 12.4645 110.109 12.4645H102.95V19.7973H110.109Z" fill="white"/>
<path d="M130.058 18.6145C128.626 18.6145 127.469 18.9637 126.586 19.6621C125.703 20.3604 125.261 21.239 125.261 22.2978V29.4278C125.261 30.3965 124.856 31.0949 124.044 31.5229C123.257 31.9284 122.028 32.1311 120.358 32.1311V18.1415C120.358 17.0151 120.751 16.1478 121.539 15.5395C122.326 14.9313 123.496 14.6272 125.047 14.6272V16.6209C124.689 16.9813 124.39 17.3643 124.152 17.7698L124.402 17.9049C125.906 15.7197 127.779 14.6272 130.022 14.6272C131.096 14.6272 131.907 14.8975 132.456 15.4381C133.005 15.9788 133.279 16.6659 133.279 17.4994C133.279 18.1302 133.1 18.6821 132.742 19.1552C132.074 18.7948 131.179 18.6145 130.058 18.6145Z" fill="white"/>
<path d="M137.718 13.3431C136.812 13.3431 136.048 13.0953 135.428 12.5997C134.831 12.0815 134.533 11.417 134.533 10.606C134.533 9.79497 134.831 9.14167 135.428 8.64606C136.048 8.12792 136.812 7.86885 137.718 7.86885C138.625 7.86885 139.377 8.12792 139.973 8.64606C140.594 9.14167 140.904 9.79497 140.904 10.606C140.904 11.417 140.594 12.0815 139.973 12.5997C139.377 13.0953 138.625 13.3431 137.718 13.3431ZM135.249 17.3305C135.249 16.3618 135.654 15.6747 136.466 15.2692C137.277 14.8412 138.506 14.6272 140.152 14.6272V29.4278C140.152 30.3965 139.747 31.0949 138.935 31.5229C138.124 31.9284 136.895 32.1311 135.249 32.1311V17.3305Z" fill="white"/>
<path d="M144.129 18.1415C144.129 17.0151 144.522 16.1478 145.31 15.5395C146.097 14.9313 147.266 14.6272 148.818 14.6272V16.6209C148.46 16.9813 148.161 17.3643 147.923 17.7698L148.173 17.9049C148.889 16.8687 149.796 16.0689 150.894 15.5057C152.015 14.92 153.256 14.6272 154.616 14.6272C155.809 14.6272 156.859 14.8862 157.766 15.4044C158.697 15.9225 159.425 16.6434 159.95 17.567C160.475 18.4681 160.737 19.4819 160.737 20.6082V29.4278C160.737 30.3965 160.331 31.0949 159.52 31.5229C158.709 31.9284 157.48 32.1311 155.833 32.1311V21.3179C155.833 20.5519 155.571 19.9099 155.046 19.3918C154.545 18.8736 153.829 18.6145 152.898 18.6145C151.753 18.6145 150.822 18.9637 150.106 19.6621C149.39 20.3604 149.032 21.239 149.032 22.2978V29.4278C149.032 30.3965 148.627 31.0949 147.815 31.5229C147.028 31.9284 145.799 32.1311 144.129 32.1311V18.1415Z" fill="white"/>
<path d="M171.867 32.1311C169.839 32.1311 168.347 31.5792 167.393 30.4754C166.438 29.3715 165.961 27.9523 165.961 26.2176V18.3442H162.167C162.167 17.1953 162.393 16.3393 162.847 15.7761C163.3 15.2129 163.897 14.9313 164.637 14.9313H166.033V12.2617C166.033 11.2931 166.426 10.606 167.214 10.2005C168.001 9.77244 169.194 9.55843 170.793 9.55843V14.9313H175.554C175.554 16.1478 175.315 17.0263 174.838 17.567C174.361 18.0851 173.573 18.3442 172.476 18.3442H170.865V26.0487C170.865 26.7921 171.02 27.3328 171.33 27.6707C171.64 27.9861 172.177 28.1438 172.941 28.1438C173.776 28.1438 174.635 27.9185 175.518 27.4679C175.78 27.6932 175.983 27.9748 176.126 28.3127C176.294 28.6506 176.377 28.9885 176.377 29.3265C176.377 29.777 176.21 30.2163 175.876 30.6443C175.542 31.0723 175.029 31.4328 174.337 31.7256C173.669 31.996 172.845 32.1311 171.867 32.1311Z" fill="white"/>
<path d="M0 9.30164C0 8.62842 0.252459 8.06339 0.757377 7.60656C1.28634 7.12568 1.9235 6.88524 2.66885 6.88524H18.7902C18.7902 8.47213 18.5257 9.62623 17.9967 10.3475C17.4678 11.0689 16.6142 11.4295 15.4361 11.4295H5.30164V17.1279H14.7508C14.7508 18.7148 14.4863 19.8689 13.9574 20.5902C13.4284 21.3115 12.5749 21.6721 11.3967 21.6721H5.30164V27.5869H16.1934C17.3475 27.5869 18.1891 27.9475 18.718 28.6689C19.247 29.3902 19.5115 30.5443 19.5115 32.1311H2.66885C1.9235 32.1311 1.28634 31.9027 0.757377 31.4459C0.252459 30.9891 0 30.412 0 29.7148V9.30164Z" fill="#0D0D0D"/>
<path d="M27.1191 32.4557C25.9409 32.4557 24.8349 32.2273 23.801 31.7705C22.7912 31.2896 21.9737 30.6044 21.3486 29.7148C20.7234 28.8011 20.4109 27.7071 20.4109 26.4328C20.4109 25.1585 20.7475 24.0645 21.4207 23.1508C22.0939 22.2131 22.9835 21.5038 24.0896 21.0229C25.2196 20.5421 26.4458 20.3016 27.7682 20.3016C28.8742 20.3016 29.848 20.4699 30.6895 20.8066C31.5551 21.1432 32.3606 21.6361 33.1059 22.2852L33.2863 22.0689C32.7814 21.612 32.3846 21.2874 32.0961 21.0951V20.6262C32.0961 19.7126 31.7595 18.9913 31.0863 18.4623C30.4371 17.9093 29.5114 17.6328 28.3092 17.6328C27.2513 17.6328 26.3136 17.8251 25.4961 18.2098C24.6786 18.5945 24.0174 19.1596 23.5125 19.9049C22.9355 19.7607 22.4426 19.4962 22.0338 19.1115C21.6491 18.7027 21.4568 18.2579 21.4568 17.777C21.4568 17.0317 21.7814 16.3585 22.4305 15.7574C23.0797 15.1322 23.9573 14.6514 25.0633 14.3148C26.1934 13.9541 27.4316 13.7738 28.7781 13.7738C31.3988 13.7738 33.4185 14.3749 34.8371 15.577C36.2557 16.7792 36.965 18.4142 36.965 20.482V29.2459C36.965 30.376 36.5923 31.1934 35.8469 31.6984C35.1256 32.2033 33.9715 32.4557 32.3846 32.4557V31.0492C32.7453 30.7126 33.0338 30.412 33.2502 30.1475L33.0699 29.9672C32.2764 30.7847 31.4469 31.4098 30.5814 31.8426C29.7158 32.2514 28.5617 32.4557 27.1191 32.4557ZM28.4895 28.9213C29.6436 28.9213 30.5453 28.7049 31.1945 28.2721C31.8436 27.8393 32.1682 27.2142 32.1682 26.3967C32.1682 25.6033 31.8316 24.9781 31.1584 24.5213C30.5092 24.0645 29.6196 23.8361 28.4895 23.8361C27.4797 23.8361 26.6742 24.0645 26.0732 24.5213C25.4961 24.9781 25.2076 25.6033 25.2076 26.3967C25.2076 27.2142 25.4961 27.8393 26.0732 28.2721C26.6742 28.7049 27.4797 28.9213 28.4895 28.9213Z" fill="#0D0D0D"/>
<path d="M47.8314 32.4557C45.3789 32.4557 43.4434 32.047 42.0248 31.2295C40.6063 30.388 39.897 29.2699 39.897 27.8754C39.897 27.2503 40.1615 26.7213 40.6904 26.2885C41.2434 25.8557 42.121 25.6393 43.3232 25.6393C43.5156 26.6011 43.9964 27.3585 44.7658 27.9115C45.5352 28.4404 46.4369 28.7049 47.4707 28.7049C48.6729 28.7049 49.5986 28.5607 50.2478 28.2721C50.921 27.9836 51.2576 27.5628 51.2576 27.0098C51.2576 26.529 50.9932 26.1082 50.4642 25.7475C49.9352 25.3869 48.8773 25.0142 47.2904 24.6295C45.4391 24.1967 43.9964 23.7639 42.9626 23.3311C41.9527 22.8743 41.2074 22.3093 40.7265 21.6361C40.2456 20.9628 40.0052 20.0732 40.0052 18.9672C40.0052 17.4044 40.6544 16.1541 41.9527 15.2164C43.2751 14.2546 45.1145 13.7738 47.4707 13.7738C49.7789 13.7738 51.6544 14.1705 53.097 14.9639C54.5396 15.7574 55.2609 16.8153 55.2609 18.1377C55.2609 18.8109 55.0084 19.3038 54.5035 19.6164C53.9986 19.9049 53.1571 20.0612 51.9789 20.0852C51.6664 19.1716 51.1855 18.4984 50.5363 18.0656C49.9112 17.6087 49.0095 17.3803 47.8314 17.3803C46.9899 17.3803 46.2445 17.5246 45.5953 17.8131C44.9462 18.1016 44.6216 18.4503 44.6216 18.859C44.6216 19.3158 44.886 19.6765 45.415 19.941C45.968 20.2055 46.8817 20.4699 48.156 20.7344C50.921 21.3355 52.9046 22.129 54.1068 23.1148C55.333 24.1005 55.9462 25.435 55.9462 27.118C55.9462 28.1519 55.6216 29.0776 54.9724 29.8951C54.3232 30.7126 53.3855 31.3497 52.1593 31.8066C50.933 32.2393 49.4904 32.4557 47.8314 32.4557Z" fill="#0D0D0D"/>
<path d="M60.5141 39.6688C59.5042 39.6688 58.7108 39.3082 58.1338 38.5869C57.5567 37.8896 57.2682 36.8557 57.2682 35.4852C57.9655 35.6295 58.6026 35.7016 59.1797 35.7016C59.7808 35.7016 60.2736 35.6055 60.6583 35.4131C61.043 35.2448 61.4037 34.9202 61.7403 34.4393C62.101 33.9585 62.4977 33.2372 62.9305 32.2754L63.4715 31.0492L56.5469 14.1705C56.7152 14.0503 57.0277 13.9541 57.4846 13.882C57.9655 13.8098 58.3622 13.7738 58.6747 13.7738C59.4201 13.7738 60.1053 13.9301 60.7305 14.2426C61.3797 14.5552 61.8125 15 62.0288 15.577L65.5633 24.9902L64.9502 26.7574L65.2747 26.8656L69.6747 15.577C69.9152 14.976 70.3359 14.5311 70.937 14.2426C71.5622 13.9301 72.2594 13.7738 73.0288 13.7738C73.3414 13.7738 73.7261 13.8098 74.1829 13.882C74.6638 13.9541 74.9884 14.0503 75.1567 14.1705L67.1141 33.718C66.2726 35.7617 65.3349 37.2645 64.301 38.2262C63.2911 39.188 62.0288 39.6688 60.5141 39.6688Z" fill="#0D0D0D"/>
</svg>
