<svg width="48" height="48" viewBox="0 0 48 48" fill="none" xmlns="http://www.w3.org/2000/svg">
<rect x="0.5" y="0.5" width="47" height="47" rx="23.5" stroke="#CCCCCC"/>
<path d="M31.879 32.2092C32.6287 28.3351 34.1055 19.9396 34.4455 16.4811C34.5323 15.606 34.2755 14.7546 33.2066 14.7692C32.353 14.7838 31.0462 15.2232 24.7518 17.75C22.548 18.6361 18.1421 20.4683 11.5362 23.2467C10.4635 23.6588 9.90265 24.0617 9.85166 24.4555C9.75346 25.2102 10.8828 25.4472 12.301 25.8921C13.4587 26.2567 15.0148 26.6815 15.8231 26.6979C16.5577 26.7125 17.3773 26.4208 18.2819 25.821C24.4553 21.7992 27.6412 19.7664 27.8414 19.7226C27.9812 19.6917 28.1757 19.6534 28.3098 19.7664C28.4438 19.8794 28.4287 20.0946 28.4155 20.1529C28.3022 20.6142 22.5045 25.7061 22.1703 26.0416C20.8955 27.3196 19.4452 28.1017 21.683 29.5256C23.6187 30.758 24.7462 31.5438 26.7404 32.8054C28.0152 33.6112 29.0142 34.5683 30.3304 34.4516C30.9348 34.3988 31.5617 33.85 31.879 32.2092Z" fill="#3C7CFB"/>
</svg>
