<svg width="48" height="48" viewBox="0 0 48 48" fill="none" xmlns="http://www.w3.org/2000/svg">
<rect x="0.5" y="0.5" width="47" height="47" rx="23.5" stroke="#CCCCCC"/>
<path d="M19.031 20.1249C19.9288 21.9949 21.1526 23.7474 22.7026 25.2974C24.2526 26.8474 26.0051 28.0712 27.8751 28.969C28.0359 29.0463 28.1163 29.0849 28.2181 29.1145C28.5797 29.22 29.0238 29.1442 29.3301 28.9249C29.4163 28.8632 29.49 28.7895 29.6375 28.642C30.0884 28.1911 30.3139 27.9656 30.5407 27.8182C31.3958 27.2622 32.4981 27.2622 33.3532 27.8182C33.5799 27.9656 33.8054 28.1911 34.2564 28.642L34.5078 28.8934C35.1933 29.5789 35.5361 29.9217 35.7223 30.2898C36.0926 31.022 36.0926 31.8866 35.7223 32.6187C35.5361 32.9868 35.1933 33.3296 34.5078 34.0151L34.3044 34.2184C33.6213 34.9016 33.2797 35.2432 32.8152 35.5041C32.2999 35.7936 31.4995 36.0017 30.9084 36C30.3757 35.9984 30.0117 35.8951 29.2836 35.6884C25.3707 34.5778 21.6784 32.4823 18.598 29.402C15.5177 26.3216 13.4222 22.6293 12.3116 18.7164C12.1049 17.9883 12.0016 17.6243 12 17.0916C11.9983 16.5005 12.2064 15.7001 12.4959 15.1848C12.7568 14.7203 13.0984 14.3787 13.7816 13.6956L13.9849 13.4922C14.6704 12.8067 15.0132 12.4639 15.3813 12.2777C16.1134 11.9074 16.978 11.9074 17.7102 12.2777C18.0783 12.4639 18.4211 12.8067 19.1066 13.4922L19.358 13.7436C19.8089 14.1946 20.0344 14.4201 20.1818 14.6468C20.7378 15.5019 20.7378 16.6042 20.1818 17.4593C20.0344 17.6861 19.8089 17.9116 19.358 18.3625C19.2105 18.51 19.1368 18.5837 19.0751 18.6699C18.8558 18.9762 18.78 19.4203 18.8855 19.7819C18.9151 19.8837 18.9537 19.9641 19.031 20.1249Z" fill="#829D50" stroke="#829D50" stroke-linecap="round" stroke-linejoin="round"/>
</svg>
