<svg width="278" height="60" viewBox="0 0 278 60" fill="none" xmlns="http://www.w3.org/2000/svg">
<g filter="url(#filter0_d_1027_3548)">
<rect x="2" y="1" width="274" height="56" rx="10" fill="#32454B" shape-rendering="crispEdges"/>
<path d="M28 27.9961C28.0049 28.5226 28.2168 29.0259 28.59 29.3971L32.88 33.7002C33.0674 33.8866 33.3208 33.9912 33.585 33.9912C33.8492 33.9912 34.1026 33.8866 34.29 33.7002C34.3837 33.6072 34.4581 33.4965 34.5089 33.3746C34.5597 33.2526 34.5858 33.1218 34.5858 32.9897C34.5858 32.8576 34.5597 32.7268 34.5089 32.6048C34.4581 32.4829 34.3837 32.3722 34.29 32.2792L31 28.9968H47C47.2652 28.9968 47.5196 28.8914 47.7071 28.7037C47.8946 28.516 48 28.2615 48 27.9961C48 27.7307 47.8946 27.4762 47.7071 27.2885C47.5196 27.1008 47.2652 26.9954 47 26.9954H31L34.29 23.703C34.4783 23.5159 34.5846 23.2616 34.5856 22.996C34.5865 22.7305 34.482 22.4754 34.295 22.287C34.108 22.0985 33.8539 21.9922 33.5885 21.9912C33.3232 21.9903 33.0683 22.0949 32.88 22.282L28.59 26.5851C28.2144 26.9587 28.0022 27.4661 28 27.9961Z" fill="white"/>
<path d="M67.4382 36V22.9091H72.2322C73.1612 22.9091 73.9304 23.0625 74.5398 23.3693C75.1491 23.6719 75.6051 24.0831 75.9077 24.603C76.2102 25.1186 76.3615 25.7003 76.3615 26.348C76.3615 26.8935 76.2614 27.3537 76.0611 27.7287C75.8608 28.0994 75.5923 28.3977 75.2557 28.6236C74.9233 28.8452 74.5568 29.0071 74.1562 29.1094V29.2372C74.5909 29.2585 75.0149 29.3991 75.4283 29.6591C75.8459 29.9148 76.1911 30.2791 76.4638 30.7521C76.7365 31.2251 76.8729 31.8004 76.8729 32.478C76.8729 33.147 76.7152 33.7479 76.3999 34.2805C76.0888 34.8089 75.6072 35.2287 74.9553 35.5398C74.3033 35.8466 73.4702 36 72.456 36H67.4382ZM69.4134 34.3061H72.2642C73.2102 34.3061 73.8878 34.1229 74.2969 33.7564C74.706 33.3899 74.9105 32.9318 74.9105 32.3821C74.9105 31.9687 74.8061 31.5895 74.5973 31.2443C74.3885 30.8991 74.0902 30.6243 73.7024 30.4197C73.3189 30.2152 72.8629 30.1129 72.3345 30.1129H69.4134V34.3061ZM69.4134 28.5724H72.0597C72.5028 28.5724 72.9013 28.4872 73.255 28.3168C73.6129 28.1463 73.8963 27.9077 74.1051 27.6009C74.3182 27.2898 74.4247 26.9233 74.4247 26.5014C74.4247 25.9602 74.2351 25.5064 73.8558 25.1399C73.4766 24.7734 72.8949 24.5902 72.1108 24.5902H69.4134V28.5724ZM83.2937 36.1982C82.3263 36.1982 81.4933 35.9915 80.7944 35.5781C80.0998 35.1605 79.5629 34.5746 79.1836 33.8203C78.8086 33.0618 78.6211 32.1733 78.6211 31.1548C78.6211 30.1491 78.8086 29.2628 79.1836 28.4957C79.5629 27.7287 80.0913 27.13 80.7688 26.6996C81.4506 26.2692 82.2475 26.054 83.1594 26.054C83.7134 26.054 84.2504 26.1456 84.7702 26.3288C85.2901 26.5121 85.7567 26.7997 86.1701 27.1918C86.5835 27.5838 86.9094 28.093 87.1481 28.7195C87.3867 29.3416 87.506 30.098 87.506 30.9886V31.6662H79.7013V30.2344H85.6332C85.6332 29.7315 85.5309 29.2862 85.3263 28.8984C85.1218 28.5064 84.8342 28.1974 84.4634 27.9716C84.0969 27.7457 83.6665 27.6328 83.1722 27.6328C82.6353 27.6328 82.1665 27.7649 81.766 28.0291C81.3697 28.2891 81.0629 28.63 80.8455 29.0518C80.6325 29.4695 80.5259 29.9233 80.5259 30.4134V31.532C80.5259 32.1882 80.641 32.7464 80.8711 33.2067C81.1055 33.6669 81.4315 34.0185 81.8491 34.2614C82.2667 34.5 82.7546 34.6193 83.3129 34.6193C83.6751 34.6193 84.0053 34.5682 84.3036 34.4659C84.6019 34.3594 84.8597 34.2017 85.0771 33.9929C85.2944 33.7841 85.4606 33.5263 85.5756 33.2195L87.3846 33.5455C87.2397 34.0781 86.9798 34.5447 86.6048 34.9453C86.234 35.3416 85.7674 35.6506 85.2049 35.8722C84.6467 36.0895 84.0096 36.1982 83.2937 36.1982ZM89.6266 39.6818V26.1818H91.4931V27.7734H91.6529C91.7637 27.5689 91.9235 27.3324 92.1323 27.0639C92.3411 26.7955 92.6309 26.5611 93.0016 26.3608C93.3723 26.1562 93.8624 26.054 94.4718 26.054C95.2644 26.054 95.9718 26.2543 96.5939 26.6548C97.2161 27.0554 97.704 27.6328 98.0577 28.3871C98.4157 29.1413 98.5946 30.049 98.5946 31.1101C98.5946 32.1712 98.4178 33.081 98.0641 33.8395C97.7104 34.5937 97.2246 35.1754 96.6067 35.5845C95.9888 35.9893 95.2836 36.1918 94.4909 36.1918C93.8944 36.1918 93.4064 36.0916 93.0272 35.8913C92.6522 35.6911 92.3581 35.4567 92.1451 35.1882C91.932 34.9197 91.7679 34.6811 91.6529 34.4723H91.5378V39.6818H89.6266ZM91.4995 31.0909C91.4995 31.7812 91.5996 32.3864 91.7999 32.9062C92.0002 33.4261 92.29 33.8331 92.6692 34.1271C93.0485 34.4169 93.513 34.5618 94.0627 34.5618C94.6337 34.5618 95.111 34.4105 95.4945 34.108C95.878 33.8011 96.1678 33.3857 96.3638 32.8615C96.5641 32.3374 96.6642 31.7472 96.6642 31.0909C96.6642 30.4432 96.5662 29.8615 96.3702 29.3459C96.1784 28.8303 95.8887 28.4233 95.5009 28.125C95.1174 27.8267 94.638 27.6776 94.0627 27.6776C93.5087 27.6776 93.04 27.8203 92.6564 28.1058C92.2772 28.3913 91.9895 28.7898 91.7935 29.3011C91.5975 29.8125 91.4995 30.4091 91.4995 31.0909ZM107.39 30.2663V31.9219H102.072V30.2663H107.39ZM102.609 26.1818V36H100.736V26.1818H102.609ZM108.726 26.1818V36H106.86V26.1818H108.726ZM112.139 39.6818C111.854 39.6818 111.594 39.6584 111.36 39.6115C111.125 39.5689 110.95 39.522 110.835 39.4709L111.296 37.9048C111.645 37.9986 111.956 38.0391 112.229 38.0263C112.502 38.0135 112.742 37.9112 112.951 37.7195C113.164 37.5277 113.352 37.2145 113.514 36.7798L113.75 36.1278L110.158 26.1818H112.203L114.69 33.8011H114.792L117.279 26.1818H119.33L115.284 37.3104C115.097 37.8217 114.858 38.2543 114.568 38.608C114.279 38.9659 113.933 39.2344 113.533 39.4134C113.132 39.5923 112.668 39.6818 112.139 39.6818ZM120.577 27.831V26.1818H128.861V27.831H125.659V36H123.792V27.831H120.577ZM132.321 29.5568H135.172C136.373 29.5568 137.298 29.8551 137.946 30.4517C138.593 31.0483 138.917 31.8175 138.917 32.7592C138.917 33.3729 138.772 33.9247 138.483 34.4148C138.193 34.9048 137.769 35.2926 137.211 35.5781C136.652 35.8594 135.973 36 135.172 36H130.882V26.1818H132.755V34.3509H135.172C135.721 34.3509 136.173 34.2081 136.527 33.9226C136.88 33.6328 137.057 33.2642 137.057 32.8168C137.057 32.3437 136.88 31.9581 136.527 31.6598C136.173 31.3572 135.721 31.206 135.172 31.206H132.321V29.5568ZM145.196 36.1982C144.246 36.1982 143.427 35.983 142.741 35.5526C142.059 35.1179 141.535 34.5192 141.169 33.7564C140.802 32.9936 140.619 32.12 140.619 31.1357C140.619 30.1385 140.807 29.2585 141.182 28.4957C141.557 27.7287 142.085 27.13 142.767 26.6996C143.449 26.2692 144.252 26.054 145.177 26.054C145.922 26.054 146.587 26.1925 147.171 26.4695C147.755 26.7422 148.226 27.1257 148.584 27.62C148.946 28.1143 149.161 28.6918 149.229 29.3523H147.369C147.267 28.892 147.032 28.4957 146.666 28.1634C146.304 27.831 145.818 27.6648 145.209 27.6648C144.676 27.6648 144.209 27.8054 143.809 28.0866C143.412 28.3636 143.104 28.7599 142.882 29.2756C142.66 29.7869 142.55 30.392 142.55 31.0909C142.55 31.8068 142.658 32.4247 142.876 32.9446C143.093 33.4645 143.4 33.8672 143.796 34.1527C144.197 34.4382 144.667 34.581 145.209 34.581C145.571 34.581 145.899 34.5149 146.193 34.3828C146.491 34.2464 146.741 34.0526 146.941 33.8011C147.145 33.5497 147.288 33.2472 147.369 32.8935H149.229C149.161 33.5284 148.954 34.0952 148.609 34.5938C148.264 35.0923 147.802 35.4844 147.222 35.7699C146.647 36.0554 145.971 36.1982 145.196 36.1982ZM157.128 36V27.8118H154.776C154.218 27.8118 153.783 27.9418 153.472 28.2017C153.161 28.4616 153.005 28.8026 153.005 29.2244C153.005 29.642 153.148 29.9787 153.434 30.2344C153.723 30.4858 154.128 30.6115 154.648 30.6115H157.684V32.1584H154.648C153.924 32.1584 153.297 32.0391 152.769 31.8004C152.245 31.5575 151.84 31.2145 151.554 30.7713C151.273 30.3281 151.132 29.804 151.132 29.1989C151.132 28.581 151.277 28.0483 151.567 27.6009C151.861 27.1491 152.281 26.7997 152.826 26.5526C153.376 26.3054 154.026 26.1818 154.776 26.1818H158.924V36H157.128ZM150.685 36L153.453 31.0398H155.409L152.641 36H150.685ZM166.232 36V26.1818H170.304C171.412 26.1818 172.29 26.4183 172.937 26.8913C173.585 27.3601 173.909 27.9972 173.909 28.8026C173.909 29.3778 173.726 29.8338 173.359 30.1705C172.993 30.5071 172.507 30.733 171.902 30.848C172.341 30.8991 172.743 31.0312 173.11 31.2443C173.476 31.4531 173.77 31.7344 173.992 32.0881C174.218 32.4418 174.331 32.8636 174.331 33.3537C174.331 33.8736 174.197 34.3338 173.928 34.7344C173.66 35.1307 173.27 35.4418 172.758 35.6676C172.251 35.8892 171.64 36 170.924 36H166.232ZM168.028 34.402H170.924C171.397 34.402 171.768 34.2891 172.036 34.0632C172.305 33.8374 172.439 33.5305 172.439 33.1428C172.439 32.6868 172.305 32.3288 172.036 32.0689C171.768 31.8047 171.397 31.6726 170.924 31.6726H168.028V34.402ZM168.028 30.2727H170.323C170.681 30.2727 170.988 30.2216 171.243 30.1193C171.503 30.017 171.702 29.8722 171.838 29.6847C171.979 29.4929 172.049 29.267 172.049 29.0071C172.049 28.6278 171.893 28.3317 171.582 28.1186C171.271 27.9055 170.845 27.799 170.304 27.799H168.028V30.2727ZM181.191 36V26.1818H183.102V30.2983H184.023L187.263 26.1818H189.629L185.825 30.9567L189.673 36H187.302L184.342 32.0753H183.102V36H181.191ZM194.889 36.1982C193.969 36.1982 193.165 35.9872 192.479 35.5653C191.793 35.1435 191.261 34.5533 190.881 33.7947C190.502 33.0362 190.312 32.1499 190.312 31.1357C190.312 30.1172 190.502 29.2266 190.881 28.4638C191.261 27.701 191.793 27.1087 192.479 26.6868C193.165 26.2649 193.969 26.054 194.889 26.054C195.81 26.054 196.613 26.2649 197.299 26.6868C197.985 27.1087 198.518 27.701 198.897 28.4638C199.276 29.2266 199.466 30.1172 199.466 31.1357C199.466 32.1499 199.276 33.0362 198.897 33.7947C198.518 34.5533 197.985 35.1435 197.299 35.5653C196.613 35.9872 195.81 36.1982 194.889 36.1982ZM194.896 34.5938C195.492 34.5938 195.987 34.4361 196.379 34.1207C196.771 33.8054 197.06 33.3857 197.248 32.8615C197.44 32.3374 197.536 31.7599 197.536 31.1293C197.536 30.5028 197.44 29.9276 197.248 29.4034C197.06 28.875 196.771 28.451 196.379 28.1314C195.987 27.8118 195.492 27.652 194.896 27.652C194.295 27.652 193.796 27.8118 193.4 28.1314C193.008 28.451 192.716 28.875 192.524 29.4034C192.337 29.9276 192.243 30.5028 192.243 31.1293C192.243 31.7599 192.337 32.3374 192.524 32.8615C192.716 33.3857 193.008 33.8054 193.4 34.1207C193.796 34.4361 194.295 34.5938 194.896 34.5938ZM201.599 39.6818V26.1818H203.466V27.7734H203.626C203.736 27.5689 203.896 27.3324 204.105 27.0639C204.314 26.7955 204.604 26.5611 204.974 26.3608C205.345 26.1562 205.835 26.054 206.444 26.054C207.237 26.054 207.944 26.2543 208.567 26.6548C209.189 27.0554 209.677 27.6328 210.03 28.3871C210.388 29.1413 210.567 30.049 210.567 31.1101C210.567 32.1712 210.39 33.081 210.037 33.8395C209.683 34.5937 209.197 35.1754 208.579 35.5845C207.961 35.9893 207.256 36.1918 206.464 36.1918C205.867 36.1918 205.379 36.0916 205 35.8913C204.625 35.6911 204.331 35.4567 204.118 35.1882C203.905 34.9197 203.741 34.6811 203.626 34.4723H203.51V39.6818H201.599ZM203.472 31.0909C203.472 31.7812 203.572 32.3864 203.773 32.9062C203.973 33.4261 204.263 33.8331 204.642 34.1271C205.021 34.4169 205.486 34.5618 206.035 34.5618C206.606 34.5618 207.084 34.4105 207.467 34.108C207.851 33.8011 208.14 33.3857 208.336 32.8615C208.537 32.3374 208.637 31.7472 208.637 31.0909C208.637 30.4432 208.539 29.8615 208.343 29.3459C208.151 28.8303 207.861 28.4233 207.474 28.125C207.09 27.8267 206.611 27.6776 206.035 27.6776C205.481 27.6776 205.013 27.8203 204.629 28.1058C204.25 28.3913 203.962 28.7898 203.766 29.3011C203.57 29.8125 203.472 30.4091 203.472 31.0909ZM212.127 33.4048H214.083C214.108 33.8054 214.29 34.1143 214.626 34.3317C214.967 34.549 215.408 34.6577 215.949 34.6577C216.499 34.6577 216.968 34.5405 217.356 34.3061C217.743 34.0675 217.937 33.6989 217.937 33.2003C217.937 32.902 217.863 32.642 217.714 32.4205C217.569 32.1946 217.362 32.0199 217.094 31.8963C216.829 31.7727 216.516 31.7109 216.154 31.7109H214.556V30.2088H216.154C216.695 30.2088 217.1 30.0852 217.368 29.8381C217.637 29.5909 217.771 29.282 217.771 28.9112C217.771 28.5107 217.626 28.1889 217.336 27.946C217.051 27.6989 216.653 27.5753 216.141 27.5753C215.621 27.5753 215.189 27.6925 214.844 27.9268C214.498 28.157 214.317 28.4553 214.3 28.8217H212.37C212.383 28.272 212.549 27.7905 212.868 27.3771C213.192 26.9595 213.627 26.6357 214.172 26.4055C214.722 26.1712 215.346 26.054 216.045 26.054C216.774 26.054 217.405 26.1712 217.937 26.4055C218.47 26.6399 218.881 26.9638 219.171 27.3771C219.465 27.7905 219.612 28.2656 219.612 28.8026C219.612 29.3437 219.45 29.7869 219.126 30.1321C218.807 30.473 218.389 30.718 217.873 30.8672V30.9695C218.253 30.995 218.589 31.1101 218.883 31.3146C219.177 31.5192 219.407 31.7898 219.574 32.1264C219.74 32.4631 219.823 32.8445 219.823 33.2706C219.823 33.8714 219.657 34.3913 219.324 34.8303C218.996 35.2692 218.54 35.608 217.956 35.8466C217.377 36.081 216.714 36.1982 215.969 36.1982C215.244 36.1982 214.594 36.0852 214.019 35.8594C213.448 35.6293 212.994 35.3054 212.657 34.8878C212.325 34.4702 212.148 33.9759 212.127 33.4048ZM223.669 33.3217L227.997 26.1818H230.055V36H228.182V28.8537L223.874 36H221.797V26.1818H223.669V33.3217ZM239.279 30.2663V31.9219H233.961V30.2663H239.279ZM234.498 26.1818V36H232.625V26.1818H234.498ZM240.615 26.1818V36H238.748V26.1818H240.615ZM244.028 39.6818C243.743 39.6818 243.483 39.6584 243.248 39.6115C243.014 39.5689 242.839 39.522 242.724 39.4709L243.184 37.9048C243.534 37.9986 243.845 38.0391 244.118 38.0263C244.39 38.0135 244.631 37.9112 244.84 37.7195C245.053 37.5277 245.24 37.2145 245.402 36.7798L245.639 36.1278L242.047 26.1818H244.092L246.578 33.8011H246.681L249.167 26.1818H251.219L247.173 37.3104C246.985 37.8217 246.747 38.2543 246.457 38.608C246.167 38.9659 245.822 39.2344 245.422 39.4134C245.021 39.5923 244.556 39.6818 244.028 39.6818Z" fill="white"/>
</g>
<defs>
<filter id="filter0_d_1027_3548" x="0" y="0" width="278" height="60" filterUnits="userSpaceOnUse" color-interpolation-filters="sRGB">
<feFlood flood-opacity="0" result="BackgroundImageFix"/>
<feColorMatrix in="SourceAlpha" type="matrix" values="0 0 0 0 0 0 0 0 0 0 0 0 0 0 0 0 0 0 127 0" result="hardAlpha"/>
<feOffset dy="1"/>
<feGaussianBlur stdDeviation="1"/>
<feComposite in2="hardAlpha" operator="out"/>
<feColorMatrix type="matrix" values="0 0 0 0 0.054902 0 0 0 0 0.0901961 0 0 0 0 0.101961 0 0 0 0.2 0"/>
<feBlend mode="normal" in2="BackgroundImageFix" result="effect1_dropShadow_1027_3548"/>
<feBlend mode="normal" in="SourceGraphic" in2="effect1_dropShadow_1027_3548" result="shape"/>
</filter>
</defs>
</svg>
