<svg width="37" height="28" viewBox="0 0 37 28" fill="none" xmlns="http://www.w3.org/2000/svg">
<g opacity="0.5" clip-path="url(#clip0_1049_3481)">
<path d="M29.15 11.3468L27.5 7.3467C27.407 7.25297 27.2964 7.17858 27.1746 7.12781C27.0527 7.07704 26.922 7.0509 26.79 7.0509C26.658 7.0509 26.5273 7.07704 26.4054 7.12781C26.2836 7.17858 26.173 7.25297 26.08 7.3467C25.8938 7.53406 25.7892 7.78752 25.7892 8.0517C25.7892 8.31589 25.8938 8.56934 26.08 8.7567L27.75 13.3468L26.8297 12.9398C20.2466 10.0281 12.7128 10.1771 6.25 13.3467C5.98478 13.3467 5.73043 13.4521 5.54289 13.6396C5.35536 13.8271 5.25 14.0815 5.25 14.3467C5.25 14.6119 5.35536 14.8663 5.54289 15.0538C5.73043 15.2413 5.98478 15.3467 6.25 15.3467C12.7183 12.1837 20.2683 12.1069 26.7995 15.1378L27.25 15.3468L21.08 17.9567C20.9863 18.0497 20.9119 18.1603 20.8611 18.2821C20.8103 18.404 20.7842 18.5347 20.7842 18.6667C20.7842 18.7987 20.8103 18.9294 20.8611 19.0513C20.9119 19.1731 20.9863 19.2837 21.08 19.3767C21.173 19.4704 21.2836 19.5448 21.4054 19.5956C21.5273 19.6464 21.658 19.6725 21.79 19.6725C21.922 19.6725 22.0527 19.6464 22.1746 19.5956C22.2964 19.5448 22.407 19.4704 22.5 19.3767L27.5347 17.1168C28.6687 16.6077 30.25 16.0898 30.25 14.8468C30.25 14.0518 29.75 12.8468 29.15 11.3468Z" fill="#4D4D4D"/>
</g>
<defs>
<clipPath id="clip0_1049_3481">
<rect width="24" height="24" fill="white" transform="translate(6.25 2.34668)"/>
</clipPath>
</defs>
</svg>
