<svg width="48" height="48" viewBox="0 0 48 48" fill="none" xmlns="http://www.w3.org/2000/svg">
<rect width="48" height="48" rx="24" fill="#F8F8F8"/>
<path d="M34 25.0039C33.9951 24.4774 33.7832 23.9741 33.41 23.6029L29.12 19.2998C28.9326 19.1134 28.6792 19.0088 28.415 19.0088C28.1508 19.0088 27.8974 19.1134 27.71 19.2998C27.6163 19.3928 27.5419 19.5035 27.4911 19.6254C27.4403 19.7474 27.4142 19.8782 27.4142 20.0103C27.4142 20.1424 27.4403 20.2732 27.4911 20.3952C27.5419 20.5171 27.6163 20.6278 27.71 20.7208L31 24.0032H15C14.7348 24.0032 14.4804 24.1086 14.2929 24.2963C14.1054 24.484 14 24.7385 14 25.0039C14 25.2693 14.1054 25.5238 14.2929 25.7115C14.4804 25.8992 14.7348 26.0046 15 26.0046H31L27.71 29.297C27.5217 29.4841 27.4154 29.7384 27.4144 30.004C27.4135 30.2695 27.518 30.5246 27.705 30.713C27.892 30.9015 28.1461 31.0078 28.4115 31.0088C28.6768 31.0097 28.9317 30.9051 29.12 30.718L33.41 26.4149C33.7856 26.0413 33.9978 25.5339 34 25.0039Z" fill="#666666"/>
</svg>
