<svg width="125" height="46" viewBox="0 0 125 46" fill="none" xmlns="http://www.w3.org/2000/svg">
<path fill-rule="evenodd" clip-rule="evenodd" d="M53 24.6667C53 25.4 53.6 26 54.3333 26H70.3333C71.0667 26 71.6667 25.4 71.6667 24.6667C71.6667 23.9333 71.0667 23.3333 70.3333 23.3333H54.3333C53.6 23.3333 53 23.9333 53 24.6667ZM59 17.7333H65.6667L66.5467 19.8667C66.7467 20.3467 67.2133 20.6667 67.7333 20.6667C68.6533 20.6667 69.2667 19.72 68.9067 18.88L63.7333 6.92C63.4933 6.36 62.9467 6 62.3333 6C61.72 6 61.1733 6.36 60.9333 6.92L55.76 18.88C55.4 19.72 56.0267 20.6667 56.9467 20.6667C57.4667 20.6667 57.9333 20.3467 58.1333 19.8667L59 17.7333ZM62.3333 8.64L64.8267 15.3333H59.84L62.3333 8.64Z" fill="#EBF2FF"/>
<path d="M44.4398 34.432C45.5598 34.432 46.3758 34.652 46.8878 35.092C47.3998 35.532 47.6558 36.152 47.6558 36.952C47.6558 37.304 47.5958 37.644 47.4758 37.972C47.3638 38.292 47.1758 38.58 46.9118 38.836C46.6478 39.092 46.2958 39.296 45.8558 39.448C45.4158 39.592 44.8758 39.664 44.2358 39.664H43.2518V43H42.1718V34.432H44.4398ZM44.3438 35.356H43.2518V38.74H44.1158C44.6598 38.74 45.1118 38.684 45.4718 38.572C45.8318 38.452 46.0998 38.264 46.2758 38.008C46.4518 37.752 46.5398 37.416 46.5398 37C46.5398 36.448 46.3638 36.036 46.0118 35.764C45.6598 35.492 45.1038 35.356 44.3438 35.356ZM51.7294 36.46C52.5134 36.46 53.0934 36.632 53.4694 36.976C53.8454 37.32 54.0334 37.868 54.0334 38.62V43H53.2654L53.0614 42.088H53.0134C52.8294 42.32 52.6374 42.516 52.4374 42.676C52.2454 42.828 52.0214 42.94 51.7654 43.012C51.5174 43.084 51.2134 43.12 50.8534 43.12C50.4694 43.12 50.1214 43.052 49.8094 42.916C49.5054 42.78 49.2654 42.572 49.0894 42.292C48.9134 42.004 48.8254 41.644 48.8254 41.212C48.8254 40.572 49.0774 40.08 49.5814 39.736C50.0854 39.384 50.8614 39.192 51.9094 39.16L53.0014 39.124V38.74C53.0014 38.204 52.8854 37.832 52.6534 37.624C52.4214 37.416 52.0934 37.312 51.6694 37.312C51.3334 37.312 51.0134 37.364 50.7094 37.468C50.4054 37.564 50.1214 37.676 49.8574 37.804L49.5334 37.012C49.8134 36.86 50.1454 36.732 50.5294 36.628C50.9134 36.516 51.3134 36.46 51.7294 36.46ZM52.0414 39.892C51.2414 39.924 50.6854 40.052 50.3734 40.276C50.0694 40.5 49.9174 40.816 49.9174 41.224C49.9174 41.584 50.0254 41.848 50.2414 42.016C50.4654 42.184 50.7494 42.268 51.0934 42.268C51.6374 42.268 52.0894 42.12 52.4494 41.824C52.8094 41.52 52.9894 41.056 52.9894 40.432V39.856L52.0414 39.892ZM57.712 36.448C58.2 36.448 58.624 36.516 58.984 36.652C59.344 36.78 59.624 36.972 59.824 37.228C60.024 37.476 60.124 37.78 60.124 38.14C60.124 38.532 60.016 38.844 59.8 39.076C59.584 39.3 59.288 39.464 58.912 39.568V39.616C59.168 39.688 59.404 39.788 59.62 39.916C59.836 40.044 60.008 40.212 60.136 40.42C60.272 40.628 60.34 40.896 60.34 41.224C60.34 41.576 60.24 41.896 60.04 42.184C59.848 42.472 59.548 42.7 59.14 42.868C58.74 43.036 58.224 43.12 57.592 43.12C57.288 43.12 56.996 43.104 56.716 43.072C56.444 43.04 56.196 42.992 55.972 42.928C55.756 42.864 55.564 42.788 55.396 42.7V41.752C55.668 41.88 55.988 41.996 56.356 42.1C56.732 42.204 57.14 42.256 57.58 42.256C57.9 42.256 58.188 42.22 58.444 42.148C58.708 42.076 58.916 41.964 59.068 41.812C59.22 41.652 59.296 41.436 59.296 41.164C59.296 40.916 59.228 40.716 59.092 40.564C58.956 40.404 58.752 40.284 58.48 40.204C58.216 40.124 57.876 40.084 57.46 40.084H56.596V39.22H57.292C57.844 39.22 58.284 39.148 58.612 39.004C58.948 38.852 59.116 38.596 59.116 38.236C59.116 37.932 58.988 37.704 58.732 37.552C58.484 37.4 58.124 37.324 57.652 37.324C57.3 37.324 56.988 37.36 56.716 37.432C56.452 37.496 56.16 37.596 55.84 37.732L55.468 36.892C55.812 36.74 56.172 36.628 56.548 36.556C56.924 36.484 57.312 36.448 57.712 36.448ZM68.8028 36.568V43H67.8548V38.896C67.8548 38.728 67.8588 38.552 67.8668 38.368C67.8828 38.184 67.8988 38.004 67.9148 37.828H67.8788L65.7788 43H64.8908L62.8508 37.828H62.8148C62.8308 38.004 62.8388 38.184 62.8388 38.368C62.8468 38.552 62.8508 38.74 62.8508 38.932V43H61.9028V36.568H63.3068L65.3348 41.74L67.3988 36.568H68.8028ZM73.3399 36.448C73.8919 36.448 74.3639 36.568 74.7559 36.808C75.1559 37.048 75.4599 37.388 75.6679 37.828C75.8839 38.26 75.9919 38.768 75.9919 39.352V39.988H71.5879C71.6039 40.716 71.7879 41.272 72.1399 41.656C72.4999 42.032 72.9999 42.22 73.6399 42.22C74.0479 42.22 74.4079 42.184 74.7199 42.112C75.0399 42.032 75.3679 41.92 75.7039 41.776V42.7C75.3759 42.844 75.0519 42.948 74.7319 43.012C74.4119 43.084 74.0319 43.12 73.5919 43.12C72.9839 43.12 72.4439 42.996 71.9719 42.748C71.5079 42.5 71.1439 42.132 70.8799 41.644C70.6239 41.148 70.4959 40.544 70.4959 39.832C70.4959 39.128 70.6119 38.524 70.8439 38.02C71.0839 37.516 71.4159 37.128 71.8399 36.856C72.2719 36.584 72.7719 36.448 73.3399 36.448ZM73.3279 37.312C72.8239 37.312 72.4239 37.476 72.1279 37.804C71.8399 38.124 71.6679 38.572 71.6119 39.148H74.8879C74.8879 38.78 74.8319 38.46 74.7199 38.188C74.6079 37.916 74.4359 37.704 74.2039 37.552C73.9799 37.392 73.6879 37.312 73.3279 37.312ZM80.6894 36.448C81.4814 36.448 82.1174 36.724 82.5974 37.276C83.0854 37.828 83.3294 38.66 83.3294 39.772C83.3294 40.5 83.2174 41.116 82.9934 41.62C82.7774 42.116 82.4694 42.492 82.0694 42.748C81.6774 42.996 81.2134 43.12 80.6774 43.12C80.3494 43.12 80.0574 43.076 79.8014 42.988C79.5454 42.9 79.3254 42.788 79.1414 42.652C78.9654 42.508 78.8134 42.352 78.6854 42.184H78.6134C78.6294 42.32 78.6454 42.492 78.6614 42.7C78.6774 42.908 78.6854 43.088 78.6854 43.24V45.88H77.6294V36.568H78.4934L78.6374 37.444H78.6854C78.8134 37.26 78.9654 37.092 79.1414 36.94C79.3254 36.788 79.5414 36.668 79.7894 36.58C80.0454 36.492 80.3454 36.448 80.6894 36.448ZM80.4974 37.336C80.0654 37.336 79.7174 37.42 79.4534 37.588C79.1894 37.748 78.9974 37.992 78.8774 38.32C78.7574 38.648 78.6934 39.064 78.6854 39.568V39.772C78.6854 40.3 78.7414 40.748 78.8534 41.116C78.9654 41.484 79.1534 41.764 79.4174 41.956C79.6894 42.148 80.0574 42.244 80.5214 42.244C80.9134 42.244 81.2334 42.136 81.4814 41.92C81.7374 41.704 81.9254 41.412 82.0454 41.044C82.1734 40.668 82.2374 40.24 82.2374 39.76C82.2374 39.024 82.0934 38.436 81.8054 37.996C81.5254 37.556 81.0894 37.336 80.4974 37.336Z" fill="#EBF2FF"/>
</svg>
