<svg width="125" height="46" viewBox="0 0 125 46" fill="none" xmlns="http://www.w3.org/2000/svg">
<path fill-rule="evenodd" clip-rule="evenodd" d="M62 6C56.4778 6 52 10.4778 52 16C52 21.5222 56.4778 26 62 26C62.9222 26 63.6667 25.2556 63.6667 24.3333C63.6667 23.9 63.5 23.5111 63.2333 23.2111C62.9778 22.9222 62.8111 22.5333 62.8111 22.1111C62.8111 21.1889 63.5556 20.4444 64.4778 20.4444H66.4444C69.5111 20.4444 72 17.9556 72 14.8889C72 9.97778 67.5222 6 62 6ZM55.8876 16.0002C54.9654 16.0002 54.221 15.2558 54.221 14.3336C54.221 13.4113 54.9654 12.6669 55.8876 12.6669C56.8099 12.6669 57.5543 13.4113 57.5543 14.3336C57.5543 15.2558 56.8099 16.0002 55.8876 16.0002ZM59.2228 11.5557C58.3006 11.5557 57.5562 10.8113 57.5562 9.88904C57.5562 8.96682 58.3006 8.22238 59.2228 8.22238C60.1451 8.22238 60.8895 8.96682 60.8895 9.88904C60.8895 10.8113 60.1451 11.5557 59.2228 11.5557ZM64.779 11.5557C63.8568 11.5557 63.1124 10.8113 63.1124 9.88904C63.1124 8.96682 63.8568 8.22238 64.779 8.22238C65.7012 8.22238 66.4457 8.96682 66.4457 9.88904C66.4457 10.8113 65.7012 11.5557 64.779 11.5557ZM68.1105 16.0002C67.1883 16.0002 66.4438 15.2558 66.4438 14.3336C66.4438 13.4113 67.1883 12.6669 68.1105 12.6669C69.0327 12.6669 69.7772 13.4113 69.7772 14.3336C69.7772 15.2558 69.0327 16.0002 68.1105 16.0002Z" fill="#EBF2FF"/>
<path d="M49.8048 35.26C49.3488 35.26 48.9368 35.34 48.5688 35.5C48.2008 35.652 47.8888 35.88 47.6328 36.184C47.3768 36.48 47.1808 36.844 47.0448 37.276C46.9088 37.7 46.8408 38.18 46.8408 38.716C46.8408 39.42 46.9488 40.032 47.1648 40.552C47.3888 41.072 47.7168 41.472 48.1488 41.752C48.5888 42.032 49.1368 42.172 49.7928 42.172C50.1688 42.172 50.5248 42.14 50.8608 42.076C51.1968 42.012 51.5248 41.932 51.8448 41.836V42.772C51.5248 42.892 51.1928 42.98 50.8488 43.036C50.5128 43.092 50.1088 43.12 49.6368 43.12C48.7648 43.12 48.0368 42.94 47.4528 42.58C46.8688 42.22 46.4288 41.708 46.1328 41.044C45.8448 40.38 45.7008 39.6 45.7008 38.704C45.7008 38.056 45.7888 37.464 45.9648 36.928C46.1488 36.392 46.4128 35.928 46.7568 35.536C47.1088 35.144 47.5408 34.844 48.0527 34.636C48.5648 34.42 49.1528 34.312 49.8168 34.312C50.2568 34.312 50.6808 34.356 51.0888 34.444C51.4968 34.532 51.8608 34.656 52.1808 34.816L51.7487 35.728C51.4848 35.608 51.1888 35.5 50.8608 35.404C50.5408 35.308 50.1888 35.26 49.8048 35.26ZM58.0108 37.456H55.9108V43H54.8668V37.456H52.7908V36.568H58.0108V37.456ZM60.2738 40.492C60.2738 40.564 60.2698 40.668 60.2618 40.804C60.2618 40.932 60.2578 41.072 60.2498 41.224C60.2418 41.368 60.2338 41.508 60.2258 41.644C60.2178 41.772 60.2098 41.876 60.2018 41.956L63.6458 36.568H64.9418V43H63.9578V39.208C63.9578 39.08 63.9578 38.912 63.9578 38.704C63.9658 38.496 63.9738 38.292 63.9818 38.092C63.9898 37.884 63.9978 37.728 64.0058 37.624L60.5858 43H59.2778V36.568H60.2738V40.492ZM71.8848 43H70.8168V37.444H68.9208C68.8408 38.46 68.7408 39.328 68.6208 40.048C68.5008 40.76 68.3488 41.34 68.1648 41.788C67.9808 42.236 67.7608 42.564 67.5048 42.772C67.2488 42.98 66.9488 43.084 66.6048 43.084C66.5008 43.084 66.3968 43.076 66.2928 43.06C66.1968 43.052 66.1168 43.032 66.0528 43V42.208C66.1008 42.224 66.1528 42.236 66.2088 42.244C66.2648 42.252 66.3208 42.256 66.3768 42.256C66.5528 42.256 66.7128 42.184 66.8568 42.04C67.0008 41.896 67.1288 41.676 67.2408 41.38C67.3608 41.084 67.4688 40.712 67.5648 40.264C67.6608 39.808 67.7448 39.272 67.8168 38.656C67.8888 38.04 67.9528 37.344 68.0088 36.568H71.8848V43ZM76.8903 39.208C77.4503 39.208 77.9143 39.276 78.2823 39.412C78.6503 39.548 78.9263 39.752 79.1103 40.024C79.3023 40.288 79.3983 40.624 79.3983 41.032C79.3983 41.432 79.3063 41.78 79.1223 42.076C78.9463 42.372 78.6703 42.6 78.2943 42.76C77.9183 42.92 77.4343 43 76.8423 43H73.9263V36.568H74.9823V39.208H76.8903ZM78.3423 41.092C78.3423 40.7 78.2023 40.436 77.9223 40.3C77.6503 40.156 77.2663 40.084 76.7703 40.084H74.9823V42.148H76.7943C77.2423 42.148 77.6103 42.068 77.8983 41.908C78.1943 41.748 78.3423 41.476 78.3423 41.092Z" fill="#EBF2FF"/>
</svg>
