<svg width="125" height="46" viewBox="0 0 125 46" fill="none" xmlns="http://www.w3.org/2000/svg">
<path fill-rule="evenodd" clip-rule="evenodd" d="M51 9.68015C51 10.6098 51.7505 11.3603 52.6802 11.3603H56.6005V23.1214C56.6005 24.0511 57.351 24.8015 58.2807 24.8015C59.2104 24.8015 59.9608 24.0511 59.9608 23.1214V11.3603H63.8812C64.8109 11.3603 65.5613 10.6098 65.5613 9.68015C65.5613 8.75047 64.8109 8 63.8812 8H52.6802C51.7505 8 51 8.75047 51 9.68015ZM71.6498 13.6006H64.9292C63.9995 13.6006 63.2491 14.3511 63.2491 15.2808C63.2491 16.2105 63.9995 16.9609 64.9292 16.9609H66.6094V23.1215C66.6094 24.0512 67.3599 24.8016 68.2895 24.8016C69.2192 24.8016 69.9697 24.0512 69.9697 23.1215V16.9609H71.6498C72.5795 16.9609 73.33 16.2105 73.33 15.2808C73.33 14.3511 72.5795 13.6006 71.6498 13.6006Z" fill="white"/>
<path d="M51.2823 43H50.2023V35.38H47.5263V34.432H53.9463V35.38H51.2823V43ZM56.7345 36.448C57.2865 36.448 57.7585 36.568 58.1505 36.808C58.5505 37.048 58.8545 37.388 59.0625 37.828C59.2785 38.26 59.3865 38.768 59.3865 39.352V39.988H54.9825C54.9985 40.716 55.1825 41.272 55.5345 41.656C55.8945 42.032 56.3945 42.22 57.0345 42.22C57.4425 42.22 57.8025 42.184 58.1145 42.112C58.4345 42.032 58.7625 41.92 59.0985 41.776V42.7C58.7705 42.844 58.4465 42.948 58.1265 43.012C57.8065 43.084 57.4265 43.12 56.9865 43.12C56.3785 43.12 55.8385 42.996 55.3665 42.748C54.9025 42.5 54.5385 42.132 54.2745 41.644C54.0185 41.148 53.8905 40.544 53.8905 39.832C53.8905 39.128 54.0065 38.524 54.2385 38.02C54.4785 37.516 54.8105 37.128 55.2345 36.856C55.6665 36.584 56.1665 36.448 56.7345 36.448ZM56.7225 37.312C56.2185 37.312 55.8185 37.476 55.5225 37.804C55.2345 38.124 55.0625 38.572 55.0065 39.148H58.2825C58.2825 38.78 58.2265 38.46 58.1145 38.188C58.0025 37.916 57.8305 37.704 57.5985 37.552C57.3745 37.392 57.0825 37.312 56.7225 37.312ZM64.8279 36.568H65.9799L63.2319 39.664L66.2079 43H64.9839L62.0799 39.736V43H61.0239V36.568H62.0799V39.688L64.8279 36.568ZM69.7211 43.12C69.1531 43.12 68.6451 43.004 68.1971 42.772C67.7571 42.54 67.4091 42.18 67.1531 41.692C66.9051 41.204 66.7811 40.58 66.7811 39.82C66.7811 39.028 66.9131 38.384 67.1771 37.888C67.4411 37.392 67.7971 37.028 68.2451 36.796C68.7011 36.564 69.2171 36.448 69.7931 36.448C70.1211 36.448 70.4371 36.484 70.7411 36.556C71.0451 36.62 71.2931 36.7 71.4851 36.796L71.1611 37.672C70.9691 37.6 70.7451 37.532 70.4891 37.468C70.2331 37.404 69.9931 37.372 69.7691 37.372C69.3371 37.372 68.9811 37.464 68.7011 37.648C68.4211 37.832 68.2131 38.104 68.0771 38.464C67.9411 38.824 67.8731 39.272 67.8731 39.808C67.8731 40.32 67.9411 40.756 68.0771 41.116C68.2131 41.476 68.4171 41.748 68.6891 41.932C68.9611 42.116 69.3011 42.208 69.7091 42.208C70.0611 42.208 70.3691 42.172 70.6331 42.1C70.9051 42.028 71.1531 41.94 71.3771 41.836V42.772C71.1611 42.884 70.9211 42.968 70.6571 43.024C70.4011 43.088 70.0891 43.12 69.7211 43.12ZM77.3467 37.456H75.2467V43H74.2027V37.456H72.1267V36.568H77.3467V37.456Z" fill="white"/>
</svg>
