<svg width="16" height="16" viewBox="0 0 16 16" fill="none" xmlns="http://www.w3.org/2000/svg">
<g clip-path="url(#clip0_332_2410)">
<path d="M14.6673 2.66667H11.334V1.33333C11.334 0.979711 11.1935 0.640573 10.9435 0.390524C10.6934 0.140476 10.3543 0 10.0007 0L6.00065 0C5.64703 0 5.30789 0.140476 5.05784 0.390524C4.80779 0.640573 4.66732 0.979711 4.66732 1.33333V2.66667H1.33398V4H2.66732V14C2.66732 14.5304 2.87803 15.0391 3.2531 15.4142C3.62818 15.7893 4.13688 16 4.66732 16H11.334C11.8644 16 12.3731 15.7893 12.7482 15.4142C13.1233 15.0391 13.334 14.5304 13.334 14V4H14.6673V2.66667ZM6.00065 1.33333H10.0007V2.66667H6.00065V1.33333ZM12.0007 14C12.0007 14.1768 11.9304 14.3464 11.8054 14.4714C11.6804 14.5964 11.5108 14.6667 11.334 14.6667H4.66732C4.49051 14.6667 4.32094 14.5964 4.19591 14.4714C4.07089 14.3464 4.00065 14.1768 4.00065 14V4H12.0007V14Z" fill="#F94A4A"/>
<path d="M7.33333 6.6665H6V11.9998H7.33333V6.6665Z" fill="#F94A4A"/>
<path d="M10.0003 6.6665H8.66699V11.9998H10.0003V6.6665Z" fill="#F94A4A"/>
</g>
<defs>
<clipPath id="clip0_332_2410">
<rect width="16" height="16" fill="white"/>
</clipPath>
</defs>
</svg>
