<svg width="80" height="80" viewBox="0 0 80 80" fill="none" xmlns="http://www.w3.org/2000/svg">
<path d="M63.3333 16.6668H56.41C55.29 10.3235 50.5667 5.08683 44.1633 3.44016C42.4 2.9835 40.5667 4.05683 40.1033 5.83683C39.6433 7.62016 40.72 9.43683 42.5033 9.8935C46.9167 11.0302 50 15.0135 50 19.5802V56.6668H13.3333C9.65667 56.6668 6.66667 53.6768 6.66667 50.0002V36.6668H15C16.8433 36.6668 18.3333 35.1735 18.3333 33.3335C18.3333 31.4935 16.8433 30.0002 15 30.0002H6.66667C2.99 30.0002 0 32.9902 0 36.6668V50.0002C0 56.2668 4.34667 61.5368 10.1833 62.9568C10.0633 63.6268 10 64.3102 10 65.0002C10 71.4335 15.2333 76.6668 21.6667 76.6668C28.1 76.6668 33.3333 71.4335 33.3333 65.0002C33.3333 64.4368 33.29 63.8835 33.21 63.3335H46.79C46.71 63.8835 46.6667 64.4368 46.6667 65.0002C46.6667 71.4335 51.9 76.6668 58.3333 76.6668C64.7667 76.6668 70 71.4335 70 65.0002C70 64.3102 69.9367 63.6268 69.8167 62.9568C75.6533 61.5368 80 56.2668 80 50.0002V33.3335C80 24.1435 72.5233 16.6668 63.3333 16.6668ZM73.3333 33.3335V36.6668H56.6667V23.3335H63.3333C68.8467 23.3335 73.3333 27.8202 73.3333 33.3335ZM26.6667 65.0002C26.6667 67.7568 24.4233 70.0002 21.6667 70.0002C18.91 70.0002 16.6667 67.7568 16.6667 65.0002C16.6667 64.3702 16.79 63.8135 16.97 63.3335H26.3667C26.5467 63.8135 26.67 64.3702 26.67 65.0002H26.6667ZM58.3333 70.0002C55.5767 70.0002 53.3333 67.7568 53.3333 65.0002C53.3333 64.3702 53.4567 63.8135 53.6367 63.3335H63.0333C63.2133 63.8135 63.3367 64.3702 63.3367 65.0002C63.3367 67.7568 61.09 70.0002 58.3333 70.0002ZM66.6667 56.6668H56.6667V43.3335H73.3333V50.0002C73.3333 53.6768 70.3433 56.6668 66.6667 56.6668ZM0 6.66683C0 4.82683 1.49 3.3335 3.33333 3.3335H30.5133C32.3567 3.3335 33.8467 4.82683 33.8467 6.66683C33.8467 8.50683 32.3567 10.0002 30.5133 10.0002H3.33333C1.49 10.0002 0 8.50683 0 6.66683ZM0 20.0002C0 18.1602 1.49 16.6668 3.33333 16.6668H23.8467C25.69 16.6668 27.18 18.1602 27.18 20.0002C27.18 21.8402 25.69 23.3335 23.8467 23.3335H3.33333C1.49 23.3335 0 21.8402 0 20.0002Z" fill="#829D50"/>
</svg>
